<svg width="19" height="18" viewBox="0 0 19 18" fill="none" xmlns="http://www.w3.org/2000/svg">
<path d="M9.6665 2.25H12.8165C14.0766 2.25 14.7067 2.25 15.188 2.49524C15.6113 2.71095 15.9556 3.05516 16.1713 3.47852C16.4165 3.95982 16.4165 4.58988 16.4165 5.85V12.15C16.4165 13.4101 16.4165 14.0402 16.1713 14.5215C15.9556 14.9448 15.6113 15.289 15.188 15.5048C14.7067 15.75 14.0766 15.75 12.8165 15.75H6.5165C5.25639 15.75 4.62633 15.75 4.14503 15.5048C3.72166 15.289 3.37745 14.9448 3.16174 14.5215C2.9165 14.0402 2.9165 13.4101 2.9165 12.15V9M6.6665 9.75V12.75M12.6665 8.25V12.75M9.6665 5.25V12.75M2.1665 3.75L4.4165 1.5M4.4165 1.5L6.6665 3.75M4.4165 1.5L4.4165 6" stroke="#E06E58" stroke-width="1.50667" stroke-linecap="round" stroke-linejoin="round"/>
</svg>
