<svg width="19" height="18" viewBox="0 0 19 18" fill="none" xmlns="http://www.w3.org/2000/svg">
<path d="M16.8333 9H13.8333M4.83325 9H1.83325M9.33325 4.5V1.5M9.33325 16.5V13.5M15.3333 9C15.3333 12.3137 12.647 15 9.33325 15C6.01954 15 3.33325 12.3137 3.33325 9C3.33325 5.68629 6.01954 3 9.33325 3C12.647 3 15.3333 5.68629 15.3333 9ZM11.5833 9C11.5833 10.2426 10.5759 11.25 9.33325 11.25C8.09061 11.25 7.08325 10.2426 7.08325 9C7.08325 7.75736 8.09061 6.75 9.33325 6.75C10.5759 6.75 11.5833 7.75736 11.5833 9Z" stroke="#E06E58" stroke-width="1.50667" stroke-linecap="round" stroke-linejoin="round"/>
</svg>
