<svg width="892" height="175" viewBox="0 0 892 175" fill="none" xmlns="http://www.w3.org/2000/svg">
<path d="M0 8C0 3.58172 3.58172 0 8 0H884C888.418 0 892 3.58172 892 8V167C892 171.418 888.418 175 884 175H7.99998C3.58171 175 0 171.418 0 167V8Z" fill="#F9F7F6"/>
<path d="M0.5 8C0.5 3.85786 3.85786 0.5 8 0.5H884C888.142 0.5 891.5 3.85786 891.5 8V167C891.5 171.142 888.142 174.5 884 174.5H7.99998C3.85785 174.5 0.5 171.142 0.5 167V8Z" stroke="url(#paint0_linear_25_5231)" stroke-opacity="0.5"/>
<path d="M18.8516 25.7784V20.9773H19.8068V25.7784H18.8516ZM16.9304 23.8537V22.902H21.7315V23.8537H16.9304ZM25.619 19.7273V27H24.5181V20.8281H24.4755L22.7354 21.9645V20.9134L24.5501 19.7273H25.619ZM29.6183 27.1207C29.0572 27.1184 28.5778 26.9704 28.18 26.6768C27.7823 26.3833 27.4781 25.956 27.2674 25.3949C27.0567 24.8338 26.9513 24.1579 26.9513 23.3672C26.9513 22.5788 27.0567 21.9053 27.2674 21.3466C27.4805 20.7879 27.7859 20.3617 28.1836 20.0682C28.5837 19.7746 29.0619 19.6278 29.6183 19.6278C30.1746 19.6278 30.6516 19.7758 31.0494 20.0717C31.4471 20.3653 31.7513 20.7914 31.962 21.3501C32.1751 21.9065 32.2816 22.5788 32.2816 23.3672C32.2816 24.1603 32.1763 24.8374 31.9656 25.3984C31.7549 25.9571 31.4506 26.3845 31.0529 26.6804C30.6552 26.974 30.177 27.1207 29.6183 27.1207ZM29.6183 26.1726C30.1107 26.1726 30.4954 25.9323 30.7724 25.4517C31.0517 24.9711 31.1914 24.2763 31.1914 23.3672C31.1914 22.7635 31.1275 22.2533 30.9996 21.8366C30.8742 21.4176 30.6931 21.1004 30.4563 20.8849C30.2219 20.6671 29.9426 20.5582 29.6183 20.5582C29.1282 20.5582 28.7435 20.7997 28.4641 21.2827C28.1848 21.7656 28.0439 22.4605 28.0415 23.3672C28.0415 23.9732 28.1043 24.4858 28.2298 24.9048C28.3576 25.3215 28.5387 25.6375 28.7731 25.853C29.0075 26.0661 29.2892 26.1726 29.6183 26.1726ZM33.9682 19.7273V20.4091C33.9682 20.6103 33.9303 20.8222 33.8546 21.0447C33.7812 21.2649 33.677 21.4768 33.5421 21.6804C33.4071 21.884 33.2485 22.0592 33.0662 22.206L32.5407 21.8295C32.6803 21.6259 32.8011 21.4093 32.9029 21.1797C33.007 20.95 33.0591 20.6967 33.0591 20.4197V19.7273H33.9682ZM36.6065 27.1207C36.0455 27.1184 35.5661 26.9704 35.1683 26.6768C34.7706 26.3833 34.4664 25.956 34.2557 25.3949C34.045 24.8338 33.9396 24.1579 33.9396 23.3672C33.9396 22.5788 34.045 21.9053 34.2557 21.3466C34.4688 20.7879 34.7741 20.3617 35.1719 20.0682C35.572 19.7746 36.0502 19.6278 36.6065 19.6278C37.1629 19.6278 37.6399 19.7758 38.0376 20.0717C38.4354 20.3653 38.7396 20.7914 38.9503 21.3501C39.1634 21.9065 39.2699 22.5788 39.2699 23.3672C39.2699 24.1603 39.1645 24.8374 38.9538 25.3984C38.7431 25.9571 38.4389 26.3845 38.0412 26.6804C37.6435 26.974 37.1652 27.1207 36.6065 27.1207ZM36.6065 26.1726C37.099 26.1726 37.4837 25.9323 37.7607 25.4517C38.04 24.9711 38.1797 24.2763 38.1797 23.3672C38.1797 22.7635 38.1158 22.2533 37.9879 21.8366C37.8625 21.4176 37.6813 21.1004 37.4446 20.8849C37.2102 20.6671 36.9309 20.5582 36.6065 20.5582C36.1165 20.5582 35.7318 20.7997 35.4524 21.2827C35.1731 21.7656 35.0322 22.4605 35.0298 23.3672C35.0298 23.9732 35.0926 24.4858 35.218 24.9048C35.3459 25.3215 35.527 25.6375 35.7614 25.853C35.9957 26.0661 36.2775 26.1726 36.6065 26.1726ZM42.5616 27.1207C42.0005 27.1184 41.5211 26.9704 41.1234 26.6768C40.7257 26.3833 40.4215 25.956 40.2108 25.3949C40.0001 24.8338 39.8947 24.1579 39.8947 23.3672C39.8947 22.5788 40.0001 21.9053 40.2108 21.3466C40.4238 20.7879 40.7292 20.3617 41.127 20.0682C41.527 19.7746 42.0053 19.6278 42.5616 19.6278C43.118 19.6278 43.595 19.7758 43.9927 20.0717C44.3904 20.3653 44.6947 20.7914 44.9054 21.3501C45.1184 21.9065 45.225 22.5788 45.225 23.3672C45.225 24.1603 45.1196 24.8374 44.9089 25.3984C44.6982 25.9571 44.394 26.3845 43.9963 26.6804C43.5985 26.974 43.1203 27.1207 42.5616 27.1207ZM42.5616 26.1726C43.054 26.1726 43.4387 25.9323 43.7157 25.4517C43.9951 24.9711 44.1348 24.2763 44.1348 23.3672C44.1348 22.7635 44.0708 22.2533 43.943 21.8366C43.8175 21.4176 43.6364 21.1004 43.3997 20.8849C43.1653 20.6671 42.8859 20.5582 42.5616 20.5582C42.0716 20.5582 41.6868 20.7997 41.4075 21.2827C41.1281 21.7656 40.9873 22.4605 40.9849 23.3672C40.9849 23.9732 41.0476 24.4858 41.1731 24.9048C41.301 25.3215 41.4821 25.6375 41.7164 25.853C41.9508 26.0661 42.2325 26.1726 42.5616 26.1726ZM48.5167 27.1207C47.9556 27.1184 47.4762 26.9704 47.0785 26.6768C46.6808 26.3833 46.3765 25.956 46.1658 25.3949C45.9551 24.8338 45.8498 24.1579 45.8498 23.3672C45.8498 22.5788 45.9551 21.9053 46.1658 21.3466C46.3789 20.7879 46.6843 20.3617 47.082 20.0682C47.4821 19.7746 47.9603 19.6278 48.5167 19.6278C49.073 19.6278 49.5501 19.7758 49.9478 20.0717C50.3455 20.3653 50.6497 20.7914 50.8604 21.3501C51.0735 21.9065 51.18 22.5788 51.18 23.3672C51.18 24.1603 51.0747 24.8374 50.864 25.3984C50.6533 25.9571 50.3491 26.3845 49.9513 26.6804C49.5536 26.974 49.0754 27.1207 48.5167 27.1207ZM48.5167 26.1726C49.0091 26.1726 49.3938 25.9323 49.6708 25.4517C49.9502 24.9711 50.0898 24.2763 50.0898 23.3672C50.0898 22.7635 50.0259 22.2533 49.8981 21.8366C49.7726 21.4176 49.5915 21.1004 49.3548 20.8849C49.1204 20.6671 48.841 20.5582 48.5167 20.5582C48.0266 20.5582 47.6419 20.7997 47.3626 21.2827C47.0832 21.7656 46.9424 22.4605 46.94 23.3672C46.94 23.9732 47.0027 24.4858 47.1282 24.9048C47.256 25.3215 47.4371 25.6375 47.6715 25.853C47.9059 26.0661 48.1876 26.1726 48.5167 26.1726ZM54.1857 27V19.7273H58.6957V20.6719H55.283V22.8878H58.3725V23.8288H55.283V27H54.1857ZM61.3571 27.1101C60.8457 27.1101 60.3994 26.9929 60.0183 26.7585C59.6371 26.5241 59.3412 26.1963 59.1305 25.7749C58.9198 25.3535 58.8145 24.861 58.8145 24.2976C58.8145 23.7318 58.9198 23.237 59.1305 22.8132C59.3412 22.3894 59.6371 22.0604 60.0183 21.826C60.3994 21.5916 60.8457 21.4744 61.3571 21.4744C61.8684 21.4744 62.3147 21.5916 62.6958 21.826C63.077 22.0604 63.3729 22.3894 63.5836 22.8132C63.7943 23.237 63.8997 23.7318 63.8997 24.2976C63.8997 24.861 63.7943 25.3535 63.5836 25.7749C63.3729 26.1963 63.077 26.5241 62.6958 26.7585C62.3147 26.9929 61.8684 27.1101 61.3571 27.1101ZM61.3606 26.2188C61.6921 26.2188 61.9667 26.1312 62.1845 25.956C62.4023 25.7808 62.5633 25.5476 62.6674 25.2564C62.774 24.9652 62.8272 24.6444 62.8272 24.294C62.8272 23.946 62.774 23.6264 62.6674 23.3352C62.5633 23.0417 62.4023 22.8061 62.1845 22.6286C61.9667 22.451 61.6921 22.3622 61.3606 22.3622C61.0268 22.3622 60.7498 22.451 60.5297 22.6286C60.3118 22.8061 60.1497 23.0417 60.0431 23.3352C59.939 23.6264 59.8869 23.946 59.8869 24.294C59.8869 24.6444 59.939 24.9652 60.0431 25.2564C60.1497 25.5476 60.3118 25.7808 60.5297 25.956C60.7498 26.1312 61.0268 26.2188 61.3606 26.2188ZM65.6467 19.7273V27H64.5849V19.7273H65.6467ZM67.6369 19.7273V27H66.5751V19.7273H67.6369ZM70.8629 27.1101C70.3516 27.1101 69.9053 26.9929 69.5241 26.7585C69.143 26.5241 68.8471 26.1963 68.6364 25.7749C68.4257 25.3535 68.3203 24.861 68.3203 24.2976C68.3203 23.7318 68.4257 23.237 68.6364 22.8132C68.8471 22.3894 69.143 22.0604 69.5241 21.826C69.9053 21.5916 70.3516 21.4744 70.8629 21.4744C71.3743 21.4744 71.8205 21.5916 72.2017 21.826C72.5829 22.0604 72.8788 22.3894 73.0895 22.8132C73.3002 23.237 73.4055 23.7318 73.4055 24.2976C73.4055 24.861 73.3002 25.3535 73.0895 25.7749C72.8788 26.1963 72.5829 26.5241 72.2017 26.7585C71.8205 26.9929 71.3743 27.1101 70.8629 27.1101ZM70.8665 26.2188C71.1979 26.2188 71.4725 26.1312 71.6903 25.956C71.9081 25.7808 72.0691 25.5476 72.1733 25.2564C72.2798 24.9652 72.3331 24.6444 72.3331 24.294C72.3331 23.946 72.2798 23.6264 72.1733 23.3352C72.0691 23.0417 71.9081 22.8061 71.6903 22.6286C71.4725 22.451 71.1979 22.3622 70.8665 22.3622C70.5327 22.3622 70.2557 22.451 70.0355 22.6286C69.8177 22.8061 69.6555 23.0417 69.549 23.3352C69.4448 23.6264 69.3928 23.946 69.3928 24.294C69.3928 24.6444 69.4448 24.9652 69.549 25.2564C69.6555 25.5476 69.8177 25.7808 70.0355 25.956C70.2557 26.1312 70.5327 26.2188 70.8665 26.2188ZM75.1072 27L73.5021 21.5455H74.5994L75.6683 25.5511H75.7216L76.794 21.5455H77.8913L78.9567 25.5334H79.0099L80.0717 21.5455H81.169L79.5675 27H78.4844L77.3764 23.0618H77.2947L76.1868 27H75.1072ZM83.8615 27.1101C83.3241 27.1101 82.8613 26.9953 82.473 26.7656C82.0871 26.5336 81.7888 26.2081 81.5781 25.7891C81.3698 25.3677 81.2656 24.8741 81.2656 24.3082C81.2656 23.7495 81.3698 23.2571 81.5781 22.831C81.7888 22.4048 82.0824 22.0722 82.4588 21.8331C82.8376 21.594 83.2803 21.4744 83.7869 21.4744C84.0947 21.4744 84.393 21.5253 84.6818 21.6271C84.9706 21.7289 85.2299 21.8887 85.4595 22.1065C85.6892 22.3243 85.8703 22.6072 86.0028 22.9553C86.1354 23.3009 86.2017 23.7211 86.2017 24.2159V24.5923H81.8658V23.7969H85.1612C85.1612 23.5175 85.1044 23.2701 84.9908 23.0547C84.8771 22.8369 84.7173 22.6652 84.5114 22.5398C84.3078 22.4143 84.0687 22.3516 83.794 22.3516C83.4957 22.3516 83.2353 22.425 83.0128 22.5717C82.7926 22.7161 82.6222 22.9055 82.5014 23.1399C82.383 23.3719 82.3239 23.6241 82.3239 23.8963V24.5178C82.3239 24.8823 82.3878 25.1925 82.5156 25.4482C82.6458 25.7038 82.8269 25.8991 83.0589 26.0341C83.291 26.1667 83.562 26.233 83.8722 26.233C84.0734 26.233 84.2569 26.2045 84.4226 26.1477C84.5883 26.0885 84.7315 26.0009 84.8523 25.8849C84.973 25.7689 85.0653 25.6257 85.1293 25.4553L86.1342 25.6364C86.0537 25.9323 85.9093 26.1915 85.701 26.4141C85.495 26.6342 85.2358 26.8059 84.9233 26.929C84.6132 27.0497 84.2592 27.1101 83.8615 27.1101ZM86.8798 27V21.5455H87.9061V22.4119H87.9629C88.0623 22.1184 88.2375 21.8875 88.4885 21.7195C88.7418 21.549 89.0282 21.4638 89.3478 21.4638C89.4141 21.4638 89.4922 21.4661 89.5822 21.4709C89.6745 21.4756 89.7467 21.4815 89.7988 21.4886V22.5043C89.7562 22.4924 89.6805 22.4794 89.5716 22.4652C89.4627 22.4486 89.3538 22.4403 89.2449 22.4403C88.9939 22.4403 88.7702 22.4936 88.5737 22.6001C88.3796 22.7043 88.2257 22.8499 88.112 23.0369C87.9984 23.2216 87.9416 23.4323 87.9416 23.669V27H86.8798ZM94.305 22.8771L93.3427 23.0476C93.3024 22.9245 93.2385 22.8073 93.1509 22.696C93.0657 22.5848 92.9497 22.4936 92.8029 22.4226C92.6561 22.3516 92.4727 22.3161 92.2525 22.3161C91.9518 22.3161 91.7009 22.3835 91.4996 22.5185C91.2984 22.651 91.1978 22.8227 91.1978 23.0334C91.1978 23.2157 91.2653 23.3625 91.4002 23.4737C91.5352 23.585 91.753 23.6761 92.0536 23.7472L92.9201 23.946C93.422 24.062 93.796 24.2408 94.0423 24.4822C94.2885 24.7237 94.4116 25.0374 94.4116 25.4233C94.4116 25.75 94.3169 26.0412 94.1275 26.2969C93.9405 26.5502 93.6789 26.7491 93.3427 26.8935C93.0089 27.0379 92.6218 27.1101 92.1815 27.1101C91.5707 27.1101 91.0723 26.9799 90.6864 26.7195C90.3005 26.4567 90.0638 26.0838 89.9762 25.6009L91.0025 25.4446C91.0664 25.7121 91.1978 25.9145 91.3967 26.0518C91.5955 26.1868 91.8548 26.2543 92.1744 26.2543C92.5224 26.2543 92.8005 26.1821 93.0089 26.0376C93.2172 25.8909 93.3214 25.7121 93.3214 25.5014C93.3214 25.331 93.2575 25.1877 93.1296 25.0717C93.0041 24.9557 92.8112 24.8681 92.5508 24.8089L91.6275 24.6065C91.1185 24.4905 90.7421 24.3059 90.4982 24.0526C90.2567 23.7992 90.136 23.4785 90.136 23.0902C90.136 22.7682 90.226 22.4865 90.4059 22.245C90.5858 22.0036 90.8344 21.8153 91.1516 21.6804C91.4689 21.5431 91.8323 21.4744 92.2418 21.4744C92.8313 21.4744 93.2953 21.6023 93.6339 21.858C93.9724 22.1113 94.1961 22.451 94.305 22.8771ZM99.9954 19.3864L97.6516 28.0938H96.7035L99.0472 19.3864H99.9954ZM104.983 27H102.629V19.7273H105.058C105.771 19.7273 106.383 19.8729 106.894 20.1641C107.405 20.4529 107.797 20.8684 108.069 21.4105C108.344 21.9503 108.481 22.5978 108.481 23.353C108.481 24.1106 108.343 24.7616 108.066 25.3061C107.791 25.8506 107.394 26.2696 106.873 26.5632C106.352 26.8544 105.722 27 104.983 27ZM103.726 26.0412H104.923C105.477 26.0412 105.938 25.937 106.305 25.7287C106.671 25.518 106.946 25.2138 107.128 24.8161C107.311 24.416 107.402 23.9283 107.402 23.353C107.402 22.7824 107.311 22.2983 107.128 21.9006C106.948 21.5028 106.68 21.201 106.322 20.995C105.965 20.7891 105.521 20.6861 104.991 20.6861H103.726V26.0412ZM110.848 27.1207C110.502 27.1207 110.19 27.0568 109.911 26.929C109.631 26.7988 109.41 26.6106 109.246 26.3643C109.085 26.1181 109.005 25.8163 109.005 25.4588C109.005 25.151 109.064 24.8977 109.183 24.6989C109.301 24.5 109.461 24.3426 109.662 24.2266C109.863 24.1106 110.088 24.023 110.337 23.9638C110.585 23.9046 110.839 23.8596 111.097 23.8288C111.423 23.791 111.688 23.7602 111.892 23.7365C112.096 23.7105 112.244 23.669 112.336 23.6122C112.428 23.5554 112.474 23.4631 112.474 23.3352V23.3104C112.474 23.0002 112.387 22.7599 112.212 22.5895C112.039 22.419 111.781 22.3338 111.438 22.3338C111.08 22.3338 110.798 22.4131 110.592 22.5717C110.389 22.728 110.248 22.902 110.17 23.0938L109.172 22.8665C109.29 22.535 109.463 22.2675 109.69 22.0639C109.92 21.858 110.184 21.7088 110.482 21.6165C110.781 21.5218 111.094 21.4744 111.423 21.4744C111.641 21.4744 111.872 21.5005 112.116 21.5526C112.362 21.6023 112.592 21.6946 112.805 21.8295C113.02 21.9645 113.196 22.1574 113.334 22.4084C113.471 22.657 113.54 22.9801 113.54 23.3778V27H112.503V26.2543H112.46C112.392 26.3916 112.289 26.5265 112.151 26.6591C112.014 26.7917 111.838 26.9018 111.622 26.9893C111.407 27.0769 111.149 27.1207 110.848 27.1207ZM111.079 26.2685C111.372 26.2685 111.623 26.2105 111.832 26.0945C112.042 25.9785 112.202 25.8269 112.311 25.6399C112.422 25.4505 112.478 25.2481 112.478 25.0327V24.3295C112.44 24.3674 112.367 24.4029 112.258 24.4361C112.151 24.4669 112.029 24.4941 111.892 24.5178C111.755 24.5391 111.621 24.5592 111.491 24.5781C111.361 24.5947 111.252 24.6089 111.164 24.6207C110.958 24.6468 110.77 24.6906 110.599 24.7521C110.431 24.8137 110.296 24.9025 110.195 25.0185C110.095 25.1321 110.045 25.2836 110.045 25.473C110.045 25.7358 110.143 25.9347 110.337 26.0696C110.531 26.2022 110.778 26.2685 111.079 26.2685ZM114.93 29.0455C114.771 29.0455 114.627 29.0324 114.497 29.0064C114.366 28.9827 114.269 28.9567 114.205 28.9283L114.461 28.0582C114.655 28.1103 114.828 28.1328 114.98 28.1257C115.131 28.1186 115.265 28.0618 115.381 27.9553C115.499 27.8487 115.603 27.6747 115.693 27.4332L115.825 27.071L113.829 21.5455H114.965L116.347 25.7784H116.404L117.785 21.5455H118.925L116.677 27.728C116.573 28.0121 116.44 28.2524 116.279 28.4489C116.118 28.6477 115.927 28.7969 115.704 28.8963C115.481 28.9957 115.223 29.0455 114.93 29.0455Z" fill="#464646"/>
<path d="M18.8516 68.7784V63.9773H19.8068V68.7784H18.8516ZM16.9304 66.8537V65.902H21.7315V66.8537H16.9304ZM25.2603 70.0994C24.8152 70.0994 24.4151 70.0142 24.06 69.8438C23.7073 69.6709 23.4255 69.4342 23.2148 69.1335C23.0041 68.8329 22.8917 68.4896 22.8775 68.1037H23.9428C23.9689 68.4162 24.1074 68.6731 24.3583 68.8743C24.6093 69.0755 24.9099 69.1761 25.2603 69.1761C25.5397 69.1761 25.7871 69.1122 26.0025 68.9844C26.2203 68.8542 26.3907 68.6754 26.5138 68.4482C26.6393 68.2209 26.7021 67.9616 26.7021 67.6705C26.7021 67.3745 26.6381 67.1106 26.5103 66.8786C26.3825 66.6465 26.2061 66.4643 25.9812 66.3317C25.7586 66.1991 25.503 66.1316 25.2141 66.1293C24.994 66.1293 24.7726 66.1671 24.5501 66.2429C24.3275 66.3187 24.1476 66.4181 24.0103 66.5412L23.0053 66.392L23.4137 62.7273H27.4123V63.6683H24.3263L24.0955 65.7031H24.1381C24.2802 65.5658 24.4684 65.451 24.7028 65.3587C24.9395 65.2663 25.1928 65.2202 25.4627 65.2202C25.9054 65.2202 26.2996 65.3255 26.6452 65.5362C26.9933 65.7469 27.2667 66.0346 27.4656 66.3991C27.6668 66.7614 27.7662 67.178 27.7638 67.6491C27.7662 68.1203 27.6597 68.5405 27.4442 68.9098C27.2312 69.2791 26.9353 69.5703 26.5565 69.7834C26.18 69.9941 25.748 70.0994 25.2603 70.0994ZM29.4877 62.7273V63.4091C29.4877 63.6103 29.4499 63.8222 29.3741 64.0447C29.3007 64.2649 29.1966 64.4768 29.0616 64.6804C28.9267 64.884 28.7681 65.0592 28.5858 65.206L28.0602 64.8295C28.1999 64.6259 28.3206 64.4093 28.4224 64.1797C28.5266 63.95 28.5787 63.6967 28.5787 63.4197V62.7273H29.4877ZM32.1261 70.1207C31.565 70.1184 31.0856 69.9704 30.6879 69.6768C30.2901 69.3833 29.9859 68.956 29.7752 68.3949C29.5645 67.8338 29.4592 67.1579 29.4592 66.3672C29.4592 65.5788 29.5645 64.9053 29.7752 64.3466C29.9883 63.7879 30.2937 63.3617 30.6914 63.0682C31.0915 62.7746 31.5697 62.6278 32.1261 62.6278C32.6824 62.6278 33.1594 62.7758 33.5572 63.0717C33.9549 63.3653 34.2591 63.7914 34.4698 64.3501C34.6829 64.9065 34.7894 65.5788 34.7894 66.3672C34.7894 67.1603 34.6841 67.8374 34.4734 68.3984C34.2627 68.9571 33.9585 69.3845 33.5607 69.6804C33.163 69.974 32.6848 70.1207 32.1261 70.1207ZM32.1261 69.1726C32.6185 69.1726 33.0032 68.9323 33.2802 68.4517C33.5595 67.9711 33.6992 67.2763 33.6992 66.3672C33.6992 65.7635 33.6353 65.2533 33.5075 64.8366C33.382 64.4176 33.2009 64.1004 32.9641 63.8849C32.7298 63.6671 32.4504 63.5582 32.1261 63.5582C31.636 63.5582 31.2513 63.7997 30.9719 64.2827C30.6926 64.7656 30.5517 65.4605 30.5494 66.3672C30.5494 66.9732 30.6121 67.4858 30.7376 67.9048C30.8654 68.3215 31.0465 68.6375 31.2809 68.853C31.5153 69.0661 31.797 69.1726 32.1261 69.1726ZM38.0811 70.1207C37.5201 70.1184 37.0407 69.9704 36.6429 69.6768C36.2452 69.3833 35.941 68.956 35.7303 68.3949C35.5196 67.8338 35.4142 67.1579 35.4142 66.3672C35.4142 65.5788 35.5196 64.9053 35.7303 64.3466C35.9434 63.7879 36.2488 63.3617 36.6465 63.0682C37.0466 62.7746 37.5248 62.6278 38.0811 62.6278C38.6375 62.6278 39.1145 62.7758 39.5123 63.0717C39.91 63.3653 40.2142 63.7914 40.4249 64.3501C40.638 64.9065 40.7445 65.5788 40.7445 66.3672C40.7445 67.1603 40.6391 67.8374 40.4284 68.3984C40.2177 68.9571 39.9135 69.3845 39.5158 69.6804C39.1181 69.974 38.6399 70.1207 38.0811 70.1207ZM38.0811 69.1726C38.5736 69.1726 38.9583 68.9323 39.2353 68.4517C39.5146 67.9711 39.6543 67.2763 39.6543 66.3672C39.6543 65.7635 39.5904 65.2533 39.4625 64.8366C39.3371 64.4176 39.156 64.1004 38.9192 63.8849C38.6848 63.6671 38.4055 63.5582 38.0811 63.5582C37.5911 63.5582 37.2064 63.7997 36.927 64.2827C36.6477 64.7656 36.5068 65.4605 36.5044 66.3672C36.5044 66.9732 36.5672 67.4858 36.6926 67.9048C36.8205 68.3215 37.0016 68.6375 37.236 68.853C37.4703 69.0661 37.7521 69.1726 38.0811 69.1726ZM44.0362 70.1207C43.4751 70.1184 42.9957 69.9704 42.598 69.6768C42.2003 69.3833 41.8961 68.956 41.6854 68.3949C41.4747 67.8338 41.3693 67.1579 41.3693 66.3672C41.3693 65.5788 41.4747 64.9053 41.6854 64.3466C41.8984 63.7879 42.2038 63.3617 42.6016 63.0682C43.0017 62.7746 43.4799 62.6278 44.0362 62.6278C44.5926 62.6278 45.0696 62.7758 45.4673 63.0717C45.8651 63.3653 46.1693 63.7914 46.38 64.3501C46.593 64.9065 46.6996 65.5788 46.6996 66.3672C46.6996 67.1603 46.5942 67.8374 46.3835 68.3984C46.1728 68.9571 45.8686 69.3845 45.4709 69.6804C45.0732 69.974 44.5949 70.1207 44.0362 70.1207ZM44.0362 69.1726C44.5286 69.1726 44.9134 68.9323 45.1903 68.4517C45.4697 67.9711 45.6094 67.2763 45.6094 66.3672C45.6094 65.7635 45.5455 65.2533 45.4176 64.8366C45.2921 64.4176 45.111 64.1004 44.8743 63.8849C44.6399 63.6671 44.3606 63.5582 44.0362 63.5582C43.5462 63.5582 43.1615 63.7997 42.8821 64.2827C42.6027 64.7656 42.4619 65.4605 42.4595 66.3672C42.4595 66.9732 42.5223 67.4858 42.6477 67.9048C42.7756 68.3215 42.9567 68.6375 43.1911 68.853C43.4254 69.0661 43.7071 69.1726 44.0362 69.1726ZM49.7053 70V62.7273H54.2152V63.6719H50.8026V65.8878H53.892V66.8288H50.8026V70H49.7053ZM56.8766 70.1101C56.3652 70.1101 55.919 69.9929 55.5378 69.7585C55.1567 69.5241 54.8607 69.1963 54.65 68.7749C54.4393 68.3535 54.334 67.861 54.334 67.2976C54.334 66.7318 54.4393 66.237 54.65 65.8132C54.8607 65.3894 55.1567 65.0604 55.5378 64.826C55.919 64.5916 56.3652 64.4744 56.8766 64.4744C57.388 64.4744 57.8342 64.5916 58.2154 64.826C58.5965 65.0604 58.8925 65.3894 59.1032 65.8132C59.3139 66.237 59.4192 66.7318 59.4192 67.2976C59.4192 67.861 59.3139 68.3535 59.1032 68.7749C58.8925 69.1963 58.5965 69.5241 58.2154 69.7585C57.8342 69.9929 57.388 70.1101 56.8766 70.1101ZM56.8801 69.2188C57.2116 69.2188 57.4862 69.1312 57.704 68.956C57.9218 68.7808 58.0828 68.5476 58.187 68.2564C58.2935 67.9652 58.3468 67.6444 58.3468 67.294C58.3468 66.946 58.2935 66.6264 58.187 66.3352C58.0828 66.0417 57.9218 65.8061 57.704 65.6286C57.4862 65.451 57.2116 65.3622 56.8801 65.3622C56.5463 65.3622 56.2694 65.451 56.0492 65.6286C55.8314 65.8061 55.6692 66.0417 55.5627 66.3352C55.4585 66.6264 55.4064 66.946 55.4064 67.294C55.4064 67.6444 55.4585 67.9652 55.5627 68.2564C55.6692 68.5476 55.8314 68.7808 56.0492 68.956C56.2694 69.1312 56.5463 69.2188 56.8801 69.2188ZM61.1662 62.7273V70H60.1044V62.7273H61.1662ZM63.1564 62.7273V70H62.0946V62.7273H63.1564ZM66.3825 70.1101C65.8711 70.1101 65.4248 69.9929 65.0437 69.7585C64.6625 69.5241 64.3666 69.1963 64.1559 68.7749C63.9452 68.3535 63.8398 67.861 63.8398 67.2976C63.8398 66.7318 63.9452 66.237 64.1559 65.8132C64.3666 65.3894 64.6625 65.0604 65.0437 64.826C65.4248 64.5916 65.8711 64.4744 66.3825 64.4744C66.8938 64.4744 67.3401 64.5916 67.7212 64.826C68.1024 65.0604 68.3983 65.3894 68.609 65.8132C68.8197 66.237 68.9251 66.7318 68.9251 67.2976C68.9251 67.861 68.8197 68.3535 68.609 68.7749C68.3983 69.1963 68.1024 69.5241 67.7212 69.7585C67.3401 69.9929 66.8938 70.1101 66.3825 70.1101ZM66.386 69.2188C66.7174 69.2188 66.9921 69.1312 67.2099 68.956C67.4277 68.7808 67.5887 68.5476 67.6928 68.2564C67.7994 67.9652 67.8526 67.6444 67.8526 67.294C67.8526 66.946 67.7994 66.6264 67.6928 66.3352C67.5887 66.0417 67.4277 65.8061 67.2099 65.6286C66.9921 65.451 66.7174 65.3622 66.386 65.3622C66.0522 65.3622 65.7752 65.451 65.555 65.6286C65.3372 65.8061 65.1751 66.0417 65.0685 66.3352C64.9644 66.6264 64.9123 66.946 64.9123 67.294C64.9123 67.6444 64.9644 67.9652 65.0685 68.2564C65.1751 68.5476 65.3372 68.7808 65.555 68.956C65.7752 69.1312 66.0522 69.2188 66.386 69.2188ZM70.6268 70L69.0217 64.5455H70.119L71.1879 68.5511H71.2411L72.3136 64.5455H73.4109L74.4762 68.5334H74.5295L75.5913 64.5455H76.6886L75.087 70H74.0039L72.896 66.0618H72.8143L71.7063 70H70.6268ZM79.381 70.1101C78.8436 70.1101 78.3808 69.9953 77.9925 69.7656C77.6067 69.5336 77.3084 69.2081 77.0977 68.7891C76.8893 68.3677 76.7852 67.8741 76.7852 67.3082C76.7852 66.7495 76.8893 66.2571 77.0977 65.831C77.3084 65.4048 77.6019 65.0722 77.9783 64.8331C78.3571 64.594 78.7998 64.4744 79.3065 64.4744C79.6142 64.4744 79.9125 64.5253 80.2013 64.6271C80.4902 64.7289 80.7494 64.8887 80.979 65.1065C81.2087 65.3243 81.3898 65.6072 81.5224 65.9553C81.6549 66.3009 81.7212 66.7211 81.7212 67.2159V67.5923H77.3853V66.7969H80.6808C80.6808 66.5175 80.6239 66.2701 80.5103 66.0547C80.3967 65.8369 80.2369 65.6652 80.0309 65.5398C79.8273 65.4143 79.5882 65.3516 79.3136 65.3516C79.0153 65.3516 78.7549 65.425 78.5323 65.5717C78.3121 65.7161 78.1417 65.9055 78.021 66.1399C77.9026 66.3719 77.8434 66.6241 77.8434 66.8963V67.5178C77.8434 67.8823 77.9073 68.1925 78.0352 68.4482C78.1654 68.7038 78.3465 68.8991 78.5785 69.0341C78.8105 69.1667 79.0816 69.233 79.3917 69.233C79.5929 69.233 79.7764 69.2045 79.9421 69.1477C80.1078 69.0885 80.2511 69.0009 80.3718 68.8849C80.4925 68.7689 80.5849 68.6257 80.6488 68.4553L81.6538 68.6364C81.5733 68.9323 81.4289 69.1915 81.2205 69.4141C81.0146 69.6342 80.7553 69.8059 80.4428 69.929C80.1327 70.0497 79.7788 70.1101 79.381 70.1101ZM82.3993 70V64.5455H83.4256V65.4119H83.4824C83.5819 65.1184 83.757 64.8875 84.008 64.7195C84.2613 64.549 84.5478 64.4638 84.8674 64.4638C84.9337 64.4638 85.0118 64.4661 85.1017 64.4709C85.1941 64.4756 85.2663 64.4815 85.3184 64.4886V65.5043C85.2757 65.4924 85.2 65.4794 85.0911 65.4652C84.9822 65.4486 84.8733 65.4403 84.7644 65.4403C84.5134 65.4403 84.2897 65.4936 84.0932 65.6001C83.8991 65.7043 83.7452 65.8499 83.6316 66.0369C83.5179 66.2216 83.4611 66.4323 83.4611 66.669V70H82.3993ZM89.8246 65.8771L88.8622 66.0476C88.822 65.9245 88.758 65.8073 88.6705 65.696C88.5852 65.5848 88.4692 65.4936 88.3224 65.4226C88.1757 65.3516 87.9922 65.3161 87.772 65.3161C87.4714 65.3161 87.2204 65.3835 87.0192 65.5185C86.8179 65.651 86.7173 65.8227 86.7173 66.0334C86.7173 66.2157 86.7848 66.3625 86.9197 66.4737C87.0547 66.585 87.2725 66.6761 87.5732 66.7472L88.4396 66.946C88.9415 67.062 89.3156 67.2408 89.5618 67.4822C89.808 67.7237 89.9311 68.0374 89.9311 68.4233C89.9311 68.75 89.8364 69.0412 89.647 69.2969C89.46 69.5502 89.1984 69.7491 88.8622 69.8935C88.5284 70.0379 88.1413 70.1101 87.701 70.1101C87.0902 70.1101 86.5919 69.9799 86.206 69.7195C85.8201 69.4567 85.5833 69.0838 85.4957 68.6009L86.522 68.4446C86.5859 68.7121 86.7173 68.9145 86.9162 69.0518C87.1151 69.1868 87.3743 69.2543 87.6939 69.2543C88.0419 69.2543 88.3201 69.1821 88.5284 69.0376C88.7367 68.8909 88.8409 68.7121 88.8409 68.5014C88.8409 68.331 88.777 68.1877 88.6491 68.0717C88.5237 67.9557 88.3307 67.8681 88.0703 67.8089L87.147 67.6065C86.638 67.4905 86.2616 67.3059 86.0178 67.0526C85.7763 66.7992 85.6555 66.4785 85.6555 66.0902C85.6555 65.7682 85.7455 65.4865 85.9254 65.245C86.1054 65.0036 86.3539 64.8153 86.6712 64.6804C86.9884 64.5431 87.3518 64.4744 87.7614 64.4744C88.3509 64.4744 88.8149 64.6023 89.1534 64.858C89.492 65.1113 89.7157 65.451 89.8246 65.8771ZM95.5149 62.3864L93.1712 71.0938H92.223L94.5668 62.3864H95.5149ZM100.503 70H98.1486V62.7273H100.578C101.29 62.7273 101.902 62.8729 102.414 63.1641C102.925 63.4529 103.317 63.8684 103.589 64.4105C103.864 64.9503 104.001 65.5978 104.001 66.353C104.001 67.1106 103.862 67.7616 103.585 68.3061C103.311 68.8506 102.913 69.2696 102.392 69.5632C101.871 69.8544 101.242 70 100.503 70ZM99.2459 69.0412H100.443C100.997 69.0412 101.457 68.937 101.824 68.7287C102.191 68.518 102.466 68.2138 102.648 67.8161C102.83 67.416 102.921 66.9283 102.921 66.353C102.921 65.7824 102.83 65.2983 102.648 64.9006C102.468 64.5028 102.199 64.201 101.842 63.995C101.484 63.7891 101.04 63.6861 100.51 63.6861H99.2459V69.0412ZM106.368 70.1207C106.022 70.1207 105.709 70.0568 105.43 69.929C105.151 69.7988 104.929 69.6106 104.766 69.3643C104.605 69.1181 104.525 68.8163 104.525 68.4588C104.525 68.151 104.584 67.8977 104.702 67.6989C104.82 67.5 104.98 67.3426 105.181 67.2266C105.383 67.1106 105.608 67.023 105.856 66.9638C106.105 66.9046 106.358 66.8596 106.616 66.8288C106.943 66.791 107.208 66.7602 107.412 66.7365C107.615 66.7105 107.763 66.669 107.855 66.6122C107.948 66.5554 107.994 66.4631 107.994 66.3352V66.3104C107.994 66.0002 107.906 65.7599 107.731 65.5895C107.558 65.419 107.3 65.3338 106.957 65.3338C106.6 65.3338 106.318 65.4131 106.112 65.5717C105.908 65.728 105.767 65.902 105.689 66.0938L104.691 65.8665C104.81 65.535 104.983 65.2675 105.21 65.0639C105.44 64.858 105.703 64.7088 106.002 64.6165C106.3 64.5218 106.614 64.4744 106.943 64.4744C107.161 64.4744 107.391 64.5005 107.635 64.5526C107.882 64.6023 108.111 64.6946 108.324 64.8295C108.54 64.9645 108.716 65.1574 108.853 65.4084C108.991 65.657 109.059 65.9801 109.059 66.3778V70H108.022V69.2543H107.98C107.911 69.3916 107.808 69.5265 107.671 69.6591C107.533 69.7917 107.357 69.9018 107.142 69.9893C106.926 70.0769 106.668 70.1207 106.368 70.1207ZM106.598 69.2685C106.892 69.2685 107.143 69.2105 107.351 69.0945C107.562 68.9785 107.722 68.8269 107.831 68.6399C107.942 68.4505 107.998 68.2481 107.998 68.0327V67.3295C107.96 67.3674 107.886 67.4029 107.777 67.4361C107.671 67.4669 107.549 67.4941 107.412 67.5178C107.274 67.5391 107.141 67.5592 107.01 67.5781C106.88 67.5947 106.771 67.6089 106.684 67.6207C106.478 67.6468 106.289 67.6906 106.119 67.7521C105.951 67.8137 105.816 67.9025 105.714 68.0185C105.615 68.1321 105.565 68.2836 105.565 68.473C105.565 68.7358 105.662 68.9347 105.856 69.0696C106.05 69.2022 106.298 69.2685 106.598 69.2685ZM110.449 72.0455C110.291 72.0455 110.146 72.0324 110.016 72.0064C109.886 71.9827 109.789 71.9567 109.725 71.9283L109.981 71.0582C110.175 71.1103 110.348 71.1328 110.499 71.1257C110.651 71.1186 110.784 71.0618 110.9 70.9553C111.019 70.8487 111.123 70.6747 111.213 70.4332L111.344 70.071L109.349 64.5455H110.485L111.866 68.7784H111.923L113.305 64.5455H114.444L112.197 70.728C112.092 71.0121 111.96 71.2524 111.799 71.4489C111.638 71.6477 111.446 71.7969 111.224 71.8963C111.001 71.9957 110.743 72.0455 110.449 72.0455Z" fill="#464646"/>
<path d="M16.6996 113V112.205L19.1605 109.655C19.4233 109.378 19.6399 109.135 19.8104 108.927C19.9832 108.716 20.1122 108.516 20.1974 108.327C20.2827 108.137 20.3253 107.936 20.3253 107.723C20.3253 107.482 20.2685 107.273 20.1548 107.098C20.0412 106.92 19.8861 106.784 19.6896 106.69C19.4931 106.593 19.2718 106.544 19.0256 106.544C18.7652 106.544 18.5379 106.597 18.3438 106.704C18.1496 106.81 18.0005 106.961 17.8963 107.155C17.7921 107.349 17.7401 107.576 17.7401 107.837H16.6925C16.6925 107.394 16.7943 107.007 16.9979 106.675C17.2015 106.344 17.4808 106.087 17.8359 105.905C18.1911 105.72 18.5947 105.628 19.0469 105.628C19.5038 105.628 19.9063 105.719 20.2543 105.901C20.6046 106.081 20.8781 106.327 21.0746 106.64C21.2711 106.95 21.3693 107.3 21.3693 107.691C21.3693 107.961 21.3184 108.225 21.2166 108.483C21.1172 108.741 20.9432 109.029 20.6946 109.346C20.446 109.661 20.1004 110.043 19.6577 110.493L18.2124 112.006V112.059H21.4865V113H16.6996ZM23.728 112.006L23.6747 112.393C23.6392 112.677 23.5788 112.973 23.4936 113.281C23.4107 113.591 23.3243 113.878 23.2344 114.143C23.1468 114.409 23.0746 114.619 23.0178 114.776H22.2649C22.2957 114.629 22.3383 114.43 22.3928 114.179C22.4472 113.93 22.5005 113.652 22.5526 113.344C22.6046 113.037 22.6437 112.723 22.6697 112.403L22.7053 112.006H23.728ZM26.9966 113.099C26.5516 113.099 26.1515 113.014 25.7963 112.844C25.4436 112.671 25.1619 112.434 24.9512 112.134C24.7405 111.833 24.628 111.49 24.6138 111.104H25.6792C25.7052 111.416 25.8437 111.673 26.0946 111.874C26.3456 112.076 26.6462 112.176 26.9966 112.176C27.276 112.176 27.5234 112.112 27.7388 111.984C27.9566 111.854 28.1271 111.675 28.2502 111.448C28.3757 111.221 28.4384 110.962 28.4384 110.67C28.4384 110.375 28.3745 110.111 28.2466 109.879C28.1188 109.647 27.9424 109.464 27.7175 109.332C27.495 109.199 27.2393 109.132 26.9505 109.129C26.7303 109.129 26.5089 109.167 26.2864 109.243C26.0639 109.319 25.8839 109.418 25.7466 109.541L24.7417 109.392L25.15 105.727H29.1486V106.668H26.0627L25.8319 108.703H25.8745C26.0165 108.566 26.2047 108.451 26.4391 108.359C26.6758 108.266 26.9292 108.22 27.199 108.22C27.6417 108.22 28.0359 108.326 28.3816 108.536C28.7296 108.747 29.003 109.035 29.2019 109.399C29.4031 109.761 29.5025 110.178 29.5002 110.649C29.5025 111.12 29.396 111.54 29.1806 111.91C28.9675 112.279 28.6716 112.57 28.2928 112.783C27.9164 112.994 27.4843 113.099 26.9966 113.099ZM32.8292 113.121C32.2681 113.118 31.7887 112.97 31.391 112.677C30.9933 112.383 30.689 111.956 30.4783 111.395C30.2676 110.834 30.1623 110.158 30.1623 109.367C30.1623 108.579 30.2676 107.905 30.4783 107.347C30.6914 106.788 30.9968 106.362 31.3945 106.068C31.7946 105.775 32.2728 105.628 32.8292 105.628C33.3855 105.628 33.8626 105.776 34.2603 106.072C34.658 106.365 34.9622 106.791 35.1729 107.35C35.386 107.906 35.4925 108.579 35.4925 109.367C35.4925 110.16 35.3872 110.837 35.1765 111.398C34.9658 111.957 34.6616 112.384 34.2638 112.68C33.8661 112.974 33.3879 113.121 32.8292 113.121ZM32.8292 112.173C33.3216 112.173 33.7063 111.932 33.9833 111.452C34.2627 110.971 34.4023 110.276 34.4023 109.367C34.4023 108.763 34.3384 108.253 34.2106 107.837C34.0851 107.418 33.904 107.1 33.6673 106.885C33.4329 106.667 33.1535 106.558 32.8292 106.558C32.3391 106.558 31.9544 106.8 31.6751 107.283C31.3957 107.766 31.2549 108.46 31.2525 109.367C31.2525 109.973 31.3152 110.486 31.4407 110.905C31.5685 111.321 31.7496 111.638 31.984 111.853C32.2184 112.066 32.5001 112.173 32.8292 112.173ZM38.7843 113.121C38.2232 113.118 37.7438 112.97 37.3461 112.677C36.9483 112.383 36.6441 111.956 36.4334 111.395C36.2227 110.834 36.1174 110.158 36.1174 109.367C36.1174 108.579 36.2227 107.905 36.4334 107.347C36.6465 106.788 36.9519 106.362 37.3496 106.068C37.7497 105.775 38.2279 105.628 38.7843 105.628C39.3406 105.628 39.8176 105.776 40.2154 106.072C40.6131 106.365 40.9173 106.791 41.128 107.35C41.3411 107.906 41.4476 108.579 41.4476 109.367C41.4476 110.16 41.3423 110.837 41.1316 111.398C40.9209 111.957 40.6167 112.384 40.2189 112.68C39.8212 112.974 39.343 113.121 38.7843 113.121ZM38.7843 112.173C39.2767 112.173 39.6614 111.932 39.9384 111.452C40.2177 110.971 40.3574 110.276 40.3574 109.367C40.3574 108.763 40.2935 108.253 40.1657 107.837C40.0402 107.418 39.8591 107.1 39.6223 106.885C39.388 106.667 39.1086 106.558 38.7843 106.558C38.2942 106.558 37.9095 106.8 37.6301 107.283C37.3508 107.766 37.2099 108.46 37.2076 109.367C37.2076 109.973 37.2703 110.486 37.3958 110.905C37.5236 111.321 37.7047 111.638 37.9391 111.853C38.1735 112.066 38.4552 112.173 38.7843 112.173ZM44.4533 113V105.727H48.9632V106.672H45.5506V108.888H48.6401V109.829H45.5506V113H44.4533ZM51.6246 113.11C51.1133 113.11 50.667 112.993 50.2859 112.759C49.9047 112.524 49.6088 112.196 49.3981 111.775C49.1874 111.353 49.082 110.861 49.082 110.298C49.082 109.732 49.1874 109.237 49.3981 108.813C49.6088 108.389 49.9047 108.06 50.2859 107.826C50.667 107.592 51.1133 107.474 51.6246 107.474C52.136 107.474 52.5823 107.592 52.9634 107.826C53.3446 108.06 53.6405 108.389 53.8512 108.813C54.0619 109.237 54.1673 109.732 54.1673 110.298C54.1673 110.861 54.0619 111.353 53.8512 111.775C53.6405 112.196 53.3446 112.524 52.9634 112.759C52.5823 112.993 52.136 113.11 51.6246 113.11ZM51.6282 112.219C51.9596 112.219 52.2343 112.131 52.4521 111.956C52.6699 111.781 52.8308 111.548 52.935 111.256C53.0415 110.965 53.0948 110.644 53.0948 110.294C53.0948 109.946 53.0415 109.626 52.935 109.335C52.8308 109.042 52.6699 108.806 52.4521 108.629C52.2343 108.451 51.9596 108.362 51.6282 108.362C51.2944 108.362 51.0174 108.451 50.7972 108.629C50.5794 108.806 50.4173 109.042 50.3107 109.335C50.2066 109.626 50.1545 109.946 50.1545 110.294C50.1545 110.644 50.2066 110.965 50.3107 111.256C50.4173 111.548 50.5794 111.781 50.7972 111.956C51.0174 112.131 51.2944 112.219 51.6282 112.219ZM55.9142 105.727V113H54.8525V105.727H55.9142ZM57.9045 105.727V113H56.8427V105.727H57.9045ZM61.1305 113.11C60.6191 113.11 60.1729 112.993 59.7917 112.759C59.4106 112.524 59.1146 112.196 58.9039 111.775C58.6932 111.353 58.5879 110.861 58.5879 110.298C58.5879 109.732 58.6932 109.237 58.9039 108.813C59.1146 108.389 59.4106 108.06 59.7917 107.826C60.1729 107.592 60.6191 107.474 61.1305 107.474C61.6419 107.474 62.0881 107.592 62.4693 107.826C62.8504 108.06 63.1464 108.389 63.3571 108.813C63.5678 109.237 63.6731 109.732 63.6731 110.298C63.6731 110.861 63.5678 111.353 63.3571 111.775C63.1464 112.196 62.8504 112.524 62.4693 112.759C62.0881 112.993 61.6419 113.11 61.1305 113.11ZM61.1341 112.219C61.4655 112.219 61.7401 112.131 61.9579 111.956C62.1757 111.781 62.3367 111.548 62.4409 111.256C62.5474 110.965 62.6007 110.644 62.6007 110.294C62.6007 109.946 62.5474 109.626 62.4409 109.335C62.3367 109.042 62.1757 108.806 61.9579 108.629C61.7401 108.451 61.4655 108.362 61.1341 108.362C60.8002 108.362 60.5233 108.451 60.3031 108.629C60.0853 108.806 59.9231 109.042 59.8166 109.335C59.7124 109.626 59.6603 109.946 59.6603 110.294C59.6603 110.644 59.7124 110.965 59.8166 111.256C59.9231 111.548 60.0853 111.781 60.3031 111.956C60.5233 112.131 60.8002 112.219 61.1341 112.219ZM65.3748 113L63.7697 107.545H64.867L65.9359 111.551H65.9892L67.0616 107.545H68.1589L69.2243 111.533H69.2775L70.3393 107.545H71.4366L69.835 113H68.752L67.644 109.062H67.5623L66.4544 113H65.3748ZM74.1291 113.11C73.5917 113.11 73.1288 112.995 72.7406 112.766C72.3547 112.534 72.0564 112.208 71.8457 111.789C71.6374 111.368 71.5332 110.874 71.5332 110.308C71.5332 109.75 71.6374 109.257 71.8457 108.831C72.0564 108.405 72.35 108.072 72.7264 107.833C73.1052 107.594 73.5479 107.474 74.0545 107.474C74.3623 107.474 74.6606 107.525 74.9494 107.627C75.2382 107.729 75.4975 107.889 75.7271 108.107C75.9567 108.324 76.1378 108.607 76.2704 108.955C76.403 109.301 76.4693 109.721 76.4693 110.216V110.592H72.1333V109.797H75.4288C75.4288 109.518 75.372 109.27 75.2583 109.055C75.1447 108.837 74.9849 108.665 74.7789 108.54C74.5753 108.414 74.3362 108.352 74.0616 108.352C73.7633 108.352 73.5029 108.425 73.2804 108.572C73.0602 108.716 72.8897 108.906 72.769 109.14C72.6506 109.372 72.5914 109.624 72.5914 109.896V110.518C72.5914 110.882 72.6554 111.192 72.7832 111.448C72.9134 111.704 73.0945 111.899 73.3265 112.034C73.5585 112.167 73.8296 112.233 74.1397 112.233C74.341 112.233 74.5244 112.205 74.6902 112.148C74.8559 112.089 74.9991 112.001 75.1199 111.885C75.2406 111.769 75.3329 111.626 75.3968 111.455L76.4018 111.636C76.3213 111.932 76.1769 112.192 75.9686 112.414C75.7626 112.634 75.5034 112.806 75.1909 112.929C74.8807 113.05 74.5268 113.11 74.1291 113.11ZM77.1474 113V107.545H78.1737V108.412H78.2305C78.3299 108.118 78.5051 107.888 78.756 107.719C79.0094 107.549 79.2958 107.464 79.6154 107.464C79.6817 107.464 79.7598 107.466 79.8498 107.471C79.9421 107.476 80.0143 107.482 80.0664 107.489V108.504C80.0238 108.492 79.948 108.479 79.8391 108.465C79.7302 108.449 79.6213 108.44 79.5124 108.44C79.2615 108.44 79.0378 108.494 78.8413 108.6C78.6471 108.704 78.4933 108.85 78.3796 109.037C78.266 109.222 78.2092 109.432 78.2092 109.669V113H77.1474ZM84.5726 108.877L83.6103 109.048C83.57 108.924 83.5061 108.807 83.4185 108.696C83.3333 108.585 83.2173 108.494 83.0705 108.423C82.9237 108.352 82.7402 108.316 82.5201 108.316C82.2194 108.316 81.9685 108.384 81.7672 108.518C81.566 108.651 81.4654 108.823 81.4654 109.033C81.4654 109.216 81.5328 109.362 81.6678 109.474C81.8027 109.585 82.0205 109.676 82.3212 109.747L83.1877 109.946C83.6896 110.062 84.0636 110.241 84.3098 110.482C84.556 110.724 84.6792 111.037 84.6792 111.423C84.6792 111.75 84.5845 112.041 84.3951 112.297C84.208 112.55 83.9464 112.749 83.6103 112.893C83.2765 113.038 82.8894 113.11 82.449 113.11C81.8382 113.11 81.3399 112.98 80.954 112.719C80.5681 112.457 80.3314 112.084 80.2438 111.601L81.2701 111.445C81.334 111.712 81.4654 111.915 81.6642 112.052C81.8631 112.187 82.1223 112.254 82.4419 112.254C82.79 112.254 83.0681 112.182 83.2765 112.038C83.4848 111.891 83.589 111.712 83.589 111.501C83.589 111.331 83.525 111.188 83.3972 111.072C83.2717 110.956 83.0788 110.868 82.8184 110.809L81.8951 110.607C81.3861 110.491 81.0096 110.306 80.7658 110.053C80.5243 109.799 80.4036 109.478 80.4036 109.09C80.4036 108.768 80.4935 108.487 80.6735 108.245C80.8534 108.004 81.102 107.815 81.4192 107.68C81.7364 107.543 82.0998 107.474 82.5094 107.474C83.0989 107.474 83.5629 107.602 83.9015 107.858C84.24 108.111 84.4637 108.451 84.5726 108.877ZM90.263 105.386L87.9192 114.094H86.9711L89.3148 105.386H90.263ZM95.2511 113H92.8967V105.727H95.3256C96.0382 105.727 96.6502 105.873 97.1616 106.164C97.6729 106.453 98.0647 106.868 98.337 107.411C98.6116 107.95 98.7489 108.598 98.7489 109.353C98.7489 110.111 98.6104 110.762 98.3335 111.306C98.0588 111.851 97.6611 112.27 97.1403 112.563C96.6194 112.854 95.9897 113 95.2511 113ZM93.994 112.041H95.1907C95.7447 112.041 96.2051 111.937 96.5721 111.729C96.939 111.518 97.2137 111.214 97.396 110.816C97.5782 110.416 97.6694 109.928 97.6694 109.353C97.6694 108.782 97.5782 108.298 97.396 107.901C97.216 107.503 96.9473 107.201 96.5898 106.995C96.2324 106.789 95.7885 106.686 95.2582 106.686H93.994V112.041ZM101.116 113.121C100.77 113.121 100.457 113.057 100.178 112.929C99.8987 112.799 99.6774 112.611 99.514 112.364C99.353 112.118 99.2725 111.816 99.2725 111.459C99.2725 111.151 99.3317 110.898 99.4501 110.699C99.5685 110.5 99.7283 110.343 99.9295 110.227C100.131 110.111 100.356 110.023 100.604 109.964C100.853 109.905 101.106 109.86 101.364 109.829C101.691 109.791 101.956 109.76 102.16 109.737C102.363 109.71 102.511 109.669 102.604 109.612C102.696 109.555 102.742 109.463 102.742 109.335V109.31C102.742 109 102.654 108.76 102.479 108.589C102.306 108.419 102.048 108.334 101.705 108.334C101.348 108.334 101.066 108.413 100.86 108.572C100.656 108.728 100.515 108.902 100.437 109.094L99.4395 108.866C99.5578 108.535 99.7306 108.268 99.9579 108.064C100.188 107.858 100.452 107.709 100.75 107.616C101.048 107.522 101.362 107.474 101.691 107.474C101.909 107.474 102.14 107.5 102.383 107.553C102.63 107.602 102.859 107.695 103.072 107.83C103.288 107.964 103.464 108.157 103.601 108.408C103.739 108.657 103.807 108.98 103.807 109.378V113H102.77V112.254H102.728C102.659 112.392 102.556 112.527 102.419 112.659C102.282 112.792 102.105 112.902 101.89 112.989C101.674 113.077 101.416 113.121 101.116 113.121ZM101.346 112.268C101.64 112.268 101.891 112.21 102.099 112.094C102.31 111.978 102.47 111.827 102.579 111.64C102.69 111.451 102.746 111.248 102.746 111.033V110.33C102.708 110.367 102.634 110.403 102.525 110.436C102.419 110.467 102.297 110.494 102.16 110.518C102.022 110.539 101.889 110.559 101.758 110.578C101.628 110.595 101.519 110.609 101.432 110.621C101.226 110.647 101.037 110.691 100.867 110.752C100.699 110.814 100.564 110.902 100.462 111.018C100.363 111.132 100.313 111.284 100.313 111.473C100.313 111.736 100.41 111.935 100.604 112.07C100.798 112.202 101.046 112.268 101.346 112.268ZM105.197 115.045C105.039 115.045 104.894 115.032 104.764 115.006C104.634 114.983 104.537 114.957 104.473 114.928L104.729 114.058C104.923 114.11 105.096 114.133 105.247 114.126C105.399 114.119 105.532 114.062 105.648 113.955C105.767 113.849 105.871 113.675 105.961 113.433L106.092 113.071L104.097 107.545H105.233L106.614 111.778H106.671L108.053 107.545H109.192L106.945 113.728C106.84 114.012 106.708 114.252 106.547 114.449C106.386 114.648 106.194 114.797 105.972 114.896C105.749 114.996 105.491 115.045 105.197 115.045Z" fill="#464646"/>
<path d="M19.4588 148.727V156H18.358V149.828H18.3153L16.5753 150.964V149.913L18.3899 148.727H19.4588ZM21.9018 155.006L21.8485 155.393C21.813 155.677 21.7527 155.973 21.6674 156.281C21.5846 156.591 21.4982 156.878 21.4082 157.143C21.3206 157.409 21.2484 157.619 21.1916 157.776H20.4387C20.4695 157.629 20.5121 157.43 20.5666 157.179C20.621 156.93 20.6743 156.652 20.7264 156.344C20.7785 156.037 20.8175 155.723 20.8436 155.403L20.8791 155.006H21.9018ZM25.1554 156.121C24.5943 156.118 24.1149 155.97 23.7172 155.677C23.3194 155.383 23.0152 154.956 22.8045 154.395C22.5938 153.834 22.4885 153.158 22.4885 152.367C22.4885 151.579 22.5938 150.905 22.8045 150.347C23.0176 149.788 23.323 149.362 23.7207 149.068C24.1208 148.775 24.599 148.628 25.1554 148.628C25.7117 148.628 26.1887 148.776 26.5865 149.072C26.9842 149.365 27.2884 149.791 27.4991 150.35C27.7122 150.906 27.8187 151.579 27.8187 152.367C27.8187 153.16 27.7134 153.837 27.5027 154.398C27.292 154.957 26.9877 155.384 26.59 155.68C26.1923 155.974 25.7141 156.121 25.1554 156.121ZM25.1554 155.173C25.6478 155.173 26.0325 154.932 26.3095 154.452C26.5888 153.971 26.7285 153.276 26.7285 152.367C26.7285 151.763 26.6646 151.253 26.5368 150.837C26.4113 150.418 26.2302 150.1 25.9934 149.885C25.7591 149.667 25.4797 149.558 25.1554 149.558C24.6653 149.558 24.2806 149.8 24.0012 150.283C23.7219 150.766 23.581 151.46 23.5787 152.367C23.5787 152.973 23.6414 153.486 23.7669 153.905C23.8947 154.321 24.0758 154.638 24.3102 154.853C24.5446 155.066 24.8263 155.173 25.1554 155.173ZM31.1104 156.121C30.5494 156.118 30.07 155.97 29.6722 155.677C29.2745 155.383 28.9703 154.956 28.7596 154.395C28.5489 153.834 28.4435 153.158 28.4435 152.367C28.4435 151.579 28.5489 150.905 28.7596 150.347C28.9727 149.788 29.2781 149.362 29.6758 149.068C30.0759 148.775 30.5541 148.628 31.1104 148.628C31.6668 148.628 32.1438 148.776 32.5415 149.072C32.9393 149.365 33.2435 149.791 33.4542 150.35C33.6673 150.906 33.7738 151.579 33.7738 152.367C33.7738 153.16 33.6684 153.837 33.4577 154.398C33.247 154.957 32.9428 155.384 32.5451 155.68C32.1474 155.974 31.6692 156.121 31.1104 156.121ZM31.1104 155.173C31.6029 155.173 31.9876 154.932 32.2646 154.452C32.5439 153.971 32.6836 153.276 32.6836 152.367C32.6836 151.763 32.6197 151.253 32.4918 150.837C32.3664 150.418 32.1853 150.1 31.9485 149.885C31.7141 149.667 31.4348 149.558 31.1104 149.558C30.6204 149.558 30.2357 149.8 29.9563 150.283C29.677 150.766 29.5361 151.46 29.5337 152.367C29.5337 152.973 29.5965 153.486 29.7219 153.905C29.8498 154.321 30.0309 154.638 30.2653 154.853C30.4996 155.066 30.7814 155.173 31.1104 155.173ZM37.0655 156.121C36.5044 156.118 36.025 155.97 35.6273 155.677C35.2296 155.383 34.9254 154.956 34.7147 154.395C34.504 153.834 34.3986 153.158 34.3986 152.367C34.3986 151.579 34.504 150.905 34.7147 150.347C34.9277 149.788 35.2331 149.362 35.6309 149.068C36.031 148.775 36.5092 148.628 37.0655 148.628C37.6219 148.628 38.0989 148.776 38.4966 149.072C38.8944 149.365 39.1986 149.791 39.4093 150.35C39.6223 150.906 39.7289 151.579 39.7289 152.367C39.7289 153.16 39.6235 153.837 39.4128 154.398C39.2021 154.957 38.8979 155.384 38.5002 155.68C38.1025 155.974 37.6242 156.121 37.0655 156.121ZM37.0655 155.173C37.5579 155.173 37.9426 154.932 38.2196 154.452C38.499 153.971 38.6387 153.276 38.6387 152.367C38.6387 151.763 38.5748 151.253 38.4469 150.837C38.3214 150.418 38.1403 150.1 37.9036 149.885C37.6692 149.667 37.3899 149.558 37.0655 149.558C36.5755 149.558 36.1908 149.8 35.9114 150.283C35.632 150.766 35.4912 151.46 35.4888 152.367C35.4888 152.973 35.5516 153.486 35.677 153.905C35.8049 154.321 35.986 154.638 36.2203 154.853C36.4547 155.066 36.7364 155.173 37.0655 155.173ZM42.7346 156V148.727H47.2445V149.672H43.8319V151.888H46.9213V152.829H43.8319V156H42.7346ZM49.9059 156.11C49.3945 156.11 48.9483 155.993 48.5671 155.759C48.186 155.524 47.89 155.196 47.6793 154.775C47.4686 154.353 47.3633 153.861 47.3633 153.298C47.3633 152.732 47.4686 152.237 47.6793 151.813C47.89 151.389 48.186 151.06 48.5671 150.826C48.9483 150.592 49.3945 150.474 49.9059 150.474C50.4173 150.474 50.8635 150.592 51.2447 150.826C51.6258 151.06 51.9218 151.389 52.1325 151.813C52.3432 152.237 52.4485 152.732 52.4485 153.298C52.4485 153.861 52.3432 154.353 52.1325 154.775C51.9218 155.196 51.6258 155.524 51.2447 155.759C50.8635 155.993 50.4173 156.11 49.9059 156.11ZM49.9094 155.219C50.2409 155.219 50.5155 155.131 50.7333 154.956C50.9511 154.781 51.1121 154.548 51.2163 154.256C51.3228 153.965 51.3761 153.644 51.3761 153.294C51.3761 152.946 51.3228 152.626 51.2163 152.335C51.1121 152.042 50.9511 151.806 50.7333 151.629C50.5155 151.451 50.2409 151.362 49.9094 151.362C49.5756 151.362 49.2987 151.451 49.0785 151.629C48.8607 151.806 48.6985 152.042 48.592 152.335C48.4878 152.626 48.4357 152.946 48.4357 153.294C48.4357 153.644 48.4878 153.965 48.592 154.256C48.6985 154.548 48.8607 154.781 49.0785 154.956C49.2987 155.131 49.5756 155.219 49.9094 155.219ZM54.1955 148.727V156H53.1337V148.727H54.1955ZM56.1857 148.727V156H55.1239V148.727H56.1857ZM59.4118 156.11C58.9004 156.11 58.4541 155.993 58.073 155.759C57.6918 155.524 57.3959 155.196 57.1852 154.775C56.9745 154.353 56.8691 153.861 56.8691 153.298C56.8691 152.732 56.9745 152.237 57.1852 151.813C57.3959 151.389 57.6918 151.06 58.073 150.826C58.4541 150.592 58.9004 150.474 59.4118 150.474C59.9231 150.474 60.3694 150.592 60.7505 150.826C61.1317 151.06 61.4276 151.389 61.6383 151.813C61.849 152.237 61.9544 152.732 61.9544 153.298C61.9544 153.861 61.849 154.353 61.6383 154.775C61.4276 155.196 61.1317 155.524 60.7505 155.759C60.3694 155.993 59.9231 156.11 59.4118 156.11ZM59.4153 155.219C59.7467 155.219 60.0214 155.131 60.2392 154.956C60.457 154.781 60.618 154.548 60.7221 154.256C60.8287 153.965 60.8819 153.644 60.8819 153.294C60.8819 152.946 60.8287 152.626 60.7221 152.335C60.618 152.042 60.457 151.806 60.2392 151.629C60.0214 151.451 59.7467 151.362 59.4153 151.362C59.0815 151.362 58.8045 151.451 58.5843 151.629C58.3665 151.806 58.2044 152.042 58.0978 152.335C57.9937 152.626 57.9416 152.946 57.9416 153.294C57.9416 153.644 57.9937 153.965 58.0978 154.256C58.2044 154.548 58.3665 154.781 58.5843 154.956C58.8045 155.131 59.0815 155.219 59.4153 155.219ZM63.6561 156L62.051 150.545H63.1483L64.2172 154.551H64.2704L65.3429 150.545H66.4402L67.5055 154.533H67.5588L68.6206 150.545H69.7179L68.1163 156H67.0332L65.9252 152.062H65.8436L64.7356 156H63.6561ZM72.4103 156.11C71.8729 156.11 71.4101 155.995 71.0218 155.766C70.6359 155.534 70.3377 155.208 70.127 154.789C69.9186 154.368 69.8145 153.874 69.8145 153.308C69.8145 152.75 69.9186 152.257 70.127 151.831C70.3377 151.405 70.6312 151.072 71.0076 150.833C71.3864 150.594 71.8291 150.474 72.3358 150.474C72.6435 150.474 72.9418 150.525 73.2306 150.627C73.5195 150.729 73.7787 150.889 74.0083 151.107C74.238 151.324 74.4191 151.607 74.5517 151.955C74.6842 152.301 74.7505 152.721 74.7505 153.216V153.592H70.4146V152.797H73.71C73.71 152.518 73.6532 152.27 73.5396 152.055C73.426 151.837 73.2662 151.665 73.0602 151.54C72.8566 151.414 72.6175 151.352 72.3429 151.352C72.0446 151.352 71.7842 151.425 71.5616 151.572C71.3414 151.716 71.171 151.906 71.0502 152.14C70.9319 152.372 70.8727 152.624 70.8727 152.896V153.518C70.8727 153.882 70.9366 154.192 71.0645 154.448C71.1947 154.704 71.3758 154.899 71.6078 155.034C71.8398 155.167 72.1109 155.233 72.421 155.233C72.6222 155.233 72.8057 155.205 72.9714 155.148C73.1371 155.089 73.2804 155.001 73.4011 154.885C73.5218 154.769 73.6142 154.626 73.6781 154.455L74.6831 154.636C74.6026 154.932 74.4582 155.192 74.2498 155.414C74.0439 155.634 73.7846 155.806 73.4721 155.929C73.162 156.05 72.8081 156.11 72.4103 156.11ZM75.4286 156V150.545H76.4549V151.412H76.5117C76.6112 151.118 76.7863 150.888 77.0373 150.719C77.2906 150.549 77.5771 150.464 77.8967 150.464C77.9629 150.464 78.0411 150.466 78.131 150.471C78.2234 150.476 78.2956 150.482 78.3477 150.489V151.504C78.305 151.492 78.2293 151.479 78.1204 151.465C78.0115 151.449 77.9026 151.44 77.7937 151.44C77.5427 151.44 77.319 151.494 77.1225 151.6C76.9284 151.704 76.7745 151.85 76.6609 152.037C76.5472 152.222 76.4904 152.432 76.4904 152.669V156H75.4286ZM82.8539 151.877L81.8915 152.048C81.8513 151.924 81.7873 151.807 81.6998 151.696C81.6145 151.585 81.4985 151.494 81.3517 151.423C81.205 151.352 81.0215 151.316 80.8013 151.316C80.5007 151.316 80.2497 151.384 80.0485 151.518C79.8472 151.651 79.7466 151.823 79.7466 152.033C79.7466 152.216 79.8141 152.362 79.949 152.474C80.084 152.585 80.3018 152.676 80.6025 152.747L81.4689 152.946C81.9708 153.062 82.3449 153.241 82.5911 153.482C82.8373 153.724 82.9604 154.037 82.9604 154.423C82.9604 154.75 82.8657 155.041 82.6763 155.297C82.4893 155.55 82.2277 155.749 81.8915 155.893C81.5577 156.038 81.1706 156.11 80.7303 156.11C80.1195 156.11 79.6212 155.98 79.2353 155.719C78.8494 155.457 78.6126 155.084 78.525 154.601L79.5513 154.445C79.6152 154.712 79.7466 154.915 79.9455 155.052C80.1444 155.187 80.4036 155.254 80.7232 155.254C81.0712 155.254 81.3494 155.182 81.5577 155.038C81.766 154.891 81.8702 154.712 81.8702 154.501C81.8702 154.331 81.8063 154.188 81.6784 154.072C81.553 153.956 81.36 153.868 81.0996 153.809L80.1763 153.607C79.6673 153.491 79.2909 153.306 79.0471 153.053C78.8056 152.799 78.6848 152.478 78.6848 152.09C78.6848 151.768 78.7748 151.487 78.9547 151.245C79.1346 151.004 79.3832 150.815 79.7005 150.68C80.0177 150.543 80.3811 150.474 80.7907 150.474C81.3801 150.474 81.8442 150.602 82.1827 150.858C82.5212 151.111 82.745 151.451 82.8539 151.877ZM88.5442 148.386L86.2005 157.094H85.2523L87.5961 148.386H88.5442ZM93.5323 156H91.1779V148.727H93.6069C94.3195 148.727 94.9315 148.873 95.4428 149.164C95.9542 149.453 96.346 149.868 96.6183 150.411C96.8929 150.95 97.0302 151.598 97.0302 152.353C97.0302 153.111 96.8917 153.762 96.6147 154.306C96.3401 154.851 95.9424 155.27 95.4215 155.563C94.9007 155.854 94.271 156 93.5323 156ZM92.2752 155.041H93.4719C94.0259 155.041 94.4864 154.937 94.8533 154.729C95.2203 154.518 95.4949 154.214 95.6772 153.816C95.8595 153.416 95.9506 152.928 95.9506 152.353C95.9506 151.782 95.8595 151.298 95.6772 150.901C95.4973 150.503 95.2286 150.201 94.8711 149.995C94.5136 149.789 94.0697 149.686 93.5394 149.686H92.2752V155.041ZM99.3968 156.121C99.0512 156.121 98.7387 156.057 98.4593 155.929C98.18 155.799 97.9586 155.611 97.7953 155.364C97.6343 155.118 97.5538 154.816 97.5538 154.459C97.5538 154.151 97.613 153.898 97.7314 153.699C97.8497 153.5 98.0095 153.343 98.2108 153.227C98.412 153.111 98.6369 153.023 98.8855 152.964C99.1341 152.905 99.3874 152.86 99.6454 152.829C99.9721 152.791 100.237 152.76 100.441 152.737C100.644 152.71 100.792 152.669 100.885 152.612C100.977 152.555 101.023 152.463 101.023 152.335V152.31C101.023 152 100.936 151.76 100.76 151.589C100.588 151.419 100.33 151.334 99.9863 151.334C99.6288 151.334 99.3471 151.413 99.1412 151.572C98.9376 151.728 98.7967 151.902 98.7186 152.094L97.7207 151.866C97.8391 151.535 98.0119 151.268 98.2392 151.064C98.4688 150.858 98.7328 150.709 99.0311 150.616C99.3294 150.522 99.6431 150.474 99.9721 150.474C100.19 150.474 100.421 150.5 100.665 150.553C100.911 150.602 101.14 150.695 101.354 150.83C101.569 150.964 101.745 151.157 101.883 151.408C102.02 151.657 102.089 151.98 102.089 152.378V156H101.052V155.254H101.009C100.94 155.392 100.837 155.527 100.7 155.659C100.563 155.792 100.386 155.902 100.171 155.989C99.9556 156.077 99.6975 156.121 99.3968 156.121ZM99.6277 155.268C99.9212 155.268 100.172 155.21 100.381 155.094C100.591 154.978 100.751 154.827 100.86 154.64C100.971 154.451 101.027 154.248 101.027 154.033V153.33C100.989 153.367 100.916 153.403 100.807 153.436C100.7 153.467 100.578 153.494 100.441 153.518C100.304 153.539 100.17 153.559 100.04 153.578C99.9094 153.595 99.8005 153.609 99.7129 153.621C99.5069 153.647 99.3187 153.691 99.1483 153.752C98.9802 153.814 98.8452 153.902 98.7434 154.018C98.644 154.132 98.5943 154.284 98.5943 154.473C98.5943 154.736 98.6913 154.935 98.8855 155.07C99.0796 155.202 99.327 155.268 99.6277 155.268ZM103.479 158.045C103.32 158.045 103.176 158.032 103.045 158.006C102.915 157.983 102.818 157.957 102.754 157.928L103.01 157.058C103.204 157.11 103.377 157.133 103.528 157.126C103.68 157.119 103.814 157.062 103.93 156.955C104.048 156.849 104.152 156.675 104.242 156.433L104.374 156.071L102.378 150.545H103.514L104.896 154.778H104.952L106.334 150.545H107.474L105.226 156.728C105.122 157.012 104.989 157.252 104.828 157.449C104.667 157.648 104.475 157.797 104.253 157.896C104.03 157.996 103.772 158.045 103.479 158.045Z" fill="#464646"/>
<line opacity="0.4" x1="128.249" y1="23.2494" x2="551.749" y2="22.2506" stroke="#CCCCCC" stroke-width="0.5" stroke-linecap="round" stroke-dasharray="10 8"/>
<line opacity="0.4" x1="128.249" y1="66.2494" x2="551.749" y2="65.2506" stroke="#CCCCCC" stroke-width="0.5" stroke-linecap="round" stroke-dasharray="10 8"/>
<line opacity="0.4" x1="128.249" y1="109.249" x2="551.749" y2="108.251" stroke="#CCCCCC" stroke-width="0.5" stroke-linecap="round" stroke-dasharray="10 8"/>
<line opacity="0.4" x1="128.249" y1="152.249" x2="551.749" y2="151.251" stroke="#CCCCCC" stroke-width="0.5" stroke-linecap="round" stroke-dasharray="10 8"/>
<path d="M138.5 96.5C138.5 94.2909 140.291 92.5 142.5 92.5H161.5C163.709 92.5 165.5 94.2909 165.5 96.5V159.5C165.5 161.709 163.709 163.5 161.5 163.5H142.5C140.291 163.5 138.5 161.709 138.5 159.5V96.5Z" fill="white"/>
<path d="M139 96.5C139 94.567 140.567 93 142.5 93H161.5C163.433 93 165 94.567 165 96.5V159.5C165 161.433 163.433 163 161.5 163H142.5C140.567 163 139 161.433 139 159.5V96.5Z" stroke="url(#paint1_linear_25_5231)" stroke-opacity="0.5"/>
<path d="M185.5 137.5C185.5 135.291 187.291 133.5 189.5 133.5H208.5C210.709 133.5 212.5 135.291 212.5 137.5V159.5C212.5 161.709 210.709 163.5 208.5 163.5H189.5C187.291 163.5 185.5 161.709 185.5 159.5V137.5Z" fill="white"/>
<path d="M186 137.5C186 135.567 187.567 134 189.5 134H208.5C210.433 134 212 135.567 212 137.5V159.5C212 161.433 210.433 163 208.5 163H189.5C187.567 163 186 161.433 186 159.5V137.5Z" stroke="url(#paint2_linear_25_5231)" stroke-opacity="0.5"/>
<rect x="232.5" y="108.5" width="27" height="55" rx="6" fill="#F6F4FE"/>
<mask id="mask0_25_5231" style="mask-type:alpha" maskUnits="userSpaceOnUse" x="232" y="108" width="28" height="56">
<rect x="232.5" y="108.5" width="27" height="55" rx="4" fill="#D9D9D9"/>
</mask>
<g mask="url(#mask0_25_5231)">
<path d="M232.962 -49.5L232.962 320.5" stroke="url(#paint3_linear_25_5231)" stroke-width="1.5"/>
<path d="M235.962 -49.5L235.962 320.5" stroke="url(#paint4_linear_25_5231)" stroke-width="1.5"/>
<path d="M238.962 -49.5L238.962 320.5" stroke="url(#paint5_linear_25_5231)" stroke-width="1.5"/>
<path d="M241.962 -49.5L241.962 320.5" stroke="url(#paint6_linear_25_5231)" stroke-width="1.5"/>
<path d="M244.962 -49.5L244.962 320.5" stroke="url(#paint7_linear_25_5231)" stroke-width="1.5"/>
<path d="M247.962 -49.5L247.962 320.5" stroke="url(#paint8_linear_25_5231)" stroke-width="1.5"/>
<path d="M250.962 -49.5L250.962 320.5" stroke="url(#paint9_linear_25_5231)" stroke-width="1.5"/>
<path d="M253.962 -49.5L253.962 320.5" stroke="url(#paint10_linear_25_5231)" stroke-width="1.5"/>
<path d="M256.962 -49.5V320.5" stroke="url(#paint11_linear_25_5231)" stroke-width="1.5"/>
<path d="M259.962 -49.5V320.5" stroke="url(#paint12_linear_25_5231)" stroke-width="1.5"/>
</g>
<path d="M232.5 112.5C232.5 110.291 234.291 108.5 236.5 108.5H255.5C257.709 108.5 259.5 110.291 259.5 112.5V159.5C259.5 161.709 257.709 163.5 255.5 163.5H236.5C234.291 163.5 232.5 161.709 232.5 159.5V112.5Z" fill="white"/>
<path d="M233 112.5C233 110.567 234.567 109 236.5 109H255.5C257.433 109 259 110.567 259 112.5V159.5C259 161.433 257.433 163 255.5 163H236.5C234.567 163 233 161.433 233 159.5V112.5Z" stroke="url(#paint13_linear_25_5231)" stroke-opacity="0.5"/>
<rect x="279.5" y="108.5" width="27" height="55" rx="6" fill="#F6F4FE"/>
<mask id="mask1_25_5231" style="mask-type:alpha" maskUnits="userSpaceOnUse" x="279" y="108" width="28" height="56">
<rect x="279.5" y="108.5" width="27" height="55" rx="4" fill="#D9D9D9"/>
</mask>
<g mask="url(#mask1_25_5231)">
<path d="M279.962 -49.5V320.5" stroke="url(#paint14_linear_25_5231)" stroke-width="1.5"/>
<path d="M282.962 -49.5V320.5" stroke="url(#paint15_linear_25_5231)" stroke-width="1.5"/>
<path d="M285.962 -49.5V320.5" stroke="url(#paint16_linear_25_5231)" stroke-width="1.5"/>
<path d="M288.962 -49.5V320.5" stroke="url(#paint17_linear_25_5231)" stroke-width="1.5"/>
<path d="M291.962 -49.5V320.5" stroke="url(#paint18_linear_25_5231)" stroke-width="1.5"/>
<path d="M294.962 -49.5V320.5" stroke="url(#paint19_linear_25_5231)" stroke-width="1.5"/>
<path d="M297.962 -49.5V320.5" stroke="url(#paint20_linear_25_5231)" stroke-width="1.5"/>
<path d="M300.962 -49.5V320.5" stroke="url(#paint21_linear_25_5231)" stroke-width="1.5"/>
<path d="M303.962 -49.5V320.5" stroke="url(#paint22_linear_25_5231)" stroke-width="1.5"/>
<path d="M306.962 -49.5V320.5" stroke="url(#paint23_linear_25_5231)" stroke-width="1.5"/>
</g>
<path d="M279.5 112.5C279.5 110.291 281.291 108.5 283.5 108.5H302.5C304.709 108.5 306.5 110.291 306.5 112.5V159.5C306.5 161.709 304.709 163.5 302.5 163.5H283.5C281.291 163.5 279.5 161.709 279.5 159.5V112.5Z" fill="white"/>
<path d="M280 112.5C280 110.567 281.567 109 283.5 109H302.5C304.433 109 306 110.567 306 112.5V159.5C306 161.433 304.433 163 302.5 163H283.5C281.567 163 280 161.433 280 159.5V112.5Z" stroke="url(#paint24_linear_25_5231)" stroke-opacity="0.5"/>
<path d="M326.5 96.5C326.5 94.2909 328.291 92.5 330.5 92.5H349.5C351.709 92.5 353.5 94.2909 353.5 96.5V159.5C353.5 161.709 351.709 163.5 349.5 163.5H330.5C328.291 163.5 326.5 161.709 326.5 159.5V96.5Z" fill="white"/>
<path d="M327 96.5C327 94.567 328.567 93 330.5 93H349.5C351.433 93 353 94.567 353 96.5V159.5C353 161.433 351.433 163 349.5 163H330.5C328.567 163 327 161.433 327 159.5V96.5Z" stroke="url(#paint25_linear_25_5231)" stroke-opacity="0.5"/>
<path d="M373.5 96.5C373.5 94.2909 375.291 92.5 377.5 92.5H396.5C398.709 92.5 400.5 94.2909 400.5 96.5V159.5C400.5 161.709 398.709 163.5 396.5 163.5H377.5C375.291 163.5 373.5 161.709 373.5 159.5V96.5Z" fill="white"/>
<path d="M374 96.5C374 94.567 375.567 93 377.5 93H396.5C398.433 93 400 94.567 400 96.5V159.5C400 161.433 398.433 163 396.5 163H377.5C375.567 163 374 161.433 374 159.5V96.5Z" stroke="url(#paint26_linear_25_5231)" stroke-opacity="0.5"/>
<path d="M420.5 135.5C420.5 133.291 422.291 131.5 424.5 131.5H443.5C445.709 131.5 447.5 133.291 447.5 135.5V159.5C447.5 161.709 445.709 163.5 443.5 163.5H424.5C422.291 163.5 420.5 161.709 420.5 159.5V135.5Z" fill="white"/>
<path d="M421 135.5C421 133.567 422.567 132 424.5 132H443.5C445.433 132 447 133.567 447 135.5V159.5C447 161.433 445.433 163 443.5 163H424.5C422.567 163 421 161.433 421 159.5V135.5Z" stroke="url(#paint27_linear_25_5231)" stroke-opacity="0.5"/>
<path d="M467.5 135.5C467.5 133.291 469.291 131.5 471.5 131.5H490.5C492.709 131.5 494.5 133.291 494.5 135.5V159.5C494.5 161.709 492.709 163.5 490.5 163.5H471.5C469.291 163.5 467.5 161.709 467.5 159.5V135.5Z" fill="white"/>
<path d="M468 135.5C468 133.567 469.567 132 471.5 132H490.5C492.433 132 494 133.567 494 135.5V159.5C494 161.433 492.433 163 490.5 163H471.5C469.567 163 468 161.433 468 159.5V135.5Z" stroke="url(#paint28_linear_25_5231)" stroke-opacity="0.5"/>
<path d="M514.5 135.5C514.5 133.291 516.291 131.5 518.5 131.5H537.5C539.709 131.5 541.5 133.291 541.5 135.5V159.5C541.5 161.709 539.709 163.5 537.5 163.5H518.5C516.291 163.5 514.5 161.709 514.5 159.5V135.5Z" fill="white"/>
<path d="M515 135.5C515 133.567 516.567 132 518.5 132H537.5C539.433 132 541 133.567 541 135.5V159.5C541 161.433 539.433 163 537.5 163H518.5C516.567 163 515 161.433 515 159.5V135.5Z" stroke="url(#paint29_linear_25_5231)" stroke-opacity="0.5"/>
<path d="M561.5 135.5C561.5 133.291 563.291 131.5 565.5 131.5H584.5C586.709 131.5 588.5 133.291 588.5 135.5V159.5C588.5 161.709 586.709 163.5 584.5 163.5H565.5C563.291 163.5 561.5 161.709 561.5 159.5V135.5Z" fill="white"/>
<path d="M562 135.5C562 133.567 563.567 132 565.5 132H584.5C586.433 132 588 133.567 588 135.5V159.5C588 161.433 586.433 163 584.5 163H565.5C563.567 163 562 161.433 562 159.5V135.5Z" stroke="url(#paint30_linear_25_5231)" stroke-opacity="0.5"/>
<rect x="608.5" y="48.5" width="27" height="115" rx="6" fill="#F6F4FE"/>
<mask id="mask2_25_5231" style="mask-type:alpha" maskUnits="userSpaceOnUse" x="608" y="48" width="28" height="116">
<rect x="608.5" y="48.5" width="27" height="115" rx="4" fill="#D9D9D9"/>
</mask>
<g mask="url(#mask2_25_5231)">
<path d="M608.962 -79.5V290.5" stroke="url(#paint31_linear_25_5231)" stroke-width="1.5"/>
<path d="M611.962 -79.5V290.5" stroke="url(#paint32_linear_25_5231)" stroke-width="1.5"/>
<path d="M614.962 -79.5V290.5" stroke="url(#paint33_linear_25_5231)" stroke-width="1.5"/>
<path d="M617.962 -79.5V290.5" stroke="url(#paint34_linear_25_5231)" stroke-width="1.5"/>
<path d="M620.962 -79.5V290.5" stroke="url(#paint35_linear_25_5231)" stroke-width="1.5"/>
<path d="M623.962 -79.5V290.5" stroke="url(#paint36_linear_25_5231)" stroke-width="1.5"/>
<path d="M626.962 -79.5V290.5" stroke="url(#paint37_linear_25_5231)" stroke-width="1.5"/>
<path d="M629.962 -79.5V290.5" stroke="url(#paint38_linear_25_5231)" stroke-width="1.5"/>
<path d="M632.962 -79.5V290.5" stroke="url(#paint39_linear_25_5231)" stroke-width="1.5"/>
<path d="M635.962 -79.5V290.5" stroke="url(#paint40_linear_25_5231)" stroke-width="1.5"/>
</g>
<path d="M608.5 52.5C608.5 50.2909 610.291 48.5 612.5 48.5H631.5C633.709 48.5 635.5 50.2909 635.5 52.5V159.5C635.5 161.709 633.709 163.5 631.5 163.5H612.5C610.291 163.5 608.5 161.709 608.5 159.5V52.5Z" fill="white"/>
<path d="M609 52.5C609 50.567 610.567 49 612.5 49H631.5C633.433 49 635 50.567 635 52.5V159.5C635 161.433 633.433 163 631.5 163H612.5C610.567 163 609 161.433 609 159.5V52.5Z" stroke="url(#paint41_linear_25_5231)" stroke-opacity="0.5"/>
<rect x="655.5" y="48.5" width="27" height="115" rx="6" fill="#F6F4FE"/>
<mask id="mask3_25_5231" style="mask-type:alpha" maskUnits="userSpaceOnUse" x="655" y="48" width="28" height="116">
<rect x="655.5" y="48.5" width="27" height="115" rx="4" fill="#D9D9D9"/>
</mask>
<g mask="url(#mask3_25_5231)">
<path d="M655.962 -79.5V290.5" stroke="url(#paint42_linear_25_5231)" stroke-width="1.5"/>
<path d="M658.962 -79.5V290.5" stroke="url(#paint43_linear_25_5231)" stroke-width="1.5"/>
<path d="M661.962 -79.5V290.5" stroke="url(#paint44_linear_25_5231)" stroke-width="1.5"/>
<path d="M664.962 -79.5V290.5" stroke="url(#paint45_linear_25_5231)" stroke-width="1.5"/>
<path d="M667.962 -79.5V290.5" stroke="url(#paint46_linear_25_5231)" stroke-width="1.5"/>
<path d="M670.962 -79.5V290.5" stroke="url(#paint47_linear_25_5231)" stroke-width="1.5"/>
<path d="M673.962 -79.5V290.5" stroke="url(#paint48_linear_25_5231)" stroke-width="1.5"/>
<path d="M676.962 -79.5V290.5" stroke="url(#paint49_linear_25_5231)" stroke-width="1.5"/>
<path d="M679.962 -79.5V290.5" stroke="url(#paint50_linear_25_5231)" stroke-width="1.5"/>
<path d="M682.962 -79.5V290.5" stroke="url(#paint51_linear_25_5231)" stroke-width="1.5"/>
</g>
<path d="M655.5 52.5C655.5 50.2909 657.291 48.5 659.5 48.5H678.5C680.709 48.5 682.5 50.2909 682.5 52.5V159.5C682.5 161.709 680.709 163.5 678.5 163.5H659.5C657.291 163.5 655.5 161.709 655.5 159.5V52.5Z" fill="white"/>
<path d="M656 52.5C656 50.567 657.567 49 659.5 49H678.5C680.433 49 682 50.567 682 52.5V159.5C682 161.433 680.433 163 678.5 163H659.5C657.567 163 656 161.433 656 159.5V52.5Z" stroke="url(#paint52_linear_25_5231)" stroke-opacity="0.5"/>
<path d="M702.5 96.5C702.5 94.2909 704.291 92.5 706.5 92.5H725.5C727.709 92.5 729.5 94.2909 729.5 96.5V159.5C729.5 161.709 727.709 163.5 725.5 163.5H706.5C704.291 163.5 702.5 161.709 702.5 159.5V96.5Z" fill="white"/>
<path d="M703 96.5C703 94.567 704.567 93 706.5 93H725.5C727.433 93 729 94.567 729 96.5V159.5C729 161.433 727.433 163 725.5 163H706.5C704.567 163 703 161.433 703 159.5V96.5Z" stroke="url(#paint53_linear_25_5231)" stroke-opacity="0.5"/>
<path d="M749.5 96.5C749.5 94.2909 751.291 92.5 753.5 92.5H772.5C774.709 92.5 776.5 94.2909 776.5 96.5V159.5C776.5 161.709 774.709 163.5 772.5 163.5H753.5C751.291 163.5 749.5 161.709 749.5 159.5V96.5Z" fill="white"/>
<path d="M750 96.5C750 94.567 751.567 93 753.5 93H772.5C774.433 93 776 94.567 776 96.5V159.5C776 161.433 774.433 163 772.5 163H753.5C751.567 163 750 161.433 750 159.5V96.5Z" stroke="url(#paint54_linear_25_5231)" stroke-opacity="0.5"/>
<path d="M796.5 82.5C796.5 80.2909 798.291 78.5 800.5 78.5H819.5C821.709 78.5 823.5 80.2909 823.5 82.5V159.5C823.5 161.709 821.709 163.5 819.5 163.5H800.5C798.291 163.5 796.5 161.709 796.5 159.5V82.5Z" fill="white"/>
<path d="M797 82.5C797 80.567 798.567 79 800.5 79H819.5C821.433 79 823 80.567 823 82.5V159.5C823 161.433 821.433 163 819.5 163H800.5C798.567 163 797 161.433 797 159.5V82.5Z" stroke="url(#paint55_linear_25_5231)" stroke-opacity="0.5"/>
<path d="M843.5 82.5C843.5 80.2909 845.291 78.5 847.5 78.5H866.5C868.709 78.5 870.5 80.2909 870.5 82.5V159.5C870.5 161.709 868.709 163.5 866.5 163.5H847.5C845.291 163.5 843.5 161.709 843.5 159.5V82.5Z" fill="white"/>
<path d="M844 82.5C844 80.567 845.567 79 847.5 79H866.5C868.433 79 870 80.567 870 82.5V159.5C870 161.433 868.433 163 866.5 163H847.5C845.567 163 844 161.433 844 159.5V82.5Z" stroke="url(#paint56_linear_25_5231)" stroke-opacity="0.5"/>
<defs>
<linearGradient id="paint0_linear_25_5231" x1="0" y1="87.5" x2="892" y2="87.5" gradientUnits="userSpaceOnUse">
<stop stop-color="#30A5FF"/>
<stop offset="0.33" stop-color="#FCAD19"/>
<stop offset="0.66" stop-color="#E06E58"/>
<stop offset="1" stop-color="#BA4EFC"/>
</linearGradient>
<linearGradient id="paint1_linear_25_5231" x1="138.5" y1="128" x2="165.5" y2="128" gradientUnits="userSpaceOnUse">
<stop stop-color="#30A5FF"/>
<stop offset="0.33" stop-color="#FCAD19"/>
<stop offset="0.66" stop-color="#E06E58"/>
<stop offset="1" stop-color="#BA4EFC"/>
</linearGradient>
<linearGradient id="paint2_linear_25_5231" x1="185.5" y1="148.5" x2="212.5" y2="148.5" gradientUnits="userSpaceOnUse">
<stop stop-color="#30A5FF"/>
<stop offset="0.33" stop-color="#FCAD19"/>
<stop offset="0.66" stop-color="#E06E58"/>
<stop offset="1" stop-color="#BA4EFC"/>
</linearGradient>
<linearGradient id="paint3_linear_25_5231" x1="232.719" y1="184.758" x2="231.477" y2="184.761" gradientUnits="userSpaceOnUse">
<stop stop-color="#E6E5FB"/>
<stop offset="1" stop-color="#FEFDFF"/>
</linearGradient>
<linearGradient id="paint4_linear_25_5231" x1="235.719" y1="184.758" x2="234.477" y2="184.761" gradientUnits="userSpaceOnUse">
<stop stop-color="#E6E5FB"/>
<stop offset="1" stop-color="#FEFDFF"/>
</linearGradient>
<linearGradient id="paint5_linear_25_5231" x1="238.719" y1="184.758" x2="237.477" y2="184.761" gradientUnits="userSpaceOnUse">
<stop stop-color="#E6E5FB"/>
<stop offset="1" stop-color="#FEFDFF"/>
</linearGradient>
<linearGradient id="paint6_linear_25_5231" x1="241.719" y1="184.758" x2="240.477" y2="184.761" gradientUnits="userSpaceOnUse">
<stop stop-color="#E6E5FB"/>
<stop offset="1" stop-color="#FEFDFF"/>
</linearGradient>
<linearGradient id="paint7_linear_25_5231" x1="244.719" y1="184.758" x2="243.477" y2="184.761" gradientUnits="userSpaceOnUse">
<stop stop-color="#E6E5FB"/>
<stop offset="1" stop-color="#FEFDFF"/>
</linearGradient>
<linearGradient id="paint8_linear_25_5231" x1="247.719" y1="184.758" x2="246.477" y2="184.761" gradientUnits="userSpaceOnUse">
<stop stop-color="#E6E5FB"/>
<stop offset="1" stop-color="#FEFDFF"/>
</linearGradient>
<linearGradient id="paint9_linear_25_5231" x1="250.719" y1="184.758" x2="249.477" y2="184.761" gradientUnits="userSpaceOnUse">
<stop stop-color="#E6E5FB"/>
<stop offset="1" stop-color="#FEFDFF"/>
</linearGradient>
<linearGradient id="paint10_linear_25_5231" x1="253.719" y1="184.758" x2="252.477" y2="184.761" gradientUnits="userSpaceOnUse">
<stop stop-color="#E6E5FB"/>
<stop offset="1" stop-color="#FEFDFF"/>
</linearGradient>
<linearGradient id="paint11_linear_25_5231" x1="256.719" y1="184.758" x2="255.477" y2="184.761" gradientUnits="userSpaceOnUse">
<stop stop-color="#E6E5FB"/>
<stop offset="1" stop-color="#FEFDFF"/>
</linearGradient>
<linearGradient id="paint12_linear_25_5231" x1="259.719" y1="184.758" x2="258.477" y2="184.761" gradientUnits="userSpaceOnUse">
<stop stop-color="#E6E5FB"/>
<stop offset="1" stop-color="#FEFDFF"/>
</linearGradient>
<linearGradient id="paint13_linear_25_5231" x1="232.5" y1="136" x2="259.5" y2="136" gradientUnits="userSpaceOnUse">
<stop stop-color="#30A5FF"/>
<stop offset="0.33" stop-color="#FCAD19"/>
<stop offset="0.66" stop-color="#E06E58"/>
<stop offset="1" stop-color="#BA4EFC"/>
</linearGradient>
<linearGradient id="paint14_linear_25_5231" x1="279.719" y1="184.758" x2="278.477" y2="184.761" gradientUnits="userSpaceOnUse">
<stop stop-color="#E6E5FB"/>
<stop offset="1" stop-color="#FEFDFF"/>
</linearGradient>
<linearGradient id="paint15_linear_25_5231" x1="282.719" y1="184.758" x2="281.477" y2="184.761" gradientUnits="userSpaceOnUse">
<stop stop-color="#E6E5FB"/>
<stop offset="1" stop-color="#FEFDFF"/>
</linearGradient>
<linearGradient id="paint16_linear_25_5231" x1="285.719" y1="184.758" x2="284.477" y2="184.761" gradientUnits="userSpaceOnUse">
<stop stop-color="#E6E5FB"/>
<stop offset="1" stop-color="#FEFDFF"/>
</linearGradient>
<linearGradient id="paint17_linear_25_5231" x1="288.719" y1="184.758" x2="287.477" y2="184.761" gradientUnits="userSpaceOnUse">
<stop stop-color="#E6E5FB"/>
<stop offset="1" stop-color="#FEFDFF"/>
</linearGradient>
<linearGradient id="paint18_linear_25_5231" x1="291.719" y1="184.758" x2="290.477" y2="184.761" gradientUnits="userSpaceOnUse">
<stop stop-color="#E6E5FB"/>
<stop offset="1" stop-color="#FEFDFF"/>
</linearGradient>
<linearGradient id="paint19_linear_25_5231" x1="294.719" y1="184.758" x2="293.477" y2="184.761" gradientUnits="userSpaceOnUse">
<stop stop-color="#E6E5FB"/>
<stop offset="1" stop-color="#FEFDFF"/>
</linearGradient>
<linearGradient id="paint20_linear_25_5231" x1="297.719" y1="184.758" x2="296.477" y2="184.761" gradientUnits="userSpaceOnUse">
<stop stop-color="#E6E5FB"/>
<stop offset="1" stop-color="#FEFDFF"/>
</linearGradient>
<linearGradient id="paint21_linear_25_5231" x1="300.719" y1="184.758" x2="299.477" y2="184.761" gradientUnits="userSpaceOnUse">
<stop stop-color="#E6E5FB"/>
<stop offset="1" stop-color="#FEFDFF"/>
</linearGradient>
<linearGradient id="paint22_linear_25_5231" x1="303.719" y1="184.758" x2="302.477" y2="184.761" gradientUnits="userSpaceOnUse">
<stop stop-color="#E6E5FB"/>
<stop offset="1" stop-color="#FEFDFF"/>
</linearGradient>
<linearGradient id="paint23_linear_25_5231" x1="306.719" y1="184.758" x2="305.477" y2="184.761" gradientUnits="userSpaceOnUse">
<stop stop-color="#E6E5FB"/>
<stop offset="1" stop-color="#FEFDFF"/>
</linearGradient>
<linearGradient id="paint24_linear_25_5231" x1="279.5" y1="136" x2="306.5" y2="136" gradientUnits="userSpaceOnUse">
<stop stop-color="#30A5FF"/>
<stop offset="0.33" stop-color="#FCAD19"/>
<stop offset="0.66" stop-color="#E06E58"/>
<stop offset="1" stop-color="#BA4EFC"/>
</linearGradient>
<linearGradient id="paint25_linear_25_5231" x1="326.5" y1="128" x2="353.5" y2="128" gradientUnits="userSpaceOnUse">
<stop stop-color="#30A5FF"/>
<stop offset="0.33" stop-color="#FCAD19"/>
<stop offset="0.66" stop-color="#E06E58"/>
<stop offset="1" stop-color="#BA4EFC"/>
</linearGradient>
<linearGradient id="paint26_linear_25_5231" x1="373.5" y1="128" x2="400.5" y2="128" gradientUnits="userSpaceOnUse">
<stop stop-color="#30A5FF"/>
<stop offset="0.33" stop-color="#FCAD19"/>
<stop offset="0.66" stop-color="#E06E58"/>
<stop offset="1" stop-color="#BA4EFC"/>
</linearGradient>
<linearGradient id="paint27_linear_25_5231" x1="420.5" y1="147.5" x2="447.5" y2="147.5" gradientUnits="userSpaceOnUse">
<stop stop-color="#30A5FF"/>
<stop offset="0.33" stop-color="#FCAD19"/>
<stop offset="0.66" stop-color="#E06E58"/>
<stop offset="1" stop-color="#BA4EFC"/>
</linearGradient>
<linearGradient id="paint28_linear_25_5231" x1="467.5" y1="147.5" x2="494.5" y2="147.5" gradientUnits="userSpaceOnUse">
<stop stop-color="#30A5FF"/>
<stop offset="0.33" stop-color="#FCAD19"/>
<stop offset="0.66" stop-color="#E06E58"/>
<stop offset="1" stop-color="#BA4EFC"/>
</linearGradient>
<linearGradient id="paint29_linear_25_5231" x1="514.5" y1="147.5" x2="541.5" y2="147.5" gradientUnits="userSpaceOnUse">
<stop stop-color="#30A5FF"/>
<stop offset="0.33" stop-color="#FCAD19"/>
<stop offset="0.66" stop-color="#E06E58"/>
<stop offset="1" stop-color="#BA4EFC"/>
</linearGradient>
<linearGradient id="paint30_linear_25_5231" x1="561.5" y1="147.5" x2="588.5" y2="147.5" gradientUnits="userSpaceOnUse">
<stop stop-color="#30A5FF"/>
<stop offset="0.33" stop-color="#FCAD19"/>
<stop offset="0.66" stop-color="#E06E58"/>
<stop offset="1" stop-color="#BA4EFC"/>
</linearGradient>
<linearGradient id="paint31_linear_25_5231" x1="608.719" y1="154.758" x2="607.477" y2="154.761" gradientUnits="userSpaceOnUse">
<stop stop-color="#E6E5FB"/>
<stop offset="1" stop-color="#FEFDFF"/>
</linearGradient>
<linearGradient id="paint32_linear_25_5231" x1="611.719" y1="154.758" x2="610.477" y2="154.761" gradientUnits="userSpaceOnUse">
<stop stop-color="#E6E5FB"/>
<stop offset="1" stop-color="#FEFDFF"/>
</linearGradient>
<linearGradient id="paint33_linear_25_5231" x1="614.719" y1="154.758" x2="613.477" y2="154.761" gradientUnits="userSpaceOnUse">
<stop stop-color="#E6E5FB"/>
<stop offset="1" stop-color="#FEFDFF"/>
</linearGradient>
<linearGradient id="paint34_linear_25_5231" x1="617.719" y1="154.758" x2="616.477" y2="154.761" gradientUnits="userSpaceOnUse">
<stop stop-color="#E6E5FB"/>
<stop offset="1" stop-color="#FEFDFF"/>
</linearGradient>
<linearGradient id="paint35_linear_25_5231" x1="620.719" y1="154.758" x2="619.477" y2="154.761" gradientUnits="userSpaceOnUse">
<stop stop-color="#E6E5FB"/>
<stop offset="1" stop-color="#FEFDFF"/>
</linearGradient>
<linearGradient id="paint36_linear_25_5231" x1="623.719" y1="154.758" x2="622.477" y2="154.761" gradientUnits="userSpaceOnUse">
<stop stop-color="#E6E5FB"/>
<stop offset="1" stop-color="#FEFDFF"/>
</linearGradient>
<linearGradient id="paint37_linear_25_5231" x1="626.719" y1="154.758" x2="625.477" y2="154.761" gradientUnits="userSpaceOnUse">
<stop stop-color="#E6E5FB"/>
<stop offset="1" stop-color="#FEFDFF"/>
</linearGradient>
<linearGradient id="paint38_linear_25_5231" x1="629.719" y1="154.758" x2="628.477" y2="154.761" gradientUnits="userSpaceOnUse">
<stop stop-color="#E6E5FB"/>
<stop offset="1" stop-color="#FEFDFF"/>
</linearGradient>
<linearGradient id="paint39_linear_25_5231" x1="632.719" y1="154.758" x2="631.477" y2="154.761" gradientUnits="userSpaceOnUse">
<stop stop-color="#E6E5FB"/>
<stop offset="1" stop-color="#FEFDFF"/>
</linearGradient>
<linearGradient id="paint40_linear_25_5231" x1="635.719" y1="154.758" x2="634.477" y2="154.761" gradientUnits="userSpaceOnUse">
<stop stop-color="#E6E5FB"/>
<stop offset="1" stop-color="#FEFDFF"/>
</linearGradient>
<linearGradient id="paint41_linear_25_5231" x1="608.5" y1="106" x2="635.5" y2="106" gradientUnits="userSpaceOnUse">
<stop stop-color="#30A5FF"/>
<stop offset="0.33" stop-color="#FCAD19"/>
<stop offset="0.66" stop-color="#E06E58"/>
<stop offset="1" stop-color="#BA4EFC"/>
</linearGradient>
<linearGradient id="paint42_linear_25_5231" x1="655.719" y1="154.758" x2="654.477" y2="154.761" gradientUnits="userSpaceOnUse">
<stop stop-color="#E6E5FB"/>
<stop offset="1" stop-color="#FEFDFF"/>
</linearGradient>
<linearGradient id="paint43_linear_25_5231" x1="658.719" y1="154.758" x2="657.477" y2="154.761" gradientUnits="userSpaceOnUse">
<stop stop-color="#E6E5FB"/>
<stop offset="1" stop-color="#FEFDFF"/>
</linearGradient>
<linearGradient id="paint44_linear_25_5231" x1="661.719" y1="154.758" x2="660.477" y2="154.761" gradientUnits="userSpaceOnUse">
<stop stop-color="#E6E5FB"/>
<stop offset="1" stop-color="#FEFDFF"/>
</linearGradient>
<linearGradient id="paint45_linear_25_5231" x1="664.719" y1="154.758" x2="663.477" y2="154.761" gradientUnits="userSpaceOnUse">
<stop stop-color="#E6E5FB"/>
<stop offset="1" stop-color="#FEFDFF"/>
</linearGradient>
<linearGradient id="paint46_linear_25_5231" x1="667.719" y1="154.758" x2="666.477" y2="154.761" gradientUnits="userSpaceOnUse">
<stop stop-color="#E6E5FB"/>
<stop offset="1" stop-color="#FEFDFF"/>
</linearGradient>
<linearGradient id="paint47_linear_25_5231" x1="670.719" y1="154.758" x2="669.477" y2="154.761" gradientUnits="userSpaceOnUse">
<stop stop-color="#E6E5FB"/>
<stop offset="1" stop-color="#FEFDFF"/>
</linearGradient>
<linearGradient id="paint48_linear_25_5231" x1="673.719" y1="154.758" x2="672.477" y2="154.761" gradientUnits="userSpaceOnUse">
<stop stop-color="#E6E5FB"/>
<stop offset="1" stop-color="#FEFDFF"/>
</linearGradient>
<linearGradient id="paint49_linear_25_5231" x1="676.719" y1="154.758" x2="675.477" y2="154.761" gradientUnits="userSpaceOnUse">
<stop stop-color="#E6E5FB"/>
<stop offset="1" stop-color="#FEFDFF"/>
</linearGradient>
<linearGradient id="paint50_linear_25_5231" x1="679.719" y1="154.758" x2="678.477" y2="154.761" gradientUnits="userSpaceOnUse">
<stop stop-color="#E6E5FB"/>
<stop offset="1" stop-color="#FEFDFF"/>
</linearGradient>
<linearGradient id="paint51_linear_25_5231" x1="682.719" y1="154.758" x2="681.477" y2="154.761" gradientUnits="userSpaceOnUse">
<stop stop-color="#E6E5FB"/>
<stop offset="1" stop-color="#FEFDFF"/>
</linearGradient>
<linearGradient id="paint52_linear_25_5231" x1="655.5" y1="106" x2="682.5" y2="106" gradientUnits="userSpaceOnUse">
<stop stop-color="#30A5FF"/>
<stop offset="0.33" stop-color="#FCAD19"/>
<stop offset="0.66" stop-color="#E06E58"/>
<stop offset="1" stop-color="#BA4EFC"/>
</linearGradient>
<linearGradient id="paint53_linear_25_5231" x1="702.5" y1="128" x2="729.5" y2="128" gradientUnits="userSpaceOnUse">
<stop stop-color="#30A5FF"/>
<stop offset="0.33" stop-color="#FCAD19"/>
<stop offset="0.66" stop-color="#E06E58"/>
<stop offset="1" stop-color="#BA4EFC"/>
</linearGradient>
<linearGradient id="paint54_linear_25_5231" x1="749.5" y1="128" x2="776.5" y2="128" gradientUnits="userSpaceOnUse">
<stop stop-color="#30A5FF"/>
<stop offset="0.33" stop-color="#FCAD19"/>
<stop offset="0.66" stop-color="#E06E58"/>
<stop offset="1" stop-color="#BA4EFC"/>
</linearGradient>
<linearGradient id="paint55_linear_25_5231" x1="796.5" y1="121" x2="823.5" y2="121" gradientUnits="userSpaceOnUse">
<stop stop-color="#30A5FF"/>
<stop offset="0.33" stop-color="#FCAD19"/>
<stop offset="0.66" stop-color="#E06E58"/>
<stop offset="1" stop-color="#BA4EFC"/>
</linearGradient>
<linearGradient id="paint56_linear_25_5231" x1="843.5" y1="121" x2="870.5" y2="121" gradientUnits="userSpaceOnUse">
<stop stop-color="#30A5FF"/>
<stop offset="0.33" stop-color="#FCAD19"/>
<stop offset="0.66" stop-color="#E06E58"/>
<stop offset="1" stop-color="#BA4EFC"/>
</linearGradient>
</defs>
</svg>
