<svg width="1440" height="2749" viewBox="0 0 1440 2749" fill="none" xmlns="http://www.w3.org/2000/svg">
<g clip-path="url(#clip0_23_4894)">
<path d="M0 36C0 16.1178 16.1178 0 36 0H1404C1423.88 0 1440 16.1178 1440 36V1462H0V36Z" fill="black"/>
<g opacity="0.25">
<path d="M1605.52 1086.63C1638.72 1116.79 1620.48 1146.89 1588.74 1166.61C1561.81 1183.34 1527.3 1196.15 1497.67 1207.8C1454.8 1224.67 1405.37 1245.13 1361.37 1257.52C1345.9 1261.87 1320.6 1268.08 1304.99 1265.17C1300.16 1264.27 1292.15 1258.71 1289.31 1254.68C1278.26 1239.06 1287.16 1215.02 1294.44 1199.07C1306.02 1173.69 1323.6 1147.43 1338.82 1123.92C1355.98 1097.45 1374.28 1068.89 1392.66 1043.41C1411.91 1016.71 1428.2 999.845 1462.82 1013.1C1493.42 1024.82 1527.4 1041.42 1556.73 1056.55C1572.13 1064.5 1592.78 1075.05 1605.52 1086.63V1086.63Z" fill="url(#paint0_linear_23_4894)"/>
<path d="M1557.41 1057.46C1572.66 1065.33 1592.57 1075.61 1605.02 1086.85V1086.86L1605.19 1087C1613.44 1094.5 1618.47 1101.97 1620.89 1109.24C1623.32 1116.5 1623.16 1123.6 1621.01 1130.38C1616.68 1143.98 1604.3 1156.35 1588.47 1166.18L1588.7 1166.54L1588.47 1166.18C1564.23 1181.24 1533.82 1193.13 1506.33 1203.87C1503.34 1205.04 1500.39 1206.2 1497.49 1207.34L1497.67 1207.8L1497.49 1207.34C1491.34 1209.76 1485.05 1212.25 1478.67 1214.78C1440.54 1229.91 1398.89 1246.43 1361.23 1257.04C1353.5 1259.21 1343.33 1261.85 1333.15 1263.57C1322.95 1265.3 1312.8 1266.12 1305.08 1264.68L1304.99 1265.15L1305.08 1264.68C1302.77 1264.25 1299.63 1262.68 1296.69 1260.68C1293.75 1258.69 1291.09 1256.33 1289.72 1254.39L1289.72 1254.39C1284.31 1246.74 1283.75 1236.98 1285.5 1227.09C1287.24 1217.2 1291.26 1207.25 1294.9 1199.28C1305.38 1176.31 1320.78 1152.61 1334.92 1130.85C1336.38 1128.61 1337.82 1126.39 1339.24 1124.19C1340.73 1121.9 1342.23 1119.59 1343.73 1117.27C1359.57 1092.79 1376.29 1066.97 1393.06 1043.7L1392.69 1043.43L1393.06 1043.7C1402.69 1030.34 1411.52 1019.54 1422.21 1013.71C1432.86 1007.9 1445.44 1006.98 1462.65 1013.57C1493.21 1025.28 1527.17 1041.86 1556.5 1057L1557.41 1057.46Z" stroke="white" stroke-opacity="0.05"/>
<path d="M1684.74 549.762C1699 562.583 1702.81 581.769 1693.21 598.774C1677.32 626.951 1611.85 657.394 1582.21 672.013C1557.51 684.19 1523.3 702.583 1497.95 710.831C1458.53 723.66 1450.03 695.801 1437.4 666.697C1427.5 643.9 1417.93 620.778 1409 597.606C1397.95 568.969 1377.49 517.747 1390.49 488.756C1411.12 442.696 1485.93 472.926 1520.89 484.112C1552.31 494.165 1583.45 504.367 1614.25 515.921C1636.17 524.14 1667.22 534.016 1684.74 549.769L1684.74 549.762Z" fill="url(#paint1_linear_23_4894)"/>
<path d="M1684.41 550.14L1684.41 550.14C1698.5 562.814 1702.25 581.742 1692.78 598.528C1688.85 605.49 1681.84 612.628 1673.02 619.658C1664.21 626.683 1653.63 633.573 1642.61 640.047C1623.74 651.138 1603.6 660.987 1588.89 668.181C1586.43 669.386 1584.12 670.516 1581.99 671.565C1577.03 674.007 1571.7 676.697 1566.14 679.503C1543.93 690.708 1518.03 703.772 1497.8 710.356C1488 713.546 1480.16 714.191 1473.73 712.949C1467.31 711.709 1462.24 708.579 1457.99 704.143C1453.72 699.698 1450.27 693.941 1447.09 687.455C1444.79 682.77 1442.65 677.728 1440.44 672.542C1439.59 670.545 1438.73 668.526 1437.85 666.497L1437.4 666.697L1437.85 666.497C1427.96 643.706 1418.4 620.59 1409.46 597.426L1409.08 597.574L1409.46 597.426C1409.17 596.653 1408.86 595.863 1408.55 595.058C1403.1 580.948 1395.81 562.089 1391.21 543.195C1386.35 523.198 1384.52 503.291 1390.94 488.96L1390.94 488.96C1396.04 477.585 1404.47 470.929 1414.81 467.5C1425.17 464.065 1437.46 463.868 1450.26 465.463C1471.27 468.082 1493.48 475.515 1510.45 481.193C1514.15 482.431 1517.6 483.585 1520.73 484.588L1520.89 484.112L1520.73 484.588C1552.15 494.641 1583.29 504.839 1614.08 516.389L1614.22 516.011L1614.08 516.389C1617.02 517.494 1620.13 518.628 1623.35 519.802C1632.11 522.998 1641.68 526.486 1650.95 530.479C1663.63 535.938 1675.71 542.32 1684.41 550.14Z" stroke="white" stroke-opacity="0.05"/>
<path d="M1277.21 956.63C1289.05 973.091 1278.58 1013.97 1274.58 1033.52C1269.23 1059.68 1263.3 1086.19 1257.04 1112.09C1250.14 1140.62 1237.81 1196.11 1216.07 1215.48C1178.04 1249.36 1145.6 1183.67 1130.68 1157.3C1106.45 1114.46 1082.93 1069.05 1061.79 1023.87C1049.14 996.829 1029.09 954.804 1050.25 927.278C1071.71 899.356 1124.78 912.234 1154.36 917.791C1183.25 923.221 1221.73 929.82 1249.16 939.073C1259.48 942.556 1270.67 947.54 1277.21 956.623V956.63Z" fill="url(#paint2_linear_23_4894)"/>
<path d="M1249 939.546C1259.26 943.01 1270.26 947.922 1276.71 956.785V956.791L1276.8 956.922C1279.69 960.935 1281.24 966.475 1281.86 972.887C1282.47 979.292 1282.15 986.518 1281.34 993.861C1280.03 1005.61 1277.46 1017.61 1275.46 1026.95C1274.96 1029.29 1274.49 1031.46 1274.09 1033.42C1268.74 1059.58 1262.81 1086.08 1256.55 1111.97C1256.18 1113.5 1255.8 1115.11 1255.4 1116.78C1252.05 1130.73 1247.59 1149.36 1241.65 1167.06C1238.32 1176.98 1234.53 1186.6 1230.23 1194.94C1225.92 1203.29 1221.11 1210.33 1215.74 1215.11C1206.33 1223.49 1197.32 1225.67 1188.88 1223.9C1180.41 1222.13 1172.4 1216.35 1165.07 1208.64C1152.34 1195.25 1141.76 1176.21 1134.31 1162.77C1133.17 1160.72 1132.11 1158.8 1131.12 1157.06C1106.89 1114.23 1083.38 1068.82 1062.24 1023.66C1062.1 1023.37 1061.96 1023.07 1061.82 1022.77C1055.56 1009.38 1047.68 992.533 1043.83 975.645C1039.89 958.377 1040.2 941.172 1050.65 927.583L1050.25 927.278L1050.65 927.583C1061.23 913.821 1079.64 910.056 1099.25 910.48C1115.96 910.84 1133.41 914.236 1147.37 916.955C1149.78 917.424 1152.09 917.873 1154.27 918.283C1157.6 918.909 1161.06 919.55 1164.61 920.209C1191.89 925.271 1224.77 931.372 1249 939.546Z" stroke="white" stroke-opacity="0.05"/>
<path d="M1309.85 768.509C1298.88 787.922 1277.07 795.851 1256.94 802.23C1236.81 808.609 1213.29 815.051 1192.06 820.821C1165 828.177 1122.04 840.892 1094.78 839.519C1043.75 836.956 1063.11 790.01 1079.56 762.06C1101.99 723.943 1133.16 687.256 1160.18 652.254C1180.65 625.726 1200.66 598.3 1222.46 572.523C1236.52 555.885 1268.77 517.061 1290.7 514.866C1325.2 511.411 1325.88 554.477 1326.45 578.845C1327.48 623.263 1323.76 674.442 1320.03 718.923C1318.84 733.217 1316.9 756.056 1309.85 768.516L1309.85 768.509Z" fill="url(#paint3_linear_23_4894)"/>
<path d="M1316.64 744.325C1315.18 753.088 1313.03 761.579 1309.74 767.693L1309.73 767.691L1309.41 768.263C1298.55 787.482 1276.94 795.367 1256.79 801.753C1236.67 808.128 1213.16 814.568 1191.93 820.339C1189.45 821.014 1186.83 821.735 1184.1 822.485C1171.97 825.823 1157.68 829.752 1143.38 832.955C1125.86 836.88 1108.36 839.702 1094.81 839.019L1094.78 839.519L1094.81 839.019C1082.12 838.382 1073.9 834.99 1068.92 829.915C1063.94 824.845 1062.11 818.015 1062.37 810.326C1062.88 794.913 1071.77 776.284 1079.99 762.313C1097.41 732.709 1120.1 703.974 1142.05 676.19C1148.33 668.234 1154.55 660.357 1160.57 652.56C1166.19 645.278 1171.77 637.931 1177.37 630.571C1192.16 611.104 1207.03 591.543 1222.84 572.846C1223.21 572.406 1223.59 571.952 1223.99 571.483C1231.1 563.066 1242.1 550.043 1253.97 538.639C1260.24 532.62 1266.75 527.063 1273.04 522.877C1279.34 518.686 1285.38 515.9 1290.75 515.363C1299.26 514.511 1305.64 516.529 1310.45 520.369C1315.27 524.22 1318.56 529.943 1320.82 536.583C1325.27 549.652 1325.65 566.087 1325.93 578.236L1325.95 578.856C1326.97 623.245 1323.26 674.399 1319.54 718.882C1318.94 726.031 1318.15 735.294 1316.64 744.325Z" stroke="white" stroke-opacity="0.05"/>
</g>
<g opacity="0.5">
<path d="M855.451 -457.163V-396.484C844.08 -293.896 831.629 -190.33 814.815 -88.2034C807.459 -43.54 794.423 43.2562 759.354 73.2081C712.204 113.463 667.777 59.0926 640.401 23.6858C611.945 -13.1158 585.536 -55.0236 560.286 -93.9059C535.125 -132.642 497.39 -176.057 519.064 -225.546C535.339 -262.718 593.432 -320.721 622.304 -352.675C657.362 -391.467 694.062 -433.06 732.405 -468.433C756.013 -490.219 800.17 -528.224 832.9 -505.955C847.758 -495.854 854.124 -474.372 855.474 -457.175L855.451 -457.163Z" fill="url(#paint4_linear_23_4894)"/>
<path d="M854.951 -457.435V-457.163V-396.511C843.581 -293.935 831.132 -190.389 814.321 -88.2846C814.046 -86.6166 813.764 -84.89 813.473 -83.11C809.862 -61.0516 804.91 -30.7945 796.995 -2.11383C792.718 13.3826 787.58 28.4051 781.329 41.4159C775.076 54.431 767.722 65.4031 759.029 72.8279C747.318 82.8259 735.813 86.9214 724.726 86.9316C713.627 86.9419 702.891 82.859 692.731 76.398C672.394 63.4656 654.492 41.0934 640.797 23.3799C616.05 -8.62485 592.851 -44.4944 570.604 -78.8938C567.284 -84.0272 563.985 -89.1279 560.705 -94.1782L560.286 -93.9059L560.705 -94.1782C557.453 -99.1851 553.997 -104.262 550.489 -109.415C540.396 -124.242 529.877 -139.695 522.568 -155.899C512.734 -177.702 508.761 -200.773 519.522 -225.345L519.064 -225.546L519.522 -225.345C527.625 -243.852 546.167 -267.593 566.337 -290.739C579.2 -305.499 592.692 -319.982 604.529 -332.688C611.251 -339.903 617.439 -346.545 622.675 -352.34C626.478 -356.548 630.301 -360.79 634.143 -365.052C665.718 -400.086 698.579 -436.547 732.744 -468.066L732.425 -468.411L732.744 -468.066C744.548 -478.959 761.446 -493.865 779.463 -503.272C797.491 -512.684 816.487 -516.518 832.619 -505.541L832.883 -505.929L832.619 -505.541C839.94 -500.564 845.196 -492.763 848.79 -484.036C852.342 -475.412 854.259 -465.917 854.951 -457.435Z" stroke="white" stroke-opacity="0.05"/>
<path d="M607.85 160.173C660.59 208.076 631.616 255.9 581.183 287.224C538.409 313.801 483.578 334.159 436.507 352.672C368.404 379.464 289.864 411.969 219.961 431.652C195.386 438.569 155.199 448.433 130.398 443.81C122.727 442.382 110.006 433.541 105.485 427.141C87.9391 402.33 102.077 364.145 113.639 338.804C132.04 298.482 159.956 256.766 184.149 219.413C211.402 177.348 240.476 131.987 269.675 91.4962C300.256 49.0822 326.137 22.2909 381.148 43.3573C429.748 61.9718 483.735 88.3357 530.333 112.383C554.808 125.013 587.605 141.772 607.85 160.162V160.173Z" fill="url(#paint5_linear_23_4894)"/>
<path d="M531.56 113.578C555.817 126.094 587.55 142.467 607.35 160.383V160.394L607.514 160.543C620.653 172.477 628.672 184.378 632.551 195.987C636.428 207.59 636.177 218.929 632.73 229.764C625.828 251.457 606.095 271.162 580.919 286.799L581.183 287.224L580.919 286.799C542.381 310.744 494.038 329.639 450.374 346.704C445.63 348.559 440.94 350.392 436.324 352.207C426.555 356.05 416.571 360.011 406.43 364.034C345.864 388.061 279.676 414.318 219.826 431.17C207.545 434.627 191.374 438.817 175.18 441.565C158.974 444.316 142.8 445.613 130.49 443.318C126.756 442.623 121.727 440.102 117.041 436.926C112.359 433.753 108.104 429.982 105.893 426.853L105.485 427.141L105.893 426.853C97.2315 414.604 96.3628 399.015 99.139 383.258C101.914 367.507 108.318 351.672 114.094 339.012C130.76 302.491 155.243 264.82 177.707 230.255C180.019 226.697 182.31 223.172 184.569 219.685C186.931 216.039 189.307 212.369 191.695 208.679C216.863 169.792 243.421 128.759 270.08 91.7887C285.375 70.5761 299.432 53.3659 316.49 44.0606C333.502 34.7801 353.566 33.3305 380.969 43.8243C429.542 62.4285 483.51 88.7821 530.104 112.827L531.56 113.578Z" stroke="white" stroke-opacity="0.05"/>
<path d="M86.2635 -46.3635C105.069 -20.2133 88.4455 44.7293 82.0907 75.7946C73.5876 117.354 64.1623 159.464 54.2196 200.607C43.2646 245.945 23.6717 334.102 -10.8691 364.875C-71.2902 418.694 -122.826 314.33 -146.524 272.444C-185.024 204.386 -222.388 132.234 -255.973 60.4644C-276.072 17.4993 -307.924 -49.2653 -274.306 -92.9952C-240.204 -137.355 -155.904 -116.896 -108.902 -108.067C-63.0121 -99.44 -1.87123 -88.9574 41.7012 -74.2571C58.1 -68.7234 75.8821 -60.8051 86.2635 -46.3747V-46.3635Z" fill="url(#paint6_linear_23_4894)"/>
<path d="M85.7635 -46.2131V-46.2024L85.8575 -46.0716C90.4853 -39.6365 92.9582 -30.7752 93.9411 -20.5649C94.9232 -10.3614 94.4131 1.14108 93.1153 12.8171C91.0384 31.5025 86.9521 50.5763 83.7714 65.4226C82.976 69.1349 82.2373 72.5829 81.6008 75.6944C73.099 117.248 63.675 159.352 53.7336 200.49C53.1461 202.921 52.5339 205.475 51.896 208.136C46.5838 230.297 39.4886 259.896 30.0459 288.044C24.7579 303.807 18.7375 319.103 11.888 332.372C5.03604 345.647 -2.63138 356.867 -11.2017 364.502C-26.2096 377.87 -40.6027 381.371 -54.1202 378.539C-67.674 375.699 -80.435 366.474 -92.1054 354.204C-112.364 332.906 -129.179 302.612 -141.026 281.266C-142.831 278.015 -144.52 274.971 -146.089 272.198C-184.583 204.151 -221.941 132.01 -255.52 60.2525C-255.741 59.7791 -255.964 59.3029 -256.188 58.8239C-266.142 37.5532 -278.675 10.7717 -284.796 -16.0897C-291.055 -43.5579 -290.585 -70.9989 -273.909 -92.6905L-274.306 -92.9952L-273.909 -92.6905C-257.012 -114.671 -227.63 -120.65 -196.452 -119.977C-169.877 -119.404 -142.129 -114.002 -119.944 -109.683C-116.117 -108.938 -112.455 -108.226 -108.994 -107.575C-103.704 -106.581 -98.2118 -105.562 -92.5684 -104.515C-49.2368 -96.4746 3.02719 -86.7771 41.5414 -73.7833C57.881 -68.2695 75.4684 -60.4228 85.7635 -46.2131Z" stroke="white" stroke-opacity="0.05"/>
</g>
<g opacity="0.75">
<g filter="url(#filter0_f_23_4894)">
<rect x="-195" y="2" width="554" height="554" fill="#A4FFF4" fill-opacity="0.15"/>
</g>
<g filter="url(#filter1_f_23_4894)">
<rect x="-633" y="-13" width="554" height="554" fill="#C5A4FF" fill-opacity="0.15"/>
</g>
</g>
<g opacity="0.75">
<g filter="url(#filter2_f_23_4894)">
<rect x="-179" y="665" width="554" height="554" fill="#A4FFF4" fill-opacity="0.15"/>
</g>
<g filter="url(#filter3_f_23_4894)">
<rect x="-617" y="650" width="554" height="554" fill="#C5A4FF" fill-opacity="0.15"/>
</g>
</g>
<g opacity="0.75">
<g filter="url(#filter4_f_23_4894)">
<rect x="1124" y="-90" width="554" height="554" fill="#C5A4FF" fill-opacity="0.2"/>
</g>
<g filter="url(#filter5_f_23_4894)">
<rect x="1451" y="-98" width="554" height="554" fill="#C5A4FF" fill-opacity="0.15"/>
</g>
<g filter="url(#filter6_f_23_4894)">
<rect x="811" y="-59" width="554" height="554" fill="#C5A4FF" fill-opacity="0.15"/>
</g>
</g>
<g opacity="0.75">
<g filter="url(#filter7_f_23_4894)">
<rect x="1140" y="573" width="554" height="554" fill="#C5A4FF" fill-opacity="0.2"/>
</g>
<g filter="url(#filter8_f_23_4894)">
<rect x="1467" y="565" width="554" height="554" fill="#C5A4FF" fill-opacity="0.15"/>
</g>
<g filter="url(#filter9_f_23_4894)">
<rect x="827" y="604" width="554" height="554" fill="#C5A4FF" fill-opacity="0.15"/>
</g>
</g>
</g>
<g clip-path="url(#clip1_23_4894)">
<path d="M0 1462H1440V2713C1440 2732.88 1423.88 2749 1404 2749H36C16.1177 2749 0 2732.88 0 2713V1462Z" fill="black"/>
<g opacity="0.5">
<g filter="url(#filter10_f_23_4894)">
<rect x="-567" y="1638" width="554" height="554" fill="#FFF9A4" fill-opacity="0.2"/>
</g>
<g filter="url(#filter11_f_23_4894)">
<rect x="198" y="1645" width="554" height="554" fill="#A4FFF4" fill-opacity="0.15"/>
</g>
<g filter="url(#filter12_f_23_4894)">
<rect x="-240" y="1630" width="554" height="554" fill="#C5A4FF" fill-opacity="0.15"/>
</g>
</g>
<g opacity="0.75">
<g filter="url(#filter13_f_23_4894)">
<rect x="878" y="2016" width="554" height="554" fill="#C5A4FF" fill-opacity="0.2"/>
</g>
<g filter="url(#filter14_f_23_4894)">
<rect x="1643" y="2023" width="554" height="554" fill="#C5A4FF" fill-opacity="0.15"/>
</g>
<g filter="url(#filter15_f_23_4894)">
<rect x="1205" y="2008" width="554" height="554" fill="#C5A4FF" fill-opacity="0.15"/>
</g>
<g filter="url(#filter16_f_23_4894)">
<rect x="565" y="2047" width="554" height="554" fill="#C5A4FF" fill-opacity="0.15"/>
</g>
</g>
</g>
<defs>
<filter id="filter0_f_23_4894" x="-495" y="-298" width="1154" height="1154" filterUnits="userSpaceOnUse" color-interpolation-filters="sRGB">
<feFlood flood-opacity="0" result="BackgroundImageFix"/>
<feBlend mode="normal" in="SourceGraphic" in2="BackgroundImageFix" result="shape"/>
<feGaussianBlur stdDeviation="150" result="effect1_foregroundBlur_23_4894"/>
</filter>
<filter id="filter1_f_23_4894" x="-933" y="-313" width="1154" height="1154" filterUnits="userSpaceOnUse" color-interpolation-filters="sRGB">
<feFlood flood-opacity="0" result="BackgroundImageFix"/>
<feBlend mode="normal" in="SourceGraphic" in2="BackgroundImageFix" result="shape"/>
<feGaussianBlur stdDeviation="150" result="effect1_foregroundBlur_23_4894"/>
</filter>
<filter id="filter2_f_23_4894" x="-479" y="365" width="1154" height="1154" filterUnits="userSpaceOnUse" color-interpolation-filters="sRGB">
<feFlood flood-opacity="0" result="BackgroundImageFix"/>
<feBlend mode="normal" in="SourceGraphic" in2="BackgroundImageFix" result="shape"/>
<feGaussianBlur stdDeviation="150" result="effect1_foregroundBlur_23_4894"/>
</filter>
<filter id="filter3_f_23_4894" x="-917" y="350" width="1154" height="1154" filterUnits="userSpaceOnUse" color-interpolation-filters="sRGB">
<feFlood flood-opacity="0" result="BackgroundImageFix"/>
<feBlend mode="normal" in="SourceGraphic" in2="BackgroundImageFix" result="shape"/>
<feGaussianBlur stdDeviation="150" result="effect1_foregroundBlur_23_4894"/>
</filter>
<filter id="filter4_f_23_4894" x="824" y="-390" width="1154" height="1154" filterUnits="userSpaceOnUse" color-interpolation-filters="sRGB">
<feFlood flood-opacity="0" result="BackgroundImageFix"/>
<feBlend mode="normal" in="SourceGraphic" in2="BackgroundImageFix" result="shape"/>
<feGaussianBlur stdDeviation="150" result="effect1_foregroundBlur_23_4894"/>
</filter>
<filter id="filter5_f_23_4894" x="1151" y="-398" width="1154" height="1154" filterUnits="userSpaceOnUse" color-interpolation-filters="sRGB">
<feFlood flood-opacity="0" result="BackgroundImageFix"/>
<feBlend mode="normal" in="SourceGraphic" in2="BackgroundImageFix" result="shape"/>
<feGaussianBlur stdDeviation="150" result="effect1_foregroundBlur_23_4894"/>
</filter>
<filter id="filter6_f_23_4894" x="511" y="-359" width="1154" height="1154" filterUnits="userSpaceOnUse" color-interpolation-filters="sRGB">
<feFlood flood-opacity="0" result="BackgroundImageFix"/>
<feBlend mode="normal" in="SourceGraphic" in2="BackgroundImageFix" result="shape"/>
<feGaussianBlur stdDeviation="150" result="effect1_foregroundBlur_23_4894"/>
</filter>
<filter id="filter7_f_23_4894" x="840" y="273" width="1154" height="1154" filterUnits="userSpaceOnUse" color-interpolation-filters="sRGB">
<feFlood flood-opacity="0" result="BackgroundImageFix"/>
<feBlend mode="normal" in="SourceGraphic" in2="BackgroundImageFix" result="shape"/>
<feGaussianBlur stdDeviation="150" result="effect1_foregroundBlur_23_4894"/>
</filter>
<filter id="filter8_f_23_4894" x="1167" y="265" width="1154" height="1154" filterUnits="userSpaceOnUse" color-interpolation-filters="sRGB">
<feFlood flood-opacity="0" result="BackgroundImageFix"/>
<feBlend mode="normal" in="SourceGraphic" in2="BackgroundImageFix" result="shape"/>
<feGaussianBlur stdDeviation="150" result="effect1_foregroundBlur_23_4894"/>
</filter>
<filter id="filter9_f_23_4894" x="527" y="304" width="1154" height="1154" filterUnits="userSpaceOnUse" color-interpolation-filters="sRGB">
<feFlood flood-opacity="0" result="BackgroundImageFix"/>
<feBlend mode="normal" in="SourceGraphic" in2="BackgroundImageFix" result="shape"/>
<feGaussianBlur stdDeviation="150" result="effect1_foregroundBlur_23_4894"/>
</filter>
<filter id="filter10_f_23_4894" x="-867" y="1338" width="1154" height="1154" filterUnits="userSpaceOnUse" color-interpolation-filters="sRGB">
<feFlood flood-opacity="0" result="BackgroundImageFix"/>
<feBlend mode="normal" in="SourceGraphic" in2="BackgroundImageFix" result="shape"/>
<feGaussianBlur stdDeviation="150" result="effect1_foregroundBlur_23_4894"/>
</filter>
<filter id="filter11_f_23_4894" x="-102" y="1345" width="1154" height="1154" filterUnits="userSpaceOnUse" color-interpolation-filters="sRGB">
<feFlood flood-opacity="0" result="BackgroundImageFix"/>
<feBlend mode="normal" in="SourceGraphic" in2="BackgroundImageFix" result="shape"/>
<feGaussianBlur stdDeviation="150" result="effect1_foregroundBlur_23_4894"/>
</filter>
<filter id="filter12_f_23_4894" x="-540" y="1330" width="1154" height="1154" filterUnits="userSpaceOnUse" color-interpolation-filters="sRGB">
<feFlood flood-opacity="0" result="BackgroundImageFix"/>
<feBlend mode="normal" in="SourceGraphic" in2="BackgroundImageFix" result="shape"/>
<feGaussianBlur stdDeviation="150" result="effect1_foregroundBlur_23_4894"/>
</filter>
<filter id="filter13_f_23_4894" x="578" y="1716" width="1154" height="1154" filterUnits="userSpaceOnUse" color-interpolation-filters="sRGB">
<feFlood flood-opacity="0" result="BackgroundImageFix"/>
<feBlend mode="normal" in="SourceGraphic" in2="BackgroundImageFix" result="shape"/>
<feGaussianBlur stdDeviation="150" result="effect1_foregroundBlur_23_4894"/>
</filter>
<filter id="filter14_f_23_4894" x="1343" y="1723" width="1154" height="1154" filterUnits="userSpaceOnUse" color-interpolation-filters="sRGB">
<feFlood flood-opacity="0" result="BackgroundImageFix"/>
<feBlend mode="normal" in="SourceGraphic" in2="BackgroundImageFix" result="shape"/>
<feGaussianBlur stdDeviation="150" result="effect1_foregroundBlur_23_4894"/>
</filter>
<filter id="filter15_f_23_4894" x="905" y="1708" width="1154" height="1154" filterUnits="userSpaceOnUse" color-interpolation-filters="sRGB">
<feFlood flood-opacity="0" result="BackgroundImageFix"/>
<feBlend mode="normal" in="SourceGraphic" in2="BackgroundImageFix" result="shape"/>
<feGaussianBlur stdDeviation="150" result="effect1_foregroundBlur_23_4894"/>
</filter>
<filter id="filter16_f_23_4894" x="265" y="1747" width="1154" height="1154" filterUnits="userSpaceOnUse" color-interpolation-filters="sRGB">
<feFlood flood-opacity="0" result="BackgroundImageFix"/>
<feBlend mode="normal" in="SourceGraphic" in2="BackgroundImageFix" result="shape"/>
<feGaussianBlur stdDeviation="150" result="effect1_foregroundBlur_23_4894"/>
</filter>
<linearGradient id="paint0_linear_23_4894" x1="1453.64" y1="1008.48" x2="1453.64" y2="1265.92" gradientUnits="userSpaceOnUse">
<stop stop-color="white" stop-opacity="0.05"/>
<stop offset="1" stop-color="white" stop-opacity="0"/>
</linearGradient>
<linearGradient id="paint1_linear_23_4894" x1="1542.41" y1="464" x2="1542.41" y2="714.04" gradientUnits="userSpaceOnUse">
<stop stop-color="white" stop-opacity="0.05"/>
<stop offset="1" stop-color="white" stop-opacity="0"/>
</linearGradient>
<linearGradient id="paint2_linear_23_4894" x1="1161.84" y1="909.948" x2="1161.84" y2="1224.97" gradientUnits="userSpaceOnUse">
<stop stop-color="white" stop-opacity="0.05"/>
<stop offset="1" stop-color="white" stop-opacity="0"/>
</linearGradient>
<linearGradient id="paint3_linear_23_4894" x1="1194.23" y1="514.67" x2="1194.23" y2="839.621" gradientUnits="userSpaceOnUse">
<stop stop-color="white" stop-opacity="0.05"/>
<stop offset="1" stop-color="white" stop-opacity="0"/>
</linearGradient>
<linearGradient id="paint4_linear_23_4894" x1="684.038" y1="-512.72" x2="684.038" y2="87.4317" gradientUnits="userSpaceOnUse">
<stop stop-color="white" stop-opacity="0.05"/>
<stop offset="1" stop-color="white" stop-opacity="0"/>
</linearGradient>
<linearGradient id="paint5_linear_23_4894" x1="366.558" y1="36.0137" x2="366.558" y2="445" gradientUnits="userSpaceOnUse">
<stop stop-color="white" stop-opacity="0.05"/>
<stop offset="1" stop-color="white" stop-opacity="0"/>
</linearGradient>
<linearGradient id="paint6_linear_23_4894" x1="-97.0228" y1="-120.527" x2="-97.0228" y2="379.953" gradientUnits="userSpaceOnUse">
<stop stop-color="white" stop-opacity="0.05"/>
<stop offset="1" stop-color="white" stop-opacity="0"/>
</linearGradient>
<clipPath id="clip0_23_4894">
<path d="M0 36C0 16.1178 16.1178 0 36 0H1404C1423.88 0 1440 16.1178 1440 36V1462H0V36Z" fill="white"/>
</clipPath>
<clipPath id="clip1_23_4894">
<path d="M0 1462H1440V2713C1440 2732.88 1423.88 2749 1404 2749H36C16.1177 2749 0 2732.88 0 2713V1462Z" fill="white"/>
</clipPath>
</defs>
</svg>
