<svg width="912" height="545" viewBox="0 0 912 545" fill="none" xmlns="http://www.w3.org/2000/svg">
<g clip-path="url(#clip0_28_11731)">
<rect width="910.466" height="543.28" transform="translate(0.766754 0.889648)" fill="white"/>
<g opacity="0.5">
<path d="M372.836 455.372H244.53C240.577 455.372 236.73 454.092 233.565 451.724L72.8898 331.488C69.7249 329.119 65.8783 327.839 61.9254 327.839H-37.2141C-47.3218 327.839 -55.5148 319.645 -55.5148 309.539V281.516" stroke="#F1E5DF" stroke-width="1.5"/>
<path d="M238.44 553.739V464.535C238.44 458.767 235.721 453.337 231.104 449.882L72.8898 331.488C69.7249 329.119 65.8783 327.839 61.9254 327.839H-37.2141C-47.3218 327.839 -55.5148 319.645 -55.5148 309.539V281.516" stroke="#F1E5DF" stroke-width="1.5"/>
<path d="M392.852 274.652H321.186C316.526 274.652 312.041 276.431 308.646 279.624L184.976 395.976C178.518 402.05 168.634 402.623 161.519 397.335L72.876 331.451C69.7192 329.105 65.8909 327.839 61.9585 327.839H-37.2141C-47.3218 327.839 -55.5148 319.645 -55.5148 309.538V281.515" stroke="#F1E5DF" stroke-width="1.5"/>
<path d="M-80.1064 224.326L16.3315 127.888C19.7629 124.457 24.4181 122.528 29.2712 122.528H149.651C154.504 122.528 159.159 120.6 162.591 117.168L234.796 44.9632C238.227 41.5311 242.883 39.6031 247.736 39.6031H296.914C301.767 39.6031 306.423 37.675 309.854 34.2429L343.097 1" stroke="#F1E5DF" stroke-width="1.5"/>
<path d="M392.852 274.652H129.353C124.5 274.652 119.845 272.724 116.413 269.293L54.5021 207.381C51.0707 203.95 46.4155 202.021 41.5624 202.021H-26.3481" stroke="#F1E5DF" stroke-width="1.5"/>
</g>
<g opacity="0.5">
<path d="M539.016 455.372H667.323C671.276 455.372 675.122 454.092 678.287 451.724L838.963 331.488C842.127 329.119 845.974 327.839 849.927 327.839H949.066C959.174 327.839 967.367 319.645 967.367 309.539V281.516" stroke="#F1E5DF" stroke-width="1.5"/>
<path d="M673.412 553.739V464.535C673.412 458.767 676.131 453.337 680.748 449.882L838.963 331.488C842.127 329.119 845.974 327.839 849.927 327.839H949.066C959.174 327.839 967.367 319.645 967.367 309.539V281.516" stroke="#F1E5DF" stroke-width="1.5"/>
<path d="M519 274.652H590.667C595.326 274.652 599.811 276.431 603.206 279.624L726.876 395.976C733.334 402.05 743.218 402.623 750.333 397.335L838.976 331.451C842.133 329.105 845.961 327.839 849.894 327.839H949.066C959.174 327.839 967.367 319.645 967.367 309.538V281.515" stroke="#F1E5DF" stroke-width="1.5"/>
<path d="M991.959 224.326L895.521 127.888C892.089 124.457 887.434 122.528 882.581 122.528H762.201C757.348 122.528 752.693 120.6 749.262 117.168L677.056 44.9632C673.625 41.5311 668.97 39.6031 664.116 39.6031H614.938C610.085 39.6031 605.43 37.675 601.998 34.2429L568.755 1" stroke="#F1E5DF" stroke-width="1.5"/>
<path d="M519 274.652H782.499C787.352 274.652 792.007 272.724 795.439 269.293L857.35 207.381C860.782 203.95 865.437 202.021 870.29 202.021H938.2" stroke="#F1E5DF" stroke-width="1.5"/>
</g>
</g>
<defs>
<clipPath id="clip0_28_11731">
<rect width="910.466" height="543.28" fill="white" transform="translate(0.766754 0.889648)"/>
</clipPath>
</defs>
</svg>
