<svg width="22" height="22" viewBox="0 0 22 22" fill="none" xmlns="http://www.w3.org/2000/svg">
<path d="M11 14.0002L8.00003 11.0002M11 14.0002C12.3969 13.469 13.7369 12.799 15 12.0002M11 14.0002V19.0002C11 19.0002 14.03 18.4502 15 17.0002C16.08 15.3802 15 12.0002 15 12.0002M8.00003 11.0002C8.53218 9.61968 9.20223 8.29631 10 7.05025C11.1652 5.18723 12.7877 3.6533 14.713 2.59434C16.6384 1.53538 18.8027 0.986619 21 1.00025C21 3.72025 20.22 8.50025 15 12.0002M8.00003 11.0002H3.00003C3.00003 11.0002 3.55003 7.97025 5.00003 7.00025C6.62003 5.92025 10 7.00025 10 7.00025M3.50003 15.5002C2.00003 16.7602 1.50003 20.5002 1.50003 20.5002C1.50003 20.5002 5.24003 20.0002 6.50003 18.5002C7.21003 17.6602 7.20003 16.3702 6.41003 15.5902C6.02134 15.2193 5.50932 15.0049 4.97226 14.9883C4.43519 14.9717 3.91091 15.154 3.50003 15.5002Z" stroke="#BA4EFC" stroke-width="2" stroke-linecap="round" stroke-linejoin="round"/>
</svg>
