<svg width="72" height="24" viewBox="0 0 72 24" fill="none" xmlns="http://www.w3.org/2000/svg">
<path d="M29.1195 5.93359H40.268L40.9842 7.23987C38.1217 10.0135 35.133 13.037 32.3233 15.8647H41.2161V17.8331H29.6747C29.5858 17.654 28.9945 16.5629 28.9237 16.3838L37.2805 7.9381H29.1208V5.93359H29.1195Z" fill="white"/>
<path d="M42.6937 6.11294C42.6937 5.25368 43.2657 4.71777 44.0721 4.71777C44.8786 4.71777 45.4506 5.29104 45.4506 6.07816C45.4506 6.93742 44.8786 7.47333 44.0902 7.47333C43.3018 7.47333 42.695 6.90135 42.695 6.11294H42.6937ZM43.1047 17.8334V8.88653H45.1272V17.8334H43.1047Z" fill="white"/>
<path d="M50.9063 8.67111C52.1584 8.67111 53.3217 9.17224 54.0741 10.0315V5.93359H56.0786V17.8331H54.1823L54.0754 16.742C53.3591 17.654 52.304 18.1023 51.1227 18.1023C48.8322 18.1023 46.7388 16.3671 46.7388 13.3964C46.7388 10.2286 48.6892 8.6724 50.9076 8.6724L50.9063 8.67111ZM51.4963 16.2408C53.2316 16.2408 54.0547 14.9887 54.0547 13.3784C54.0547 11.7681 53.3037 10.5867 51.5143 10.5867C49.8679 10.5867 48.7948 11.75 48.7948 13.5214C48.7948 15.1858 49.886 16.2408 51.4963 16.2408Z" fill="white"/>
<path d="M63.9549 8.68976C65.9053 8.68976 67.3185 10.0501 67.3185 12.1435V17.8337H65.2612V12.4295C65.2612 11.2482 64.3491 10.6041 63.3288 10.6041C62.1295 10.6041 60.7704 11.3371 60.2151 13.0015V17.8324H58.1926V8.88558H60.1249L60.2138 10.4959C61.2161 9.17157 62.6113 8.68848 63.9536 8.68848L63.9549 8.68976Z" fill="white"/>
<path d="M68.7729 6.11294C68.7729 5.25368 69.3449 4.71777 70.1514 4.71777C70.9578 4.71777 71.5298 5.29104 71.5298 6.07816C71.5298 6.93742 70.9578 7.47333 70.1694 7.47333C69.381 7.47333 68.7742 6.90135 68.7742 6.11294H68.7729ZM69.1839 17.8334V8.88653H71.2064V17.8334H69.1839Z" fill="white"/>
<path d="M10.4103 23.9999C9.61545 23.9999 8.8322 23.7899 8.14685 23.3931L5.82672 22.0533L20.353 13.6553V18.9796L12.675 23.3931C11.9884 23.7899 11.2051 23.9999 10.4103 23.9999Z" fill="url(#paint0_radial_28_11769)"/>
<path d="M0 18.687V16.4571C0 15.6377 0.440577 14.8751 1.14911 14.4655L13.2032 7.49991C14.0187 7.02842 14.525 6.15112 14.525 5.20941V1.94629L20.3517 5.31247V7.54242C20.3517 8.36175 19.9111 9.12439 19.2026 9.53405L7.14847 16.4996C6.33301 16.9711 5.82673 17.8484 5.82673 18.7901V22.0532L0 18.687Z" fill="white"/>
<path d="M0 5.02029L7.67793 0.606762C8.36457 0.209983 9.14782 0 9.94267 0C10.7375 0 11.5208 0.209983 12.2061 0.606762L14.5262 1.94654L0 10.3446V5.02029Z" fill="white"/>
<defs>
<radialGradient id="paint0_radial_28_11769" cx="0" cy="0" r="1" gradientUnits="userSpaceOnUse" gradientTransform="translate(1.1053 14.3483) scale(14.923 14.923)">
<stop offset="1" stop-color="white"/>
</radialGradient>
</defs>
</svg>
