<svg width="1200" height="920" viewBox="0 0 1200 920" fill="none" xmlns="http://www.w3.org/2000/svg">
<g clip-path="url(#clip0_35_2482)">
<rect width="1200" height="920" rx="8" fill="#35383E"/>
<g opacity="0.5">
<path d="M594.756 438.291H-335.3C-352.43 438.291 -368.861 431.485 -380.973 419.373L-797.318 3.0283C-809.43 -9.08564 -825.861 -15.8911 -842.991 -15.8911H-1270.42" stroke="white" stroke-opacity="0.05" stroke-width="1.5"/>
<path d="M594.756 438.292H189.532C172.403 438.292 155.971 431.485 143.86 419.374L0.0234373 275.537C-12.0881 263.426 -18.8948 246.995 -18.8948 229.861V129.448" stroke="white" stroke-opacity="0.05" stroke-width="1.5"/>
<path d="M2207.61 1358.77H1754.73C1740.78 1358.77 1727.2 1354.25 1716.03 1345.89L1148.91 921.5C1137.74 913.139 1124.16 908.622 1110.21 908.622H760.28C724.603 908.622 695.685 879.699 695.685 844.027V745.116" stroke="white" stroke-opacity="0.05" stroke-width="1.5"/>
<path d="M1733.24 1705.96V1391.11C1733.24 1370.75 1723.64 1351.58 1707.34 1339.39L1148.91 921.5C1137.74 913.139 1124.16 908.622 1110.21 908.622H760.28C724.603 908.622 695.685 879.699 695.685 844.027V745.116" stroke="white" stroke-opacity="0.05" stroke-width="1.5"/>
<path d="M2278.26 720.894H2025.3C2008.85 720.894 1993.02 727.171 1981.04 738.443L1544.53 1149.12C1521.73 1170.56 1486.85 1172.58 1461.73 1153.92L1148.86 921.372C1137.71 913.091 1124.2 908.622 1110.32 908.622H760.28C724.603 908.622 695.685 879.7 695.685 844.027V745.117" stroke="white" stroke-opacity="0.05" stroke-width="1.5"/>
<path d="M-1395.57 1699.91L-827.08 1131.42C-814.969 1119.31 -798.538 1112.5 -781.408 1112.5H-356.512C-339.382 1112.5 -322.95 1105.69 -310.839 1093.58L105.507 677.235C117.618 665.123 134.049 658.316 151.179 658.316H578.607" stroke="white" stroke-opacity="0.05" stroke-width="1.5"/>
<path d="M608.886 543.258L949.276 202.868C961.387 190.757 977.819 183.95 994.948 183.95H1419.84C1436.97 183.95 1453.41 177.144 1465.52 165.03L1720.38 -89.826C1732.49 -101.94 1748.92 -108.745 1766.05 -108.745H1939.63C1956.76 -108.745 1973.19 -115.551 1985.3 -127.665L2102.64 -245" stroke="white" stroke-opacity="0.05" stroke-width="1.5"/>
<path d="M578.606 658.316H151.178C134.048 658.316 117.617 665.123 105.505 677.235L-56.9909 839.731C-82.2192 864.959 -82.2192 905.856 -56.9909 931.084L105.505 1093.58C117.617 1105.69 124.424 1121.91 124.424 1139.05C124.424 1262.32 124.424 1635.43 124.424 1710" stroke="white" stroke-opacity="0.05" stroke-width="1.5"/>
<path d="M538.235 519.036H-391.821C-408.95 519.036 -425.382 512.229 -437.493 500.118L-656.017 281.594C-668.129 269.482 -684.56 262.675 -701.69 262.675H-941.389" stroke="white" stroke-opacity="0.05" stroke-width="1.5"/>
<path d="M2278.26 720.893H1348.2C1331.07 720.893 1314.64 714.086 1302.53 701.974L1084 483.45C1071.89 471.339 1055.46 464.532 1038.33 464.532H798.633" stroke="white" stroke-opacity="0.05" stroke-width="1.5"/>
</g>
</g>
<defs>
<clipPath id="clip0_35_2482">
<rect width="1200" height="920" rx="8" fill="white"/>
</clipPath>
</defs>
</svg>
