<svg width="302" height="200" viewBox="0 0 302 200" fill="none" xmlns="http://www.w3.org/2000/svg">
<rect x="18" y="15" width="265" height="169" rx="8" fill="#2F323B"/>
<path d="M32.6676 35L30.2472 26.2727H31.6321L33.3324 33.0312H33.4134L35.1818 26.2727H36.554L38.3224 33.0355H38.4034L40.0994 26.2727H41.4886L39.0639 35H37.7386L35.902 28.4631H35.8338L33.9972 35H32.6676ZM43.6212 31.1136V35H42.347V26.2727H43.6041V29.5199H43.6851C43.8385 29.1676 44.0729 28.8878 44.3882 28.6804C44.7035 28.473 45.1155 28.3693 45.624 28.3693C46.0729 28.3693 46.4649 28.4616 46.8001 28.6463C47.1382 28.831 47.3996 29.1065 47.5842 29.473C47.7717 29.8366 47.8655 30.2912 47.8655 30.8366V35H46.5913V30.9901C46.5913 30.5099 46.4677 30.1378 46.2206 29.8736C45.9734 29.6065 45.6297 29.473 45.1893 29.473C44.8882 29.473 44.6183 29.5369 44.3797 29.6648C44.1439 29.7926 43.9578 29.9801 43.8214 30.2273C43.6879 30.4716 43.6212 30.767 43.6212 31.1136ZM51.2306 35.1449C50.8158 35.1449 50.4408 35.0682 50.1056 34.9148C49.7704 34.7585 49.5047 34.5327 49.3087 34.2372C49.1155 33.9418 49.0189 33.5795 49.0189 33.1506C49.0189 32.7812 49.09 32.4773 49.232 32.2386C49.374 32 49.5658 31.8111 49.8073 31.6719C50.0488 31.5327 50.3187 31.4276 50.6169 31.3565C50.9152 31.2855 51.2192 31.2315 51.5289 31.1946C51.9209 31.1491 52.2391 31.1122 52.4834 31.0838C52.7277 31.0526 52.9053 31.0028 53.0161 30.9347C53.1269 30.8665 53.1823 30.7557 53.1823 30.6023V30.5724C53.1823 30.2003 53.0772 29.9119 52.8669 29.7074C52.6596 29.5028 52.3499 29.4006 51.938 29.4006C51.509 29.4006 51.1709 29.4957 50.9238 29.6861C50.6794 29.8736 50.5104 30.0824 50.4167 30.3125L49.2192 30.0398C49.3613 29.642 49.5687 29.321 49.8414 29.0767C50.1169 28.8295 50.4337 28.6506 50.7917 28.5398C51.1496 28.4261 51.526 28.3693 51.9209 28.3693C52.1823 28.3693 52.4593 28.4006 52.7519 28.4631C53.0473 28.5227 53.3229 28.6335 53.5786 28.7955C53.8371 28.9574 54.0488 29.1889 54.2135 29.4901C54.3783 29.7884 54.4607 30.1761 54.4607 30.6534V35H53.2164V34.1051H53.1652C53.0829 34.2699 52.9593 34.4318 52.7945 34.5909C52.6297 34.75 52.4181 34.8821 52.1596 34.9872C51.901 35.0923 51.5914 35.1449 51.2306 35.1449ZM51.5076 34.1222C51.8598 34.1222 52.161 34.0526 52.411 33.9134C52.6638 33.7741 52.8556 33.5923 52.9863 33.3679C53.1198 33.1406 53.1865 32.8977 53.1865 32.6392V31.7955C53.1411 31.8409 53.053 31.8835 52.9223 31.9233C52.7945 31.9602 52.6482 31.9929 52.4834 32.0213C52.3187 32.0469 52.1581 32.071 52.0019 32.0938C51.8456 32.1136 51.715 32.1307 51.6098 32.1449C51.3627 32.1761 51.1368 32.2287 50.9323 32.3026C50.7306 32.3764 50.5687 32.483 50.4465 32.6222C50.3272 32.7585 50.2675 32.9403 50.2675 33.1676C50.2675 33.483 50.384 33.7216 50.6169 33.8835C50.8499 34.0426 51.1468 34.1222 51.5076 34.1222ZM58.9732 28.4545V29.4773H55.3979V28.4545H58.9732ZM56.3567 26.8864H57.6309V33.0781C57.6309 33.3253 57.6678 33.5114 57.7416 33.6364C57.8155 33.7585 57.9107 33.8423 58.0272 33.8878C58.1465 33.9304 58.2757 33.9517 58.4149 33.9517C58.5172 33.9517 58.6067 33.9446 58.6834 33.9304C58.7601 33.9162 58.8198 33.9048 58.8624 33.8963L59.0925 34.9489C59.0186 34.9773 58.9135 35.0057 58.7772 35.0341C58.6408 35.0653 58.4703 35.0824 58.2658 35.0852C57.9306 35.0909 57.6181 35.0312 57.3283 34.9062C57.0385 34.7812 56.8041 34.5881 56.6252 34.3267C56.4462 34.0653 56.3567 33.7372 56.3567 33.3423V26.8864ZM63.0784 35V28.4545H64.3526V35H63.0784ZM63.7219 27.4446C63.5003 27.4446 63.3099 27.3707 63.1509 27.223C62.9946 27.0724 62.9165 26.8935 62.9165 26.6861C62.9165 26.4759 62.9946 26.2969 63.1509 26.1491C63.3099 25.9986 63.5003 25.9233 63.7219 25.9233C63.9435 25.9233 64.1324 25.9986 64.2886 26.1491C64.4477 26.2969 64.5273 26.4759 64.5273 26.6861C64.5273 26.8935 64.4477 27.0724 64.2886 27.223C64.1324 27.3707 63.9435 27.4446 63.7219 27.4446ZM70.7315 30.0526L69.5767 30.2571C69.5284 30.1094 69.4517 29.9687 69.3466 29.8352C69.2443 29.7017 69.1051 29.5923 68.929 29.5071C68.7528 29.4219 68.5327 29.3793 68.2685 29.3793C67.9077 29.3793 67.6065 29.4602 67.365 29.6222C67.1236 29.7812 67.0028 29.9872 67.0028 30.2401C67.0028 30.4588 67.0838 30.6349 67.2457 30.7685C67.4077 30.902 67.669 31.0114 68.0298 31.0966L69.0696 31.3352C69.6719 31.4744 70.1207 31.6889 70.4162 31.9787C70.7116 32.2685 70.8594 32.6449 70.8594 33.108C70.8594 33.5 70.7457 33.8494 70.5185 34.1562C70.294 34.4602 69.9801 34.6989 69.5767 34.8722C69.1761 35.0455 68.7116 35.1321 68.1832 35.1321C67.4503 35.1321 66.8523 34.9759 66.3892 34.6634C65.9261 34.348 65.642 33.9006 65.5369 33.321L66.7685 33.1335C66.8452 33.4545 67.0028 33.6974 67.2415 33.8622C67.4801 34.0241 67.7912 34.1051 68.1747 34.1051C68.5923 34.1051 68.9261 34.0185 69.1761 33.8452C69.4261 33.669 69.5511 33.4545 69.5511 33.2017C69.5511 32.9972 69.4744 32.8253 69.321 32.6861C69.1704 32.5469 68.9389 32.4418 68.6264 32.3707L67.5185 32.1278C66.9077 31.9886 66.456 31.767 66.1633 31.4631C65.8736 31.1591 65.7287 30.7741 65.7287 30.3082C65.7287 29.9219 65.8366 29.5838 66.0525 29.294C66.2685 29.0043 66.5667 28.7784 66.9474 28.6165C67.3281 28.4517 67.7642 28.3693 68.2557 28.3693C68.9631 28.3693 69.5199 28.5227 69.9261 28.8295C70.3324 29.1335 70.6008 29.5412 70.7315 30.0526ZM74.9561 35V28.4545H76.1791V29.5199H76.26C76.3964 29.1591 76.6194 28.8778 76.9291 28.6761C77.2387 28.4716 77.6095 28.3693 78.0413 28.3693C78.4788 28.3693 78.8453 28.4716 79.1407 28.6761C79.439 28.8807 79.6592 29.1619 79.8012 29.5199H79.8694C80.0257 29.1705 80.2742 28.892 80.6152 28.6847C80.9561 28.4744 81.3623 28.3693 81.8339 28.3693C82.4277 28.3693 82.912 28.5554 83.287 28.9276C83.6649 29.2997 83.8538 29.8608 83.8538 30.6108V35H82.5796V30.7301C82.5796 30.2869 82.4589 29.9659 82.2174 29.767C81.976 29.5682 81.6876 29.4688 81.3524 29.4688C80.9376 29.4688 80.6152 29.5966 80.385 29.8523C80.1549 30.1051 80.0399 30.4304 80.0399 30.8281V35H78.77V30.6491C78.77 30.294 78.6592 30.0085 78.4376 29.7926C78.216 29.5767 77.9277 29.4688 77.5725 29.4688C77.3311 29.4688 77.1081 29.5327 76.9035 29.6605C76.7018 29.7855 76.5385 29.9602 76.4135 30.1847C76.2913 30.4091 76.2302 30.669 76.2302 30.9645V35H74.9561ZM85.8926 37.4545C85.7022 37.4545 85.5289 37.4389 85.3727 37.4077C85.2164 37.3793 85.0999 37.348 85.0232 37.3139L85.3301 36.2699C85.563 36.3324 85.7704 36.3594 85.9522 36.3509C86.134 36.3423 86.2945 36.2741 86.4338 36.1463C86.5758 36.0185 86.7008 35.8097 86.8088 35.5199L86.9664 35.0852L84.5715 28.4545H85.9352L87.5928 33.5341H87.661L89.3187 28.4545H90.6866L87.9891 35.8736C87.8641 36.2145 87.7051 36.5028 87.5119 36.7386C87.3187 36.9773 87.0886 37.1563 86.8215 37.2756C86.5545 37.3949 86.2448 37.4545 85.8926 37.4545ZM97.6949 28.4545V29.4773H93.996V28.4545H97.6949ZM95.0102 35V27.696C95.0102 27.2869 95.0997 26.9474 95.2787 26.6776C95.4577 26.4048 95.6949 26.2017 95.9903 26.0682C96.2858 25.9318 96.6068 25.8636 96.9534 25.8636C97.2091 25.8636 97.4278 25.8849 97.6096 25.9276C97.7915 25.9673 97.9264 26.0043 98.0145 26.0384L97.7162 27.0696C97.6565 27.0526 97.5798 27.0327 97.4861 27.0099C97.3923 26.9844 97.2787 26.9716 97.1452 26.9716C96.8355 26.9716 96.6139 27.0483 96.4804 27.2017C96.3497 27.3551 96.2844 27.5767 96.2844 27.8665V35H95.0102ZM100.475 35.1449C100.06 35.1449 99.6853 35.0682 99.3501 34.9148C99.0149 34.7585 98.7493 34.5327 98.5532 34.2372C98.3601 33.9418 98.2635 33.5795 98.2635 33.1506C98.2635 32.7812 98.3345 32.4773 98.4765 32.2386C98.6186 32 98.8103 31.8111 99.0518 31.6719C99.2933 31.5327 99.5632 31.4276 99.8615 31.3565C100.16 31.2855 100.464 31.2315 100.773 31.1946C101.165 31.1491 101.484 31.1122 101.728 31.0838C101.972 31.0526 102.15 31.0028 102.261 30.9347C102.371 30.8665 102.427 30.7557 102.427 30.6023V30.5724C102.427 30.2003 102.322 29.9119 102.111 29.7074C101.904 29.5028 101.594 29.4006 101.183 29.4006C100.754 29.4006 100.415 29.4957 100.168 29.6861C99.924 29.8736 99.7549 30.0824 99.6612 30.3125L98.4638 30.0398C98.6058 29.642 98.8132 29.321 99.0859 29.0767C99.3615 28.8295 99.6782 28.6506 100.036 28.5398C100.394 28.4261 100.771 28.3693 101.165 28.3693C101.427 28.3693 101.704 28.4006 101.996 28.4631C102.292 28.5227 102.567 28.6335 102.823 28.7955C103.082 28.9574 103.293 29.1889 103.458 29.4901C103.623 29.7884 103.705 30.1761 103.705 30.6534V35H102.461V34.1051H102.41C102.327 34.2699 102.204 34.4318 102.039 34.5909C101.874 34.75 101.663 34.8821 101.404 34.9872C101.146 35.0923 100.836 35.1449 100.475 35.1449ZM100.752 34.1222C101.104 34.1222 101.406 34.0526 101.656 33.9134C101.908 33.7741 102.1 33.5923 102.231 33.3679C102.364 33.1406 102.431 32.8977 102.431 32.6392V31.7955C102.386 31.8409 102.298 31.8835 102.167 31.9233C102.039 31.9602 101.893 31.9929 101.728 32.0213C101.563 32.0469 101.403 32.071 101.246 32.0938C101.09 32.1136 100.959 32.1307 100.854 32.1449C100.607 32.1761 100.381 32.2287 100.177 32.3026C99.9751 32.3764 99.8132 32.483 99.691 32.6222C99.5717 32.7585 99.512 32.9403 99.512 33.1676C99.512 33.483 99.6285 33.7216 99.8615 33.8835C100.094 34.0426 100.391 34.1222 100.752 34.1222ZM110.527 28.4545L108.154 35H106.79L104.412 28.4545H105.78L107.438 33.4915H107.506L109.159 28.4545H110.527ZM114.019 35.1321C113.406 35.1321 112.87 34.9915 112.413 34.7102C111.955 34.429 111.6 34.0355 111.347 33.5298C111.095 33.0241 110.968 32.4332 110.968 31.7571C110.968 31.0781 111.095 30.4844 111.347 29.9759C111.6 29.4673 111.955 29.0724 112.413 28.7912C112.87 28.5099 113.406 28.3693 114.019 28.3693C114.633 28.3693 115.168 28.5099 115.626 28.7912C116.083 29.0724 116.438 29.4673 116.691 29.9759C116.944 30.4844 117.07 31.0781 117.07 31.7571C117.07 32.4332 116.944 33.0241 116.691 33.5298C116.438 34.0355 116.083 34.429 115.626 34.7102C115.168 34.9915 114.633 35.1321 114.019 35.1321ZM114.024 34.0625C114.421 34.0625 114.751 33.9574 115.012 33.7472C115.274 33.5369 115.467 33.2571 115.592 32.9077C115.72 32.5582 115.783 32.1733 115.783 31.7528C115.783 31.3352 115.72 30.9517 115.592 30.6023C115.467 30.25 115.274 29.9673 115.012 29.7543C114.751 29.5412 114.421 29.4347 114.024 29.4347C113.623 29.4347 113.291 29.5412 113.026 29.7543C112.765 29.9673 112.57 30.25 112.443 30.6023C112.318 30.9517 112.255 31.3352 112.255 31.7528C112.255 32.1733 112.318 32.5582 112.443 32.9077C112.57 33.2571 112.765 33.5369 113.026 33.7472C113.291 33.9574 113.623 34.0625 114.024 34.0625ZM118.253 35V28.4545H119.484V29.4943H119.552C119.672 29.142 119.882 28.8651 120.183 28.6634C120.487 28.4588 120.831 28.3565 121.214 28.3565C121.294 28.3565 121.388 28.3594 121.496 28.3651C121.606 28.3707 121.693 28.3778 121.755 28.3864V29.6051C121.704 29.5909 121.613 29.5753 121.483 29.5582C121.352 29.5384 121.221 29.5284 121.091 29.5284C120.79 29.5284 120.521 29.5923 120.285 29.7202C120.052 29.8452 119.868 30.0199 119.731 30.2443C119.595 30.4659 119.527 30.7187 119.527 31.0028V35H118.253ZM122.618 35V28.4545H123.892V35H122.618ZM123.262 27.4446C123.04 27.4446 122.85 27.3707 122.691 27.223C122.534 27.0724 122.456 26.8935 122.456 26.6861C122.456 26.4759 122.534 26.2969 122.691 26.1491C122.85 25.9986 123.04 25.9233 123.262 25.9233C123.483 25.9233 123.672 25.9986 123.828 26.1491C123.987 26.2969 124.067 26.4759 124.067 26.6861C124.067 26.8935 123.987 27.0724 123.828 27.223C123.672 27.3707 123.483 27.4446 123.262 27.4446ZM128.422 28.4545V29.4773H124.846V28.4545H128.422ZM125.805 26.8864H127.079V33.0781C127.079 33.3253 127.116 33.5114 127.19 33.6364C127.264 33.7585 127.359 33.8423 127.476 33.8878C127.595 33.9304 127.724 33.9517 127.864 33.9517C127.966 33.9517 128.055 33.9446 128.132 33.9304C128.209 33.9162 128.268 33.9048 128.311 33.8963L128.541 34.9489C128.467 34.9773 128.362 35.0057 128.226 35.0341C128.089 35.0653 127.919 35.0824 127.714 35.0852C127.379 35.0909 127.067 35.0312 126.777 34.9062C126.487 34.7812 126.253 34.5881 126.074 34.3267C125.895 34.0653 125.805 33.7372 125.805 33.3423V26.8864ZM132.342 35.1321C131.697 35.1321 131.142 34.9943 130.676 34.7188C130.213 34.4403 129.855 34.0497 129.602 33.5469C129.352 33.0412 129.227 32.4489 129.227 31.7699C129.227 31.0994 129.352 30.5085 129.602 29.9972C129.855 29.4858 130.207 29.0866 130.659 28.7997C131.113 28.5128 131.644 28.3693 132.252 28.3693C132.622 28.3693 132.98 28.4304 133.326 28.5526C133.673 28.6747 133.984 28.8665 134.26 29.1278C134.535 29.3892 134.752 29.7287 134.912 30.1463C135.071 30.5611 135.15 31.0653 135.15 31.6591V32.1108H129.947V31.1562H133.902C133.902 30.821 133.833 30.5241 133.697 30.2656C133.561 30.0043 133.369 29.7983 133.122 29.6477C132.877 29.4972 132.591 29.4219 132.261 29.4219C131.903 29.4219 131.591 29.5099 131.323 29.6861C131.059 29.8594 130.855 30.0866 130.71 30.3679C130.568 30.6463 130.497 30.9489 130.497 31.2756V32.0213C130.497 32.4588 130.573 32.831 130.727 33.1378C130.883 33.4446 131.1 33.679 131.379 33.8409C131.657 34 131.983 34.0795 132.355 34.0795C132.596 34.0795 132.816 34.0455 133.015 33.9773C133.214 33.9062 133.386 33.8011 133.531 33.6619C133.676 33.5227 133.787 33.3509 133.863 33.1463L135.069 33.3636C134.973 33.7187 134.799 34.0298 134.549 34.2969C134.302 34.5611 133.991 34.767 133.616 34.9148C133.244 35.0597 132.819 35.1321 132.342 35.1321ZM142.375 28.4545V29.4773H138.676V28.4545H142.375ZM139.69 35V27.696C139.69 27.2869 139.78 26.9474 139.959 26.6776C140.137 26.4048 140.375 26.2017 140.67 26.0682C140.966 25.9318 141.287 25.8636 141.633 25.8636C141.889 25.8636 142.108 25.8849 142.289 25.9276C142.471 25.9673 142.606 26.0043 142.694 26.0384L142.396 27.0696C142.336 27.0526 142.26 27.0327 142.166 27.0099C142.072 26.9844 141.959 26.9716 141.825 26.9716C141.515 26.9716 141.294 27.0483 141.16 27.2017C141.03 27.3551 140.964 27.5767 140.964 27.8665V35H139.69ZM145.949 35.1321C145.335 35.1321 144.799 34.9915 144.342 34.7102C143.885 34.429 143.53 34.0355 143.277 33.5298C143.024 33.0241 142.897 32.4332 142.897 31.7571C142.897 31.0781 143.024 30.4844 143.277 29.9759C143.53 29.4673 143.885 29.0724 144.342 28.7912C144.799 28.5099 145.335 28.3693 145.949 28.3693C146.562 28.3693 147.098 28.5099 147.555 28.7912C148.013 29.0724 148.368 29.4673 148.621 29.9759C148.873 30.4844 149 31.0781 149 31.7571C149 32.4332 148.873 33.0241 148.621 33.5298C148.368 34.0355 148.013 34.429 147.555 34.7102C147.098 34.9915 146.562 35.1321 145.949 35.1321ZM145.953 34.0625C146.351 34.0625 146.68 33.9574 146.942 33.7472C147.203 33.5369 147.396 33.2571 147.521 32.9077C147.649 32.5582 147.713 32.1733 147.713 31.7528C147.713 31.3352 147.649 30.9517 147.521 30.6023C147.396 30.25 147.203 29.9673 146.942 29.7543C146.68 29.5412 146.351 29.4347 145.953 29.4347C145.552 29.4347 145.22 29.5412 144.956 29.7543C144.694 29.9673 144.5 30.25 144.372 30.6023C144.247 30.9517 144.184 31.3352 144.184 31.7528C144.184 32.1733 144.247 32.5582 144.372 32.9077C144.5 33.2571 144.694 33.5369 144.956 33.7472C145.22 33.9574 145.552 34.0625 145.953 34.0625ZM152.939 35.1321C152.325 35.1321 151.79 34.9915 151.333 34.7102C150.875 34.429 150.52 34.0355 150.267 33.5298C150.014 33.0241 149.888 32.4332 149.888 31.7571C149.888 31.0781 150.014 30.4844 150.267 29.9759C150.52 29.4673 150.875 29.0724 151.333 28.7912C151.79 28.5099 152.325 28.3693 152.939 28.3693C153.553 28.3693 154.088 28.5099 154.546 28.7912C155.003 29.0724 155.358 29.4673 155.611 29.9759C155.864 30.4844 155.99 31.0781 155.99 31.7571C155.99 32.4332 155.864 33.0241 155.611 33.5298C155.358 34.0355 155.003 34.429 154.546 34.7102C154.088 34.9915 153.553 35.1321 152.939 35.1321ZM152.943 34.0625C153.341 34.0625 153.671 33.9574 153.932 33.7472C154.193 33.5369 154.387 33.2571 154.512 32.9077C154.639 32.5582 154.703 32.1733 154.703 31.7528C154.703 31.3352 154.639 30.9517 154.512 30.6023C154.387 30.25 154.193 29.9673 153.932 29.7543C153.671 29.5412 153.341 29.4347 152.943 29.4347C152.543 29.4347 152.21 29.5412 151.946 29.7543C151.685 29.9673 151.49 30.25 151.362 30.6023C151.237 30.9517 151.175 31.3352 151.175 31.7528C151.175 32.1733 151.237 32.5582 151.362 32.9077C151.49 33.2571 151.685 33.5369 151.946 33.7472C152.21 33.9574 152.543 34.0625 152.943 34.0625ZM159.623 35.1278C159.094 35.1278 158.623 34.9929 158.208 34.723C157.796 34.4503 157.472 34.0625 157.236 33.5597C157.003 33.054 156.887 32.4474 156.887 31.7401C156.887 31.0327 157.005 30.4276 157.241 29.9247C157.479 29.4219 157.806 29.0369 158.221 28.7699C158.636 28.5028 159.106 28.3693 159.631 28.3693C160.038 28.3693 160.364 28.4375 160.611 28.5739C160.861 28.7074 161.055 28.8636 161.191 29.0426C161.33 29.2216 161.438 29.3793 161.515 29.5156H161.592V26.2727H162.866V35H161.621V33.9815H161.515C161.438 34.1207 161.327 34.2798 161.182 34.4588C161.04 34.6378 160.844 34.794 160.594 34.9276C160.344 35.0611 160.02 35.1278 159.623 35.1278ZM159.904 34.0412C160.27 34.0412 160.58 33.9446 160.833 33.7514C161.089 33.5554 161.282 33.2841 161.413 32.9375C161.546 32.5909 161.613 32.1875 161.613 31.7273C161.613 31.2727 161.547 30.875 161.417 30.5341C161.286 30.1932 161.094 29.9276 160.842 29.7372C160.589 29.5469 160.276 29.4517 159.904 29.4517C159.52 29.4517 159.201 29.5511 158.945 29.75C158.69 29.9489 158.496 30.2202 158.366 30.5639C158.238 30.9077 158.174 31.2955 158.174 31.7273C158.174 32.1648 158.239 32.5582 158.37 32.9077C158.501 33.2571 158.694 33.5341 158.949 33.7386C159.208 33.9403 159.526 34.0412 159.904 34.0412Z" fill="white"/>
<rect x="28" y="49" width="245" height="28" rx="6" fill="#3E404C"/>
<path d="M38.9588 67V58.2727H42.0696C42.7486 58.2727 43.3111 58.3963 43.7571 58.6435C44.2031 58.8906 44.5369 59.2287 44.7585 59.6577C44.9801 60.0838 45.0909 60.5639 45.0909 61.098C45.0909 61.6349 44.9787 62.1179 44.7543 62.5469C44.5327 62.973 44.1974 63.3111 43.7486 63.5611C43.3026 63.8082 42.7415 63.9318 42.0653 63.9318H39.9261V62.8153H41.946C42.375 62.8153 42.723 62.7415 42.9901 62.5938C43.2571 62.4432 43.4531 62.2386 43.5781 61.9801C43.7031 61.7216 43.7656 61.4276 43.7656 61.098C43.7656 60.7685 43.7031 60.4759 43.5781 60.2202C43.4531 59.9645 43.2557 59.7642 42.9858 59.6193C42.7188 59.4744 42.3665 59.402 41.929 59.402H40.2756V67H38.9588ZM46.2923 67V60.4545H47.5665V67H46.2923ZM46.9358 59.4446C46.7142 59.4446 46.5238 59.3707 46.3648 59.223C46.2085 59.0724 46.1304 58.8935 46.1304 58.6861C46.1304 58.4759 46.2085 58.2969 46.3648 58.1491C46.5238 57.9986 46.7142 57.9233 46.9358 57.9233C47.1574 57.9233 47.3463 57.9986 47.5025 58.1491C47.6616 58.2969 47.7412 58.4759 47.7412 58.6861C47.7412 58.8935 47.6616 59.0724 47.5025 59.223C47.3463 59.3707 47.1574 59.4446 46.9358 59.4446ZM48.9042 67V66.1264L52.4497 61.6222V61.5625H49.0193V60.4545H54.0392V61.3835L50.6301 65.8324V65.892H54.1585V67H48.9042ZM55.2853 67V66.1264L58.8308 61.6222V61.5625H55.4004V60.4545H60.4203V61.3835L57.0112 65.8324V65.892H60.5396V67H55.2853ZM63.7076 67.1449C63.2928 67.1449 62.9178 67.0682 62.5826 66.9148C62.2474 66.7585 61.9818 66.5327 61.7857 66.2372C61.5926 65.9418 61.496 65.5795 61.496 65.1506C61.496 64.7812 61.567 64.4773 61.709 64.2386C61.8511 64 62.0428 63.8111 62.2843 63.6719C62.5258 63.5327 62.7957 63.4276 63.094 63.3565C63.3923 63.2855 63.6963 63.2315 64.0059 63.1946C64.398 63.1491 64.7161 63.1122 64.9605 63.0838C65.2048 63.0526 65.3823 63.0028 65.4931 62.9347C65.6039 62.8665 65.6593 62.7557 65.6593 62.6023V62.5724C65.6593 62.2003 65.5542 61.9119 65.344 61.7074C65.1366 61.5028 64.8269 61.4006 64.415 61.4006C63.986 61.4006 63.648 61.4957 63.4008 61.6861C63.1565 61.8736 62.9874 62.0824 62.8937 62.3125L61.6963 62.0398C61.8383 61.642 62.0457 61.321 62.3184 61.0767C62.594 60.8295 62.9107 60.6506 63.2687 60.5398C63.6266 60.4261 64.0031 60.3693 64.398 60.3693C64.6593 60.3693 64.9363 60.4006 65.2289 60.4631C65.5244 60.5227 65.7999 60.6335 66.0556 60.7955C66.3141 60.9574 66.5258 61.1889 66.6906 61.4901C66.8553 61.7884 66.9377 62.1761 66.9377 62.6534V67H65.6934V66.1051H65.6423C65.5599 66.2699 65.4363 66.4318 65.2715 66.5909C65.1068 66.75 64.8951 66.8821 64.6366 66.9872C64.3781 67.0923 64.0684 67.1449 63.7076 67.1449ZM63.9846 66.1222C64.3369 66.1222 64.638 66.0526 64.888 65.9134C65.1409 65.7741 65.3326 65.5923 65.4633 65.3679C65.5968 65.1406 65.6636 64.8977 65.6636 64.6392V63.7955C65.6181 63.8409 65.5301 63.8835 65.3994 63.9233C65.2715 63.9602 65.1252 63.9929 64.9605 64.0213C64.7957 64.0469 64.6352 64.071 64.4789 64.0938C64.3227 64.1136 64.192 64.1307 64.0869 64.1449C63.8397 64.1761 63.6139 64.2287 63.4093 64.3026C63.2076 64.3764 63.0457 64.483 62.9235 64.6222C62.8042 64.7585 62.7445 64.9403 62.7445 65.1676C62.7445 65.483 62.861 65.7216 63.094 65.8835C63.3269 66.0426 63.6238 66.1222 63.9846 66.1222Z" fill="white"/>
<rect x="28" y="81" width="245" height="28" rx="6" fill="#3E404C"/>
<rect x="28.5" y="81.5" width="244" height="27" rx="5.5" stroke="url(#paint0_linear_25_5549)" stroke-opacity="0.5"/>
<path d="M43.7188 92.5653C43.6733 92.1619 43.4858 91.8494 43.1562 91.6278C42.8267 91.4034 42.4119 91.2912 41.9119 91.2912C41.554 91.2912 41.2443 91.348 40.983 91.4616C40.7216 91.5724 40.5185 91.7259 40.3736 91.9219C40.2315 92.1151 40.1605 92.3352 40.1605 92.5824C40.1605 92.7898 40.2088 92.9687 40.3054 93.1193C40.4048 93.2699 40.5341 93.3963 40.6932 93.4986C40.8551 93.598 41.0284 93.6818 41.2131 93.75C41.3977 93.8153 41.5753 93.8693 41.7457 93.9119L42.598 94.1335C42.8764 94.2017 43.1619 94.294 43.4545 94.4105C43.7472 94.527 44.0185 94.6804 44.2685 94.8707C44.5185 95.0611 44.7202 95.2969 44.8736 95.5781C45.0298 95.8594 45.108 96.196 45.108 96.5881C45.108 97.0824 44.9801 97.5213 44.7244 97.9048C44.4716 98.2884 44.1037 98.5909 43.6207 98.8125C43.1406 99.0341 42.5597 99.1449 41.8778 99.1449C41.2244 99.1449 40.6591 99.0412 40.1818 98.8338C39.7045 98.6264 39.331 98.3324 39.0611 97.9517C38.7912 97.5682 38.642 97.1136 38.6136 96.5881H39.9347C39.9602 96.9034 40.0625 97.1662 40.2415 97.3764C40.4233 97.5838 40.6548 97.7386 40.9361 97.8409C41.2202 97.9403 41.5312 97.9901 41.8693 97.9901C42.2415 97.9901 42.5724 97.9318 42.8622 97.8153C43.1548 97.696 43.3849 97.5312 43.5526 97.321C43.7202 97.108 43.804 96.8594 43.804 96.5753C43.804 96.3168 43.7301 96.1051 43.5824 95.9403C43.4375 95.7756 43.2401 95.6392 42.9901 95.5312C42.7429 95.4233 42.4631 95.3281 42.1506 95.2457L41.1193 94.9645C40.4205 94.7741 39.8665 94.4943 39.4574 94.125C39.0511 93.7557 38.848 93.267 38.848 92.6591C38.848 92.1562 38.9844 91.7173 39.2571 91.3423C39.5298 90.9673 39.8991 90.6761 40.3651 90.4688C40.831 90.2585 41.3565 90.1534 41.9418 90.1534C42.5327 90.1534 43.054 90.2571 43.5057 90.4645C43.9602 90.6719 44.3182 90.9574 44.5795 91.321C44.8409 91.6818 44.9773 92.0966 44.9886 92.5653H43.7188ZM50.4855 96.2855V92.4545H51.7639V99H50.5111V97.8665H50.4429C50.2923 98.2159 50.0508 98.5071 49.7185 98.7401C49.3889 98.9702 48.9784 99.0852 48.4869 99.0852C48.0665 99.0852 47.6943 98.9929 47.3704 98.8082C47.0494 98.6207 46.7966 98.3438 46.6119 97.9773C46.4301 97.6108 46.3392 97.1577 46.3392 96.6179V92.4545H47.6133V96.4645C47.6133 96.9105 47.7369 97.2656 47.9841 97.5298C48.2312 97.794 48.5523 97.9261 48.9471 97.9261C49.1858 97.9261 49.423 97.8665 49.6588 97.7472C49.8974 97.6278 50.0949 97.4474 50.2511 97.206C50.4102 96.9645 50.4883 96.6577 50.4855 96.2855ZM58.1407 94.0526L56.9859 94.2571C56.9376 94.1094 56.8609 93.9687 56.7558 93.8352C56.6535 93.7017 56.5143 93.5923 56.3382 93.5071C56.162 93.4219 55.9419 93.3793 55.6777 93.3793C55.3169 93.3793 55.0157 93.4602 54.7743 93.6222C54.5328 93.7812 54.412 93.9872 54.412 94.2401C54.412 94.4588 54.493 94.6349 54.6549 94.7685C54.8169 94.902 55.0782 95.0114 55.439 95.0966L56.4788 95.3352C57.0811 95.4744 57.5299 95.6889 57.8254 95.9787C58.1209 96.2685 58.2686 96.6449 58.2686 97.108C58.2686 97.5 58.1549 97.8494 57.9277 98.1562C57.7032 98.4602 57.3893 98.6989 56.9859 98.8722C56.5853 99.0455 56.1209 99.1321 55.5924 99.1321C54.8595 99.1321 54.2615 98.9759 53.7984 98.6634C53.3353 98.348 53.0513 97.9006 52.9461 97.321L54.1777 97.1335C54.2544 97.4545 54.412 97.6974 54.6507 97.8622C54.8893 98.0241 55.2004 98.1051 55.5839 98.1051C56.0015 98.1051 56.3353 98.0185 56.5853 97.8452C56.8353 97.669 56.9603 97.4545 56.9603 97.2017C56.9603 96.9972 56.8836 96.8253 56.7302 96.6861C56.5797 96.5469 56.3481 96.4418 56.0356 96.3707L54.9277 96.1278C54.3169 95.9886 53.8652 95.767 53.5726 95.4631C53.2828 95.1591 53.1379 94.7741 53.1379 94.3082C53.1379 93.9219 53.2459 93.5838 53.4618 93.294C53.6777 93.0043 53.976 92.7784 54.3566 92.6165C54.7373 92.4517 55.1734 92.3693 55.6649 92.3693C56.3723 92.3693 56.9291 92.5227 57.3353 92.8295C57.7416 93.1335 58.0101 93.5412 58.1407 94.0526ZM60.7037 95.1136V99H59.4295V90.2727H60.6866V93.5199H60.7676C60.921 93.1676 61.1554 92.8878 61.4707 92.6804C61.786 92.473 62.198 92.3693 62.7065 92.3693C63.1554 92.3693 63.5474 92.4616 63.8826 92.6463C64.2207 92.831 64.4821 93.1065 64.6667 93.473C64.8542 93.8366 64.948 94.2912 64.948 94.8366V99H63.6738V94.9901C63.6738 94.5099 63.5502 94.1378 63.3031 93.8736C63.0559 93.6065 62.7122 93.473 62.2718 93.473C61.9707 93.473 61.7008 93.5369 61.4622 93.6648C61.2264 93.7926 61.0403 93.9801 60.9039 94.2273C60.7704 94.4716 60.7037 94.767 60.7037 95.1136ZM66.4083 99V92.4545H67.6824V99H66.4083ZM67.0517 91.4446C66.8301 91.4446 66.6398 91.3707 66.4807 91.223C66.3244 91.0724 66.2463 90.8935 66.2463 90.6861C66.2463 90.4759 66.3244 90.2969 66.4807 90.1491C66.6398 89.9986 66.8301 89.9233 67.0517 89.9233C67.2733 89.9233 67.4622 89.9986 67.6185 90.1491C67.7776 90.2969 67.8571 90.4759 67.8571 90.6861C67.8571 90.8935 67.7776 91.0724 67.6185 91.223C67.4622 91.3707 67.2733 91.4446 67.0517 91.4446Z" fill="white"/>
<g clip-path="url(#clip0_25_5549)">
<path d="M252 95.0002L254 97.0002L258 93.0002M261.667 95.0002C261.667 98.6821 258.682 101.667 255 101.667C251.318 101.667 248.333 98.6821 248.333 95.0002C248.333 91.3183 251.318 88.3335 255 88.3335C258.682 88.3335 261.667 91.3183 261.667 95.0002Z" stroke="white" stroke-linecap="round" stroke-linejoin="round"/>
</g>
<rect x="28" y="113" width="245" height="28" rx="6" fill="#3E404C"/>
<path d="M38.9588 131V122.273H42.1548C42.7741 122.273 43.2869 122.375 43.6932 122.58C44.0994 122.781 44.4034 123.055 44.6051 123.402C44.8068 123.746 44.9077 124.134 44.9077 124.565C44.9077 124.929 44.8409 125.236 44.7074 125.486C44.5739 125.733 44.3949 125.932 44.1705 126.082C43.9489 126.23 43.7045 126.338 43.4375 126.406V126.491C43.7273 126.506 44.0099 126.599 44.2855 126.773C44.5639 126.943 44.794 127.186 44.9759 127.501C45.1577 127.817 45.2486 128.2 45.2486 128.652C45.2486 129.098 45.1435 129.499 44.9332 129.854C44.7259 130.206 44.4048 130.486 43.9702 130.693C43.5355 130.898 42.9801 131 42.304 131H38.9588ZM40.2756 129.871H42.1761C42.8068 129.871 43.2585 129.749 43.5312 129.504C43.804 129.26 43.9403 128.955 43.9403 128.588C43.9403 128.312 43.8707 128.06 43.7315 127.83C43.5923 127.599 43.3935 127.416 43.1349 127.28C42.8793 127.143 42.5753 127.075 42.223 127.075H40.2756V129.871ZM40.2756 126.048H42.0398C42.3352 126.048 42.6009 125.991 42.8366 125.878C43.0753 125.764 43.2642 125.605 43.4034 125.401C43.5455 125.193 43.6165 124.949 43.6165 124.668C43.6165 124.307 43.4901 124.004 43.2372 123.76C42.9844 123.516 42.5966 123.393 42.0739 123.393H40.2756V126.048ZM50.6144 128.286V124.455H51.8928V131H50.64V129.866H50.5718C50.4212 130.216 50.1797 130.507 49.8474 130.74C49.5178 130.97 49.1073 131.085 48.6158 131.085C48.1954 131.085 47.8232 130.993 47.4993 130.808C47.1783 130.621 46.9255 130.344 46.7408 129.977C46.559 129.611 46.4681 129.158 46.4681 128.618V124.455H47.7422V128.464C47.7422 128.911 47.8658 129.266 48.113 129.53C48.3601 129.794 48.6812 129.926 49.0761 129.926C49.3147 129.926 49.5519 129.866 49.7877 129.747C50.0263 129.628 50.2238 129.447 50.38 129.206C50.5391 128.964 50.6172 128.658 50.6144 128.286ZM53.3648 131V124.455H54.5963V125.494H54.6645C54.7838 125.142 54.9941 124.865 55.2952 124.663C55.5992 124.459 55.9429 124.357 56.3265 124.357C56.406 124.357 56.4998 124.359 56.6077 124.365C56.7185 124.371 56.8052 124.378 56.8677 124.386V125.605C56.8165 125.591 56.7256 125.575 56.5949 125.558C56.4642 125.538 56.3336 125.528 56.2029 125.528C55.9017 125.528 55.6333 125.592 55.3975 125.72C55.1645 125.845 54.9799 126.02 54.8435 126.244C54.7071 126.466 54.639 126.719 54.639 127.003V131H53.3648ZM60.2402 133.591C59.7203 133.591 59.2729 133.523 58.8979 133.386C58.5257 133.25 58.2218 133.07 57.986 132.845C57.7502 132.621 57.574 132.375 57.4576 132.108L58.5527 131.656C58.6294 131.781 58.7317 131.913 58.8595 132.053C58.9902 132.195 59.1664 132.315 59.388 132.415C59.6124 132.514 59.9007 132.564 60.253 132.564C60.736 132.564 61.1351 132.446 61.4505 132.21C61.7658 131.977 61.9235 131.605 61.9235 131.094V129.807H61.8425C61.7658 129.946 61.655 130.101 61.5101 130.271C61.3681 130.442 61.172 130.589 60.922 130.714C60.672 130.839 60.3468 130.902 59.9462 130.902C59.4291 130.902 58.9632 130.781 58.5485 130.54C58.1365 130.295 57.8098 129.936 57.5684 129.462C57.3297 128.984 57.2104 128.398 57.2104 127.702C57.2104 127.006 57.3283 126.409 57.5641 125.912C57.8027 125.415 58.1294 125.034 58.5442 124.77C58.959 124.503 59.4291 124.369 59.9547 124.369C60.361 124.369 60.6891 124.438 60.9391 124.574C61.1891 124.707 61.3837 124.864 61.5229 125.043C61.6649 125.222 61.7743 125.379 61.851 125.516H61.9448V124.455H63.1934V131.145C63.1934 131.707 63.0627 132.169 62.8013 132.53C62.5399 132.891 62.1863 133.158 61.7402 133.331C61.297 133.504 60.797 133.591 60.2402 133.591ZM60.2274 129.845C60.5939 129.845 60.9036 129.76 61.1564 129.589C61.4121 129.416 61.6053 129.169 61.736 128.848C61.8695 128.524 61.9363 128.136 61.9363 127.685C61.9363 127.244 61.8709 126.857 61.7402 126.521C61.6095 126.186 61.4178 125.925 61.1649 125.737C60.9121 125.547 60.5996 125.452 60.2274 125.452C59.8439 125.452 59.5243 125.551 59.2686 125.75C59.013 125.946 58.8198 126.213 58.6891 126.551C58.5613 126.889 58.4973 127.267 58.4973 127.685C58.4973 128.114 58.5627 128.49 58.6934 128.814C58.824 129.138 59.0172 129.391 59.2729 129.572C59.5314 129.754 59.8496 129.845 60.2274 129.845ZM67.4832 131.132C66.8383 131.132 66.2829 130.994 65.817 130.719C65.3539 130.44 64.996 130.05 64.7431 129.547C64.4931 129.041 64.3681 128.449 64.3681 127.77C64.3681 127.099 64.4931 126.509 64.7431 125.997C64.996 125.486 65.3482 125.087 65.7999 124.8C66.2545 124.513 66.7857 124.369 67.3937 124.369C67.763 124.369 68.121 124.43 68.4676 124.553C68.8141 124.675 69.1252 124.866 69.4008 125.128C69.6764 125.389 69.8937 125.729 70.0528 126.146C70.2119 126.561 70.2914 127.065 70.2914 127.659V128.111H65.0883V127.156H69.0428C69.0428 126.821 68.9747 126.524 68.8383 126.266C68.7019 126.004 68.5102 125.798 68.263 125.648C68.0187 125.497 67.7318 125.422 67.4022 125.422C67.0443 125.422 66.7318 125.51 66.4647 125.686C66.2005 125.859 65.996 126.087 65.8511 126.368C65.709 126.646 65.638 126.949 65.638 127.276V128.021C65.638 128.459 65.7147 128.831 65.8681 129.138C66.0244 129.445 66.2417 129.679 66.5201 129.841C66.7985 130 67.1238 130.08 67.496 130.08C67.7374 130.08 67.9576 130.045 68.1565 129.977C68.3553 129.906 68.5272 129.801 68.6721 129.662C68.817 129.523 68.9278 129.351 69.0045 129.146L70.2105 129.364C70.1139 129.719 69.9406 130.03 69.6906 130.297C69.4434 130.561 69.1323 130.767 68.7573 130.915C68.3852 131.06 67.9605 131.132 67.4832 131.132ZM71.4651 131V124.455H72.6967V125.494H72.7648C72.8842 125.142 73.0944 124.865 73.3955 124.663C73.6995 124.459 74.0433 124.357 74.4268 124.357C74.5063 124.357 74.6001 124.359 74.708 124.365C74.8188 124.371 74.9055 124.378 74.968 124.386V125.605C74.9168 125.591 74.8259 125.575 74.6952 125.558C74.5646 125.538 74.4339 125.528 74.3032 125.528C74.0021 125.528 73.7336 125.592 73.4978 125.72C73.2648 125.845 73.0802 126.02 72.9438 126.244C72.8075 126.466 72.7393 126.719 72.7393 127.003V131H71.4651ZM80.7354 126.053L79.5806 126.257C79.5323 126.109 79.4556 125.969 79.3505 125.835C79.2482 125.702 79.109 125.592 78.9329 125.507C78.7567 125.422 78.5366 125.379 78.2724 125.379C77.9116 125.379 77.6104 125.46 77.369 125.622C77.1275 125.781 77.0067 125.987 77.0067 126.24C77.0067 126.459 77.0877 126.635 77.2496 126.768C77.4116 126.902 77.6729 127.011 78.0337 127.097L79.0735 127.335C79.6758 127.474 80.1246 127.689 80.4201 127.979C80.7155 128.268 80.8633 128.645 80.8633 129.108C80.8633 129.5 80.7496 129.849 80.5224 130.156C80.2979 130.46 79.984 130.699 79.5806 130.872C79.18 131.045 78.7155 131.132 78.1871 131.132C77.4542 131.132 76.8562 130.976 76.3931 130.663C75.93 130.348 75.6459 129.901 75.5408 129.321L76.7724 129.134C76.8491 129.455 77.0067 129.697 77.2454 129.862C77.484 130.024 77.7951 130.105 78.1786 130.105C78.5962 130.105 78.93 130.018 79.18 129.845C79.43 129.669 79.555 129.455 79.555 129.202C79.555 128.997 79.4783 128.825 79.3249 128.686C79.1743 128.547 78.9428 128.442 78.6303 128.371L77.5224 128.128C76.9116 127.989 76.4599 127.767 76.1672 127.463C75.8775 127.159 75.7326 126.774 75.7326 126.308C75.7326 125.922 75.8405 125.584 76.0565 125.294C76.2724 125.004 76.5707 124.778 76.9513 124.616C77.332 124.452 77.7681 124.369 78.2596 124.369C78.967 124.369 79.5238 124.523 79.93 124.83C80.3363 125.134 80.6047 125.541 80.7354 126.053Z" fill="white"/>
<rect x="28" y="145" width="245" height="28" rx="6" fill="#3E404C"/>
<path d="M43.7188 156.565C43.6733 156.162 43.4858 155.849 43.1562 155.628C42.8267 155.403 42.4119 155.291 41.9119 155.291C41.554 155.291 41.2443 155.348 40.983 155.462C40.7216 155.572 40.5185 155.726 40.3736 155.922C40.2315 156.115 40.1605 156.335 40.1605 156.582C40.1605 156.79 40.2088 156.969 40.3054 157.119C40.4048 157.27 40.5341 157.396 40.6932 157.499C40.8551 157.598 41.0284 157.682 41.2131 157.75C41.3977 157.815 41.5753 157.869 41.7457 157.912L42.598 158.134C42.8764 158.202 43.1619 158.294 43.4545 158.411C43.7472 158.527 44.0185 158.68 44.2685 158.871C44.5185 159.061 44.7202 159.297 44.8736 159.578C45.0298 159.859 45.108 160.196 45.108 160.588C45.108 161.082 44.9801 161.521 44.7244 161.905C44.4716 162.288 44.1037 162.591 43.6207 162.812C43.1406 163.034 42.5597 163.145 41.8778 163.145C41.2244 163.145 40.6591 163.041 40.1818 162.834C39.7045 162.626 39.331 162.332 39.0611 161.952C38.7912 161.568 38.642 161.114 38.6136 160.588H39.9347C39.9602 160.903 40.0625 161.166 40.2415 161.376C40.4233 161.584 40.6548 161.739 40.9361 161.841C41.2202 161.94 41.5312 161.99 41.8693 161.99C42.2415 161.99 42.5724 161.932 42.8622 161.815C43.1548 161.696 43.3849 161.531 43.5526 161.321C43.7202 161.108 43.804 160.859 43.804 160.575C43.804 160.317 43.7301 160.105 43.5824 159.94C43.4375 159.776 43.2401 159.639 42.9901 159.531C42.7429 159.423 42.4631 159.328 42.1506 159.246L41.1193 158.964C40.4205 158.774 39.8665 158.494 39.4574 158.125C39.0511 157.756 38.848 157.267 38.848 156.659C38.848 156.156 38.9844 155.717 39.2571 155.342C39.5298 154.967 39.8991 154.676 40.3651 154.469C40.831 154.259 41.3565 154.153 41.9418 154.153C42.5327 154.153 43.054 154.257 43.5057 154.464C43.9602 154.672 44.3182 154.957 44.5795 155.321C44.8409 155.682 44.9773 156.097 44.9886 156.565H43.7188ZM49.3946 156.455V157.477H45.8193V156.455H49.3946ZM46.7781 154.886H48.0523V161.078C48.0523 161.325 48.0892 161.511 48.1631 161.636C48.2369 161.759 48.3321 161.842 48.4486 161.888C48.5679 161.93 48.6971 161.952 48.8363 161.952C48.9386 161.952 49.0281 161.945 49.1048 161.93C49.1815 161.916 49.2412 161.905 49.2838 161.896L49.5139 162.949C49.44 162.977 49.3349 163.006 49.1986 163.034C49.0622 163.065 48.8917 163.082 48.6872 163.085C48.352 163.091 48.0395 163.031 47.7497 162.906C47.4599 162.781 47.2256 162.588 47.0466 162.327C46.8676 162.065 46.7781 161.737 46.7781 161.342V154.886ZM53.3147 163.132C52.6699 163.132 52.1145 162.994 51.6486 162.719C51.1855 162.44 50.8275 162.05 50.5747 161.547C50.3247 161.041 50.1997 160.449 50.1997 159.77C50.1997 159.099 50.3247 158.509 50.5747 157.997C50.8275 157.486 51.1798 157.087 51.6315 156.8C52.0861 156.513 52.6173 156.369 53.2253 156.369C53.5946 156.369 53.9525 156.43 54.2991 156.553C54.6457 156.675 54.9568 156.866 55.2324 157.128C55.5079 157.389 55.7253 157.729 55.8843 158.146C56.0434 158.561 56.123 159.065 56.123 159.659V160.111H50.9199V159.156H54.8744C54.8744 158.821 54.8062 158.524 54.6699 158.266C54.5335 158.004 54.3417 157.798 54.0946 157.648C53.8503 157.497 53.5633 157.422 53.2338 157.422C52.8758 157.422 52.5633 157.51 52.2963 157.686C52.0321 157.859 51.8275 158.087 51.6826 158.368C51.5406 158.646 51.4696 158.949 51.4696 159.276V160.021C51.4696 160.459 51.5463 160.831 51.6997 161.138C51.8559 161.445 52.0733 161.679 52.3517 161.841C52.6301 162 52.9554 162.08 53.3275 162.08C53.569 162.08 53.7892 162.045 53.988 161.977C54.1869 161.906 54.3588 161.801 54.5037 161.662C54.6486 161.523 54.7593 161.351 54.8361 161.146L56.042 161.364C55.9454 161.719 55.7721 162.03 55.5221 162.297C55.275 162.561 54.9639 162.767 54.5889 162.915C54.2167 163.06 53.792 163.132 53.3147 163.132ZM59.2015 163.145C58.7867 163.145 58.4117 163.068 58.0765 162.915C57.7413 162.759 57.4757 162.533 57.2796 162.237C57.0865 161.942 56.9899 161.58 56.9899 161.151C56.9899 160.781 57.0609 160.477 57.2029 160.239C57.345 160 57.5367 159.811 57.7782 159.672C58.0197 159.533 58.2896 159.428 58.5879 159.357C58.8862 159.286 59.1902 159.232 59.4998 159.195C59.8919 159.149 60.21 159.112 60.4544 159.084C60.6987 159.053 60.8762 159.003 60.987 158.935C61.0978 158.866 61.1532 158.756 61.1532 158.602V158.572C61.1532 158.2 61.0481 157.912 60.8379 157.707C60.6305 157.503 60.3208 157.401 59.9089 157.401C59.4799 157.401 59.1419 157.496 58.8947 157.686C58.6504 157.874 58.4814 158.082 58.3876 158.312L57.1902 158.04C57.3322 157.642 57.5396 157.321 57.8123 157.077C58.0879 156.83 58.4046 156.651 58.7626 156.54C59.1206 156.426 59.497 156.369 59.8919 156.369C60.1532 156.369 60.4302 156.401 60.7228 156.463C61.0183 156.523 61.2939 156.634 61.5495 156.795C61.8081 156.957 62.0197 157.189 62.1845 157.49C62.3492 157.788 62.4316 158.176 62.4316 158.653V163H61.1873V162.105H61.1362C61.0538 162.27 60.9302 162.432 60.7654 162.591C60.6007 162.75 60.389 162.882 60.1305 162.987C59.872 163.092 59.5623 163.145 59.2015 163.145ZM59.4785 162.122C59.8308 162.122 60.1319 162.053 60.3819 161.913C60.6348 161.774 60.8265 161.592 60.9572 161.368C61.0907 161.141 61.1575 160.898 61.1575 160.639V159.795C61.112 159.841 61.024 159.884 60.8933 159.923C60.7654 159.96 60.6191 159.993 60.4544 160.021C60.2896 160.047 60.1291 160.071 59.9728 160.094C59.8166 160.114 59.6859 160.131 59.5808 160.145C59.3336 160.176 59.1078 160.229 58.9032 160.303C58.7015 160.376 58.5396 160.483 58.4174 160.622C58.2981 160.759 58.2385 160.94 58.2385 161.168C58.2385 161.483 58.3549 161.722 58.5879 161.884C58.8208 162.043 59.1177 162.122 59.4785 162.122ZM65.0606 160.78L65.0521 159.224H65.2737L67.8816 156.455H69.4072L66.4328 159.608H66.2325L65.0606 160.78ZM63.8887 163V154.273H65.1629V163H63.8887ZM68.0222 163L65.6785 159.889L66.5563 158.999L69.5862 163H68.0222Z" fill="white"/>
<defs>
<linearGradient id="paint0_linear_25_5549" x1="28" y1="95" x2="273" y2="95" gradientUnits="userSpaceOnUse">
<stop stop-color="#30A5FF"/>
<stop offset="0.33" stop-color="#FCAD19"/>
<stop offset="0.66" stop-color="#E06E58"/>
<stop offset="1" stop-color="#BA4EFC"/>
</linearGradient>
<clipPath id="clip0_25_5549">
<rect width="16" height="16" fill="white" transform="translate(247 87)"/>
</clipPath>
</defs>
</svg>
