<svg width="302" height="200" viewBox="0 0 302 200" fill="none" xmlns="http://www.w3.org/2000/svg">
<g clip-path="url(#clip0_25_5487)">
<g opacity="0.5">
<rect x="198" y="42" width="85" height="116" rx="8" fill="#2F323B"/>
<path d="M243.65 106.75H236.699C236.244 106.75 236.017 106.75 235.912 106.66C235.821 106.582 235.772 106.465 235.781 106.346C235.792 106.208 235.953 106.047 236.274 105.726L242.651 99.3485C242.948 99.0515 243.097 98.903 243.268 98.8474C243.419 98.7984 243.581 98.7984 243.732 98.8474C243.903 98.903 244.052 99.0515 244.349 99.3485L247.25 102.25V103.15M243.65 106.75C244.91 106.75 245.54 106.75 246.021 106.505C246.445 106.289 246.789 105.945 247.005 105.521C247.25 105.04 247.25 104.41 247.25 103.15M243.65 106.75H237.35C236.09 106.75 235.46 106.75 234.979 106.505C234.555 106.289 234.211 105.945 233.995 105.521C233.75 105.04 233.75 104.41 233.75 103.15V96.85C233.75 95.5899 233.75 94.9598 233.995 94.4785C234.211 94.0552 234.555 93.711 234.979 93.4952C235.46 93.25 236.09 93.25 237.35 93.25H243.65C244.91 93.25 245.54 93.25 246.021 93.4952C246.445 93.711 246.789 94.0552 247.005 94.4785C247.25 94.9598 247.25 95.5899 247.25 96.85V103.15M239.375 97.375C239.375 98.2034 238.703 98.875 237.875 98.875C237.047 98.875 236.375 98.2034 236.375 97.375C236.375 96.5466 237.047 95.875 237.875 95.875C238.703 95.875 239.375 96.5466 239.375 97.375Z" stroke="white" stroke-opacity="0.25" stroke-width="1.25" stroke-linecap="round" stroke-linejoin="round"/>
</g>
<g opacity="0.5">
<rect x="198" y="162" width="85" height="116" rx="8" fill="#2F323B"/>
</g>
<g opacity="0.5">
<rect x="198" y="-78" width="85" height="116" rx="8" fill="#2F323B"/>
</g>
<g opacity="0.5">
<rect x="288" y="42" width="85" height="116" rx="8" fill="#2F323B"/>
</g>
<g opacity="0.5">
<rect x="288" y="162" width="85" height="116" rx="8" fill="#2F323B"/>
</g>
<g opacity="0.5">
<rect x="288" y="-78" width="85" height="116" rx="8" fill="#2F323B"/>
</g>
<g opacity="0.5">
<rect x="108" y="42" width="85" height="116" rx="8" fill="#2F323B"/>
<path d="M153.65 106.75H146.699C146.244 106.75 146.017 106.75 145.912 106.66C145.821 106.582 145.772 106.465 145.781 106.346C145.792 106.208 145.953 106.047 146.274 105.726L152.651 99.3485C152.948 99.0515 153.097 98.903 153.268 98.8474C153.419 98.7984 153.581 98.7984 153.732 98.8474C153.903 98.903 154.052 99.0515 154.349 99.3485L157.25 102.25V103.15M153.65 106.75C154.91 106.75 155.54 106.75 156.021 106.505C156.445 106.289 156.789 105.945 157.005 105.521C157.25 105.04 157.25 104.41 157.25 103.15M153.65 106.75H147.35C146.09 106.75 145.46 106.75 144.979 106.505C144.555 106.289 144.211 105.945 143.995 105.521C143.75 105.04 143.75 104.41 143.75 103.15V96.85C143.75 95.5899 143.75 94.9598 143.995 94.4785C144.211 94.0552 144.555 93.711 144.979 93.4952C145.46 93.25 146.09 93.25 147.35 93.25H153.65C154.91 93.25 155.54 93.25 156.021 93.4952C156.445 93.711 156.789 94.0552 157.005 94.4785C157.25 94.9598 157.25 95.5899 157.25 96.85V103.15M149.375 97.375C149.375 98.2034 148.703 98.875 147.875 98.875C147.047 98.875 146.375 98.2034 146.375 97.375C146.375 96.5466 147.047 95.875 147.875 95.875C148.703 95.875 149.375 96.5466 149.375 97.375Z" stroke="white" stroke-opacity="0.25" stroke-width="1.25" stroke-linecap="round" stroke-linejoin="round"/>
</g>
<g opacity="0.5">
<rect x="108" y="162" width="85" height="116" rx="8" fill="#2F323B"/>
</g>
<g opacity="0.5">
<rect x="108" y="-78" width="85" height="116" rx="8" fill="#2F323B"/>
</g>
<g opacity="0.5">
<rect x="18" y="42" width="85" height="116" rx="8" fill="#2F323B"/>
<path d="M63.65 106.75H56.6985C56.2442 106.75 56.017 106.75 55.9118 106.66C55.8205 106.582 55.7721 106.465 55.7815 106.346C55.7923 106.208 55.953 106.047 56.2743 105.726L62.6515 99.3485C62.9485 99.0515 63.097 98.903 63.2682 98.8474C63.4189 98.7984 63.5811 98.7984 63.7318 98.8474C63.903 98.903 64.0515 99.0515 64.3485 99.3485L67.25 102.25V103.15M63.65 106.75C64.9101 106.75 65.5402 106.75 66.0215 106.505C66.4448 106.289 66.789 105.945 67.0048 105.521C67.25 105.04 67.25 104.41 67.25 103.15M63.65 106.75H57.35C56.0899 106.75 55.4598 106.75 54.9785 106.505C54.5552 106.289 54.211 105.945 53.9952 105.521C53.75 105.04 53.75 104.41 53.75 103.15V96.85C53.75 95.5899 53.75 94.9598 53.9952 94.4785C54.211 94.0552 54.5552 93.711 54.9785 93.4952C55.4598 93.25 56.0899 93.25 57.35 93.25H63.65C64.9101 93.25 65.5402 93.25 66.0215 93.4952C66.4448 93.711 66.789 94.0552 67.0048 94.4785C67.25 94.9598 67.25 95.5899 67.25 96.85V103.15M59.375 97.375C59.375 98.2034 58.7034 98.875 57.875 98.875C57.0466 98.875 56.375 98.2034 56.375 97.375C56.375 96.5466 57.0466 95.875 57.875 95.875C58.7034 95.875 59.375 96.5466 59.375 97.375Z" stroke="white" stroke-opacity="0.25" stroke-width="1.25" stroke-linecap="round" stroke-linejoin="round"/>
</g>
<g opacity="0.5">
<rect x="18" y="162" width="85" height="116" rx="8" fill="#2F323B"/>
</g>
<g opacity="0.5">
<rect x="18" y="-78" width="85" height="116" rx="8" fill="#2F323B"/>
</g>
<g opacity="0.5">
<rect x="-72" y="42" width="85" height="116" rx="8" fill="#2F323B"/>
</g>
<g opacity="0.5">
<rect x="-72" y="162" width="85" height="116" rx="8" fill="#2F323B"/>
</g>
<g opacity="0.5">
<rect x="-72" y="-78" width="85" height="116" rx="8" fill="#2F323B"/>
</g>
<g filter="url(#filter0_dddddd_25_5487)">
<path d="M77 97C77 92.5817 80.5817 89 85 89H217C221.418 89 225 92.5817 225 97V117C225 121.418 221.418 125 217 125H85C80.5817 125 77 121.418 77 117V97Z" fill="#2F323B"/>
<path d="M77.5 97C77.5 92.8579 80.8579 89.5 85 89.5H217C221.142 89.5 224.5 92.8579 224.5 97V117C224.5 121.142 221.142 124.5 217 124.5H85C80.8579 124.5 77.5 121.142 77.5 117V97Z" stroke="url(#paint0_linear_25_5487)" stroke-opacity="0.5"/>
<path d="M90.8151 107.535C90.713 107.373 90.6619 107.292 90.6333 107.168C90.6118 107.074 90.6118 106.926 90.6333 106.832C90.6619 106.708 90.713 106.627 90.8151 106.465C91.6591 105.129 94.1715 101.75 98.0003 101.75C101.829 101.75 104.341 105.129 105.186 106.465C105.288 106.627 105.339 106.708 105.367 106.832C105.389 106.926 105.389 107.074 105.367 107.168C105.339 107.292 105.288 107.373 105.186 107.535C104.341 108.871 101.829 112.25 98.0003 112.25C94.1716 112.25 91.6591 108.871 90.8151 107.535Z" stroke="white" stroke-width="1.25" stroke-linecap="round" stroke-linejoin="round"/>
<path d="M98.0003 109.25C99.2429 109.25 100.25 108.243 100.25 107C100.25 105.757 99.2429 104.75 98.0003 104.75C96.7577 104.75 95.7503 105.757 95.7503 107C95.7503 108.243 96.7577 109.25 98.0003 109.25Z" stroke="white" stroke-width="1.25" stroke-linecap="round" stroke-linejoin="round"/>
<path d="M119.057 110.21V103.648H120.17V110.21H119.057ZM116.332 107.486V106.372H122.895V107.486H116.332ZM128.862 101.818V112H127.629V103.111H127.569L125.084 104.761V103.509L127.629 101.818H128.862ZM135.231 112.139C134.574 112.139 133.989 112.027 133.476 111.801C132.965 111.576 132.559 111.263 132.258 110.862C131.959 110.457 131.797 109.988 131.77 109.455H133.023C133.05 109.783 133.162 110.066 133.361 110.305C133.56 110.54 133.82 110.722 134.142 110.852C134.463 110.981 134.82 111.045 135.211 111.045C135.648 111.045 136.036 110.969 136.374 110.817C136.712 110.664 136.977 110.452 137.17 110.18C137.362 109.909 137.458 109.594 137.458 109.236C137.458 108.861 137.365 108.531 137.18 108.246C136.994 107.958 136.722 107.733 136.364 107.57C136.006 107.408 135.569 107.327 135.052 107.327H134.236V106.233H135.052C135.456 106.233 135.811 106.16 136.116 106.014C136.424 105.868 136.664 105.663 136.836 105.398C137.012 105.133 137.1 104.821 137.1 104.463C137.1 104.118 137.024 103.818 136.871 103.563C136.719 103.308 136.503 103.109 136.225 102.967C135.95 102.824 135.625 102.753 135.251 102.753C134.899 102.753 134.568 102.817 134.256 102.947C133.948 103.073 133.696 103.257 133.501 103.499C133.305 103.737 133.199 104.026 133.182 104.364H131.989C132.009 103.83 132.17 103.363 132.471 102.962C132.773 102.557 133.167 102.242 133.655 102.017C134.145 101.792 134.684 101.679 135.27 101.679C135.9 101.679 136.44 101.807 136.891 102.062C137.342 102.314 137.688 102.647 137.93 103.061C138.172 103.475 138.293 103.923 138.293 104.403C138.293 104.977 138.142 105.466 137.841 105.87C137.542 106.274 137.136 106.554 136.623 106.71V106.79C137.266 106.896 137.768 107.169 138.129 107.61C138.49 108.048 138.671 108.589 138.671 109.236C138.671 109.789 138.52 110.286 138.219 110.727C137.92 111.165 137.513 111.509 136.996 111.761C136.479 112.013 135.89 112.139 135.231 112.139ZM141.265 112.08C141.02 112.08 140.809 111.992 140.634 111.816C140.458 111.64 140.37 111.43 140.37 111.185C140.37 110.939 140.458 110.729 140.634 110.553C140.809 110.378 141.02 110.29 141.265 110.29C141.51 110.29 141.721 110.378 141.896 110.553C142.072 110.729 142.16 110.939 142.16 111.185C142.16 111.347 142.118 111.496 142.036 111.632C141.956 111.768 141.848 111.877 141.712 111.96C141.58 112.04 141.431 112.08 141.265 112.08ZM144.245 112V111.105L147.606 107.426C148.001 106.995 148.325 106.621 148.581 106.303C148.836 105.981 149.025 105.679 149.147 105.398C149.273 105.113 149.336 104.814 149.336 104.503C149.336 104.145 149.25 103.835 149.078 103.573C148.909 103.311 148.677 103.109 148.382 102.967C148.087 102.824 147.755 102.753 147.387 102.753C146.996 102.753 146.655 102.834 146.363 102.996C146.075 103.156 145.851 103.379 145.692 103.668C145.536 103.956 145.458 104.294 145.458 104.682H144.285C144.285 104.085 144.423 103.562 144.698 103.111C144.973 102.66 145.347 102.309 145.821 102.057C146.299 101.805 146.834 101.679 147.427 101.679C148.024 101.679 148.552 101.805 149.013 102.057C149.474 102.309 149.835 102.648 150.097 103.076C150.359 103.504 150.49 103.979 150.49 104.503C150.49 104.877 150.422 105.244 150.286 105.602C150.153 105.956 149.921 106.352 149.59 106.79C149.262 107.224 148.806 107.754 148.223 108.381L145.936 110.827V110.906H150.669V112H144.245ZM155.983 112.139C155.301 112.139 154.697 112.018 154.174 111.776C153.653 111.531 153.247 111.195 152.956 110.767C152.664 110.336 152.52 109.846 152.523 109.295C152.52 108.865 152.604 108.467 152.777 108.102C152.949 107.734 153.184 107.428 153.483 107.183C153.784 106.934 154.121 106.777 154.492 106.71V106.651C154.005 106.525 153.617 106.251 153.328 105.83C153.04 105.406 152.898 104.924 152.901 104.384C152.898 103.866 153.029 103.404 153.294 102.996C153.559 102.589 153.923 102.267 154.387 102.032C154.855 101.797 155.387 101.679 155.983 101.679C156.573 101.679 157.1 101.797 157.564 102.032C158.028 102.267 158.393 102.589 158.658 102.996C158.926 103.404 159.062 103.866 159.066 104.384C159.062 104.924 158.915 105.406 158.623 105.83C158.335 106.251 157.952 106.525 157.475 106.651V106.71C157.843 106.777 158.174 106.934 158.469 107.183C158.764 107.428 158.999 107.734 159.175 108.102C159.351 108.467 159.44 108.865 159.444 109.295C159.44 109.846 159.291 110.336 158.996 110.767C158.704 111.195 158.298 111.531 157.778 111.776C157.261 112.018 156.663 112.139 155.983 112.139ZM155.983 111.045C156.444 111.045 156.842 110.971 157.176 110.822C157.511 110.673 157.77 110.462 157.952 110.19C158.134 109.919 158.227 109.6 158.23 109.236C158.227 108.851 158.128 108.512 157.932 108.217C157.737 107.922 157.47 107.69 157.132 107.521C156.797 107.352 156.414 107.267 155.983 107.267C155.549 107.267 155.161 107.352 154.82 107.521C154.482 107.69 154.215 107.922 154.02 108.217C153.827 108.512 153.733 108.851 153.736 109.236C153.733 109.6 153.821 109.919 154 110.19C154.182 110.462 154.442 110.673 154.78 110.822C155.118 110.971 155.519 111.045 155.983 111.045ZM155.983 106.213C156.348 106.213 156.671 106.14 156.953 105.994C157.238 105.848 157.462 105.645 157.624 105.383C157.786 105.121 157.869 104.814 157.873 104.463C157.869 104.118 157.788 103.818 157.629 103.563C157.47 103.305 157.249 103.106 156.968 102.967C156.686 102.824 156.358 102.753 155.983 102.753C155.602 102.753 155.269 102.824 154.984 102.967C154.699 103.106 154.479 103.305 154.323 103.563C154.167 103.818 154.091 104.118 154.094 104.463C154.091 104.814 154.169 105.121 154.328 105.383C154.49 105.645 154.714 105.848 154.999 105.994C155.284 106.14 155.612 106.213 155.983 106.213ZM161.349 112V111.105L164.71 107.426C165.104 106.995 165.429 106.621 165.684 106.303C165.939 105.981 166.128 105.679 166.251 105.398C166.377 105.113 166.44 104.814 166.44 104.503C166.44 104.145 166.354 103.835 166.181 103.573C166.012 103.311 165.78 103.109 165.485 102.967C165.19 102.824 164.859 102.753 164.491 102.753C164.1 102.753 163.758 102.834 163.467 102.996C163.178 103.156 162.955 103.379 162.796 103.668C162.64 103.956 162.562 104.294 162.562 104.682H161.389C161.389 104.085 161.526 103.562 161.801 103.111C162.076 102.66 162.451 102.309 162.925 102.057C163.402 101.805 163.937 101.679 164.531 101.679C165.127 101.679 165.656 101.805 166.117 102.057C166.577 102.309 166.939 102.648 167.2 103.076C167.462 103.504 167.593 103.979 167.593 104.503C167.593 104.877 167.525 105.244 167.389 105.602C167.257 105.956 167.025 106.352 166.693 106.79C166.365 107.224 165.91 107.754 165.326 108.381L163.039 110.827V110.906H167.772V112H161.349ZM174.36 101.818L177.382 110.389H177.502L180.524 101.818H181.817L178.078 112H176.806L173.067 101.818H174.36ZM183.244 112V104.364H184.417V112H183.244ZM183.84 103.091C183.612 103.091 183.414 103.013 183.249 102.857C183.086 102.701 183.005 102.514 183.005 102.295C183.005 102.077 183.086 101.889 183.249 101.734C183.414 101.578 183.612 101.5 183.84 101.5C184.069 101.5 184.265 101.578 184.427 101.734C184.593 101.889 184.676 102.077 184.676 102.295C184.676 102.514 184.593 102.701 184.427 102.857C184.265 103.013 184.069 103.091 183.84 103.091ZM189.768 112.159C189.032 112.159 188.397 111.997 187.864 111.672C187.333 111.344 186.924 110.886 186.636 110.3C186.351 109.71 186.208 109.024 186.208 108.241C186.208 107.459 186.351 106.77 186.636 106.173C186.924 105.573 187.325 105.106 187.839 104.771C188.356 104.433 188.959 104.264 189.648 104.264C190.046 104.264 190.439 104.33 190.827 104.463C191.214 104.596 191.567 104.811 191.886 105.109C192.204 105.404 192.457 105.795 192.646 106.283C192.835 106.77 192.93 107.37 192.93 108.082V108.58H187.043V107.565H191.737C191.737 107.134 191.65 106.75 191.478 106.412C191.309 106.074 191.067 105.807 190.752 105.612C190.441 105.416 190.073 105.318 189.648 105.318C189.181 105.318 188.777 105.434 188.435 105.666C188.097 105.895 187.837 106.193 187.655 106.561C187.473 106.929 187.381 107.323 187.381 107.744V108.42C187.381 108.997 187.481 109.486 187.68 109.887C187.882 110.285 188.162 110.588 188.52 110.797C188.878 111.002 189.294 111.105 189.768 111.105C190.076 111.105 190.354 111.062 190.603 110.976C190.855 110.886 191.072 110.754 191.254 110.578C191.437 110.399 191.577 110.177 191.677 109.912L192.81 110.23C192.691 110.615 192.491 110.953 192.209 111.244C191.927 111.533 191.579 111.758 191.165 111.92C190.75 112.08 190.285 112.159 189.768 112.159ZM196.445 112L194.118 104.364H195.351L197.001 110.21H197.081L198.712 104.364H199.964L201.575 110.19H201.655L203.305 104.364H204.538L202.212 112H201.058L199.388 106.134H199.268L197.598 112H196.445ZM211.499 106.074L210.445 106.372C210.378 106.196 210.281 106.026 210.151 105.86C210.025 105.691 209.853 105.552 209.634 105.442C209.415 105.333 209.135 105.278 208.794 105.278C208.327 105.278 207.937 105.386 207.626 105.602C207.317 105.814 207.163 106.084 207.163 106.412C207.163 106.704 207.269 106.934 207.482 107.103C207.694 107.272 208.025 107.413 208.476 107.526L209.609 107.804C210.292 107.97 210.801 108.223 211.136 108.565C211.47 108.903 211.638 109.339 211.638 109.872C211.638 110.31 211.512 110.701 211.26 111.045C211.011 111.39 210.663 111.662 210.216 111.861C209.768 112.06 209.248 112.159 208.655 112.159C207.876 112.159 207.231 111.99 206.721 111.652C206.21 111.314 205.887 110.82 205.751 110.17L206.865 109.892C206.971 110.303 207.172 110.611 207.467 110.817C207.765 111.022 208.154 111.125 208.635 111.125C209.182 111.125 209.616 111.009 209.938 110.777C210.262 110.542 210.425 110.26 210.425 109.932C210.425 109.667 210.332 109.445 210.146 109.266C209.961 109.083 209.676 108.947 209.291 108.858L208.018 108.56C207.319 108.394 206.805 108.137 206.477 107.789C206.152 107.438 205.99 106.999 205.99 106.472C205.99 106.041 206.111 105.66 206.353 105.328C206.598 104.997 206.931 104.737 207.352 104.548C207.777 104.359 208.257 104.264 208.794 104.264C209.55 104.264 210.143 104.43 210.574 104.761C211.008 105.093 211.316 105.53 211.499 106.074Z" fill="white" fill-opacity="0.7"/>
</g>
<rect x="1" y="163" width="300" height="37" fill="url(#paint1_linear_25_5487)"/>
</g>
<defs>
<filter id="filter0_dddddd_25_5487" x="65" y="88" width="172" height="73" filterUnits="userSpaceOnUse" color-interpolation-filters="sRGB">
<feFlood flood-opacity="0" result="BackgroundImageFix"/>
<feColorMatrix in="SourceAlpha" type="matrix" values="0 0 0 0 0 0 0 0 0 0 0 0 0 0 0 0 0 0 127 0" result="hardAlpha"/>
<feMorphology radius="12" operator="erode" in="SourceAlpha" result="effect1_dropShadow_25_5487"/>
<feOffset dy="24"/>
<feGaussianBlur stdDeviation="12"/>
<feComposite in2="hardAlpha" operator="out"/>
<feColorMatrix type="matrix" values="0 0 0 0 0.054902 0 0 0 0 0.247059 0 0 0 0 0.494118 0 0 0 0.04 0"/>
<feBlend mode="normal" in2="BackgroundImageFix" result="effect1_dropShadow_25_5487"/>
<feColorMatrix in="SourceAlpha" type="matrix" values="0 0 0 0 0 0 0 0 0 0 0 0 0 0 0 0 0 0 127 0" result="hardAlpha"/>
<feMorphology radius="6" operator="erode" in="SourceAlpha" result="effect2_dropShadow_25_5487"/>
<feOffset dy="12"/>
<feGaussianBlur stdDeviation="6"/>
<feComposite in2="hardAlpha" operator="out"/>
<feColorMatrix type="matrix" values="0 0 0 0 0.054902 0 0 0 0 0.247059 0 0 0 0 0.494118 0 0 0 0.04 0"/>
<feBlend mode="normal" in2="effect1_dropShadow_25_5487" result="effect2_dropShadow_25_5487"/>
<feColorMatrix in="SourceAlpha" type="matrix" values="0 0 0 0 0 0 0 0 0 0 0 0 0 0 0 0 0 0 127 0" result="hardAlpha"/>
<feMorphology radius="3" operator="erode" in="SourceAlpha" result="effect3_dropShadow_25_5487"/>
<feOffset dy="6"/>
<feGaussianBlur stdDeviation="3"/>
<feComposite in2="hardAlpha" operator="out"/>
<feColorMatrix type="matrix" values="0 0 0 0 0.164706 0 0 0 0 0.2 0 0 0 0 0.27451 0 0 0 0.04 0"/>
<feBlend mode="normal" in2="effect2_dropShadow_25_5487" result="effect3_dropShadow_25_5487"/>
<feColorMatrix in="SourceAlpha" type="matrix" values="0 0 0 0 0 0 0 0 0 0 0 0 0 0 0 0 0 0 127 0" result="hardAlpha"/>
<feMorphology radius="1.5" operator="erode" in="SourceAlpha" result="effect4_dropShadow_25_5487"/>
<feOffset dy="3"/>
<feGaussianBlur stdDeviation="1.5"/>
<feComposite in2="hardAlpha" operator="out"/>
<feColorMatrix type="matrix" values="0 0 0 0 0.164706 0 0 0 0 0.2 0 0 0 0 0.27451 0 0 0 0.04 0"/>
<feBlend mode="normal" in2="effect3_dropShadow_25_5487" result="effect4_dropShadow_25_5487"/>
<feColorMatrix in="SourceAlpha" type="matrix" values="0 0 0 0 0 0 0 0 0 0 0 0 0 0 0 0 0 0 127 0" result="hardAlpha"/>
<feMorphology radius="0.5" operator="erode" in="SourceAlpha" result="effect5_dropShadow_25_5487"/>
<feOffset dy="1"/>
<feGaussianBlur stdDeviation="0.5"/>
<feComposite in2="hardAlpha" operator="out"/>
<feColorMatrix type="matrix" values="0 0 0 0 0.164706 0 0 0 0 0.2 0 0 0 0 0.270588 0 0 0 0.04 0"/>
<feBlend mode="normal" in2="effect4_dropShadow_25_5487" result="effect5_dropShadow_25_5487"/>
<feColorMatrix in="SourceAlpha" type="matrix" values="0 0 0 0 0 0 0 0 0 0 0 0 0 0 0 0 0 0 127 0" result="hardAlpha"/>
<feMorphology radius="1" operator="dilate" in="SourceAlpha" result="effect6_dropShadow_25_5487"/>
<feOffset/>
<feComposite in2="hardAlpha" operator="out"/>
<feColorMatrix type="matrix" values="0 0 0 0 0.054902 0 0 0 0 0.247059 0 0 0 0 0.494118 0 0 0 0.04 0"/>
<feBlend mode="normal" in2="effect5_dropShadow_25_5487" result="effect6_dropShadow_25_5487"/>
<feBlend mode="normal" in="SourceGraphic" in2="effect6_dropShadow_25_5487" result="shape"/>
</filter>
<linearGradient id="paint0_linear_25_5487" x1="77" y1="107" x2="225" y2="107" gradientUnits="userSpaceOnUse">
<stop stop-color="#30A5FF"/>
<stop offset="0.33" stop-color="#FCAD19"/>
<stop offset="0.66" stop-color="#E06E58"/>
<stop offset="1" stop-color="#BA4EFC"/>
</linearGradient>
<linearGradient id="paint1_linear_25_5487" x1="151" y1="163" x2="151" y2="200" gradientUnits="userSpaceOnUse">
<stop stop-color="#3E404C" stop-opacity="0"/>
<stop offset="1" stop-color="#3E404C"/>
</linearGradient>
<clipPath id="clip0_25_5487">
<rect width="301.333" height="200" fill="white"/>
</clipPath>
</defs>
</svg>
