<svg width="564" height="211" viewBox="0 0 564 211" fill="none" xmlns="http://www.w3.org/2000/svg">
<mask id="path-1-inside-1_1_2116" fill="white">
<path d="M0 0H564V195C564 203.837 556.837 211 548 211H16C7.16343 211 0 203.837 0 195V0Z"/>
</mask>
<path d="M0 0H564V195C564 203.837 556.837 211 548 211H16C7.16343 211 0 203.837 0 195V0Z" fill="white" fill-opacity="0.06"/>
<path d="M0 0H564H0ZM565 195C565 204.389 557.389 212 548 212H16C6.61116 212 -1 204.389 -1 195H1C1 203.284 7.71573 210 16 210H548C556.284 210 563 203.284 563 195H565ZM16 212C6.61116 212 -1 204.389 -1 195V0H1V195C1 203.284 7.71573 210 16 210V212ZM565 0V195C565 204.389 557.389 212 548 212V210C556.284 210 563 203.284 563 195V0H565Z" fill="white" fill-opacity="0.06" mask="url(#path-1-inside-1_1_2116)"/>
<rect x="18" y="24" width="525" height="169" rx="8" fill="white" fill-opacity="0.06"/>
<path d="M32.6676 44L30.2472 35.2727H31.6321L33.3324 42.0312H33.4134L35.1818 35.2727H36.554L38.3224 42.0355H38.4034L40.0994 35.2727H41.4886L39.0639 44H37.7386L35.902 37.4631H35.8338L33.9972 44H32.6676ZM43.6212 40.1136V44H42.347V35.2727H43.6041V38.5199H43.6851C43.8385 38.1676 44.0729 37.8878 44.3882 37.6804C44.7035 37.473 45.1155 37.3693 45.624 37.3693C46.0729 37.3693 46.4649 37.4616 46.8001 37.6463C47.1382 37.831 47.3996 38.1065 47.5842 38.473C47.7717 38.8366 47.8655 39.2912 47.8655 39.8366V44H46.5913V39.9901C46.5913 39.5099 46.4677 39.1378 46.2206 38.8736C45.9734 38.6065 45.6297 38.473 45.1893 38.473C44.8882 38.473 44.6183 38.5369 44.3797 38.6648C44.1439 38.7926 43.9578 38.9801 43.8214 39.2273C43.6879 39.4716 43.6212 39.767 43.6212 40.1136ZM51.2306 44.1449C50.8158 44.1449 50.4408 44.0682 50.1056 43.9148C49.7704 43.7585 49.5047 43.5327 49.3087 43.2372C49.1155 42.9418 49.0189 42.5795 49.0189 42.1506C49.0189 41.7812 49.09 41.4773 49.232 41.2386C49.374 41 49.5658 40.8111 49.8073 40.6719C50.0488 40.5327 50.3187 40.4276 50.6169 40.3565C50.9152 40.2855 51.2192 40.2315 51.5289 40.1946C51.9209 40.1491 52.2391 40.1122 52.4834 40.0838C52.7277 40.0526 52.9053 40.0028 53.0161 39.9347C53.1269 39.8665 53.1823 39.7557 53.1823 39.6023V39.5724C53.1823 39.2003 53.0772 38.9119 52.8669 38.7074C52.6596 38.5028 52.3499 38.4006 51.938 38.4006C51.509 38.4006 51.1709 38.4957 50.9238 38.6861C50.6794 38.8736 50.5104 39.0824 50.4167 39.3125L49.2192 39.0398C49.3613 38.642 49.5687 38.321 49.8414 38.0767C50.1169 37.8295 50.4337 37.6506 50.7917 37.5398C51.1496 37.4261 51.526 37.3693 51.9209 37.3693C52.1823 37.3693 52.4593 37.4006 52.7519 37.4631C53.0473 37.5227 53.3229 37.6335 53.5786 37.7955C53.8371 37.9574 54.0488 38.1889 54.2135 38.4901C54.3783 38.7884 54.4607 39.1761 54.4607 39.6534V44H53.2164V43.1051H53.1652C53.0829 43.2699 52.9593 43.4318 52.7945 43.5909C52.6297 43.75 52.4181 43.8821 52.1596 43.9872C51.901 44.0923 51.5914 44.1449 51.2306 44.1449ZM51.5076 43.1222C51.8598 43.1222 52.161 43.0526 52.411 42.9134C52.6638 42.7741 52.8556 42.5923 52.9863 42.3679C53.1198 42.1406 53.1865 41.8977 53.1865 41.6392V40.7955C53.1411 40.8409 53.053 40.8835 52.9223 40.9233C52.7945 40.9602 52.6482 40.9929 52.4834 41.0213C52.3187 41.0469 52.1581 41.071 52.0019 41.0938C51.8456 41.1136 51.715 41.1307 51.6098 41.1449C51.3627 41.1761 51.1368 41.2287 50.9323 41.3026C50.7306 41.3764 50.5687 41.483 50.4465 41.6222C50.3272 41.7585 50.2675 41.9403 50.2675 42.1676C50.2675 42.483 50.384 42.7216 50.6169 42.8835C50.8499 43.0426 51.1468 43.1222 51.5076 43.1222ZM58.9732 37.4545V38.4773H55.3979V37.4545H58.9732ZM56.3567 35.8864H57.6309V42.0781C57.6309 42.3253 57.6678 42.5114 57.7416 42.6364C57.8155 42.7585 57.9107 42.8423 58.0272 42.8878C58.1465 42.9304 58.2757 42.9517 58.4149 42.9517C58.5172 42.9517 58.6067 42.9446 58.6834 42.9304C58.7601 42.9162 58.8198 42.9048 58.8624 42.8963L59.0925 43.9489C59.0186 43.9773 58.9135 44.0057 58.7772 44.0341C58.6408 44.0653 58.4703 44.0824 58.2658 44.0852C57.9306 44.0909 57.6181 44.0312 57.3283 43.9062C57.0385 43.7812 56.8041 43.5881 56.6252 43.3267C56.4462 43.0653 56.3567 42.7372 56.3567 42.3423V35.8864ZM65.8355 44.1321C65.202 44.1321 64.6565 43.9886 64.1991 43.7017C63.7446 43.4119 63.3952 43.0128 63.1509 42.5043C62.9065 41.9957 62.7844 41.4134 62.7844 40.7571C62.7844 40.0923 62.9094 39.5057 63.1594 38.9972C63.4094 38.4858 63.7616 38.0866 64.2162 37.7997C64.6707 37.5128 65.2062 37.3693 65.8227 37.3693C66.3199 37.3693 66.7631 37.4616 67.1523 37.6463C67.5415 37.8281 67.8554 38.0838 68.094 38.4134C68.3355 38.7429 68.479 39.1278 68.5244 39.5682H67.2844C67.2162 39.2614 67.0599 38.9972 66.8156 38.7756C66.5741 38.554 66.2503 38.4432 65.844 38.4432C65.4889 38.4432 65.1778 38.5369 64.9108 38.7244C64.6466 38.9091 64.4406 39.1733 64.2929 39.517C64.1452 39.858 64.0713 40.2614 64.0713 40.7273C64.0713 41.2045 64.1437 41.6165 64.2886 41.9631C64.4335 42.3097 64.6381 42.5781 64.9023 42.7685C65.1693 42.9588 65.4832 43.054 65.844 43.054C66.0855 43.054 66.3043 43.0099 66.5003 42.9219C66.6991 42.831 66.8653 42.7017 66.9989 42.5341C67.1352 42.3665 67.2304 42.1648 67.2844 41.929H68.5244C68.479 42.3523 68.3412 42.7301 68.1111 43.0625C67.881 43.3949 67.5727 43.6562 67.1864 43.8466C66.8028 44.0369 66.3526 44.1321 65.8355 44.1321ZM71.5518 44.1449C71.1371 44.1449 70.7621 44.0682 70.4268 43.9148C70.0916 43.7585 69.826 43.5327 69.63 43.2372C69.4368 42.9418 69.3402 42.5795 69.3402 42.1506C69.3402 41.7812 69.4112 41.4773 69.5533 41.2386C69.6953 41 69.8871 40.8111 70.1285 40.6719C70.37 40.5327 70.6399 40.4276 70.9382 40.3565C71.2365 40.2855 71.5405 40.2315 71.8501 40.1946C72.2422 40.1491 72.5604 40.1122 72.8047 40.0838C73.049 40.0526 73.2265 40.0028 73.3373 39.9347C73.4481 39.8665 73.5035 39.7557 73.5035 39.6023V39.5724C73.5035 39.2003 73.3984 38.9119 73.1882 38.7074C72.9808 38.5028 72.6712 38.4006 72.2592 38.4006C71.8302 38.4006 71.4922 38.4957 71.245 38.6861C71.0007 38.8736 70.8317 39.0824 70.7379 39.3125L69.5405 39.0398C69.6825 38.642 69.8899 38.321 70.1626 38.0767C70.4382 37.8295 70.755 37.6506 71.1129 37.5398C71.4709 37.4261 71.8473 37.3693 72.2422 37.3693C72.5035 37.3693 72.7805 37.4006 73.0731 37.4631C73.3686 37.5227 73.6442 37.6335 73.8998 37.7955C74.1584 37.9574 74.37 38.1889 74.5348 38.4901C74.6996 38.7884 74.7819 39.1761 74.7819 39.6534V44H73.5376V43.1051H73.4865C73.4041 43.2699 73.2805 43.4318 73.1158 43.5909C72.951 43.75 72.7393 43.8821 72.4808 43.9872C72.2223 44.0923 71.9126 44.1449 71.5518 44.1449ZM71.8288 43.1222C72.1811 43.1222 72.4822 43.0526 72.7322 42.9134C72.9851 42.7741 73.1768 42.5923 73.3075 42.3679C73.441 42.1406 73.5078 41.8977 73.5078 41.6392V40.7955C73.4623 40.8409 73.3743 40.8835 73.2436 40.9233C73.1158 40.9602 72.9694 40.9929 72.8047 41.0213C72.6399 41.0469 72.4794 41.071 72.3231 41.0938C72.1669 41.1136 72.0362 41.1307 71.9311 41.1449C71.6839 41.1761 71.4581 41.2287 71.2535 41.3026C71.0518 41.3764 70.8899 41.483 70.7677 41.6222C70.6484 41.7585 70.5888 41.9403 70.5888 42.1676C70.5888 42.483 70.7052 42.7216 70.9382 42.8835C71.1712 43.0426 71.468 43.1222 71.8288 43.1222ZM76.239 44V37.4545H77.4706V38.4943H77.5387C77.6581 38.142 77.8683 37.8651 78.1694 37.6634C78.4734 37.4588 78.8172 37.3565 79.2007 37.3565C79.2802 37.3565 79.374 37.3594 79.4819 37.3651C79.5927 37.3707 79.6794 37.3778 79.7419 37.3864V38.6051C79.6907 38.5909 79.5998 38.5753 79.4691 38.5582C79.3385 38.5384 79.2078 38.5284 79.0771 38.5284C78.776 38.5284 78.5075 38.5923 78.2717 38.7202C78.0387 38.8452 77.8541 39.0199 77.7177 39.2443C77.5814 39.4659 77.5132 39.7187 77.5132 40.0028V44H76.239ZM85.4451 44.1449C85.0303 44.1449 84.6553 44.0682 84.3201 43.9148C83.9849 43.7585 83.7193 43.5327 83.5232 43.2372C83.3301 42.9418 83.2335 42.5795 83.2335 42.1506C83.2335 41.7812 83.3045 41.4773 83.4465 41.2386C83.5886 41 83.7803 40.8111 84.0218 40.6719C84.2633 40.5327 84.5332 40.4276 84.8315 40.3565C85.1298 40.2855 85.4338 40.2315 85.7434 40.1946C86.1355 40.1491 86.4536 40.1122 86.698 40.0838C86.9423 40.0526 87.1198 40.0028 87.2306 39.9347C87.3414 39.8665 87.3968 39.7557 87.3968 39.6023V39.5724C87.3968 39.2003 87.2917 38.9119 87.0815 38.7074C86.8741 38.5028 86.5644 38.4006 86.1525 38.4006C85.7235 38.4006 85.3855 38.4957 85.1383 38.6861C84.894 38.8736 84.7249 39.0824 84.6312 39.3125L83.4338 39.0398C83.5758 38.642 83.7832 38.321 84.0559 38.0767C84.3315 37.8295 84.6482 37.6506 85.0062 37.5398C85.3641 37.4261 85.7406 37.3693 86.1355 37.3693C86.3968 37.3693 86.6738 37.4006 86.9664 37.4631C87.2619 37.5227 87.5374 37.6335 87.7931 37.7955C88.0516 37.9574 88.2633 38.1889 88.4281 38.4901C88.5928 38.7884 88.6752 39.1761 88.6752 39.6534V44H87.4309V43.1051H87.3798C87.2974 43.2699 87.1738 43.4318 87.009 43.5909C86.8443 43.75 86.6326 43.8821 86.3741 43.9872C86.1156 44.0923 85.8059 44.1449 85.4451 44.1449ZM85.7221 43.1222C86.0744 43.1222 86.3755 43.0526 86.6255 42.9134C86.8784 42.7741 87.0701 42.5923 87.2008 42.3679C87.3343 42.1406 87.4011 41.8977 87.4011 41.6392V40.7955C87.3556 40.8409 87.2676 40.8835 87.1369 40.9233C87.009 40.9602 86.8627 40.9929 86.698 41.0213C86.5332 41.0469 86.3727 41.071 86.2164 41.0938C86.0602 41.1136 85.9295 41.1307 85.8244 41.1449C85.5772 41.1761 85.3514 41.2287 85.1468 41.3026C84.9451 41.3764 84.7832 41.483 84.661 41.6222C84.5417 41.7585 84.482 41.9403 84.482 42.1676C84.482 42.483 84.5985 42.7216 84.8315 42.8835C85.0644 43.0426 85.3613 43.1222 85.7221 43.1222ZM90.1323 44V37.4545H91.3553V38.5199H91.4363C91.5727 38.1591 91.7957 37.8778 92.1053 37.6761C92.415 37.4716 92.7857 37.3693 93.2175 37.3693C93.655 37.3693 94.0215 37.4716 94.317 37.6761C94.6153 37.8807 94.8354 38.1619 94.9775 38.5199H95.0457C95.2019 38.1705 95.4505 37.892 95.7914 37.6847C96.1323 37.4744 96.5386 37.3693 97.0102 37.3693C97.6039 37.3693 98.0883 37.5554 98.4633 37.9276C98.8411 38.2997 99.03 38.8608 99.03 39.6108V44H97.7559V39.7301C97.7559 39.2869 97.6352 38.9659 97.3937 38.767C97.1522 38.5682 96.8638 38.4688 96.5286 38.4688C96.1138 38.4688 95.7914 38.5966 95.5613 38.8523C95.3312 39.1051 95.2161 39.4304 95.2161 39.8281V44H93.9462V39.6491C93.9462 39.294 93.8354 39.0085 93.6138 38.7926C93.3923 38.5767 93.1039 38.4688 92.7488 38.4688C92.5073 38.4688 92.2843 38.5327 92.0798 38.6605C91.8781 38.7855 91.7147 38.9602 91.5897 39.1847C91.4675 39.4091 91.4065 39.669 91.4065 39.9645V44H90.1323ZM104.853 35.2727V44H103.536V35.2727H104.853ZM112.108 46.5909C111.588 46.5909 111.141 46.5227 110.766 46.3864C110.394 46.25 110.09 46.0696 109.854 45.8452C109.618 45.6207 109.442 45.375 109.325 45.108L110.421 44.6562C110.497 44.7812 110.6 44.9134 110.727 45.0526C110.858 45.1946 111.034 45.3153 111.256 45.4148C111.48 45.5142 111.769 45.5639 112.121 45.5639C112.604 45.5639 113.003 45.446 113.318 45.2102C113.634 44.9773 113.791 44.6051 113.791 44.0938V42.8068H113.71C113.634 42.946 113.523 43.1009 113.378 43.2713C113.236 43.4418 113.04 43.5895 112.79 43.7145C112.54 43.8395 112.215 43.902 111.814 43.902C111.297 43.902 110.831 43.7812 110.416 43.5398C110.004 43.2955 109.678 42.9361 109.436 42.4616C109.198 41.9844 109.078 41.3977 109.078 40.7017C109.078 40.0057 109.196 39.4091 109.432 38.9119C109.671 38.4148 109.997 38.0341 110.412 37.7699C110.827 37.5028 111.297 37.3693 111.823 37.3693C112.229 37.3693 112.557 37.4375 112.807 37.5739C113.057 37.7074 113.252 37.8636 113.391 38.0426C113.533 38.2216 113.642 38.3793 113.719 38.5156H113.813V37.4545H115.061V44.1449C115.061 44.7074 114.93 45.169 114.669 45.5298C114.408 45.8906 114.054 46.1577 113.608 46.331C113.165 46.5043 112.665 46.5909 112.108 46.5909ZM112.095 42.8452C112.462 42.8452 112.771 42.7599 113.024 42.5895C113.28 42.4162 113.473 42.169 113.604 41.848C113.737 41.5241 113.804 41.1364 113.804 40.6847C113.804 40.2443 113.739 39.8565 113.608 39.5213C113.477 39.1861 113.286 38.9247 113.033 38.7372C112.78 38.5469 112.467 38.4517 112.095 38.4517C111.712 38.4517 111.392 38.5511 111.136 38.75C110.881 38.946 110.688 39.2131 110.557 39.5511C110.429 39.8892 110.365 40.267 110.365 40.6847C110.365 41.1136 110.43 41.4901 110.561 41.8139C110.692 42.1378 110.885 42.3906 111.141 42.5724C111.399 42.7543 111.717 42.8452 112.095 42.8452ZM119.351 44.1321C118.706 44.1321 118.151 43.9943 117.685 43.7188C117.222 43.4403 116.864 43.0497 116.611 42.5469C116.361 42.0412 116.236 41.4489 116.236 40.7699C116.236 40.0994 116.361 39.5085 116.611 38.9972C116.864 38.4858 117.216 38.0866 117.668 37.7997C118.122 37.5128 118.654 37.3693 119.262 37.3693C119.631 37.3693 119.989 37.4304 120.335 37.5526C120.682 37.6747 120.993 37.8665 121.269 38.1278C121.544 38.3892 121.762 38.7287 121.921 39.1463C122.08 39.5611 122.159 40.0653 122.159 40.6591V41.1108H116.956V40.1562H120.911C120.911 39.821 120.842 39.5241 120.706 39.2656C120.57 39.0043 120.378 38.7983 120.131 38.6477C119.887 38.4972 119.6 38.4219 119.27 38.4219C118.912 38.4219 118.6 38.5099 118.333 38.6861C118.068 38.8594 117.864 39.0866 117.719 39.3679C117.577 39.6463 117.506 39.9489 117.506 40.2756V41.0213C117.506 41.4588 117.583 41.831 117.736 42.1378C117.892 42.4446 118.11 42.679 118.388 42.8409C118.666 43 118.992 43.0795 119.364 43.0795C119.605 43.0795 119.825 43.0455 120.024 42.9773C120.223 42.9062 120.395 42.8011 120.54 42.6619C120.685 42.5227 120.796 42.3509 120.872 42.1463L122.078 42.3636C121.982 42.7187 121.808 43.0298 121.558 43.2969C121.311 43.5611 121 43.767 120.625 43.9148C120.253 44.0597 119.828 44.1321 119.351 44.1321ZM126.388 37.4545V38.4773H122.813V37.4545H126.388ZM123.772 35.8864H125.046V42.0781C125.046 42.3253 125.083 42.5114 125.157 42.6364C125.231 42.7585 125.326 42.8423 125.442 42.8878C125.562 42.9304 125.691 42.9517 125.83 42.9517C125.932 42.9517 126.022 42.9446 126.099 42.9304C126.175 42.9162 126.235 42.9048 126.278 42.8963L126.508 43.9489C126.434 43.9773 126.329 44.0057 126.192 44.0341C126.056 44.0653 125.886 44.0824 125.681 44.0852C125.346 44.0909 125.033 44.0312 124.743 43.9062C124.454 43.7812 124.219 43.5881 124.04 43.3267C123.861 43.0653 123.772 42.7372 123.772 42.3423V35.8864ZM130.613 37.4545V38.4773H127.038V37.4545H130.613ZM127.997 35.8864H129.271V42.0781C129.271 42.3253 129.308 42.5114 129.382 42.6364C129.456 42.7585 129.551 42.8423 129.667 42.8878C129.786 42.9304 129.916 42.9517 130.055 42.9517C130.157 42.9517 130.247 42.9446 130.323 42.9304C130.4 42.9162 130.46 42.9048 130.502 42.8963L130.732 43.9489C130.659 43.9773 130.554 44.0057 130.417 44.0341C130.281 44.0653 130.11 44.0824 129.906 44.0852C129.571 44.0909 129.258 44.0312 128.968 43.9062C128.679 43.7812 128.444 43.5881 128.265 43.3267C128.086 43.0653 127.997 42.7372 127.997 42.3423V35.8864ZM131.783 44V37.4545H133.057V44H131.783ZM132.426 36.4446C132.205 36.4446 132.014 36.3707 131.855 36.223C131.699 36.0724 131.621 35.8935 131.621 35.6861C131.621 35.4759 131.699 35.2969 131.855 35.1491C132.014 34.9986 132.205 34.9233 132.426 34.9233C132.648 34.9233 132.837 34.9986 132.993 35.1491C133.152 35.2969 133.231 35.4759 133.231 35.6861C133.231 35.8935 133.152 36.0724 132.993 36.223C132.837 36.3707 132.648 36.4446 132.426 36.4446ZM135.805 40.1136V44H134.531V37.4545H135.754V38.5199H135.835C135.985 38.1733 136.221 37.8949 136.542 37.6847C136.866 37.4744 137.274 37.3693 137.765 37.3693C138.211 37.3693 138.602 37.4631 138.937 37.6506C139.272 37.8352 139.532 38.1108 139.717 38.4773C139.902 38.8437 139.994 39.2969 139.994 39.8366V44H138.72V39.9901C138.72 39.5156 138.596 39.1449 138.349 38.8778C138.102 38.608 137.762 38.473 137.331 38.473C137.035 38.473 136.772 38.5369 136.542 38.6648C136.315 38.7926 136.135 38.9801 136.001 39.2273C135.87 39.4716 135.805 39.767 135.805 40.1136ZM144.207 46.5909C143.687 46.5909 143.24 46.5227 142.865 46.3864C142.493 46.25 142.189 46.0696 141.953 45.8452C141.717 45.6207 141.541 45.375 141.424 45.108L142.52 44.6562C142.596 44.7812 142.699 44.9134 142.826 45.0526C142.957 45.1946 143.133 45.3153 143.355 45.4148C143.579 45.5142 143.868 45.5639 144.22 45.5639C144.703 45.5639 145.102 45.446 145.417 45.2102C145.733 44.9773 145.89 44.6051 145.89 44.0938V42.8068H145.809C145.733 42.946 145.622 43.1009 145.477 43.2713C145.335 43.4418 145.139 43.5895 144.889 43.7145C144.639 43.8395 144.314 43.902 143.913 43.902C143.396 43.902 142.93 43.7812 142.515 43.5398C142.103 43.2955 141.777 42.9361 141.535 42.4616C141.297 41.9844 141.177 41.3977 141.177 40.7017C141.177 40.0057 141.295 39.4091 141.531 38.9119C141.77 38.4148 142.096 38.0341 142.511 37.7699C142.926 37.5028 143.396 37.3693 143.922 37.3693C144.328 37.3693 144.656 37.4375 144.906 37.5739C145.156 37.7074 145.351 37.8636 145.49 38.0426C145.632 38.2216 145.741 38.3793 145.818 38.5156H145.912V37.4545H147.16V44.1449C147.16 44.7074 147.03 45.169 146.768 45.5298C146.507 45.8906 146.153 46.1577 145.707 46.331C145.264 46.5043 144.764 46.5909 144.207 46.5909ZM144.194 42.8452C144.561 42.8452 144.87 42.7599 145.123 42.5895C145.379 42.4162 145.572 42.169 145.703 41.848C145.836 41.5241 145.903 41.1364 145.903 40.6847C145.903 40.2443 145.838 39.8565 145.707 39.5213C145.576 39.1861 145.385 38.9247 145.132 38.7372C144.879 38.5469 144.566 38.4517 144.194 38.4517C143.811 38.4517 143.491 38.5511 143.236 38.75C142.98 38.946 142.787 39.2131 142.656 39.5511C142.528 39.8892 142.464 40.267 142.464 40.6847C142.464 41.1136 142.53 41.4901 142.66 41.8139C142.791 42.1378 142.984 42.3906 143.24 42.5724C143.498 42.7543 143.816 42.8452 144.194 42.8452ZM152.839 40.1136V44H151.565V37.4545H152.788V38.5199H152.869C153.019 38.1733 153.255 37.8949 153.576 37.6847C153.9 37.4744 154.308 37.3693 154.799 37.3693C155.245 37.3693 155.636 37.4631 155.971 37.6506C156.306 37.8352 156.566 38.1108 156.751 38.4773C156.936 38.8437 157.028 39.2969 157.028 39.8366V44H155.754V39.9901C155.754 39.5156 155.63 39.1449 155.383 38.8778C155.136 38.608 154.796 38.473 154.365 38.473C154.069 38.473 153.806 38.5369 153.576 38.6648C153.349 38.7926 153.169 38.9801 153.035 39.2273C152.904 39.4716 152.839 39.767 152.839 40.1136ZM161.318 44.1321C160.673 44.1321 160.117 43.9943 159.652 43.7188C159.188 43.4403 158.831 43.0497 158.578 42.5469C158.328 42.0412 158.203 41.4489 158.203 40.7699C158.203 40.0994 158.328 39.5085 158.578 38.9972C158.831 38.4858 159.183 38.0866 159.634 37.7997C160.089 37.5128 160.62 37.3693 161.228 37.3693C161.598 37.3693 161.956 37.4304 162.302 37.5526C162.649 37.6747 162.96 37.8665 163.235 38.1278C163.511 38.3892 163.728 38.7287 163.887 39.1463C164.046 39.5611 164.126 40.0653 164.126 40.6591V41.1108H158.923V40.1562H162.877C162.877 39.821 162.809 39.5241 162.673 39.2656C162.536 39.0043 162.345 38.7983 162.098 38.6477C161.853 38.4972 161.566 38.4219 161.237 38.4219C160.879 38.4219 160.566 38.5099 160.299 38.6861C160.035 38.8594 159.831 39.0866 159.686 39.3679C159.544 39.6463 159.473 39.9489 159.473 40.2756V41.0213C159.473 41.4588 159.549 41.831 159.703 42.1378C159.859 42.4446 160.076 42.679 160.355 42.8409C160.633 43 160.958 43.0795 161.331 43.0795C161.572 43.0795 161.792 43.0455 161.991 42.9773C162.19 42.9062 162.362 42.8011 162.507 42.6619C162.652 42.5227 162.762 42.3509 162.839 42.1463L164.045 42.3636C163.948 42.7187 163.775 43.0298 163.525 43.2969C163.278 43.5611 162.967 43.767 162.592 43.9148C162.22 44.0597 161.795 44.1321 161.318 44.1321ZM166.153 37.4545L167.598 40.0028L169.055 37.4545H170.448L168.407 40.7273L170.466 44H169.072L167.598 41.554L166.127 44H164.73L166.767 40.7273L164.755 37.4545H166.153ZM174.572 37.4545V38.4773H170.997V37.4545H174.572ZM171.956 35.8864H173.23V42.0781C173.23 42.3253 173.267 42.5114 173.341 42.6364C173.414 42.7585 173.51 42.8423 173.626 42.8878C173.745 42.9304 173.875 42.9517 174.014 42.9517C174.116 42.9517 174.206 42.9446 174.282 42.9304C174.359 42.9162 174.419 42.9048 174.461 42.8963L174.691 43.9489C174.618 43.9773 174.512 44.0057 174.376 44.0341C174.24 44.0653 174.069 44.0824 173.865 44.0852C173.529 44.0909 173.217 44.0312 172.927 43.9062C172.637 43.7812 172.403 43.5881 172.224 43.3267C172.045 43.0653 171.956 42.7372 171.956 42.3423V35.8864ZM177.135 41.4901V41.4091C177.141 40.8807 177.193 40.4602 177.293 40.1477C177.395 39.8352 177.54 39.5824 177.727 39.3892C177.915 39.196 178.141 39.0199 178.405 38.8608C178.575 38.7528 178.729 38.6321 178.865 38.4986C179.001 38.3651 179.109 38.2116 179.189 38.0384C179.269 37.8651 179.308 37.6733 179.308 37.4631C179.308 37.2102 179.249 36.9915 179.129 36.8068C179.01 36.6222 178.851 36.4801 178.652 36.3807C178.456 36.2784 178.237 36.2273 177.996 36.2273C177.777 36.2273 177.568 36.2727 177.369 36.3636C177.171 36.4545 177.006 36.5966 176.875 36.7898C176.744 36.9801 176.669 37.2259 176.649 37.527H175.354C175.374 37.0156 175.503 36.5838 175.742 36.2315C175.98 35.8764 176.296 35.608 176.688 35.4261C177.082 35.2443 177.519 35.1534 177.996 35.1534C178.519 35.1534 178.976 35.2514 179.368 35.4474C179.76 35.6406 180.064 35.9119 180.28 36.2614C180.499 36.608 180.608 37.0128 180.608 37.4759C180.608 37.794 180.558 38.081 180.459 38.3366C180.359 38.5895 180.217 38.8153 180.033 39.0142C179.851 39.2131 179.632 39.3892 179.376 39.5426C179.135 39.6932 178.939 39.8494 178.788 40.0114C178.641 40.1733 178.533 40.3651 178.465 40.5866C178.396 40.8082 178.359 41.0824 178.354 41.4091V41.4901H177.135ZM177.778 44.081C177.546 44.081 177.345 43.9986 177.178 43.8338C177.01 43.6662 176.926 43.4645 176.926 43.2287C176.926 42.9957 177.01 42.7969 177.178 42.6321C177.345 42.4645 177.546 42.3807 177.778 42.3807C178.009 42.3807 178.207 42.4645 178.375 42.6321C178.546 42.7969 178.631 42.9957 178.631 43.2287C178.631 43.3849 178.591 43.5284 178.511 43.6591C178.435 43.7869 178.332 43.8892 178.205 43.9659C178.077 44.0426 177.935 44.081 177.778 44.081Z" fill="white"/>
<rect x="28" y="58" width="505" height="28" rx="6" fill="white" fill-opacity="0.08"/>
<path d="M39.696 76H38.2983L41.4389 67.2727H42.9602L46.1009 76H44.7031L42.2358 68.858H42.1676L39.696 76ZM39.9304 72.5824H44.4645V73.6903H39.9304V72.5824ZM51.1652 73.2855V69.4545H52.4436V76H51.1908V74.8665H51.1226C50.972 75.2159 50.7305 75.5071 50.3981 75.7401C50.0686 75.9702 49.6581 76.0852 49.1666 76.0852C48.7462 76.0852 48.374 75.9929 48.0501 75.8082C47.7291 75.6207 47.4763 75.3438 47.2916 74.9773C47.1098 74.6108 47.0189 74.1577 47.0189 73.6179V69.4545H48.293V73.4645C48.293 73.9105 48.4166 74.2656 48.6638 74.5298C48.9109 74.794 49.2319 74.9261 49.6268 74.9261C49.8655 74.9261 50.1027 74.8665 50.3385 74.7472C50.5771 74.6278 50.7746 74.4474 50.9308 74.206C51.0899 73.9645 51.168 73.6577 51.1652 73.2855ZM56.3659 76.1278C55.8375 76.1278 55.3659 75.9929 54.9511 75.723C54.5392 75.4503 54.2153 75.0625 53.9795 74.5597C53.7466 74.054 53.6301 73.4474 53.6301 72.7401C53.6301 72.0327 53.748 71.4276 53.9838 70.9247C54.2224 70.4219 54.5491 70.0369 54.9639 69.7699C55.3787 69.5028 55.8488 69.3693 56.3744 69.3693C56.7807 69.3693 57.1074 69.4375 57.3545 69.5739C57.6045 69.7074 57.7977 69.8636 57.9341 70.0426C58.0733 70.2216 58.1812 70.3793 58.2579 70.5156H58.3346V67.2727H59.6088V76H58.3645V74.9815H58.2579C58.1812 75.1207 58.0704 75.2798 57.9255 75.4588C57.7835 75.6378 57.5875 75.794 57.3375 75.9276C57.0875 76.0611 56.7636 76.1278 56.3659 76.1278ZM56.6471 75.0412C57.0136 75.0412 57.3233 74.9446 57.5761 74.7514C57.8318 74.5554 58.025 74.2841 58.1557 73.9375C58.2892 73.5909 58.3559 73.1875 58.3559 72.7273C58.3559 72.2727 58.2906 71.875 58.1599 71.5341C58.0292 71.1932 57.8375 70.9276 57.5846 70.7372C57.3318 70.5469 57.0193 70.4517 56.6471 70.4517C56.2636 70.4517 55.944 70.5511 55.6883 70.75C55.4326 70.9489 55.2395 71.2202 55.1088 71.5639C54.9809 71.9077 54.917 72.2955 54.917 72.7273C54.917 73.1648 54.9824 73.5582 55.113 73.9077C55.2437 74.2571 55.4369 74.5341 55.6926 74.7386C55.9511 74.9403 56.2693 75.0412 56.6471 75.0412ZM61.1873 76V69.4545H62.4615V76H61.1873ZM61.8308 68.4446C61.6092 68.4446 61.4189 68.3707 61.2598 68.223C61.1035 68.0724 61.0254 67.8935 61.0254 67.6861C61.0254 67.4759 61.1035 67.2969 61.2598 67.1491C61.4189 66.9986 61.6092 66.9233 61.8308 66.9233C62.0524 66.9233 62.2413 66.9986 62.3975 67.1491C62.5566 67.2969 62.6362 67.4759 62.6362 67.6861C62.6362 67.8935 62.5566 68.0724 62.3975 68.223C62.2413 68.3707 62.0524 68.4446 61.8308 68.4446ZM66.9736 76V67.2727H70.0844C70.7606 67.2727 71.3217 67.3892 71.7677 67.6222C72.2165 67.8551 72.5518 68.1776 72.7734 68.5895C72.995 68.9986 73.1058 69.4716 73.1058 70.0085C73.1058 70.5426 72.9935 71.0128 72.7691 71.419C72.5475 71.8224 72.2123 72.1364 71.7634 72.3608C71.3174 72.5852 70.7563 72.6974 70.0802 72.6974H67.7236V71.5639H69.9609C70.387 71.5639 70.7336 71.5028 71.0006 71.3807C71.2705 71.2585 71.468 71.081 71.593 70.848C71.718 70.6151 71.7805 70.3352 71.7805 70.0085C71.7805 69.679 71.7165 69.3935 71.5887 69.152C71.4637 68.9105 71.2663 68.7259 70.9964 68.598C70.7293 68.4673 70.3785 68.402 69.9438 68.402H68.2904V76H66.9736ZM71.2819 72.0625L73.4381 76H71.9381L69.8245 72.0625H71.2819ZM77.2976 76.1193C76.6868 76.1193 76.147 76.0142 75.6783 75.804C75.2123 75.5937 74.8473 75.304 74.5831 74.9347C74.3189 74.5653 74.1882 74.1449 74.191 73.6733C74.1882 73.304 74.2635 72.9645 74.4169 72.6548C74.5731 72.3423 74.7848 72.0824 75.0518 71.875C75.3189 71.6648 75.6172 71.5312 75.9467 71.4744V71.4233C75.5121 71.3182 75.164 71.0852 74.9027 70.7244C74.6413 70.3636 74.5121 69.9489 74.5149 69.4801C74.5121 69.0341 74.63 68.6364 74.8686 68.2869C75.1101 67.9347 75.441 67.6577 75.8615 67.456C76.2819 67.2543 76.7606 67.1534 77.2976 67.1534C77.8288 67.1534 78.3033 67.2557 78.7209 67.4602C79.1413 67.6619 79.4723 67.9389 79.7138 68.2912C79.9552 68.6406 80.0774 69.0369 80.0802 69.4801C80.0774 69.9489 79.9439 70.3636 79.6797 70.7244C79.4155 71.0852 79.0717 71.3182 78.6484 71.4233V71.4744C78.9751 71.5312 79.2692 71.6648 79.5305 71.875C79.7947 72.0824 80.005 72.3423 80.1612 72.6548C80.3203 72.9645 80.4013 73.304 80.4041 73.6733C80.4013 74.1449 80.2677 74.5653 80.0035 74.9347C79.7393 75.304 79.3729 75.5937 78.9041 75.804C78.4382 76.0142 77.9027 76.1193 77.2976 76.1193ZM77.2976 75.0412C77.6584 75.0412 77.9709 74.9815 78.2351 74.8622C78.4993 74.7401 78.7038 74.571 78.8487 74.3551C78.9936 74.1364 79.0675 73.8807 79.0703 73.5881C79.0675 73.2841 78.9879 73.0156 78.8317 72.7827C78.6783 72.5497 78.4694 72.3665 78.2052 72.233C77.941 72.0994 77.6385 72.0327 77.2976 72.0327C76.9538 72.0327 76.6484 72.0994 76.3814 72.233C76.1143 72.3665 75.9041 72.5497 75.7507 72.7827C75.5973 73.0156 75.522 73.2841 75.5248 73.5881C75.522 73.8807 75.5916 74.1364 75.7337 74.3551C75.8785 74.571 76.0845 74.7401 76.3515 74.8622C76.6186 74.9815 76.9339 75.0412 77.2976 75.0412ZM77.2976 70.9801C77.5873 70.9801 77.8444 70.9219 78.0689 70.8054C78.2933 70.6889 78.4694 70.527 78.5973 70.3196C78.728 70.1122 78.7947 69.8693 78.7976 69.5909C78.7947 69.3182 78.7294 69.0795 78.6015 68.875C78.4765 68.6705 78.3018 68.5128 78.0774 68.402C77.853 68.2884 77.593 68.2315 77.2976 68.2315C76.9964 68.2315 76.7322 68.2884 76.505 68.402C76.2805 68.5128 76.1058 68.6705 75.9808 68.875C75.8558 69.0795 75.7947 69.3182 75.7976 69.5909C75.7947 69.8693 75.8572 70.1122 75.9851 70.3196C76.1129 70.527 76.289 70.6889 76.5135 70.8054C76.7408 70.9219 77.0021 70.9801 77.2976 70.9801Z" fill="white"/>
<rect x="28.5" y="90.5" width="504" height="27" rx="5.5" stroke="url(#paint0_linear_1_2116)"/>
<path d="M38.9588 108V99.2727H42.1548C42.7741 99.2727 43.2869 99.375 43.6932 99.5795C44.0994 99.7812 44.4034 100.055 44.6051 100.402C44.8068 100.746 44.9077 101.134 44.9077 101.565C44.9077 101.929 44.8409 102.236 44.7074 102.486C44.5739 102.733 44.3949 102.932 44.1705 103.082C43.9489 103.23 43.7045 103.338 43.4375 103.406V103.491C43.7273 103.506 44.0099 103.599 44.2855 103.773C44.5639 103.943 44.794 104.186 44.9759 104.501C45.1577 104.817 45.2486 105.2 45.2486 105.652C45.2486 106.098 45.1435 106.499 44.9332 106.854C44.7259 107.206 44.4048 107.486 43.9702 107.693C43.5355 107.898 42.9801 108 42.304 108H38.9588ZM40.2756 106.871H42.1761C42.8068 106.871 43.2585 106.749 43.5312 106.504C43.804 106.26 43.9403 105.955 43.9403 105.588C43.9403 105.312 43.8707 105.06 43.7315 104.83C43.5923 104.599 43.3935 104.416 43.1349 104.28C42.8793 104.143 42.5753 104.075 42.223 104.075H40.2756V106.871ZM40.2756 103.048H42.0398C42.3352 103.048 42.6009 102.991 42.8366 102.878C43.0753 102.764 43.2642 102.605 43.4034 102.401C43.5455 102.193 43.6165 101.949 43.6165 101.668C43.6165 101.307 43.4901 101.004 43.2372 100.76C42.9844 100.516 42.5966 100.393 42.0739 100.393H40.2756V103.048ZM46.5704 99.2727H48.1684L50.9468 106.057H51.0491L53.8275 99.2727H55.4255V108H54.1726V101.685H54.0917L51.5178 107.987H50.478L47.9042 101.68H47.8232V108H46.5704V99.2727ZM58.8087 108L56.3883 99.2727H57.7732L59.4735 106.031H59.5544L61.3229 99.2727H62.6951L64.4635 106.036H64.5445L66.2405 99.2727H67.6297L65.205 108H63.8797L62.0431 101.463H61.9749L60.1383 108H58.8087ZM71.5262 99.2727H73.1242L75.9026 106.057H76.0048L78.7833 99.2727H80.3813V108H79.1284V101.685H79.0475L76.4736 107.987H75.4338L72.86 101.68H72.779V108H71.5262V99.2727ZM81.7531 106.295V105.23L85.5244 99.2727H86.3639V100.841H85.8312L83.1338 105.111V105.179H88.3028V106.295H81.7531ZM85.8909 108V105.972L85.8994 105.486V99.2727H87.148V108H85.8909Z" fill="white"/>
<g clip-path="url(#clip0_1_2116)">
<path d="M512 104L514 106L518 102M521.667 104C521.667 107.682 518.682 110.667 515 110.667C511.318 110.667 508.333 107.682 508.333 104C508.333 100.318 511.318 97.3335 515 97.3335C518.682 97.3335 521.667 100.318 521.667 104Z" stroke="white" stroke-linecap="round" stroke-linejoin="round"/>
</g>
<rect x="28" y="122" width="505" height="28" rx="6" fill="white" fill-opacity="0.08"/>
<path d="M38.9588 131.273H40.5568L43.3352 138.057H43.4375L46.2159 131.273H47.8139V140H46.5611V133.685H46.4801L43.9062 139.987H42.8665L40.2926 133.68H40.2116V140H38.9588V131.273ZM52.1432 140.132C51.5096 140.132 50.9642 139.989 50.5068 139.702C50.0523 139.412 49.7028 139.013 49.4585 138.504C49.2142 137.996 49.092 137.413 49.092 136.757C49.092 136.092 49.217 135.506 49.467 134.997C49.717 134.486 50.0693 134.087 50.5238 133.8C50.9784 133.513 51.5139 133.369 52.1304 133.369C52.6275 133.369 53.0707 133.462 53.4599 133.646C53.8491 133.828 54.1631 134.084 54.4017 134.413C54.6432 134.743 54.7866 135.128 54.8321 135.568H53.592C53.5238 135.261 53.3676 134.997 53.1233 134.776C52.8818 134.554 52.5579 134.443 52.1517 134.443C51.7966 134.443 51.4855 134.537 51.2185 134.724C50.9542 134.909 50.7483 135.173 50.6006 135.517C50.4528 135.858 50.379 136.261 50.379 136.727C50.379 137.205 50.4514 137.616 50.5963 137.963C50.7412 138.31 50.9457 138.578 51.2099 138.768C51.477 138.959 51.7909 139.054 52.1517 139.054C52.3932 139.054 52.6119 139.01 52.8079 138.922C53.0068 138.831 53.173 138.702 53.3065 138.534C53.4429 138.366 53.5381 138.165 53.592 137.929H54.8321C54.7866 138.352 54.6488 138.73 54.4187 139.062C54.1886 139.395 53.8804 139.656 53.494 139.847C53.1105 140.037 52.6602 140.132 52.1432 140.132ZM57.2288 131.273V140H55.9547V131.273H57.2288ZM60.6078 140.145C60.193 140.145 59.818 140.068 59.4828 139.915C59.1475 139.759 58.8819 139.533 58.6859 139.237C58.4927 138.942 58.3961 138.58 58.3961 138.151C58.3961 137.781 58.4671 137.477 58.6092 137.239C58.7512 137 58.943 136.811 59.1845 136.672C59.426 136.533 59.6958 136.428 59.9941 136.357C60.2924 136.286 60.5964 136.232 60.9061 136.195C61.2981 136.149 61.6163 136.112 61.8606 136.084C62.1049 136.053 62.2825 136.003 62.3933 135.935C62.5041 135.866 62.5595 135.756 62.5595 135.602V135.572C62.5595 135.2 62.4544 134.912 62.2441 134.707C62.0367 134.503 61.7271 134.401 61.3152 134.401C60.8862 134.401 60.5481 134.496 60.301 134.686C60.0566 134.874 59.8876 135.082 59.7939 135.312L58.5964 135.04C58.7385 134.642 58.9458 134.321 59.2186 134.077C59.4941 133.83 59.8109 133.651 60.1689 133.54C60.5268 133.426 60.9032 133.369 61.2981 133.369C61.5595 133.369 61.8365 133.401 62.1291 133.463C62.4245 133.523 62.7001 133.634 62.9558 133.795C63.2143 133.957 63.426 134.189 63.5907 134.49C63.7555 134.788 63.8379 135.176 63.8379 135.653V140H62.5936V139.105H62.5424C62.46 139.27 62.3365 139.432 62.1717 139.591C62.0069 139.75 61.7953 139.882 61.5367 139.987C61.2782 140.092 60.9686 140.145 60.6078 140.145ZM60.8848 139.122C61.237 139.122 61.5382 139.053 61.7882 138.913C62.041 138.774 62.2328 138.592 62.3635 138.368C62.497 138.141 62.5637 137.898 62.5637 137.639V136.795C62.5183 136.841 62.4302 136.884 62.2995 136.923C62.1717 136.96 62.0254 136.993 61.8606 137.021C61.6958 137.047 61.5353 137.071 61.3791 137.094C61.2228 137.114 61.0921 137.131 60.987 137.145C60.7399 137.176 60.514 137.229 60.3095 137.303C60.1078 137.376 59.9458 137.483 59.8237 137.622C59.7044 137.759 59.6447 137.94 59.6447 138.168C59.6447 138.483 59.7612 138.722 59.9941 138.884C60.2271 139.043 60.524 139.122 60.8848 139.122ZM65.295 140V133.455H66.5265V134.494H66.5947C66.714 134.142 66.9242 133.865 67.2254 133.663C67.5293 133.459 67.8731 133.357 68.2566 133.357C68.3362 133.357 68.4299 133.359 68.5379 133.365C68.6487 133.371 68.7353 133.378 68.7978 133.386V134.605C68.7467 134.591 68.6558 134.575 68.5251 134.558C68.3944 134.538 68.2637 134.528 68.133 134.528C67.8319 134.528 67.5634 134.592 67.3276 134.72C67.0947 134.845 66.91 135.02 66.7737 135.244C66.6373 135.466 66.5691 135.719 66.5691 136.003V140H65.295ZM72.2471 140.132C71.6022 140.132 71.0468 139.994 70.5809 139.719C70.1178 139.44 69.7599 139.05 69.507 138.547C69.257 138.041 69.132 137.449 69.132 136.77C69.132 136.099 69.257 135.509 69.507 134.997C69.7599 134.486 70.1121 134.087 70.5638 133.8C71.0184 133.513 71.5496 133.369 72.1576 133.369C72.5269 133.369 72.8849 133.43 73.2315 133.553C73.5781 133.675 73.8891 133.866 74.1647 134.128C74.4403 134.389 74.6576 134.729 74.8167 135.146C74.9758 135.561 75.0553 136.065 75.0553 136.659V137.111H69.8522V136.156H73.8067C73.8067 135.821 73.7386 135.524 73.6022 135.266C73.4658 135.004 73.2741 134.798 73.0269 134.648C72.7826 134.497 72.4957 134.422 72.1661 134.422C71.8082 134.422 71.4957 134.51 71.2286 134.686C70.9644 134.859 70.7599 135.087 70.615 135.368C70.4729 135.646 70.4019 135.949 70.4019 136.276V137.021C70.4019 137.459 70.4786 137.831 70.632 138.138C70.7883 138.445 71.0056 138.679 71.284 138.841C71.5624 139 71.8877 139.08 72.2599 139.08C72.5013 139.08 72.7215 139.045 72.9204 138.977C73.1192 138.906 73.2911 138.801 73.436 138.662C73.5809 138.523 73.6917 138.351 73.7684 138.146L74.9744 138.364C74.8778 138.719 74.7045 139.03 74.4545 139.297C74.2073 139.561 73.8962 139.767 73.5212 139.915C73.1491 140.06 72.7244 140.132 72.2471 140.132ZM77.5032 136.114V140H76.229V133.455H77.452V134.52H77.533C77.6836 134.173 77.9194 133.895 78.2404 133.685C78.5643 133.474 78.9719 133.369 79.4634 133.369C79.9094 133.369 80.3001 133.463 80.6353 133.651C80.9705 133.835 81.2305 134.111 81.4151 134.477C81.5998 134.844 81.6921 135.297 81.6921 135.837V140H80.418V135.99C80.418 135.516 80.2944 135.145 80.0472 134.878C79.8001 134.608 79.4606 134.473 79.0288 134.473C78.7333 134.473 78.4705 134.537 78.2404 134.665C78.0131 134.793 77.8327 134.98 77.6992 135.227C77.5685 135.472 77.5032 135.767 77.5032 136.114ZM86.3737 140L90.1833 132.466V132.402H85.7771V131.273H91.547V132.44L87.7501 140H86.3737ZM92.7889 140V139.045L95.742 135.986C96.0573 135.653 96.3173 135.362 96.5218 135.112C96.7292 134.859 96.884 134.619 96.9863 134.392C97.0886 134.165 97.1397 133.923 97.1397 133.668C97.1397 133.378 97.0715 133.128 96.9352 132.918C96.7988 132.705 96.6127 132.541 96.3769 132.428C96.1411 132.311 95.8755 132.253 95.5801 132.253C95.2676 132.253 94.9948 132.317 94.7619 132.445C94.5289 132.572 94.3499 132.753 94.2249 132.986C94.0999 133.219 94.0374 133.491 94.0374 133.804H92.7803C92.7803 133.273 92.9025 132.808 93.1468 132.411C93.3911 132.013 93.7264 131.705 94.1525 131.486C94.5786 131.264 95.063 131.153 95.6056 131.153C96.1539 131.153 96.6369 131.263 97.0545 131.482C97.4749 131.697 97.8031 131.993 98.0389 132.368C98.2747 132.74 98.3926 133.161 98.3926 133.629C98.3926 133.953 98.3315 134.27 98.2093 134.58C98.09 134.889 97.8812 135.234 97.5829 135.615C97.2846 135.993 96.8698 136.452 96.3386 136.991L94.6042 138.807V138.871H98.5332V140H92.7889ZM102.947 140.145C102.273 140.142 101.698 139.964 101.221 139.612C100.743 139.26 100.378 138.747 100.126 138.074C99.8727 137.401 99.7463 136.589 99.7463 135.641C99.7463 134.695 99.8727 133.886 100.126 133.216C100.381 132.545 100.748 132.034 101.225 131.682C101.705 131.33 102.279 131.153 102.947 131.153C103.614 131.153 104.187 131.331 104.664 131.686C105.141 132.038 105.506 132.55 105.759 133.22C106.015 133.888 106.143 134.695 106.143 135.641C106.143 136.592 106.016 137.405 105.763 138.078C105.511 138.749 105.145 139.261 104.668 139.616C104.191 139.969 103.617 140.145 102.947 140.145ZM102.947 139.007C103.537 139.007 103.999 138.719 104.332 138.142C104.667 137.565 104.834 136.732 104.834 135.641C104.834 134.916 104.758 134.304 104.604 133.804C104.454 133.301 104.236 132.92 103.952 132.662C103.671 132.401 103.336 132.27 102.947 132.27C102.359 132.27 101.897 132.56 101.562 133.139C101.226 133.719 101.057 134.553 101.055 135.641C101.055 136.368 101.13 136.983 101.28 137.486C101.434 137.986 101.651 138.365 101.932 138.624C102.214 138.879 102.552 139.007 102.947 139.007ZM112.294 133.565C112.248 133.162 112.061 132.849 111.731 132.628C111.402 132.403 110.987 132.291 110.487 132.291C110.129 132.291 109.819 132.348 109.558 132.462C109.296 132.572 109.093 132.726 108.948 132.922C108.806 133.115 108.735 133.335 108.735 133.582C108.735 133.79 108.784 133.969 108.88 134.119C108.98 134.27 109.109 134.396 109.268 134.499C109.43 134.598 109.603 134.682 109.788 134.75C109.973 134.815 110.15 134.869 110.321 134.912L111.173 135.134C111.451 135.202 111.737 135.294 112.029 135.411C112.322 135.527 112.593 135.68 112.843 135.871C113.093 136.061 113.295 136.297 113.448 136.578C113.605 136.859 113.683 137.196 113.683 137.588C113.683 138.082 113.555 138.521 113.299 138.905C113.046 139.288 112.679 139.591 112.196 139.812C111.715 140.034 111.135 140.145 110.453 140.145C109.799 140.145 109.234 140.041 108.757 139.834C108.279 139.626 107.906 139.332 107.636 138.952C107.366 138.568 107.217 138.114 107.188 137.588H108.51C108.535 137.903 108.637 138.166 108.816 138.376C108.998 138.584 109.23 138.739 109.511 138.841C109.795 138.94 110.106 138.99 110.444 138.99C110.816 138.99 111.147 138.932 111.437 138.815C111.73 138.696 111.96 138.531 112.127 138.321C112.295 138.108 112.379 137.859 112.379 137.575C112.379 137.317 112.305 137.105 112.157 136.94C112.012 136.776 111.815 136.639 111.565 136.531C111.318 136.423 111.038 136.328 110.725 136.246L109.694 135.964C108.995 135.774 108.441 135.494 108.032 135.125C107.626 134.756 107.423 134.267 107.423 133.659C107.423 133.156 107.559 132.717 107.832 132.342C108.105 131.967 108.474 131.676 108.94 131.469C109.406 131.259 109.931 131.153 110.517 131.153C111.108 131.153 111.629 131.257 112.081 131.464C112.535 131.672 112.893 131.957 113.154 132.321C113.416 132.682 113.552 133.097 113.563 133.565H112.294Z" fill="white"/>
<rect x="28" y="154" width="505" height="28" rx="6" fill="white" fill-opacity="0.08"/>
<path d="M38.9588 163.273H40.5568L43.3352 170.057H43.4375L46.2159 163.273H47.8139V172H46.5611V165.685H46.4801L43.9062 171.987H42.8665L40.2926 165.68H40.2116V172H38.9588V163.273ZM52.2071 172.132C51.5622 172.132 51.0068 171.994 50.5409 171.719C50.0778 171.44 49.7199 171.05 49.467 170.547C49.217 170.041 49.092 169.449 49.092 168.77C49.092 168.099 49.217 167.509 49.467 166.997C49.7199 166.486 50.0721 166.087 50.5238 165.8C50.9784 165.513 51.5096 165.369 52.1176 165.369C52.4869 165.369 52.8449 165.43 53.1915 165.553C53.5381 165.675 53.8491 165.866 54.1247 166.128C54.4003 166.389 54.6176 166.729 54.7767 167.146C54.9358 167.561 55.0153 168.065 55.0153 168.659V169.111H49.8122V168.156H53.7667C53.7667 167.821 53.6986 167.524 53.5622 167.266C53.4258 167.004 53.2341 166.798 52.9869 166.648C52.7426 166.497 52.4557 166.422 52.1261 166.422C51.7682 166.422 51.4557 166.51 51.1886 166.686C50.9244 166.859 50.7199 167.087 50.575 167.368C50.4329 167.646 50.3619 167.949 50.3619 168.276V169.021C50.3619 169.459 50.4386 169.831 50.592 170.138C50.7483 170.445 50.9656 170.679 51.244 170.841C51.5224 171 51.8477 171.08 52.2199 171.08C52.4613 171.08 52.6815 171.045 52.8804 170.977C53.0792 170.906 53.2511 170.801 53.396 170.662C53.5409 170.523 53.6517 170.351 53.7284 170.146L54.9344 170.364C54.8378 170.719 54.6645 171.03 54.4145 171.297C54.1673 171.561 53.8562 171.767 53.4812 171.915C53.1091 172.06 52.6844 172.132 52.2071 172.132ZM56.189 172V165.455H57.4206V166.494H57.4888C57.6081 166.142 57.8183 165.865 58.1194 165.663C58.4234 165.459 58.7672 165.357 59.1507 165.357C59.2302 165.357 59.324 165.359 59.4319 165.365C59.5427 165.371 59.6294 165.378 59.6919 165.386V166.605C59.6407 166.591 59.5498 166.575 59.4191 166.558C59.2885 166.538 59.1578 166.528 59.0271 166.528C58.726 166.528 58.4575 166.592 58.2217 166.72C57.9888 166.845 57.8041 167.02 57.6677 167.244C57.5314 167.466 57.4632 167.719 57.4632 168.003V172H56.189ZM63.0772 172.132C62.4437 172.132 61.8983 171.989 61.4409 171.702C60.9863 171.412 60.6369 171.013 60.3926 170.504C60.1483 169.996 60.0261 169.413 60.0261 168.757C60.0261 168.092 60.1511 167.506 60.4011 166.997C60.6511 166.486 61.0034 166.087 61.4579 165.8C61.9125 165.513 62.448 165.369 63.0644 165.369C63.5616 165.369 64.0048 165.462 64.394 165.646C64.7832 165.828 65.0971 166.084 65.3358 166.413C65.5772 166.743 65.7207 167.128 65.7662 167.568H64.5261C64.4579 167.261 64.3017 166.997 64.0573 166.776C63.8159 166.554 63.492 166.443 63.0858 166.443C62.7306 166.443 62.4196 166.537 62.1525 166.724C61.8883 166.909 61.6823 167.173 61.5346 167.517C61.3869 167.858 61.313 168.261 61.313 168.727C61.313 169.205 61.3855 169.616 61.5304 169.963C61.6752 170.31 61.8798 170.578 62.144 170.768C62.411 170.959 62.725 171.054 63.0858 171.054C63.3272 171.054 63.546 171.01 63.742 170.922C63.9409 170.831 64.1071 170.702 64.2406 170.534C64.3769 170.366 64.4721 170.165 64.5261 169.929H65.7662C65.7207 170.352 65.5829 170.73 65.3528 171.062C65.1227 171.395 64.8144 171.656 64.4281 171.847C64.0446 172.037 63.5943 172.132 63.0772 172.132ZM69.7097 172.132C69.0649 172.132 68.5095 171.994 68.0436 171.719C67.5805 171.44 67.2225 171.05 66.9697 170.547C66.7197 170.041 66.5947 169.449 66.5947 168.77C66.5947 168.099 66.7197 167.509 66.9697 166.997C67.2225 166.486 67.5748 166.087 68.0265 165.8C68.4811 165.513 69.0123 165.369 69.6203 165.369C69.9896 165.369 70.3475 165.43 70.6941 165.553C71.0407 165.675 71.3518 165.866 71.6274 166.128C71.9029 166.389 72.1203 166.729 72.2793 167.146C72.4384 167.561 72.518 168.065 72.518 168.659V169.111H67.3149V168.156H71.2694C71.2694 167.821 71.2012 167.524 71.0649 167.266C70.9285 167.004 70.7367 166.798 70.4896 166.648C70.2453 166.497 69.9583 166.422 69.6288 166.422C69.2708 166.422 68.9583 166.51 68.6913 166.686C68.4271 166.859 68.2225 167.087 68.0776 167.368C67.9356 167.646 67.8646 167.949 67.8646 168.276V169.021C67.8646 169.459 67.9413 169.831 68.0947 170.138C68.2509 170.445 68.4683 170.679 68.7467 170.841C69.0251 171 69.3504 171.08 69.7225 171.08C69.964 171.08 70.1842 171.045 70.383 170.977C70.5819 170.906 70.7538 170.801 70.8987 170.662C71.0436 170.523 71.1543 170.351 71.2311 170.146L72.437 170.364C72.3404 170.719 72.1671 171.03 71.9171 171.297C71.67 171.561 71.3589 171.767 70.9839 171.915C70.6117 172.06 70.187 172.132 69.7097 172.132ZM76.142 172.128C75.6136 172.128 75.142 171.993 74.7272 171.723C74.3153 171.45 73.9914 171.062 73.7556 170.56C73.5227 170.054 73.4062 169.447 73.4062 168.74C73.4062 168.033 73.5241 167.428 73.7599 166.925C73.9985 166.422 74.3252 166.037 74.74 165.77C75.1548 165.503 75.6249 165.369 76.1505 165.369C76.5567 165.369 76.8835 165.438 77.1306 165.574C77.3806 165.707 77.5738 165.864 77.7102 166.043C77.8494 166.222 77.9573 166.379 78.034 166.516H78.1107V163.273H79.3849V172H78.1406V170.982H78.034C77.9573 171.121 77.8465 171.28 77.7016 171.459C77.5596 171.638 77.3636 171.794 77.1136 171.928C76.8636 172.061 76.5397 172.128 76.142 172.128ZM76.4232 171.041C76.7897 171.041 77.0994 170.945 77.3522 170.751C77.6079 170.555 77.8011 170.284 77.9317 169.938C78.0653 169.591 78.132 169.187 78.132 168.727C78.132 168.273 78.0667 167.875 77.936 167.534C77.8053 167.193 77.6136 166.928 77.3607 166.737C77.1079 166.547 76.7954 166.452 76.4232 166.452C76.0397 166.452 75.7201 166.551 75.4644 166.75C75.2087 166.949 75.0156 167.22 74.8849 167.564C74.757 167.908 74.6931 168.295 74.6931 168.727C74.6931 169.165 74.7585 169.558 74.8891 169.908C75.0198 170.257 75.213 170.534 75.4687 170.739C75.7272 170.94 76.0454 171.041 76.4232 171.041ZM83.7844 172.132C83.1395 172.132 82.5841 171.994 82.1182 171.719C81.6552 171.44 81.2972 171.05 81.0444 170.547C80.7944 170.041 80.6694 169.449 80.6694 168.77C80.6694 168.099 80.7944 167.509 81.0444 166.997C81.2972 166.486 81.6495 166.087 82.1012 165.8C82.5557 165.513 83.087 165.369 83.6949 165.369C84.0643 165.369 84.4222 165.43 84.7688 165.553C85.1154 165.675 85.4265 165.866 85.702 166.128C85.9776 166.389 86.1949 166.729 86.354 167.146C86.5131 167.561 86.5927 168.065 86.5927 168.659V169.111H81.3895V168.156H85.3441C85.3441 167.821 85.2759 167.524 85.1395 167.266C85.0032 167.004 84.8114 166.798 84.5643 166.648C84.3199 166.497 84.033 166.422 83.7035 166.422C83.3455 166.422 83.033 166.51 82.766 166.686C82.5018 166.859 82.2972 167.087 82.1523 167.368C82.0103 167.646 81.9393 167.949 81.9393 168.276V169.021C81.9393 169.459 82.016 169.831 82.1694 170.138C82.3256 170.445 82.543 170.679 82.8214 170.841C83.0998 171 83.4251 171.08 83.7972 171.08C84.0387 171.08 84.2589 171.045 84.4577 170.977C84.6566 170.906 84.8285 170.801 84.9734 170.662C85.1182 170.523 85.229 170.351 85.3057 170.146L86.5117 170.364C86.4151 170.719 86.2418 171.03 85.9918 171.297C85.7447 171.561 85.4336 171.767 85.0586 171.915C84.6864 172.06 84.2617 172.132 83.7844 172.132ZM92.6712 167.053L91.5164 167.257C91.4681 167.109 91.3914 166.969 91.2863 166.835C91.184 166.702 91.0448 166.592 90.8687 166.507C90.6925 166.422 90.4723 166.379 90.2081 166.379C89.8473 166.379 89.5462 166.46 89.3047 166.622C89.0633 166.781 88.9425 166.987 88.9425 167.24C88.9425 167.459 89.0235 167.635 89.1854 167.768C89.3473 167.902 89.6087 168.011 89.9695 168.097L91.0093 168.335C91.6115 168.474 92.0604 168.689 92.3559 168.979C92.6513 169.268 92.799 169.645 92.799 170.108C92.799 170.5 92.6854 170.849 92.4581 171.156C92.2337 171.46 91.9198 171.699 91.5164 171.872C91.1158 172.045 90.6513 172.132 90.1229 172.132C89.39 172.132 88.7919 171.976 88.3289 171.663C87.8658 171.348 87.5817 170.901 87.4766 170.321L88.7081 170.134C88.7848 170.455 88.9425 170.697 89.1812 170.862C89.4198 171.024 89.7309 171.105 90.1144 171.105C90.532 171.105 90.8658 171.018 91.1158 170.845C91.3658 170.669 91.4908 170.455 91.4908 170.202C91.4908 169.997 91.4141 169.825 91.2607 169.686C91.1101 169.547 90.8786 169.442 90.5661 169.371L89.4581 169.128C88.8473 168.989 88.3956 168.767 88.103 168.463C87.8133 168.159 87.6684 167.774 87.6684 167.308C87.6684 166.922 87.7763 166.584 87.9922 166.294C88.2081 166.004 88.5064 165.778 88.8871 165.616C89.2678 165.452 89.7039 165.369 90.1954 165.369C90.9027 165.369 91.4596 165.523 91.8658 165.83C92.2721 166.134 92.5405 166.541 92.6712 167.053ZM101.758 165.565C101.713 165.162 101.525 164.849 101.195 164.628C100.866 164.403 100.451 164.291 99.9512 164.291C99.5932 164.291 99.2835 164.348 99.0222 164.462C98.7608 164.572 98.5577 164.726 98.4128 164.922C98.2708 165.115 98.1997 165.335 98.1997 165.582C98.1997 165.79 98.248 165.969 98.3446 166.119C98.444 166.27 98.5733 166.396 98.7324 166.499C98.8943 166.598 99.0676 166.682 99.2523 166.75C99.4369 166.815 99.6145 166.869 99.785 166.912L100.637 167.134C100.916 167.202 101.201 167.294 101.494 167.411C101.786 167.527 102.058 167.68 102.308 167.871C102.558 168.061 102.759 168.297 102.913 168.578C103.069 168.859 103.147 169.196 103.147 169.588C103.147 170.082 103.019 170.521 102.764 170.905C102.511 171.288 102.143 171.591 101.66 171.812C101.18 172.034 100.599 172.145 99.9171 172.145C99.2637 172.145 98.6983 172.041 98.221 171.834C97.7438 171.626 97.3702 171.332 97.1003 170.952C96.8304 170.568 96.6813 170.114 96.6529 169.588H97.9739C97.9994 169.903 98.1017 170.166 98.2807 170.376C98.4625 170.584 98.694 170.739 98.9753 170.841C99.2594 170.94 99.5705 170.99 99.9085 170.99C100.281 170.99 100.612 170.932 100.901 170.815C101.194 170.696 101.424 170.531 101.592 170.321C101.759 170.108 101.843 169.859 101.843 169.575C101.843 169.317 101.769 169.105 101.622 168.94C101.477 168.776 101.279 168.639 101.029 168.531C100.782 168.423 100.502 168.328 100.19 168.246L99.1585 167.964C98.4597 167.774 97.9057 167.494 97.4966 167.125C97.0904 166.756 96.8872 166.267 96.8872 165.659C96.8872 165.156 97.0236 164.717 97.2963 164.342C97.569 163.967 97.9384 163.676 98.4043 163.469C98.8702 163.259 99.3958 163.153 99.981 163.153C100.572 163.153 101.093 163.257 101.545 163.464C101.999 163.672 102.357 163.957 102.619 164.321C102.88 164.682 103.016 165.097 103.028 165.565H101.758ZM107.242 172.119C106.708 172.119 106.228 172.017 105.802 171.812C105.378 171.605 105.04 171.321 104.787 170.96C104.535 170.599 104.4 170.188 104.383 169.724H105.661C105.692 170.099 105.859 170.408 106.16 170.649C106.461 170.891 106.822 171.011 107.242 171.011C107.577 171.011 107.874 170.935 108.133 170.781C108.394 170.625 108.599 170.411 108.746 170.138C108.897 169.865 108.972 169.554 108.972 169.205C108.972 168.849 108.895 168.533 108.742 168.254C108.589 167.976 108.377 167.757 108.107 167.598C107.84 167.439 107.533 167.358 107.187 167.355C106.922 167.355 106.657 167.401 106.39 167.491C106.123 167.582 105.907 167.702 105.742 167.849L104.536 167.67L105.026 163.273H109.824V164.402H106.121L105.844 166.844H105.895C106.066 166.679 106.292 166.541 106.573 166.43C106.857 166.32 107.161 166.264 107.485 166.264C108.016 166.264 108.489 166.391 108.904 166.643C109.322 166.896 109.65 167.241 109.888 167.679C110.13 168.114 110.249 168.614 110.246 169.179C110.249 169.744 110.121 170.249 109.863 170.692C109.607 171.135 109.252 171.484 108.797 171.74C108.346 171.993 107.827 172.119 107.242 172.119ZM114.443 172.119C113.909 172.119 113.429 172.017 113.003 171.812C112.58 171.605 112.242 171.321 111.989 170.96C111.736 170.599 111.601 170.188 111.584 169.724H112.862C112.894 170.099 113.06 170.408 113.361 170.649C113.662 170.891 114.023 171.011 114.443 171.011C114.779 171.011 115.076 170.935 115.334 170.781C115.595 170.625 115.8 170.411 115.948 170.138C116.098 169.865 116.174 169.554 116.174 169.205C116.174 168.849 116.097 168.533 115.943 168.254C115.79 167.976 115.578 167.757 115.309 167.598C115.041 167.439 114.735 167.358 114.388 167.355C114.124 167.355 113.858 167.401 113.591 167.491C113.324 167.582 113.108 167.702 112.943 167.849L111.737 167.67L112.228 163.273H117.026V164.402H113.323L113.046 166.844H113.097C113.267 166.679 113.493 166.541 113.774 166.43C114.059 166.32 114.362 166.264 114.686 166.264C115.218 166.264 115.691 166.391 116.105 166.643C116.523 166.896 116.851 167.241 117.09 167.679C117.331 168.114 117.451 168.614 117.448 169.179C117.451 169.744 117.323 170.249 117.064 170.692C116.809 171.135 116.453 171.484 115.999 171.74C115.547 171.993 115.029 172.119 114.443 172.119ZM121.803 172.145C121.129 172.142 120.554 171.964 120.077 171.612C119.599 171.26 119.234 170.747 118.982 170.074C118.729 169.401 118.602 168.589 118.602 167.641C118.602 166.695 118.729 165.886 118.982 165.216C119.237 164.545 119.604 164.034 120.081 163.682C120.561 163.33 121.135 163.153 121.803 163.153C122.47 163.153 123.043 163.331 123.52 163.686C123.997 164.038 124.362 164.55 124.615 165.22C124.871 165.888 124.999 166.695 124.999 167.641C124.999 168.592 124.872 169.405 124.619 170.078C124.366 170.749 124.001 171.261 123.524 171.616C123.047 171.969 122.473 172.145 121.803 172.145ZM121.803 171.007C122.393 171.007 122.855 170.719 123.187 170.142C123.523 169.565 123.69 168.732 123.69 167.641C123.69 166.916 123.614 166.304 123.46 165.804C123.31 165.301 123.092 164.92 122.808 164.662C122.527 164.401 122.192 164.27 121.803 164.27C121.214 164.27 120.753 164.56 120.418 165.139C120.082 165.719 119.913 166.553 119.91 167.641C119.91 168.368 119.986 168.983 120.136 169.486C120.29 169.986 120.507 170.365 120.788 170.624C121.07 170.879 121.408 171.007 121.803 171.007Z" fill="white"/>
<defs>
<linearGradient id="paint0_linear_1_2116" x1="533" y1="104" x2="28" y2="104" gradientUnits="userSpaceOnUse">
<stop stop-color="#FFE2F2"/>
<stop offset="0.47998" stop-color="#0067FF"/>
<stop offset="1" stop-color="#D5FFF1"/>
</linearGradient>
<clipPath id="clip0_1_2116">
<rect width="16" height="16" fill="white" transform="translate(507 96)"/>
</clipPath>
</defs>
</svg>
