<svg width="337" height="259" viewBox="0 0 337 259" fill="none" xmlns="http://www.w3.org/2000/svg">
<g filter="url(#filter0_dddddd_1_1721)">
<path d="M16 -10H321V195C321 203.837 313.837 211 305 211H32C23.1634 211 16 203.837 16 195V-10Z" fill="white"/>
<path d="M41.8651 14.0455L44.4964 21.7457H44.6026L47.234 14.0455H48.7759L45.3736 23.5H43.7255L40.3232 14.0455H41.8651ZM54.5223 20.5593V16.4091H55.9072V23.5H54.55V22.272H54.4761C54.313 22.6506 54.0514 22.966 53.6913 23.2184C53.3343 23.4677 52.8896 23.5923 52.3572 23.5923C51.9017 23.5923 51.4985 23.4923 51.1476 23.2923C50.7999 23.0891 50.526 22.7891 50.3259 22.392C50.1289 21.995 50.0305 21.5041 50.0305 20.9194V16.4091H51.4108V20.7532C51.4108 21.2364 51.5447 21.6211 51.8124 21.9073C52.0802 22.1935 52.4279 22.3366 52.8557 22.3366C53.1143 22.3366 53.3712 22.272 53.6267 22.1428C53.8852 22.0135 54.0991 21.8181 54.2684 21.5565C54.4407 21.2949 54.5254 20.9625 54.5223 20.5593ZM60.818 23.6431C60.1194 23.6431 59.5177 23.4938 59.013 23.1953C58.5113 22.8937 58.1235 22.4705 57.8496 21.9258C57.5788 21.378 57.4434 20.7363 57.4434 20.0007C57.4434 19.2744 57.5788 18.6342 57.8496 18.0803C58.1235 17.5263 58.5051 17.0939 58.9945 16.783C59.4869 16.4722 60.0624 16.3168 60.7211 16.3168C61.1212 16.3168 61.5089 16.3829 61.8844 16.5153C62.2599 16.6476 62.5969 16.8554 62.8954 17.1385C63.194 17.4216 63.4294 17.7894 63.6017 18.2418C63.7741 18.6912 63.8603 19.2375 63.8603 19.8807V20.37H58.2235V19.3359H62.5076C62.5076 18.9728 62.4338 18.6512 62.286 18.3711C62.1383 18.0879 61.9306 17.8648 61.6628 17.7017C61.3981 17.5386 61.0873 17.457 60.7303 17.457C60.3425 17.457 60.004 17.5524 59.7147 17.7433C59.4284 17.931 59.2069 18.1772 59.0499 18.4819C58.896 18.7835 58.8191 19.1113 58.8191 19.4652V20.2731C58.8191 20.747 58.9022 21.1502 59.0684 21.4826C59.2376 21.815 59.4731 22.0689 59.7747 22.2443C60.0763 22.4167 60.4287 22.5028 60.8319 22.5028C61.0935 22.5028 61.332 22.4659 61.5474 22.392C61.7628 22.3151 61.949 22.2012 62.106 22.0504C62.263 21.8996 62.383 21.7134 62.4661 21.4918L63.7725 21.7273C63.6679 22.112 63.4802 22.449 63.2093 22.7383C62.9416 23.0245 62.6046 23.2476 62.1983 23.4077C61.7952 23.5646 61.335 23.6431 60.818 23.6431ZM71.4867 23.6385C70.9142 23.6385 70.4033 23.4923 69.954 23.1999C69.5078 22.9045 69.1569 22.4844 68.9015 21.9396C68.6491 21.3918 68.5229 20.7347 68.5229 19.9684C68.5229 19.2021 68.6506 18.5465 68.9061 18.0018C69.1646 17.457 69.5185 17.04 69.9679 16.7507C70.4172 16.4614 70.9266 16.3168 71.4959 16.3168C71.936 16.3168 72.29 16.3906 72.5577 16.5384C72.8285 16.683 73.0378 16.8523 73.1855 17.0462C73.3364 17.2401 73.4533 17.4109 73.5364 17.5586H73.6195V14.0455H74.9998V23.5H73.6518V22.3967H73.5364C73.4533 22.5475 73.3333 22.7198 73.1763 22.9137C73.0224 23.1076 72.8101 23.2769 72.5392 23.4215C72.2684 23.5662 71.9176 23.6385 71.4867 23.6385ZM71.7914 22.4613C72.1884 22.4613 72.5239 22.3567 72.7978 22.1474C73.0748 21.935 73.284 21.6411 73.4256 21.2656C73.5703 20.8902 73.6426 20.4531 73.6426 19.9545C73.6426 19.4621 73.5718 19.0312 73.4302 18.6619C73.2886 18.2926 73.0809 18.0049 72.807 17.7987C72.5331 17.5924 72.1945 17.4893 71.7914 17.4893C71.3759 17.4893 71.0297 17.5971 70.7527 17.8125C70.4757 18.0279 70.2664 18.3219 70.1248 18.6942C69.9863 19.0666 69.9171 19.4867 69.9171 19.9545C69.9171 20.4285 69.9879 20.8548 70.1294 21.2333C70.271 21.6119 70.4803 21.9119 70.7573 22.1335C71.0373 22.352 71.382 22.4613 71.7914 22.4613ZM80.026 23.6431C79.3274 23.6431 78.7257 23.4938 78.221 23.1953C77.7193 22.8937 77.3315 22.4705 77.0576 21.9258C76.7868 21.378 76.6514 20.7363 76.6514 20.0007C76.6514 19.2744 76.7868 18.6342 77.0576 18.0803C77.3315 17.5263 77.7132 17.0939 78.2025 16.783C78.6949 16.4722 79.2704 16.3168 79.9291 16.3168C80.3292 16.3168 80.7169 16.3829 81.0924 16.5153C81.4679 16.6476 81.8049 16.8554 82.1034 17.1385C82.402 17.4216 82.6374 17.7894 82.8097 18.2418C82.9821 18.6912 83.0683 19.2375 83.0683 19.8807V20.37H77.4316V19.3359H81.7156C81.7156 18.9728 81.6418 18.6512 81.4941 18.3711C81.3463 18.0879 81.1386 17.8648 80.8708 17.7017C80.6061 17.5386 80.2953 17.457 79.9383 17.457C79.5505 17.457 79.212 17.5524 78.9227 17.7433C78.6365 17.931 78.4149 18.1772 78.2579 18.4819C78.104 18.7835 78.0271 19.1113 78.0271 19.4652V20.2731C78.0271 20.747 78.1102 21.1502 78.2764 21.4826C78.4456 21.815 78.6811 22.0689 78.9827 22.2443C79.2843 22.4167 79.6367 22.5028 80.0399 22.5028C80.3015 22.5028 80.54 22.4659 80.7554 22.392C80.9709 22.3151 81.157 22.2012 81.314 22.0504C81.471 21.8996 81.591 21.7134 81.6741 21.4918L82.9806 21.7273C82.8759 22.112 82.6882 22.449 82.4173 22.7383C82.1496 23.0245 81.8126 23.2476 81.4063 23.4077C81.0032 23.5646 80.5431 23.6431 80.026 23.6431ZM93.3076 16.5291C93.2584 16.0921 93.0552 15.7536 92.6982 15.5135C92.3412 15.2704 91.8919 15.1488 91.3502 15.1488C90.9624 15.1488 90.627 15.2103 90.3438 15.3335C90.0607 15.4535 89.8406 15.6197 89.6837 15.832C89.5298 16.0413 89.4529 16.2798 89.4529 16.5476C89.4529 16.7723 89.5052 16.9661 89.6098 17.1293C89.7175 17.2924 89.8576 17.4293 90.0299 17.5401C90.2053 17.6478 90.3931 17.7386 90.5931 17.8125C90.7932 17.8833 90.9855 17.9418 91.1702 17.9879L92.0935 18.228C92.3951 18.3018 92.7044 18.4019 93.0214 18.5281C93.3384 18.6542 93.6323 18.8204 93.9031 19.0266C94.174 19.2328 94.3925 19.4883 94.5587 19.793C94.728 20.0977 94.8126 20.4624 94.8126 20.8871C94.8126 21.4226 94.6741 21.8981 94.3971 22.3136C94.1232 22.729 93.7246 23.0568 93.2014 23.2969C92.6813 23.5369 92.0519 23.657 91.3133 23.657C90.6054 23.657 89.993 23.5446 89.4759 23.32C88.9589 23.0953 88.5542 22.7768 88.2618 22.3643C87.9694 21.9489 87.8079 21.4564 87.7771 20.8871H89.2082C89.2359 21.2287 89.3467 21.5134 89.5406 21.7411C89.7375 21.9658 89.9884 22.1335 90.2931 22.2443C90.6008 22.352 90.9378 22.4059 91.3041 22.4059C91.7072 22.4059 92.0658 22.3428 92.3797 22.2166C92.6967 22.0874 92.946 21.9089 93.1276 21.6811C93.3092 21.4503 93.3999 21.181 93.3999 20.8732C93.3999 20.5932 93.3199 20.3639 93.1599 20.1854C93.0029 20.0069 92.789 19.8591 92.5182 19.7422C92.2504 19.6252 91.9473 19.5221 91.6088 19.4329L90.4916 19.1282C89.7345 18.922 89.1343 18.6188 88.6911 18.2188C88.251 17.8187 88.031 17.2893 88.031 16.6307C88.031 16.0859 88.1787 15.6104 88.4742 15.2042C88.7696 14.7979 89.1697 14.4825 89.6744 14.2578C90.1792 14.0301 90.7486 13.9162 91.3825 13.9162C92.0227 13.9162 92.5874 14.0285 93.0768 14.2532C93.5692 14.4779 93.957 14.7872 94.2401 15.1811C94.5233 15.572 94.671 16.0213 94.6833 16.5291H93.3076ZM99.7164 16.4091V17.517H95.8432V16.4091H99.7164ZM96.8819 14.7102H98.2623V21.418C98.2623 21.6857 98.3023 21.8873 98.3823 22.0227C98.4623 22.1551 98.5654 22.2459 98.6916 22.2951C98.8208 22.3413 98.9609 22.3643 99.1117 22.3643C99.2225 22.3643 99.3194 22.3567 99.4025 22.3413C99.4856 22.3259 99.5502 22.3136 99.5964 22.3043L99.8457 23.4446C99.7657 23.4754 99.6518 23.5062 99.5041 23.5369C99.3564 23.5708 99.1717 23.5893 98.9501 23.5923C98.5869 23.5985 98.2484 23.5339 97.9345 23.3984C97.6206 23.263 97.3667 23.0537 97.1728 22.7706C96.9789 22.4875 96.8819 22.132 96.8819 21.7042V14.7102ZM104.154 23.6431C103.489 23.6431 102.909 23.4908 102.414 23.1861C101.918 22.8814 101.533 22.4551 101.259 21.9073C100.986 21.3595 100.849 20.7193 100.849 19.9869C100.849 19.2513 100.986 18.6081 101.259 18.0572C101.533 17.5063 101.918 17.0785 102.414 16.7738C102.909 16.4691 103.489 16.3168 104.154 16.3168C104.819 16.3168 105.399 16.4691 105.894 16.7738C106.39 17.0785 106.775 17.5063 107.049 18.0572C107.322 18.6081 107.459 19.2513 107.459 19.9869C107.459 20.7193 107.322 21.3595 107.049 21.9073C106.775 22.4551 106.39 22.8814 105.894 23.1861C105.399 23.4908 104.819 23.6431 104.154 23.6431ZM104.159 22.4844C104.59 22.4844 104.947 22.3705 105.23 22.1428C105.513 21.915 105.722 21.6119 105.858 21.2333C105.996 20.8548 106.065 20.4377 106.065 19.9822C106.065 19.5298 105.996 19.1143 105.858 18.7358C105.722 18.3542 105.513 18.0479 105.23 17.8171C104.947 17.5863 104.59 17.4709 104.159 17.4709C103.725 17.4709 103.365 17.5863 103.078 17.8171C102.795 18.0479 102.584 18.3542 102.446 18.7358C102.311 19.1143 102.243 19.5298 102.243 19.9822C102.243 20.4377 102.311 20.8548 102.446 21.2333C102.584 21.6119 102.795 21.915 103.078 22.1428C103.365 22.3705 103.725 22.4844 104.159 22.4844ZM109 23.5V16.4091H110.334V17.5355H110.408C110.537 17.1539 110.765 16.8538 111.091 16.6353C111.421 16.4137 111.793 16.3029 112.209 16.3029C112.295 16.3029 112.396 16.306 112.513 16.3121C112.633 16.3183 112.727 16.326 112.795 16.3352V17.6555C112.74 17.6402 112.641 17.6232 112.499 17.6048C112.358 17.5832 112.216 17.5724 112.075 17.5724C111.749 17.5724 111.458 17.6417 111.202 17.7802C110.95 17.9156 110.75 18.1049 110.602 18.348C110.454 18.5881 110.381 18.862 110.381 19.1697V23.5H109ZM113.989 23.5V16.4091H115.37V23.5H113.989ZM114.687 15.315C114.446 15.315 114.24 15.235 114.068 15.0749C113.899 14.9118 113.814 14.7179 113.814 14.4933C113.814 14.2655 113.899 14.0716 114.068 13.9116C114.24 13.7485 114.446 13.6669 114.687 13.6669C114.927 13.6669 115.131 13.7485 115.301 13.9116C115.473 14.0716 115.559 14.2655 115.559 14.4933C115.559 14.7179 115.473 14.9118 115.301 15.0749C115.131 15.235 114.927 15.315 114.687 15.315ZM120.283 23.6431C119.584 23.6431 118.983 23.4938 118.478 23.1953C117.976 22.8937 117.588 22.4705 117.314 21.9258C117.044 21.378 116.908 20.7363 116.908 20.0007C116.908 19.2744 117.044 18.6342 117.314 18.0803C117.588 17.5263 117.97 17.0939 118.459 16.783C118.952 16.4722 119.527 16.3168 120.186 16.3168C120.586 16.3168 120.974 16.3829 121.349 16.5153C121.725 16.6476 122.062 16.8554 122.36 17.1385C122.659 17.4216 122.894 17.7894 123.067 18.2418C123.239 18.6912 123.325 19.2375 123.325 19.8807V20.37H117.688V19.3359H121.972C121.972 18.9728 121.899 18.6512 121.751 18.3711C121.603 18.0879 121.395 17.8648 121.128 17.7017C120.863 17.5386 120.552 17.457 120.195 17.457C119.807 17.457 119.469 17.5524 119.18 17.7433C118.893 17.931 118.672 18.1772 118.515 18.4819C118.361 18.7835 118.284 19.1113 118.284 19.4652V20.2731C118.284 20.747 118.367 21.1502 118.533 21.4826C118.702 21.815 118.938 22.0689 119.24 22.2443C119.541 22.4167 119.894 22.5028 120.297 22.5028C120.558 22.5028 120.797 22.4659 121.012 22.392C121.228 22.3151 121.414 22.2012 121.571 22.0504C121.728 21.8996 121.848 21.7134 121.931 21.4918L123.237 21.7273C123.133 22.112 122.945 22.449 122.674 22.7383C122.406 23.0245 122.069 23.2476 121.663 23.4077C121.26 23.5646 120.8 23.6431 120.283 23.6431ZM130.17 18.1403L128.919 18.3619C128.867 18.2018 128.784 18.0495 128.67 17.9048C128.559 17.7602 128.408 17.6417 128.217 17.5494C128.027 17.457 127.788 17.4109 127.502 17.4109C127.111 17.4109 126.785 17.4986 126.523 17.674C126.262 17.8464 126.131 18.0695 126.131 18.3434C126.131 18.5804 126.218 18.7712 126.394 18.9158C126.569 19.0605 126.852 19.179 127.243 19.2713L128.37 19.5298C129.022 19.6806 129.508 19.913 129.829 20.2269C130.149 20.5408 130.309 20.9486 130.309 21.4503C130.309 21.875 130.186 22.2536 129.939 22.5859C129.696 22.9152 129.356 23.1738 128.919 23.3615C128.485 23.5492 127.982 23.6431 127.41 23.6431C126.616 23.6431 125.968 23.4738 125.466 23.1353C124.964 22.7937 124.657 22.3089 124.543 21.6811L125.877 21.478C125.96 21.8258 126.131 22.0889 126.389 22.2674C126.648 22.4428 126.985 22.5305 127.4 22.5305C127.853 22.5305 128.214 22.4367 128.485 22.2489C128.756 22.0581 128.891 21.8258 128.891 21.5518C128.891 21.3303 128.808 21.1441 128.642 20.9933C128.479 20.8424 128.228 20.7286 127.89 20.6516L126.689 20.3885C126.028 20.2377 125.538 19.9976 125.221 19.6683C124.907 19.339 124.75 18.922 124.75 18.4173C124.75 17.9987 124.867 17.6325 125.101 17.3185C125.335 17.0046 125.658 16.7599 126.071 16.5845C126.483 16.406 126.956 16.3168 127.488 16.3168C128.254 16.3168 128.858 16.483 129.298 16.8153C129.738 17.1446 130.029 17.5863 130.17 18.1403Z" fill="#696969"/>
<mask id="path-3-inside-1_1_1721" fill="white">
<path d="M266 19C266 14.5817 269.582 11 274 11H289C293.418 11 297 14.5817 297 19V19C297 23.4183 293.418 27 289 27H274C269.582 27 266 23.4183 266 19V19Z"/>
</mask>
<path d="M266 19C266 14.5817 269.582 11 274 11H289C293.418 11 297 14.5817 297 19V19C297 23.4183 293.418 27 289 27H274C269.582 27 266 23.4183 266 19V19Z" fill="url(#paint0_linear_1_1721)"/>
<path d="M274 12H289V10H274V12ZM289 26H274V28H289V26ZM274 26C270.134 26 267 22.866 267 19H265C265 23.9706 269.029 28 274 28V26ZM296 19C296 22.866 292.866 26 289 26V28C293.971 28 298 23.9706 298 19H296ZM289 12C292.866 12 296 15.134 296 19H298C298 14.0294 293.971 10 289 10V12ZM274 10C269.029 10 265 14.0294 265 19H267C267 15.134 270.134 12 274 12V10Z" fill="url(#paint1_linear_1_1721)" mask="url(#path-3-inside-1_1_1721)"/>
<circle cx="289" cy="19" r="6" fill="white"/>
<path d="M41.0387 55.5V46.0455H42.4652V54.272H46.7493V55.5H41.0387ZM48.2658 55.5V48.4091H49.6461V55.5H48.2658ZM48.9629 47.315C48.7228 47.315 48.5166 47.235 48.3443 47.0749C48.175 46.9118 48.0904 46.7179 48.0904 46.4933C48.0904 46.2655 48.175 46.0716 48.3443 45.9116C48.5166 45.7485 48.7228 45.6669 48.9629 45.6669C49.2029 45.6669 49.4076 45.7485 49.5769 45.9116C49.7492 46.0716 49.8354 46.2655 49.8354 46.4933C49.8354 46.7179 49.7492 46.9118 49.5769 47.0749C49.4076 47.235 49.2029 47.315 48.9629 47.315ZM52.7726 53.0948L52.7634 51.4098H53.0035L55.8287 48.4091H57.4814L54.2591 51.8253H54.0422L52.7726 53.0948ZM51.5031 55.5V46.0455H52.8834V55.5H51.5031ZM55.9811 55.5L53.442 52.13L54.393 51.1651L57.6753 55.5H55.9811ZM61.5036 55.6431C60.8049 55.6431 60.2032 55.4938 59.6985 55.1953C59.1969 54.8937 58.8091 54.4705 58.5352 53.9258C58.2643 53.378 58.1289 52.7363 58.1289 52.0007C58.1289 51.2744 58.2643 50.6342 58.5352 50.0803C58.8091 49.5263 59.1907 49.0939 59.68 48.783C60.1725 48.4722 60.748 48.3168 61.4066 48.3168C61.8067 48.3168 62.1945 48.3829 62.57 48.5153C62.9454 48.6476 63.2824 48.8554 63.581 49.1385C63.8795 49.4216 64.1149 49.7894 64.2873 50.2418C64.4596 50.6912 64.5458 51.2375 64.5458 51.8807V52.37H58.9091V51.3359H63.1932C63.1932 50.9728 63.1193 50.6512 62.9716 50.3711C62.8239 50.0879 62.6161 49.8648 62.3484 49.7017C62.0837 49.5386 61.7728 49.457 61.4158 49.457C61.0281 49.457 60.6895 49.5524 60.4002 49.7433C60.114 49.931 59.8924 50.1772 59.7354 50.4819C59.5816 50.7835 59.5046 51.1113 59.5046 51.4652V52.2731C59.5046 52.747 59.5877 53.1502 59.7539 53.4826C59.9232 53.815 60.1586 54.0689 60.4602 54.2443C60.7618 54.4167 61.1142 54.5028 61.5174 54.5028C61.779 54.5028 62.0175 54.4659 62.233 54.392C62.4484 54.3151 62.6346 54.2012 62.7915 54.0504C62.9485 53.8996 63.0685 53.7134 63.1516 53.4918L64.4581 53.7273C64.3535 54.112 64.1657 54.449 63.8949 54.7383C63.6271 55.0245 63.2901 55.2476 62.8839 55.4077C62.4807 55.5646 62.0206 55.6431 61.5036 55.6431ZM72.1722 55.6385C71.5998 55.6385 71.0889 55.4923 70.6396 55.1999C70.1933 54.9045 69.8424 54.4844 69.587 53.9396C69.3346 53.3918 69.2085 52.7347 69.2085 51.9684C69.2085 51.2021 69.3362 50.5465 69.5916 50.0018C69.8501 49.457 70.2041 49.04 70.6534 48.7507C71.1027 48.4614 71.6121 48.3168 72.1815 48.3168C72.6216 48.3168 72.9755 48.3906 73.2433 48.5384C73.5141 48.683 73.7234 48.8523 73.8711 49.0462C74.0219 49.2401 74.1388 49.4109 74.2219 49.5586H74.305V46.0455H75.6854V55.5H74.3374V54.3967H74.2219C74.1388 54.5475 74.0188 54.7198 73.8619 54.9137C73.708 55.1076 73.4956 55.2769 73.2248 55.4215C72.954 55.5662 72.6031 55.6385 72.1722 55.6385ZM72.4769 54.4613C72.8739 54.4613 73.2094 54.3567 73.4833 54.1474C73.7603 53.935 73.9696 53.6411 74.1112 53.2656C74.2558 52.8902 74.3281 52.4531 74.3281 51.9545C74.3281 51.4621 74.2573 51.0312 74.1158 50.6619C73.9742 50.2926 73.7665 50.0049 73.4925 49.7987C73.2186 49.5924 72.8801 49.4893 72.4769 49.4893C72.0614 49.4893 71.7152 49.5971 71.4382 49.8125C71.1612 50.0279 70.9519 50.3219 70.8104 50.6942C70.6719 51.0666 70.6026 51.4867 70.6026 51.9545C70.6026 52.4285 70.6734 52.8548 70.815 53.2333C70.9566 53.6119 71.1658 53.9119 71.4428 54.1335C71.7229 54.352 72.0676 54.4613 72.4769 54.4613ZM80.7116 55.6431C80.0129 55.6431 79.4113 55.4938 78.9065 55.1953C78.4049 54.8937 78.0171 54.4705 77.7432 53.9258C77.4723 53.378 77.3369 52.7363 77.3369 52.0007C77.3369 51.2744 77.4723 50.6342 77.7432 50.0803C78.0171 49.5263 78.3987 49.0939 78.8881 48.783C79.3805 48.4722 79.956 48.3168 80.6146 48.3168C81.0147 48.3168 81.4025 48.3829 81.778 48.5153C82.1534 48.6476 82.4904 48.8554 82.789 49.1385C83.0875 49.4216 83.3229 49.7894 83.4953 50.2418C83.6676 50.6912 83.7538 51.2375 83.7538 51.8807V52.37H78.1171V51.3359H82.4012C82.4012 50.9728 82.3273 50.6512 82.1796 50.3711C82.0319 50.0879 81.8241 49.8648 81.5564 49.7017C81.2917 49.5386 80.9809 49.457 80.6238 49.457C80.2361 49.457 79.8975 49.5524 79.6082 49.7433C79.322 49.931 79.1004 50.1772 78.9434 50.4819C78.7896 50.7835 78.7126 51.1113 78.7126 51.4652V52.2731C78.7126 52.747 78.7957 53.1502 78.9619 53.4826C79.1312 53.815 79.3666 54.0689 79.6682 54.2443C79.9698 54.4167 80.3222 54.5028 80.7254 54.5028C80.987 54.5028 81.2255 54.4659 81.441 54.392C81.6564 54.3151 81.8426 54.2012 81.9996 54.0504C82.1565 53.8996 82.2765 53.7134 82.3596 53.4918L83.6661 53.7273C83.5615 54.112 83.3737 54.449 83.1029 54.7383C82.8351 55.0245 82.4981 55.2476 82.0919 55.4077C81.6887 55.5646 81.2286 55.6431 80.7116 55.6431ZM94.0393 50.1403L92.7883 50.3619C92.7359 50.2018 92.6528 50.0495 92.539 49.9048C92.4282 49.7602 92.2774 49.6417 92.0866 49.5494C91.8957 49.457 91.6572 49.4109 91.371 49.4109C90.9801 49.4109 90.6539 49.4986 90.3923 49.674C90.1307 49.8464 89.9999 50.0695 89.9999 50.3434C89.9999 50.5804 90.0876 50.7712 90.2631 50.9158C90.4385 51.0605 90.7216 51.179 91.1125 51.2713L92.2389 51.5298C92.8914 51.6806 93.3776 51.913 93.6977 52.2269C94.0178 52.5408 94.1778 52.9486 94.1778 53.4503C94.1778 53.875 94.0547 54.2536 93.8085 54.5859C93.5654 54.9152 93.2253 55.1738 92.7883 55.3615C92.3543 55.5492 91.8511 55.6431 91.2787 55.6431C90.4846 55.6431 89.8368 55.4738 89.3351 55.1353C88.8335 54.7937 88.5257 54.3089 88.4118 53.6811L89.746 53.478C89.8291 53.8258 89.9999 54.0889 90.2584 54.2674C90.517 54.4428 90.854 54.5305 91.2694 54.5305C91.7219 54.5305 92.0835 54.4367 92.3543 54.2489C92.6251 54.0581 92.7606 53.8258 92.7606 53.5518C92.7606 53.3303 92.6775 53.1441 92.5113 52.9933C92.3482 52.8424 92.0973 52.7286 91.7588 52.6516L90.5585 52.3885C89.8968 52.2377 89.4075 51.9976 89.0905 51.6683C88.7765 51.339 88.6196 50.922 88.6196 50.4173C88.6196 49.9987 88.7365 49.6325 88.9704 49.3185C89.2043 49.0046 89.5275 48.7599 89.9399 48.5845C90.3523 48.406 90.8247 48.3168 91.3572 48.3168C92.1235 48.3168 92.7267 48.483 93.1668 48.8153C93.6069 49.1446 93.8978 49.5863 94.0393 50.1403ZM99.0055 48.4091V49.517H95.1323V48.4091H99.0055ZM96.171 46.7102H97.5513V53.418C97.5513 53.6857 97.5913 53.8873 97.6713 54.0227C97.7514 54.1551 97.8545 54.2459 97.9806 54.2951C98.1099 54.3413 98.2499 54.3643 98.4007 54.3643C98.5115 54.3643 98.6085 54.3567 98.6916 54.3413C98.7747 54.3259 98.8393 54.3136 98.8855 54.3043L99.1348 55.4446C99.0547 55.4754 98.9409 55.5062 98.7931 55.5369C98.6454 55.5708 98.4608 55.5893 98.2392 55.5923C97.876 55.5985 97.5375 55.5339 97.2235 55.3984C96.9096 55.263 96.6557 55.0537 96.4618 54.7706C96.2679 54.4875 96.171 54.132 96.171 53.7042V46.7102ZM103.443 55.6431C102.778 55.6431 102.198 55.4908 101.703 55.1861C101.207 54.8814 100.822 54.4551 100.549 53.9073C100.275 53.3595 100.138 52.7193 100.138 51.9869C100.138 51.2513 100.275 50.6081 100.549 50.0572C100.822 49.5063 101.207 49.0785 101.703 48.7738C102.198 48.4691 102.778 48.3168 103.443 48.3168C104.108 48.3168 104.688 48.4691 105.184 48.7738C105.679 49.0785 106.064 49.5063 106.338 50.0572C106.612 50.6081 106.748 51.2513 106.748 51.9869C106.748 52.7193 106.612 53.3595 106.338 53.9073C106.064 54.4551 105.679 54.8814 105.184 55.1861C104.688 55.4908 104.108 55.6431 103.443 55.6431ZM103.448 54.4844C103.879 54.4844 104.236 54.3705 104.519 54.1428C104.802 53.915 105.011 53.6119 105.147 53.2333C105.285 52.8548 105.354 52.4377 105.354 51.9822C105.354 51.5298 105.285 51.1143 105.147 50.7358C105.011 50.3542 104.802 50.0479 104.519 49.8171C104.236 49.5863 103.879 49.4709 103.448 49.4709C103.014 49.4709 102.654 49.5863 102.367 49.8171C102.084 50.0479 101.873 50.3542 101.735 50.7358C101.6 51.1143 101.532 51.5298 101.532 51.9822C101.532 52.4377 101.6 52.8548 101.735 53.2333C101.873 53.6119 102.084 53.915 102.367 54.1428C102.654 54.3705 103.014 54.4844 103.448 54.4844ZM108.289 55.5V48.4091H109.623V49.5355H109.697C109.827 49.1539 110.054 48.8538 110.381 48.6353C110.71 48.4137 111.082 48.3029 111.498 48.3029C111.584 48.3029 111.685 48.306 111.802 48.3121C111.922 48.3183 112.016 48.326 112.084 48.3352V49.6555C112.029 49.6402 111.93 49.6232 111.789 49.6048C111.647 49.5832 111.505 49.5724 111.364 49.5724C111.038 49.5724 110.747 49.6417 110.491 49.7802C110.239 49.9156 110.039 50.1049 109.891 50.348C109.743 50.5881 109.67 50.862 109.67 51.1697V55.5H108.289ZM113.278 55.5V48.4091H114.659V55.5H113.278ZM113.976 47.315C113.736 47.315 113.529 47.235 113.357 47.0749C113.188 46.9118 113.103 46.7179 113.103 46.4933C113.103 46.2655 113.188 46.0716 113.357 45.9116C113.529 45.7485 113.736 45.6669 113.976 45.6669C114.216 45.6669 114.42 45.7485 114.59 45.9116C114.762 46.0716 114.848 46.2655 114.848 46.4933C114.848 46.7179 114.762 46.9118 114.59 47.0749C114.42 47.235 114.216 47.315 113.976 47.315ZM119.572 55.6431C118.873 55.6431 118.272 55.4938 117.767 55.1953C117.265 54.8937 116.877 54.4705 116.604 53.9258C116.333 53.378 116.197 52.7363 116.197 52.0007C116.197 51.2744 116.333 50.6342 116.604 50.0803C116.877 49.5263 117.259 49.0939 117.748 48.783C118.241 48.4722 118.816 48.3168 119.475 48.3168C119.875 48.3168 120.263 48.3829 120.638 48.5153C121.014 48.6476 121.351 48.8554 121.649 49.1385C121.948 49.4216 122.183 49.7894 122.356 50.2418C122.528 50.6912 122.614 51.2375 122.614 51.8807V52.37H116.977V51.3359H121.262C121.262 50.9728 121.188 50.6512 121.04 50.3711C120.892 50.0879 120.684 49.8648 120.417 49.7017C120.152 49.5386 119.841 49.457 119.484 49.457C119.096 49.457 118.758 49.5524 118.469 49.7433C118.182 49.931 117.961 50.1772 117.804 50.4819C117.65 50.7835 117.573 51.1113 117.573 51.4652V52.2731C117.573 52.747 117.656 53.1502 117.822 53.4826C117.992 53.815 118.227 54.0689 118.529 54.2443C118.83 54.4167 119.183 54.5028 119.586 54.5028C119.847 54.5028 120.086 54.4659 120.301 54.392C120.517 54.3151 120.703 54.2012 120.86 54.0504C121.017 53.8996 121.137 53.7134 121.22 53.4918L122.526 53.7273C122.422 54.112 122.234 54.449 121.963 54.7383C121.695 55.0245 121.358 55.2476 120.952 55.4077C120.549 55.5646 120.089 55.6431 119.572 55.6431ZM129.459 50.1403L128.208 50.3619C128.156 50.2018 128.073 50.0495 127.959 49.9048C127.848 49.7602 127.697 49.6417 127.506 49.5494C127.316 49.457 127.077 49.4109 126.791 49.4109C126.4 49.4109 126.074 49.4986 125.812 49.674C125.551 49.8464 125.42 50.0695 125.42 50.3434C125.42 50.5804 125.508 50.7712 125.683 50.9158C125.858 51.0605 126.142 51.179 126.532 51.2713L127.659 51.5298C128.311 51.6806 128.798 51.913 129.118 52.2269C129.438 52.5408 129.598 52.9486 129.598 53.4503C129.598 53.875 129.475 54.2536 129.228 54.5859C128.985 54.9152 128.645 55.1738 128.208 55.3615C127.774 55.5492 127.271 55.6431 126.699 55.6431C125.905 55.6431 125.257 55.4738 124.755 55.1353C124.253 54.7937 123.946 54.3089 123.832 53.6811L125.166 53.478C125.249 53.8258 125.42 54.0889 125.678 54.2674C125.937 54.4428 126.274 54.5305 126.689 54.5305C127.142 54.5305 127.503 54.4367 127.774 54.2489C128.045 54.0581 128.18 53.8258 128.18 53.5518C128.18 53.3303 128.097 53.1441 127.931 52.9933C127.768 52.8424 127.517 52.7286 127.179 52.6516L125.978 52.3885C125.317 52.2377 124.827 51.9976 124.51 51.6683C124.196 51.339 124.04 50.922 124.04 50.4173C124.04 49.9987 124.156 49.6325 124.39 49.3185C124.624 49.0046 124.947 48.7599 125.36 48.5845C125.772 48.406 126.245 48.3168 126.777 48.3168C127.543 48.3168 128.147 48.483 128.587 48.8153C129.027 49.1446 129.318 49.5863 129.459 50.1403Z" fill="#696969"/>
<mask id="path-7-inside-2_1_1721" fill="white">
<path d="M266 51C266 46.5817 269.582 43 274 43H289C293.418 43 297 46.5817 297 51V51C297 55.4183 293.418 59 289 59H274C269.582 59 266 55.4183 266 51V51Z"/>
</mask>
<path d="M266 51C266 46.5817 269.582 43 274 43H289C293.418 43 297 46.5817 297 51V51C297 55.4183 293.418 59 289 59H274C269.582 59 266 55.4183 266 51V51Z" fill="url(#paint2_linear_1_1721)"/>
<path d="M274 44H289V42H274V44ZM289 58H274V60H289V58ZM274 58C270.134 58 267 54.866 267 51H265C265 55.9706 269.029 60 274 60V58ZM296 51C296 54.866 292.866 58 289 58V60C293.971 60 298 55.9706 298 51H296ZM289 44C292.866 44 296 47.134 296 51H298C298 46.0294 293.971 42 289 42V44ZM274 42C269.029 42 265 46.0294 265 51H267C267 47.134 270.134 44 274 44V42Z" fill="url(#paint3_linear_1_1721)" mask="url(#path-7-inside-2_1_1721)"/>
<circle cx="289" cy="51" r="6" fill="white"/>
<path d="M41.8651 78.0455L44.4964 85.7457H44.6026L47.234 78.0455H48.7759L45.3736 87.5H43.7255L40.3232 78.0455H41.8651ZM52.3064 87.6431C51.6416 87.6431 51.0615 87.4908 50.566 87.1861C50.0705 86.8814 49.6858 86.4551 49.4118 85.9073C49.1379 85.3595 49.001 84.7193 49.001 83.9869C49.001 83.2513 49.1379 82.6081 49.4118 82.0572C49.6858 81.5063 50.0705 81.0785 50.566 80.7738C51.0615 80.4691 51.6416 80.3168 52.3064 80.3168C52.9711 80.3168 53.5513 80.4691 54.0468 80.7738C54.5423 81.0785 54.927 81.5063 55.2009 82.0572C55.4748 82.6081 55.6118 83.2513 55.6118 83.9869C55.6118 84.7193 55.4748 85.3595 55.2009 85.9073C54.927 86.4551 54.5423 86.8814 54.0468 87.1861C53.5513 87.4908 52.9711 87.6431 52.3064 87.6431ZM52.311 86.4844C52.7419 86.4844 53.0989 86.3705 53.382 86.1428C53.6652 85.915 53.8744 85.6119 54.0099 85.2333C54.1483 84.8548 54.2176 84.4377 54.2176 83.9822C54.2176 83.5298 54.1483 83.1143 54.0099 82.7358C53.8744 82.3542 53.6652 82.0479 53.382 81.8171C53.0989 81.5863 52.7419 81.4709 52.311 81.4709C51.877 81.4709 51.517 81.5863 51.2307 81.8171C50.9476 82.0479 50.7368 82.3542 50.5983 82.7358C50.4629 83.1143 50.3952 83.5298 50.3952 83.9822C50.3952 84.4377 50.4629 84.8548 50.5983 85.2333C50.7368 85.6119 50.9476 85.915 51.2307 86.1428C51.517 86.3705 51.877 86.4844 52.311 86.4844ZM60.4625 80.4091V81.517H56.5893V80.4091H60.4625ZM57.628 78.7102H59.0083V85.418C59.0083 85.6857 59.0484 85.8873 59.1284 86.0227C59.2084 86.1551 59.3115 86.2459 59.4377 86.2951C59.5669 86.3413 59.707 86.3643 59.8578 86.3643C59.9686 86.3643 60.0655 86.3567 60.1486 86.3413C60.2317 86.3259 60.2963 86.3136 60.3425 86.3043L60.5918 87.4446C60.5118 87.4754 60.3979 87.5062 60.2502 87.5369C60.1025 87.5708 59.9178 87.5893 59.6962 87.5923C59.333 87.5985 58.9945 87.5339 58.6806 87.3984C58.3667 87.263 58.1127 87.0537 57.9189 86.7706C57.725 86.4875 57.628 86.132 57.628 85.7042V78.7102ZM64.9694 87.6431C64.2707 87.6431 63.6691 87.4938 63.1643 87.1953C62.6627 86.8937 62.2749 86.4705 62.001 85.9258C61.7301 85.378 61.5947 84.7363 61.5947 84.0007C61.5947 83.2744 61.7301 82.6342 62.001 82.0803C62.2749 81.5263 62.6565 81.0939 63.1459 80.783C63.6383 80.4722 64.2138 80.3168 64.8724 80.3168C65.2725 80.3168 65.6603 80.3829 66.0358 80.5153C66.4113 80.6476 66.7483 80.8554 67.0468 81.1385C67.3453 81.4216 67.5808 81.7894 67.7531 82.2418C67.9255 82.6912 68.0116 83.2375 68.0116 83.8807V84.37H62.3749V83.3359H66.659C66.659 82.9728 66.5851 82.6512 66.4374 82.3711C66.2897 82.0879 66.0819 81.8648 65.8142 81.7017C65.5495 81.5386 65.2387 81.457 64.8817 81.457C64.4939 81.457 64.1553 81.5524 63.866 81.7433C63.5798 81.931 63.3582 82.1772 63.2013 82.4819C63.0474 82.7835 62.9704 83.1113 62.9704 83.4652V84.2731C62.9704 84.747 63.0535 85.1502 63.2197 85.4826C63.389 85.815 63.6244 86.0689 63.926 86.2443C64.2277 86.4167 64.58 86.5028 64.9832 86.5028C65.2448 86.5028 65.4833 86.4659 65.6988 86.392C65.9142 86.3151 66.1004 86.2012 66.2574 86.0504C66.4143 85.8996 66.5344 85.7134 66.6175 85.4918L67.9239 85.7273C67.8193 86.112 67.6315 86.449 67.3607 86.7383C67.093 87.0245 66.7559 87.2476 66.3497 87.4077C65.9465 87.5646 65.4864 87.6431 64.9694 87.6431ZM74.8567 82.1403L73.6056 82.3619C73.5533 82.2018 73.4702 82.0495 73.3564 81.9048C73.2456 81.7602 73.0948 81.6417 72.9039 81.5494C72.7131 81.457 72.4746 81.4109 72.1884 81.4109C71.7975 81.4109 71.4713 81.4986 71.2097 81.674C70.9481 81.8464 70.8173 82.0695 70.8173 82.3434C70.8173 82.5804 70.905 82.7712 71.0804 82.9158C71.2559 83.0605 71.539 83.179 71.9299 83.2713L73.0563 83.5298C73.7087 83.6806 74.195 83.913 74.5151 84.2269C74.8352 84.5408 74.9952 84.9486 74.9952 85.4503C74.9952 85.875 74.8721 86.2536 74.6259 86.5859C74.3828 86.9152 74.0427 87.1738 73.6056 87.3615C73.1717 87.5492 72.6685 87.6431 72.0961 87.6431C71.302 87.6431 70.6542 87.4738 70.1525 87.1353C69.6509 86.7937 69.3431 86.3089 69.2292 85.6811L70.5634 85.478C70.6465 85.8258 70.8173 86.0889 71.0758 86.2674C71.3343 86.4428 71.6713 86.5305 72.0868 86.5305C72.5392 86.5305 72.9009 86.4367 73.1717 86.2489C73.4425 86.0581 73.5779 85.8258 73.5779 85.5518C73.5779 85.3303 73.4949 85.1441 73.3287 84.9933C73.1655 84.8424 72.9147 84.7286 72.5762 84.6516L71.3759 84.3885C70.7142 84.2377 70.2248 83.9976 69.9078 83.6683C69.5939 83.339 69.437 82.922 69.437 82.4173C69.437 81.9987 69.5539 81.6325 69.7878 81.3185C70.0217 81.0046 70.3449 80.7599 70.7573 80.5845C71.1697 80.406 71.6421 80.3168 72.1745 80.3168C72.9409 80.3168 73.5441 80.483 73.9842 80.8153C74.4243 81.1446 74.7151 81.5863 74.8567 82.1403ZM82.6078 87.6385C82.0353 87.6385 81.5244 87.4923 81.0751 87.1999C80.6288 86.9045 80.278 86.4844 80.0225 85.9396C79.7702 85.3918 79.644 84.7347 79.644 83.9684C79.644 83.2021 79.7717 82.5465 80.0272 82.0018C80.2857 81.457 80.6396 81.04 81.089 80.7507C81.5383 80.4614 82.0476 80.3168 82.617 80.3168C83.0571 80.3168 83.411 80.3906 83.6788 80.5384C83.9496 80.683 84.1589 80.8523 84.3066 81.0462C84.4574 81.2401 84.5744 81.4109 84.6575 81.5586H84.7406V78.0455H86.1209V87.5H84.7729V86.3967H84.6575C84.5744 86.5475 84.4544 86.7198 84.2974 86.9137C84.1435 87.1076 83.9312 87.2769 83.6603 87.4215C83.3895 87.5662 83.0386 87.6385 82.6078 87.6385ZM82.9125 86.4613C83.3095 86.4613 83.6449 86.3567 83.9189 86.1474C84.1958 85.935 84.4051 85.6411 84.5467 85.2656C84.6913 84.8902 84.7637 84.4531 84.7637 83.9545C84.7637 83.4621 84.6929 83.0312 84.5513 82.6619C84.4097 82.2926 84.202 82.0049 83.9281 81.7987C83.6542 81.5924 83.3156 81.4893 82.9125 81.4893C82.497 81.4893 82.1507 81.5971 81.8738 81.8125C81.5968 82.0279 81.3875 82.3219 81.2459 82.6942C81.1074 83.0666 81.0382 83.4867 81.0382 83.9545C81.0382 84.4285 81.109 84.8548 81.2505 85.2333C81.3921 85.6119 81.6014 85.9119 81.8784 86.1335C82.1584 86.352 82.5031 86.4613 82.9125 86.4613ZM91.1471 87.6431C90.4485 87.6431 89.8468 87.4938 89.3421 87.1953C88.8404 86.8937 88.4526 86.4705 88.1787 85.9258C87.9079 85.378 87.7725 84.7363 87.7725 84.0007C87.7725 83.2744 87.9079 82.6342 88.1787 82.0803C88.4526 81.5263 88.8343 81.0939 89.3236 80.783C89.816 80.4722 90.3915 80.3168 91.0502 80.3168C91.4503 80.3168 91.838 80.3829 92.2135 80.5153C92.589 80.6476 92.926 80.8554 93.2245 81.1385C93.5231 81.4216 93.7585 81.7894 93.9308 82.2418C94.1032 82.6912 94.1894 83.2375 94.1894 83.8807V84.37H88.5526V83.3359H92.8367C92.8367 82.9728 92.7629 82.6512 92.6151 82.3711C92.4674 82.0879 92.2597 81.8648 91.9919 81.7017C91.7272 81.5386 91.4164 81.457 91.0594 81.457C90.6716 81.457 90.3331 81.5524 90.0438 81.7433C89.7575 81.931 89.536 82.1772 89.379 82.4819C89.2251 82.7835 89.1482 83.1113 89.1482 83.4652V84.2731C89.1482 84.747 89.2313 85.1502 89.3975 85.4826C89.5667 85.815 89.8022 86.0689 90.1038 86.2443C90.4054 86.4167 90.7578 86.5028 91.161 86.5028C91.4226 86.5028 91.6611 86.4659 91.8765 86.392C92.0919 86.3151 92.2781 86.2012 92.4351 86.0504C92.5921 85.8996 92.7121 85.7134 92.7952 85.4918L94.1017 85.7273C93.997 86.112 93.8093 86.449 93.5384 86.7383C93.2707 87.0245 92.9337 87.2476 92.5274 87.4077C92.1243 87.5646 91.6642 87.6431 91.1471 87.6431ZM104.475 82.1403L103.224 82.3619C103.171 82.2018 103.088 82.0495 102.975 81.9048C102.864 81.7602 102.713 81.6417 102.522 81.5494C102.331 81.457 102.093 81.4109 101.807 81.4109C101.416 81.4109 101.089 81.4986 100.828 81.674C100.566 81.8464 100.435 82.0695 100.435 82.3434C100.435 82.5804 100.523 82.7712 100.699 82.9158C100.874 83.0605 101.157 83.179 101.548 83.2713L102.674 83.5298C103.327 83.6806 103.813 83.913 104.133 84.2269C104.453 84.5408 104.613 84.9486 104.613 85.4503C104.613 85.875 104.49 86.2536 104.244 86.5859C104.001 86.9152 103.661 87.1738 103.224 87.3615C102.79 87.5492 102.287 87.6431 101.714 87.6431C100.92 87.6431 100.272 87.4738 99.7707 87.1353C99.269 86.7937 98.9613 86.3089 98.8474 85.6811L100.182 85.478C100.265 85.8258 100.435 86.0889 100.694 86.2674C100.953 86.4428 101.29 86.5305 101.705 86.5305C102.157 86.5305 102.519 86.4367 102.79 86.2489C103.061 86.0581 103.196 85.8258 103.196 85.5518C103.196 85.3303 103.113 85.1441 102.947 84.9933C102.784 84.8424 102.533 84.7286 102.194 84.6516L100.994 84.3885C100.332 84.2377 99.843 83.9976 99.526 83.6683C99.2121 83.339 99.0551 82.922 99.0551 82.4173C99.0551 81.9987 99.1721 81.6325 99.406 81.3185C99.6399 81.0046 99.963 80.7599 100.375 80.5845C100.788 80.406 101.26 80.3168 101.793 80.3168C102.559 80.3168 103.162 80.483 103.602 80.8153C104.042 81.1446 104.333 81.5863 104.475 82.1403ZM109.118 87.6431C108.453 87.6431 107.873 87.4908 107.377 87.1861C106.882 86.8814 106.497 86.4551 106.223 85.9073C105.949 85.3595 105.812 84.7193 105.812 83.9869C105.812 83.2513 105.949 82.6081 106.223 82.0572C106.497 81.5063 106.882 81.0785 107.377 80.7738C107.873 80.4691 108.453 80.3168 109.118 80.3168C109.783 80.3168 110.363 80.4691 110.858 80.7738C111.354 81.0785 111.739 81.5063 112.012 82.0572C112.286 82.6081 112.423 83.2513 112.423 83.9869C112.423 84.7193 112.286 85.3595 112.012 85.9073C111.739 86.4551 111.354 86.8814 110.858 87.1861C110.363 87.4908 109.783 87.6431 109.118 87.6431ZM109.123 86.4844C109.553 86.4844 109.91 86.3705 110.194 86.1428C110.477 85.915 110.686 85.6119 110.821 85.2333C110.96 84.8548 111.029 84.4377 111.029 83.9822C111.029 83.5298 110.96 83.1143 110.821 82.7358C110.686 82.3542 110.477 82.0479 110.194 81.8171C109.91 81.5863 109.553 81.4709 109.123 81.4709C108.689 81.4709 108.328 81.5863 108.042 81.8171C107.759 82.0479 107.548 82.3542 107.41 82.7358C107.274 83.1143 107.207 83.5298 107.207 83.9822C107.207 84.4377 107.274 84.8548 107.41 85.2333C107.548 85.6119 107.759 85.915 108.042 86.1428C108.328 86.3705 108.689 86.4844 109.123 86.4844ZM115.344 83.2898V87.5H113.964V80.4091H115.289V81.5632H115.377C115.54 81.1877 115.795 80.8861 116.143 80.6584C116.494 80.4306 116.936 80.3168 117.468 80.3168C117.951 80.3168 118.374 80.4183 118.737 80.6214C119.101 80.8215 119.382 81.12 119.582 81.517C119.782 81.9141 119.882 82.4049 119.882 82.9897V87.5H118.502V83.1559C118.502 82.6419 118.368 82.2403 118.1 81.951C117.833 81.6586 117.465 81.5124 116.997 81.5124C116.677 81.5124 116.392 81.5817 116.143 81.7202C115.897 81.8587 115.701 82.0618 115.557 82.3295C115.415 82.5942 115.344 82.9143 115.344 83.2898ZM124.388 87.6385C123.816 87.6385 123.305 87.4923 122.855 87.1999C122.409 86.9045 122.058 86.4844 121.803 85.9396C121.55 85.3918 121.424 84.7347 121.424 83.9684C121.424 83.2021 121.552 82.5465 121.807 82.0018C122.066 81.457 122.42 81.04 122.869 80.7507C123.319 80.4614 123.828 80.3168 124.397 80.3168C124.837 80.3168 125.191 80.3906 125.459 80.5384C125.73 80.683 125.939 80.8523 126.087 81.0462C126.238 81.2401 126.355 81.4109 126.438 81.5586H126.521V78.0455H127.901V87.5H126.553V86.3967H126.438C126.355 86.5475 126.235 86.7198 126.078 86.9137C125.924 87.1076 125.711 87.2769 125.441 87.4215C125.17 87.5662 124.819 87.6385 124.388 87.6385ZM124.693 86.4613C125.09 86.4613 125.425 86.3567 125.699 86.1474C125.976 85.935 126.185 85.6411 126.327 85.2656C126.472 84.8902 126.544 84.4531 126.544 83.9545C126.544 83.4621 126.473 83.0312 126.332 82.6619C126.19 82.2926 125.982 82.0049 125.708 81.7987C125.434 81.5924 125.096 81.4893 124.693 81.4893C124.277 81.4893 123.931 81.5971 123.654 81.8125C123.377 82.0279 123.168 82.3219 123.026 82.6942C122.888 83.0666 122.818 83.4867 122.818 83.9545C122.818 84.4285 122.889 84.8548 123.031 85.2333C123.172 85.6119 123.382 85.9119 123.659 86.1335C123.939 86.352 124.283 86.4613 124.693 86.4613ZM131.935 87.657C131.485 87.657 131.079 87.5739 130.716 87.4077C130.353 87.2384 130.065 86.9937 129.853 86.6737C129.644 86.3536 129.539 85.9612 129.539 85.4964C129.539 85.0964 129.616 84.767 129.77 84.5085C129.924 84.25 130.131 84.0453 130.393 83.8945C130.655 83.7437 130.947 83.6299 131.27 83.5529C131.593 83.476 131.923 83.4175 132.258 83.3775C132.683 83.3282 133.027 83.2882 133.292 83.2575C133.557 83.2236 133.749 83.1697 133.869 83.0959C133.989 83.022 134.049 82.902 134.049 82.7358V82.7035C134.049 82.3003 133.935 81.9879 133.708 81.7663C133.483 81.5447 133.147 81.4339 132.701 81.4339C132.236 81.4339 131.87 81.537 131.602 81.7433C131.338 81.9464 131.155 82.1726 131.053 82.4219L129.756 82.1264C129.91 81.6955 130.134 81.3478 130.43 81.0831C130.728 80.8153 131.072 80.6214 131.459 80.5014C131.847 80.3783 132.255 80.3168 132.683 80.3168C132.966 80.3168 133.266 80.3506 133.583 80.4183C133.903 80.483 134.202 80.603 134.479 80.7784C134.759 80.9538 134.988 81.2047 135.166 81.5309C135.345 81.854 135.434 82.2741 135.434 82.7912V87.5H134.086V86.5305H134.031C133.941 86.709 133.808 86.8845 133.629 87.0568C133.451 87.2292 133.221 87.3723 132.941 87.4862C132.661 87.6 132.326 87.657 131.935 87.657ZM132.235 86.549C132.617 86.549 132.943 86.4736 133.214 86.3228C133.488 86.172 133.695 85.975 133.837 85.7319C133.981 85.4857 134.054 85.2225 134.054 84.9425V84.0284C134.005 84.0777 133.909 84.1238 133.768 84.1669C133.629 84.2069 133.471 84.2423 133.292 84.2731C133.114 84.3008 132.94 84.3269 132.77 84.3516C132.601 84.3731 132.46 84.3916 132.346 84.407C132.078 84.4408 131.833 84.4978 131.612 84.5778C131.393 84.6578 131.218 84.7732 131.085 84.924C130.956 85.0717 130.892 85.2687 130.892 85.5149C130.892 85.8565 131.018 86.1151 131.27 86.2905C131.522 86.4628 131.844 86.549 132.235 86.549ZM140.246 90.3068C139.682 90.3068 139.198 90.233 138.791 90.0852C138.388 89.9375 138.059 89.7421 137.804 89.4989C137.548 89.2558 137.357 88.9896 137.231 88.7003L138.418 88.2109C138.501 88.3464 138.611 88.4895 138.75 88.6403C138.891 88.7942 139.082 88.925 139.322 89.0327C139.565 89.1404 139.878 89.1942 140.259 89.1942C140.783 89.1942 141.215 89.0665 141.557 88.8111C141.898 88.5587 142.069 88.1555 142.069 87.6016V86.2074H141.981C141.898 86.3582 141.778 86.5259 141.621 86.7106C141.467 86.8952 141.255 87.0553 140.984 87.1907C140.713 87.3261 140.361 87.3938 139.927 87.3938C139.367 87.3938 138.862 87.263 138.413 87.0014C137.967 86.7367 137.613 86.3474 137.351 85.8335C137.093 85.3164 136.963 84.6809 136.963 83.9268C136.963 83.1728 137.091 82.5265 137.347 81.9879C137.605 81.4493 137.959 81.0369 138.408 80.7507C138.858 80.4614 139.367 80.3168 139.936 80.3168C140.376 80.3168 140.732 80.3906 141.003 80.5384C141.274 80.683 141.484 80.8523 141.635 81.0462C141.789 81.2401 141.908 81.4109 141.991 81.5586H142.092V80.4091H143.445V87.657C143.445 88.2663 143.303 88.7665 143.02 89.1573C142.737 89.5482 142.354 89.8375 141.871 90.0252C141.391 90.2129 140.849 90.3068 140.246 90.3068ZM140.232 86.2489C140.629 86.2489 140.964 86.1566 141.238 85.9719C141.515 85.7842 141.724 85.5165 141.866 85.1687C142.011 84.8178 142.083 84.3977 142.083 83.9084C142.083 83.4313 142.012 83.0112 141.871 82.6481C141.729 82.2849 141.521 82.0018 141.247 81.7987C140.974 81.5924 140.635 81.4893 140.232 81.4893C139.816 81.4893 139.47 81.5971 139.193 81.8125C138.916 82.0249 138.707 82.3142 138.565 82.6804C138.427 83.0466 138.358 83.456 138.358 83.9084C138.358 84.3731 138.428 84.7809 138.57 85.1317C138.711 85.4826 138.921 85.7565 139.198 85.9535C139.478 86.1504 139.822 86.2489 140.232 86.2489ZM148.352 87.6431C147.654 87.6431 147.052 87.4938 146.547 87.1953C146.045 86.8937 145.658 86.4705 145.384 85.9258C145.113 85.378 144.978 84.7363 144.978 84.0007C144.978 83.2744 145.113 82.6342 145.384 82.0803C145.658 81.5263 146.039 81.0939 146.529 80.783C147.021 80.4722 147.597 80.3168 148.255 80.3168C148.655 80.3168 149.043 80.3829 149.419 80.5153C149.794 80.6476 150.131 80.8554 150.43 81.1385C150.728 81.4216 150.964 81.7894 151.136 82.2418C151.308 82.6912 151.394 83.2375 151.394 83.8807V84.37H145.758V83.3359H150.042C150.042 82.9728 149.968 82.6512 149.82 82.3711C149.672 82.0879 149.465 81.8648 149.197 81.7017C148.932 81.5386 148.621 81.457 148.264 81.457C147.877 81.457 147.538 81.5524 147.249 81.7433C146.963 81.931 146.741 82.1772 146.584 82.4819C146.43 82.7835 146.353 83.1113 146.353 83.4652V84.2731C146.353 84.747 146.436 85.1502 146.603 85.4826C146.772 85.815 147.007 86.0689 147.309 86.2443C147.61 86.4167 147.963 86.5028 148.366 86.5028C148.628 86.5028 148.866 86.4659 149.082 86.392C149.297 86.3151 149.483 86.2012 149.64 86.0504C149.797 85.8996 149.917 85.7134 150 85.4918L151.307 85.7273C151.202 86.112 151.014 86.449 150.744 86.7383C150.476 87.0245 150.139 87.2476 149.733 87.4077C149.329 87.5646 148.869 87.6431 148.352 87.6431ZM158.24 82.1403L156.988 82.3619C156.936 82.2018 156.853 82.0495 156.739 81.9048C156.628 81.7602 156.478 81.6417 156.287 81.5494C156.096 81.457 155.857 81.4109 155.571 81.4109C155.18 81.4109 154.854 81.4986 154.593 81.674C154.331 81.8464 154.2 82.0695 154.2 82.3434C154.2 82.5804 154.288 82.7712 154.463 82.9158C154.639 83.0605 154.922 83.179 155.313 83.2713L156.439 83.5298C157.092 83.6806 157.578 83.913 157.898 84.2269C158.218 84.5408 158.378 84.9486 158.378 85.4503C158.378 85.875 158.255 86.2536 158.009 86.5859C157.766 86.9152 157.425 87.1738 156.988 87.3615C156.555 87.5492 156.051 87.6431 155.479 87.6431C154.685 87.6431 154.037 87.4738 153.535 87.1353C153.034 86.7937 152.726 86.3089 152.612 85.6811L153.946 85.478C154.029 85.8258 154.2 86.0889 154.459 86.2674C154.717 86.4428 155.054 86.5305 155.47 86.5305C155.922 86.5305 156.284 86.4367 156.555 86.2489C156.825 86.0581 156.961 85.8258 156.961 85.5518C156.961 85.3303 156.878 85.1441 156.711 84.9933C156.548 84.8424 156.298 84.7286 155.959 84.6516L154.759 84.3885C154.097 84.2377 153.608 83.9976 153.291 83.6683C152.977 83.339 152.82 82.922 152.82 82.4173C152.82 81.9987 152.937 81.6325 153.171 81.3185C153.405 81.0046 153.728 80.7599 154.14 80.5845C154.552 80.406 155.025 80.3168 155.557 80.3168C156.324 80.3168 156.927 80.483 157.367 80.8153C157.807 81.1446 158.098 81.5863 158.24 82.1403ZM163.738 83.576C163.738 82.4188 163.89 81.3539 164.195 80.3814C164.499 79.4089 164.944 78.5117 165.529 77.69H166.794C166.566 77.9947 166.354 78.3686 166.157 78.8118C165.96 79.255 165.787 79.7412 165.64 80.2706C165.492 80.7969 165.377 81.3432 165.294 81.9094C165.21 82.4727 165.169 83.0282 165.169 83.576C165.169 84.3085 165.241 85.0502 165.386 85.8011C165.53 86.5521 165.726 87.2492 165.972 87.8924C166.218 88.5356 166.492 89.0604 166.794 89.4666H165.529C164.944 88.6449 164.499 87.7478 164.195 86.7752C163.89 85.8027 163.738 84.7363 163.738 83.576ZM170.777 87.6385C170.204 87.6385 169.693 87.4923 169.244 87.1999C168.798 86.9045 168.447 86.4844 168.191 85.9396C167.939 85.3918 167.813 84.7347 167.813 83.9684C167.813 83.2021 167.941 82.5465 168.196 82.0018C168.455 81.457 168.809 81.04 169.258 80.7507C169.707 80.4614 170.217 80.3168 170.786 80.3168C171.226 80.3168 171.58 80.3906 171.848 80.5384C172.119 80.683 172.328 80.8523 172.476 81.0462C172.626 81.2401 172.743 81.4109 172.826 81.5586H172.91V78.0455H174.29V87.5H172.942V86.3967H172.826C172.743 86.5475 172.623 86.7198 172.466 86.9137C172.312 87.1076 172.1 87.2769 171.829 87.4215C171.558 87.5662 171.208 87.6385 170.777 87.6385ZM171.081 86.4613C171.478 86.4613 171.814 86.3567 172.088 86.1474C172.365 85.935 172.574 85.6411 172.716 85.2656C172.86 84.8902 172.933 84.4531 172.933 83.9545C172.933 83.4621 172.862 83.0312 172.72 82.6619C172.579 82.2926 172.371 82.0049 172.097 81.7987C171.823 81.5924 171.485 81.4893 171.081 81.4893C170.666 81.4893 170.32 81.5971 170.043 81.8125C169.766 82.0279 169.556 82.3219 169.415 82.6942C169.276 83.0666 169.207 83.4867 169.207 83.9545C169.207 84.4285 169.278 84.8548 169.419 85.2333C169.561 85.6119 169.77 85.9119 170.047 86.1335C170.327 86.352 170.672 86.4613 171.081 86.4613ZM179.316 87.6431C178.617 87.6431 178.016 87.4938 177.511 87.1953C177.009 86.8937 176.622 86.4705 176.348 85.9258C176.077 85.378 175.941 84.7363 175.941 84.0007C175.941 83.2744 176.077 82.6342 176.348 82.0803C176.622 81.5263 177.003 81.0939 177.493 80.783C177.985 80.4722 178.56 80.3168 179.219 80.3168C179.619 80.3168 180.007 80.3829 180.382 80.5153C180.758 80.6476 181.095 80.8554 181.393 81.1385C181.692 81.4216 181.927 81.7894 182.1 82.2418C182.272 82.6912 182.358 83.2375 182.358 83.8807V84.37H176.722V83.3359H181.006C181.006 82.9728 180.932 82.6512 180.784 82.3711C180.636 82.0879 180.429 81.8648 180.161 81.7017C179.896 81.5386 179.585 81.457 179.228 81.457C178.841 81.457 178.502 81.5524 178.213 81.7433C177.926 81.931 177.705 82.1772 177.548 82.4819C177.394 82.7835 177.317 83.1113 177.317 83.4652V84.2731C177.317 84.747 177.4 85.1502 177.566 85.4826C177.736 85.815 177.971 86.0689 178.273 86.2443C178.574 86.4167 178.927 86.5028 179.33 86.5028C179.592 86.5028 179.83 86.4659 180.045 86.392C180.261 86.3151 180.447 86.2012 180.604 86.0504C180.761 85.8996 180.881 85.7134 180.964 85.4918L182.271 85.7273C182.166 86.112 181.978 86.449 181.707 86.7383C181.44 87.0245 181.103 87.2476 180.696 87.4077C180.293 87.5646 179.833 87.6431 179.316 87.6431ZM188.382 84.5593V80.4091H189.767V87.5H188.409V86.272H188.335C188.172 86.6506 187.911 86.966 187.551 87.2184C187.194 87.4677 186.749 87.5923 186.217 87.5923C185.761 87.5923 185.358 87.4923 185.007 87.2923C184.659 87.0891 184.385 86.7891 184.185 86.392C183.988 85.995 183.89 85.5041 183.89 84.9194V80.4091H185.27V84.7532C185.27 85.2364 185.404 85.6211 185.672 85.9073C185.94 86.1935 186.287 86.3366 186.715 86.3366C186.974 86.3366 187.231 86.272 187.486 86.1428C187.745 86.0135 187.958 85.8181 188.128 85.5565C188.3 85.2949 188.385 84.9625 188.382 84.5593ZM192.711 80.4091L194.276 83.1697L195.855 80.4091H197.364L195.153 83.9545L197.383 87.5H195.873L194.276 84.8501L192.683 87.5H191.169L193.376 83.9545L191.197 80.4091H192.711ZM205.209 87.6431C204.544 87.6431 203.964 87.4908 203.468 87.1861C202.973 86.8814 202.588 86.4551 202.314 85.9073C202.04 85.3595 201.903 84.7193 201.903 83.9869C201.903 83.2513 202.04 82.6081 202.314 82.0572C202.588 81.5063 202.973 81.0785 203.468 80.7738C203.964 80.4691 204.544 80.3168 205.209 80.3168C205.873 80.3168 206.454 80.4691 206.949 80.7738C207.445 81.0785 207.829 81.5063 208.103 82.0572C208.377 82.6081 208.514 83.2513 208.514 83.9869C208.514 84.7193 208.377 85.3595 208.103 85.9073C207.829 86.4551 207.445 86.8814 206.949 87.1861C206.454 87.4908 205.873 87.6431 205.209 87.6431ZM205.213 86.4844C205.644 86.4844 206.001 86.3705 206.284 86.1428C206.568 85.915 206.777 85.6119 206.912 85.2333C207.051 84.8548 207.12 84.4377 207.12 83.9822C207.12 83.5298 207.051 83.1143 206.912 82.7358C206.777 82.3542 206.568 82.0479 206.284 81.8171C206.001 81.5863 205.644 81.4709 205.213 81.4709C204.779 81.4709 204.419 81.5863 204.133 81.8171C203.85 82.0479 203.639 82.3542 203.501 82.7358C203.365 83.1143 203.297 83.5298 203.297 83.9822C203.297 84.4377 203.365 84.8548 203.501 85.2333C203.639 85.6119 203.85 85.915 204.133 86.1428C204.419 86.3705 204.779 86.4844 205.213 86.4844ZM210.055 90.1591V80.4091H211.403V81.5586H211.518C211.598 81.4109 211.714 81.2401 211.865 81.0462C212.015 80.8523 212.225 80.683 212.492 80.5384C212.76 80.3906 213.114 80.3168 213.554 80.3168C214.127 80.3168 214.637 80.4614 215.087 80.7507C215.536 81.04 215.889 81.457 216.144 82.0018C216.403 82.5465 216.532 83.2021 216.532 83.9684C216.532 84.7347 216.404 85.3918 216.149 85.9396C215.893 86.4844 215.542 86.9045 215.096 87.1999C214.65 87.4923 214.14 87.6385 213.568 87.6385C213.137 87.6385 212.785 87.5662 212.511 87.4215C212.24 87.2769 212.028 87.1076 211.874 86.9137C211.72 86.7198 211.601 86.5475 211.518 86.3967H211.435V90.1591H210.055ZM211.407 83.9545C211.407 84.4531 211.48 84.8902 211.624 85.2656C211.769 85.6411 211.978 85.935 212.252 86.1474C212.526 86.3567 212.862 86.4613 213.259 86.4613C213.671 86.4613 214.016 86.352 214.293 86.1335C214.57 85.9119 214.779 85.6119 214.921 85.2333C215.065 84.8548 215.138 84.4285 215.138 83.9545C215.138 83.4867 215.067 83.0666 214.925 82.6942C214.787 82.3219 214.577 82.0279 214.297 81.8125C214.02 81.5971 213.674 81.4893 213.259 81.4893C212.859 81.4893 212.52 81.5924 212.243 81.7987C211.969 82.0049 211.761 82.2926 211.62 82.6619C211.478 83.0312 211.407 83.4621 211.407 83.9545ZM221.388 80.4091V81.517H217.515V80.4091H221.388ZM218.554 78.7102H219.934V85.418C219.934 85.6857 219.974 85.8873 220.054 86.0227C220.134 86.1551 220.237 86.2459 220.363 86.2951C220.493 86.3413 220.633 86.3643 220.784 86.3643C220.894 86.3643 220.991 86.3567 221.074 86.3413C221.157 86.3259 221.222 86.3136 221.268 86.3043L221.518 87.4446C221.438 87.4754 221.324 87.5062 221.176 87.5369C221.028 87.5708 220.844 87.5893 220.622 87.5923C220.259 87.5985 219.92 87.5339 219.606 87.3984C219.292 87.263 219.039 87.0537 218.845 86.7706C218.651 86.4875 218.554 86.132 218.554 85.7042V78.7102ZM222.915 87.5V80.4091H224.296V87.5H222.915ZM223.612 79.315C223.372 79.315 223.166 79.235 222.994 79.0749C222.824 78.9118 222.74 78.7179 222.74 78.4933C222.74 78.2655 222.824 78.0716 222.994 77.9116C223.166 77.7485 223.372 77.6669 223.612 77.6669C223.852 77.6669 224.057 77.7485 224.226 77.9116C224.399 78.0716 224.485 78.2655 224.485 78.4933C224.485 78.7179 224.399 78.9118 224.226 79.0749C224.057 79.235 223.852 79.315 223.612 79.315ZM229.139 87.6431C228.475 87.6431 227.894 87.4908 227.399 87.1861C226.903 86.8814 226.519 86.4551 226.245 85.9073C225.971 85.3595 225.834 84.7193 225.834 83.9869C225.834 83.2513 225.971 82.6081 226.245 82.0572C226.519 81.5063 226.903 81.0785 227.399 80.7738C227.894 80.4691 228.475 80.3168 229.139 80.3168C229.804 80.3168 230.384 80.4691 230.88 80.7738C231.375 81.0785 231.76 81.5063 232.034 82.0572C232.308 82.6081 232.445 83.2513 232.445 83.9869C232.445 84.7193 232.308 85.3595 232.034 85.9073C231.76 86.4551 231.375 86.8814 230.88 87.1861C230.384 87.4908 229.804 87.6431 229.139 87.6431ZM229.144 86.4844C229.575 86.4844 229.932 86.3705 230.215 86.1428C230.498 85.915 230.707 85.6119 230.843 85.2333C230.981 84.8548 231.051 84.4377 231.051 83.9822C231.051 83.5298 230.981 83.1143 230.843 82.7358C230.707 82.3542 230.498 82.0479 230.215 81.8171C229.932 81.5863 229.575 81.4709 229.144 81.4709C228.71 81.4709 228.35 81.5863 228.064 81.8171C227.781 82.0479 227.57 82.3542 227.431 82.7358C227.296 83.1143 227.228 83.5298 227.228 83.9822C227.228 84.4377 227.296 84.8548 227.431 85.2333C227.57 85.6119 227.781 85.915 228.064 86.1428C228.35 86.3705 228.71 86.4844 229.144 86.4844ZM235.366 83.2898V87.5H233.986V80.4091H235.31V81.5632H235.398C235.561 81.1877 235.817 80.8861 236.165 80.6584C236.515 80.4306 236.957 80.3168 237.489 80.3168C237.973 80.3168 238.396 80.4183 238.759 80.6214C239.122 80.8215 239.404 81.12 239.604 81.517C239.804 81.9141 239.904 82.4049 239.904 82.9897V87.5H238.524V83.1559C238.524 82.6419 238.39 82.2403 238.122 81.951C237.854 81.6586 237.486 81.5124 237.019 81.5124C236.698 81.5124 236.414 81.5817 236.165 81.7202C235.918 81.8587 235.723 82.0618 235.578 82.3295C235.437 82.5942 235.366 82.9143 235.366 83.2898ZM247.069 82.1403L245.818 82.3619C245.765 82.2018 245.682 82.0495 245.568 81.9048C245.457 81.7602 245.307 81.6417 245.116 81.5494C244.925 81.457 244.687 81.4109 244.4 81.4109C244.009 81.4109 243.683 81.4986 243.422 81.674C243.16 81.8464 243.029 82.0695 243.029 82.3434C243.029 82.5804 243.117 82.7712 243.292 82.9158C243.468 83.0605 243.751 83.179 244.142 83.2713L245.268 83.5298C245.921 83.6806 246.407 83.913 246.727 84.2269C247.047 84.5408 247.207 84.9486 247.207 85.4503C247.207 85.875 247.084 86.2536 246.838 86.5859C246.595 86.9152 246.255 87.1738 245.818 87.3615C245.384 87.5492 244.88 87.6431 244.308 87.6431C243.514 87.6431 242.866 87.4738 242.364 87.1353C241.863 86.7937 241.555 86.3089 241.441 85.6811L242.775 85.478C242.858 85.8258 243.029 86.0889 243.288 86.2674C243.546 86.4428 243.883 86.5305 244.299 86.5305C244.751 86.5305 245.113 86.4367 245.384 86.2489C245.654 86.0581 245.79 85.8258 245.79 85.5518C245.79 85.3303 245.707 85.1441 245.541 84.9933C245.377 84.8424 245.127 84.7286 244.788 84.6516L243.588 84.3885C242.926 84.2377 242.437 83.9976 242.12 83.6683C241.806 83.339 241.649 82.922 241.649 82.4173C241.649 81.9987 241.766 81.6325 242 81.3185C242.234 81.0046 242.557 80.7599 242.969 80.5845C243.382 80.406 243.854 80.3168 244.386 80.3168C245.153 80.3168 245.756 80.483 246.196 80.8153C246.636 81.1446 246.927 81.5863 247.069 82.1403ZM251.379 83.576C251.379 84.7363 251.227 85.8027 250.922 86.7752C250.618 87.7478 250.173 88.6449 249.588 89.4666H248.323C248.551 89.1619 248.763 88.788 248.96 88.3448C249.157 87.9016 249.33 87.4169 249.477 86.8906C249.625 86.3613 249.74 85.8134 249.824 85.2472C249.907 84.6809 249.948 84.1238 249.948 83.576C249.948 82.8466 249.876 82.1064 249.731 81.3555C249.587 80.6045 249.391 79.9074 249.145 79.2642C248.899 78.621 248.625 78.0962 248.323 77.69H249.588C250.173 78.5117 250.618 79.4089 250.922 80.3814C251.227 81.3539 251.379 82.4188 251.379 83.576Z" fill="#696969"/>
<mask id="path-11-inside-3_1_1721" fill="white">
<path d="M266 83C266 78.5817 269.582 75 274 75H289C293.418 75 297 78.5817 297 83V83C297 87.4183 293.418 91 289 91H274C269.582 91 266 87.4183 266 83V83Z"/>
</mask>
<path d="M266 83C266 78.5817 269.582 75 274 75H289C293.418 75 297 78.5817 297 83V83C297 87.4183 293.418 91 289 91H274C269.582 91 266 87.4183 266 83V83Z" fill="url(#paint4_linear_1_1721)"/>
<path d="M274 76H289V74H274V76ZM289 90H274V92H289V90ZM274 90C270.134 90 267 86.866 267 83H265C265 87.9706 269.029 92 274 92V90ZM296 83C296 86.866 292.866 90 289 90V92C293.971 92 298 87.9706 298 83H296ZM289 76C292.866 76 296 79.134 296 83H298C298 78.0294 293.971 74 289 74V76ZM274 74C269.029 74 265 78.0294 265 83H267C267 79.134 270.134 76 274 76V74Z" fill="url(#paint5_linear_1_1721)" mask="url(#path-11-inside-3_1_1721)"/>
<circle cx="289" cy="83" r="6" fill="white"/>
<path d="M48.8913 113.12H47.451C47.3956 112.812 47.2925 112.541 47.1417 112.308C46.9909 112.074 46.8062 111.875 46.5877 111.712C46.3692 111.549 46.1245 111.426 45.8537 111.343C45.5859 111.26 45.3013 111.218 44.9996 111.218C44.4549 111.218 43.9671 111.355 43.5362 111.629C43.1084 111.903 42.7699 112.304 42.5206 112.834C42.2744 113.363 42.1513 114.009 42.1513 114.773C42.1513 115.542 42.2744 116.192 42.5206 116.721C42.7699 117.25 43.11 117.65 43.5408 117.921C43.9717 118.192 44.4564 118.327 44.995 118.327C45.2936 118.327 45.5767 118.287 45.8445 118.207C46.1153 118.124 46.36 118.003 46.5785 117.843C46.797 117.683 46.9817 117.487 47.1325 117.256C47.2863 117.022 47.3925 116.755 47.451 116.453L48.8913 116.458C48.8144 116.922 48.6651 117.35 48.4435 117.741C48.225 118.129 47.9434 118.464 47.5987 118.748C47.2571 119.028 46.8662 119.245 46.4261 119.398C45.986 119.552 45.5059 119.629 44.9858 119.629C44.1671 119.629 43.4377 119.435 42.7976 119.048C42.1574 118.657 41.6527 118.098 41.2834 117.372C40.9171 116.645 40.734 115.779 40.734 114.773C40.734 113.763 40.9187 112.897 41.288 112.174C41.6573 111.447 42.1621 110.89 42.8022 110.502C43.4424 110.112 44.1702 109.916 44.9858 109.916C45.4875 109.916 45.9553 109.989 46.3892 110.133C46.8262 110.275 47.2186 110.484 47.5664 110.761C47.9142 111.035 48.2019 111.37 48.4297 111.767C48.6574 112.161 48.8113 112.612 48.8913 113.12ZM54.9793 116.559V112.409H56.3643V119.5H55.007V118.272H54.9331C54.77 118.651 54.5084 118.966 54.1483 119.218C53.7913 119.468 53.3466 119.592 52.8142 119.592C52.3587 119.592 51.9555 119.492 51.6047 119.292C51.2569 119.089 50.983 118.789 50.7829 118.392C50.586 117.995 50.4875 117.504 50.4875 116.919V112.409H51.8678V116.753C51.8678 117.236 52.0017 117.621 52.2694 117.907C52.5372 118.194 52.885 118.337 53.3128 118.337C53.5713 118.337 53.8283 118.272 54.0837 118.143C54.3422 118.013 54.5561 117.818 54.7254 117.556C54.8978 117.295 54.9824 116.962 54.9793 116.559ZM58.2189 119.5V112.409H59.5531V113.536H59.627C59.7562 113.154 59.984 112.854 60.3102 112.635C60.6395 112.414 61.0119 112.303 61.4274 112.303C61.5136 112.303 61.6151 112.306 61.7321 112.312C61.8521 112.318 61.946 112.326 62.0137 112.335V113.656C61.9583 113.64 61.8598 113.623 61.7182 113.605C61.5766 113.583 61.4351 113.572 61.2935 113.572C60.9673 113.572 60.6764 113.642 60.421 113.78C60.1686 113.916 59.9686 114.105 59.8208 114.348C59.6731 114.588 59.5993 114.862 59.5993 115.17V119.5H58.2189ZM68.5218 114.14L67.2707 114.362C67.2184 114.202 67.1353 114.049 67.0214 113.905C66.9106 113.76 66.7598 113.642 66.569 113.549C66.3782 113.457 66.1396 113.411 65.8534 113.411C65.4626 113.411 65.1363 113.499 64.8747 113.674C64.6131 113.846 64.4823 114.069 64.4823 114.343C64.4823 114.58 64.57 114.771 64.7455 114.916C64.9209 115.06 65.204 115.179 65.5949 115.271L66.7213 115.53C67.3738 115.681 67.8601 115.913 68.1801 116.227C68.5002 116.541 68.6602 116.949 68.6602 117.45C68.6602 117.875 68.5371 118.254 68.2909 118.586C68.0478 118.915 67.7077 119.174 67.2707 119.362C66.8367 119.549 66.3335 119.643 65.7611 119.643C64.9671 119.643 64.3192 119.474 63.8176 119.135C63.3159 118.794 63.0081 118.309 62.8943 117.681L64.2284 117.478C64.3115 117.826 64.4823 118.089 64.7409 118.267C64.9994 118.443 65.3364 118.531 65.7519 118.531C66.2043 118.531 66.5659 118.437 66.8367 118.249C67.1076 118.058 67.243 117.826 67.243 117.552C67.243 117.33 67.1599 117.144 66.9937 116.993C66.8306 116.842 66.5798 116.729 66.2412 116.652L65.0409 116.388C64.3792 116.238 63.8899 115.998 63.5729 115.668C63.259 115.339 63.102 114.922 63.102 114.417C63.102 113.999 63.219 113.632 63.4529 113.319C63.6868 113.005 64.0099 112.76 64.4223 112.585C64.8347 112.406 65.3071 112.317 65.8396 112.317C66.6059 112.317 67.2091 112.483 67.6492 112.815C68.0893 113.145 68.3802 113.586 68.5218 114.14ZM73.234 119.643C72.5354 119.643 71.9337 119.494 71.429 119.195C70.9273 118.894 70.5395 118.471 70.2656 117.926C69.9948 117.378 69.8594 116.736 69.8594 116.001C69.8594 115.274 69.9948 114.634 70.2656 114.08C70.5395 113.526 70.9212 113.094 71.4105 112.783C71.9029 112.472 72.4785 112.317 73.1371 112.317C73.5372 112.317 73.925 112.383 74.3004 112.515C74.6759 112.648 75.0129 112.855 75.3114 113.138C75.61 113.422 75.8454 113.789 76.0178 114.242C76.1901 114.691 76.2763 115.237 76.2763 115.881V116.37H70.6396V115.336H74.9237C74.9237 114.973 74.8498 114.651 74.7021 114.371C74.5543 114.088 74.3466 113.865 74.0788 113.702C73.8142 113.539 73.5033 113.457 73.1463 113.457C72.7585 113.457 72.42 113.552 72.1307 113.743C71.8445 113.931 71.6229 114.177 71.4659 114.482C71.312 114.783 71.2351 115.111 71.2351 115.465V116.273C71.2351 116.747 71.3182 117.15 71.4844 117.483C71.6536 117.815 71.8891 118.069 72.1907 118.244C72.4923 118.417 72.8447 118.503 73.2479 118.503C73.5095 118.503 73.748 118.466 73.9634 118.392C74.1789 118.315 74.3651 118.201 74.522 118.05C74.679 117.9 74.799 117.713 74.8821 117.492L76.1886 117.727C76.0839 118.112 75.8962 118.449 75.6254 118.738C75.3576 119.025 75.0206 119.248 74.6143 119.408C74.2112 119.565 73.7511 119.643 73.234 119.643ZM82.2996 116.559V112.409H83.6846V119.5H82.3273V118.272H82.2535C82.0903 118.651 81.8287 118.966 81.4687 119.218C81.1117 119.468 80.6669 119.592 80.1345 119.592C79.679 119.592 79.2758 119.492 78.925 119.292C78.5772 119.089 78.3033 118.789 78.1032 118.392C77.9063 117.995 77.8078 117.504 77.8078 116.919V112.409H79.1881V116.753C79.1881 117.236 79.322 117.621 79.5898 117.907C79.8575 118.194 80.2053 118.337 80.6331 118.337C80.8916 118.337 81.1486 118.272 81.404 118.143C81.6626 118.013 81.8765 117.818 82.0457 117.556C82.2181 117.295 82.3027 116.962 82.2996 116.559ZM85.5392 119.5V112.409H86.8734V113.536H86.9473C87.0765 113.154 87.3043 112.854 87.6305 112.635C87.9598 112.414 88.3322 112.303 88.7477 112.303C88.8339 112.303 88.9354 112.306 89.0524 112.312C89.1724 112.318 89.2663 112.326 89.334 112.335V113.656C89.2786 113.64 89.1801 113.623 89.0385 113.605C88.897 113.583 88.7554 113.572 88.6138 113.572C88.2876 113.572 87.9967 113.642 87.7413 113.78C87.4889 113.916 87.2889 114.105 87.1412 114.348C86.9934 114.588 86.9196 114.862 86.9196 115.17V119.5H85.5392ZM95.8421 114.14L94.591 114.362C94.5387 114.202 94.4556 114.049 94.3417 113.905C94.2309 113.76 94.0801 113.642 93.8893 113.549C93.6985 113.457 93.46 113.411 93.1737 113.411C92.7829 113.411 92.4566 113.499 92.195 113.674C91.9334 113.846 91.8026 114.069 91.8026 114.343C91.8026 114.58 91.8904 114.771 92.0658 114.916C92.2412 115.06 92.5244 115.179 92.9152 115.271L94.0416 115.53C94.6941 115.681 95.1804 115.913 95.5004 116.227C95.8205 116.541 95.9806 116.949 95.9806 117.45C95.9806 117.875 95.8575 118.254 95.6112 118.586C95.3681 118.915 95.028 119.174 94.591 119.362C94.157 119.549 93.6539 119.643 93.0814 119.643C92.2874 119.643 91.6395 119.474 91.1379 119.135C90.6362 118.794 90.3285 118.309 90.2146 117.681L91.5487 117.478C91.6318 117.826 91.8026 118.089 92.0612 118.267C92.3197 118.443 92.6567 118.531 93.0722 118.531C93.5246 118.531 93.8862 118.437 94.157 118.249C94.4279 118.058 94.5633 117.826 94.5633 117.552C94.5633 117.33 94.4802 117.144 94.314 116.993C94.1509 116.842 93.9001 116.729 93.5615 116.652L92.3612 116.388C91.6995 116.238 91.2102 115.998 90.8932 115.668C90.5793 115.339 90.4223 114.922 90.4223 114.417C90.4223 113.999 90.5393 113.632 90.7732 113.319C91.0071 113.005 91.3302 112.76 91.7426 112.585C92.155 112.406 92.6275 112.317 93.1599 112.317C93.9262 112.317 94.5294 112.483 94.9695 112.815C95.4097 113.145 95.7005 113.586 95.8421 114.14ZM104.54 109.602L101.493 120.922H100.26L103.307 109.602H104.54ZM114.42 112.529C114.371 112.092 114.168 111.754 113.811 111.513C113.454 111.27 113.004 111.149 112.463 111.149C112.075 111.149 111.739 111.21 111.456 111.333C111.173 111.453 110.953 111.62 110.796 111.832C110.642 112.041 110.565 112.28 110.565 112.548C110.565 112.772 110.617 112.966 110.722 113.129C110.83 113.292 110.97 113.429 111.142 113.54C111.318 113.648 111.505 113.739 111.705 113.812C111.905 113.883 112.098 113.942 112.282 113.988L113.206 114.228C113.507 114.302 113.817 114.402 114.134 114.528C114.451 114.654 114.745 114.82 115.015 115.027C115.286 115.233 115.505 115.488 115.671 115.793C115.84 116.098 115.925 116.462 115.925 116.887C115.925 117.423 115.786 117.898 115.509 118.314C115.235 118.729 114.837 119.057 114.314 119.297C113.794 119.537 113.164 119.657 112.426 119.657C111.718 119.657 111.105 119.545 110.588 119.32C110.071 119.095 109.666 118.777 109.374 118.364C109.082 117.949 108.92 117.456 108.889 116.887H110.32C110.348 117.229 110.459 117.513 110.653 117.741C110.85 117.966 111.101 118.134 111.405 118.244C111.713 118.352 112.05 118.406 112.416 118.406C112.82 118.406 113.178 118.343 113.492 118.217C113.809 118.087 114.058 117.909 114.24 117.681C114.421 117.45 114.512 117.181 114.512 116.873C114.512 116.593 114.432 116.364 114.272 116.185C114.115 116.007 113.901 115.859 113.631 115.742C113.363 115.625 113.06 115.522 112.721 115.433L111.604 115.128C110.847 114.922 110.247 114.619 109.803 114.219C109.363 113.819 109.143 113.289 109.143 112.631C109.143 112.086 109.291 111.61 109.586 111.204C109.882 110.798 110.282 110.482 110.787 110.258C111.291 110.03 111.861 109.916 112.495 109.916C113.135 109.916 113.7 110.029 114.189 110.253C114.682 110.478 115.069 110.787 115.352 111.181C115.636 111.572 115.783 112.021 115.796 112.529H114.42ZM118.899 110.045V119.5H117.519V110.045H118.899ZM120.756 119.5V112.409H122.136V119.5H120.756ZM121.453 111.315C121.213 111.315 121.007 111.235 120.835 111.075C120.665 110.912 120.581 110.718 120.581 110.493C120.581 110.266 120.665 110.072 120.835 109.912C121.007 109.748 121.213 109.667 121.453 109.667C121.693 109.667 121.898 109.748 122.067 109.912C122.239 110.072 122.326 110.266 122.326 110.493C122.326 110.718 122.239 110.912 122.067 111.075C121.898 111.235 121.693 111.315 121.453 111.315ZM126.648 119.638C126.075 119.638 125.564 119.492 125.115 119.2C124.669 118.904 124.318 118.484 124.063 117.94C123.81 117.392 123.684 116.735 123.684 115.968C123.684 115.202 123.812 114.547 124.067 114.002C124.326 113.457 124.68 113.04 125.129 112.751C125.578 112.461 126.088 112.317 126.657 112.317C127.097 112.317 127.451 112.391 127.719 112.538C127.99 112.683 128.199 112.852 128.347 113.046C128.497 113.24 128.614 113.411 128.698 113.559H128.781V110.045H130.161V119.5H128.813V118.397H128.698C128.614 118.547 128.494 118.72 128.337 118.914C128.184 119.108 127.971 119.277 127.7 119.422C127.43 119.566 127.079 119.638 126.648 119.638ZM126.953 118.461C127.35 118.461 127.685 118.357 127.959 118.147C128.236 117.935 128.445 117.641 128.587 117.266C128.731 116.89 128.804 116.453 128.804 115.955C128.804 115.462 128.733 115.031 128.591 114.662C128.45 114.293 128.242 114.005 127.968 113.799C127.694 113.592 127.356 113.489 126.953 113.489C126.537 113.489 126.191 113.597 125.914 113.812C125.637 114.028 125.428 114.322 125.286 114.694C125.147 115.067 125.078 115.487 125.078 115.955C125.078 116.429 125.149 116.855 125.291 117.233C125.432 117.612 125.641 117.912 125.918 118.134C126.198 118.352 126.543 118.461 126.953 118.461ZM135.187 119.643C134.489 119.643 133.887 119.494 133.382 119.195C132.88 118.894 132.493 118.471 132.219 117.926C131.948 117.378 131.812 116.736 131.812 116.001C131.812 115.274 131.948 114.634 132.219 114.08C132.493 113.526 132.874 113.094 133.364 112.783C133.856 112.472 134.432 112.317 135.09 112.317C135.49 112.317 135.878 112.383 136.254 112.515C136.629 112.648 136.966 112.855 137.265 113.138C137.563 113.422 137.799 113.789 137.971 114.242C138.143 114.691 138.229 115.237 138.229 115.881V116.37H132.593V115.336H136.877C136.877 114.973 136.803 114.651 136.655 114.371C136.507 114.088 136.3 113.865 136.032 113.702C135.767 113.539 135.456 113.457 135.099 113.457C134.712 113.457 134.373 113.552 134.084 113.743C133.798 113.931 133.576 114.177 133.419 114.482C133.265 114.783 133.188 115.111 133.188 115.465V116.273C133.188 116.747 133.271 117.15 133.438 117.483C133.607 117.815 133.842 118.069 134.144 118.244C134.445 118.417 134.798 118.503 135.201 118.503C135.463 118.503 135.701 118.466 135.917 118.392C136.132 118.315 136.318 118.201 136.475 118.05C136.632 117.9 136.752 117.713 136.835 117.492L138.142 117.727C138.037 118.112 137.849 118.449 137.578 118.738C137.311 119.025 136.974 119.248 136.567 119.408C136.164 119.565 135.704 119.643 135.187 119.643ZM139.761 119.5V112.409H141.095V113.536H141.169C141.298 113.154 141.526 112.854 141.852 112.635C142.181 112.414 142.554 112.303 142.969 112.303C143.056 112.303 143.157 112.306 143.274 112.312C143.394 112.318 143.488 112.326 143.556 112.335V113.656C143.5 113.64 143.402 113.623 143.26 113.605C143.119 113.583 142.977 113.572 142.835 113.572C142.509 113.572 142.218 113.642 141.963 113.78C141.711 113.916 141.511 114.105 141.363 114.348C141.215 114.588 141.141 114.862 141.141 115.17V119.5H139.761ZM150.064 114.14L148.813 114.362C148.76 114.202 148.677 114.049 148.563 113.905C148.453 113.76 148.302 113.642 148.111 113.549C147.92 113.457 147.682 113.411 147.395 113.411C147.005 113.411 146.678 113.499 146.417 113.674C146.155 113.846 146.024 114.069 146.024 114.343C146.024 114.58 146.112 114.771 146.287 114.916C146.463 115.06 146.746 115.179 147.137 115.271L148.263 115.53C148.916 115.681 149.402 115.913 149.722 116.227C150.042 116.541 150.202 116.949 150.202 117.45C150.202 117.875 150.079 118.254 149.833 118.586C149.59 118.915 149.25 119.174 148.813 119.362C148.379 119.549 147.876 119.643 147.303 119.643C146.509 119.643 145.861 119.474 145.36 119.135C144.858 118.794 144.55 118.309 144.436 117.681L145.77 117.478C145.854 117.826 146.024 118.089 146.283 118.267C146.541 118.443 146.878 118.531 147.294 118.531C147.746 118.531 148.108 118.437 148.379 118.249C148.65 118.058 148.785 117.826 148.785 117.552C148.785 117.33 148.702 117.144 148.536 116.993C148.373 116.842 148.122 116.729 147.783 116.652L146.583 116.388C145.921 116.238 145.432 115.998 145.115 115.668C144.801 115.339 144.644 114.922 144.644 114.417C144.644 113.999 144.761 113.632 144.995 113.319C145.229 113.005 145.552 112.76 145.964 112.585C146.377 112.406 146.849 112.317 147.382 112.317C148.148 112.317 148.751 112.483 149.191 112.815C149.631 113.145 149.922 113.586 150.064 114.14Z" fill="#696969"/>
<mask id="path-15-inside-4_1_1721" fill="white">
<path d="M266 115C266 110.582 269.582 107 274 107H289C293.418 107 297 110.582 297 115V115C297 119.418 293.418 123 289 123H274C269.582 123 266 119.418 266 115V115Z"/>
</mask>
<path d="M266 115C266 110.582 269.582 107 274 107H289C293.418 107 297 110.582 297 115V115C297 119.418 293.418 123 289 123H274C269.582 123 266 119.418 266 115V115Z" fill="url(#paint6_linear_1_1721)"/>
<path d="M274 108H289V106H274V108ZM289 122H274V124H289V122ZM274 122C270.134 122 267 118.866 267 115H265C265 119.971 269.029 124 274 124V122ZM296 115C296 118.866 292.866 122 289 122V124C293.971 124 298 119.971 298 115H296ZM289 108C292.866 108 296 111.134 296 115H298C298 110.029 293.971 106 289 106V108ZM274 106C269.029 106 265 110.029 265 115H267C267 111.134 270.134 108 274 108V106Z" fill="url(#paint7_linear_1_1721)" mask="url(#path-15-inside-4_1_1721)"/>
<circle cx="289" cy="115" r="6" fill="white"/>
<path d="M41.0387 151.5V142.045H42.4652V150.272H46.7493V151.5H41.0387ZM48.2658 151.5V144.409H49.6461V151.5H48.2658ZM48.9629 143.315C48.7228 143.315 48.5166 143.235 48.3443 143.075C48.175 142.912 48.0904 142.718 48.0904 142.493C48.0904 142.266 48.175 142.072 48.3443 141.912C48.5166 141.748 48.7228 141.667 48.9629 141.667C49.2029 141.667 49.4076 141.748 49.5769 141.912C49.7492 142.072 49.8354 142.266 49.8354 142.493C49.8354 142.718 49.7492 142.912 49.5769 143.075C49.4076 143.235 49.2029 143.315 48.9629 143.315ZM52.7726 149.095L52.7634 147.41H53.0035L55.8287 144.409H57.4814L54.2591 147.825H54.0422L52.7726 149.095ZM51.5031 151.5V142.045H52.8834V151.5H51.5031ZM55.9811 151.5L53.442 148.13L54.393 147.165L57.6753 151.5H55.9811ZM61.5036 151.643C60.8049 151.643 60.2032 151.494 59.6985 151.195C59.1969 150.894 58.8091 150.471 58.5352 149.926C58.2643 149.378 58.1289 148.736 58.1289 148.001C58.1289 147.274 58.2643 146.634 58.5352 146.08C58.8091 145.526 59.1907 145.094 59.68 144.783C60.1725 144.472 60.748 144.317 61.4066 144.317C61.8067 144.317 62.1945 144.383 62.57 144.515C62.9454 144.648 63.2824 144.855 63.581 145.138C63.8795 145.422 64.1149 145.789 64.2873 146.242C64.4596 146.691 64.5458 147.237 64.5458 147.881V148.37H58.9091V147.336H63.1932C63.1932 146.973 63.1193 146.651 62.9716 146.371C62.8239 146.088 62.6161 145.865 62.3484 145.702C62.0837 145.539 61.7728 145.457 61.4158 145.457C61.0281 145.457 60.6895 145.552 60.4002 145.743C60.114 145.931 59.8924 146.177 59.7354 146.482C59.5816 146.783 59.5046 147.111 59.5046 147.465V148.273C59.5046 148.747 59.5877 149.15 59.7539 149.483C59.9232 149.815 60.1586 150.069 60.4602 150.244C60.7618 150.417 61.1142 150.503 61.5174 150.503C61.779 150.503 62.0175 150.466 62.233 150.392C62.4484 150.315 62.6346 150.201 62.7915 150.05C62.9485 149.9 63.0685 149.713 63.1516 149.492L64.4581 149.727C64.3535 150.112 64.1657 150.449 63.8949 150.738C63.6271 151.025 63.2901 151.248 62.8839 151.408C62.4807 151.565 62.0206 151.643 61.5036 151.643ZM71.3909 146.14L70.1398 146.362C70.0875 146.202 70.0044 146.049 69.8905 145.905C69.7797 145.76 69.6289 145.642 69.4381 145.549C69.2473 145.457 69.0088 145.411 68.7226 145.411C68.3317 145.411 68.0055 145.499 67.7439 145.674C67.4823 145.846 67.3515 146.069 67.3515 146.343C67.3515 146.58 67.4392 146.771 67.6146 146.916C67.79 147.06 68.0732 147.179 68.464 147.271L69.5905 147.53C70.2429 147.681 70.7292 147.913 71.0493 148.227C71.3693 148.541 71.5294 148.949 71.5294 149.45C71.5294 149.875 71.4063 150.254 71.1601 150.586C70.9169 150.915 70.5769 151.174 70.1398 151.362C69.7059 151.549 69.2027 151.643 68.6302 151.643C67.8362 151.643 67.1884 151.474 66.6867 151.135C66.185 150.794 65.8773 150.309 65.7634 149.681L67.0976 149.478C67.1807 149.826 67.3515 150.089 67.61 150.267C67.8685 150.443 68.2055 150.531 68.621 150.531C69.0734 150.531 69.435 150.437 69.7059 150.249C69.9767 150.058 70.1121 149.826 70.1121 149.552C70.1121 149.33 70.029 149.144 69.8628 148.993C69.6997 148.842 69.4489 148.729 69.1104 148.652L67.9101 148.388C67.2484 148.238 66.759 147.998 66.442 147.668C66.1281 147.339 65.9711 146.922 65.9711 146.417C65.9711 145.999 66.0881 145.632 66.322 145.319C66.5559 145.005 66.8791 144.76 67.2915 144.585C67.7039 144.406 68.1763 144.317 68.7087 144.317C69.4751 144.317 70.0783 144.483 70.5184 144.815C70.9585 145.145 71.2493 145.586 71.3909 146.14ZM79.142 151.638C78.5695 151.638 78.0586 151.492 77.6093 151.2C77.163 150.904 76.8122 150.484 76.5567 149.94C76.3044 149.392 76.1782 148.735 76.1782 147.968C76.1782 147.202 76.3059 146.547 76.5613 146.002C76.8199 145.457 77.1738 145.04 77.6231 144.751C78.0725 144.461 78.5818 144.317 79.1512 144.317C79.5913 144.317 79.9452 144.391 80.213 144.538C80.4838 144.683 80.6931 144.852 80.8408 145.046C80.9916 145.24 81.1086 145.411 81.1917 145.559H81.2748V142.045H82.6551V151.5H81.3071V150.397H81.1917C81.1086 150.547 80.9885 150.72 80.8316 150.914C80.6777 151.108 80.4653 151.277 80.1945 151.422C79.9237 151.566 79.5728 151.638 79.142 151.638ZM79.4466 150.461C79.8437 150.461 80.1791 150.357 80.453 150.147C80.73 149.935 80.9393 149.641 81.0809 149.266C81.2255 148.89 81.2979 148.453 81.2979 147.955C81.2979 147.462 81.2271 147.031 81.0855 146.662C80.9439 146.293 80.7362 146.005 80.4623 145.799C80.1884 145.592 79.8498 145.489 79.4466 145.489C79.0312 145.489 78.6849 145.597 78.4079 145.812C78.1309 146.028 77.9217 146.322 77.7801 146.694C77.6416 147.067 77.5724 147.487 77.5724 147.955C77.5724 148.429 77.6431 148.855 77.7847 149.233C77.9263 149.612 78.1356 149.912 78.4126 150.134C78.6926 150.352 79.0373 150.461 79.4466 150.461ZM87.6813 151.643C86.9827 151.643 86.381 151.494 85.8762 151.195C85.3746 150.894 84.9868 150.471 84.7129 149.926C84.4421 149.378 84.3066 148.736 84.3066 148.001C84.3066 147.274 84.4421 146.634 84.7129 146.08C84.9868 145.526 85.3684 145.094 85.8578 144.783C86.3502 144.472 86.9257 144.317 87.5843 144.317C87.9844 144.317 88.3722 144.383 88.7477 144.515C89.1232 144.648 89.4602 144.855 89.7587 145.138C90.0572 145.422 90.2927 145.789 90.465 146.242C90.6374 146.691 90.7235 147.237 90.7235 147.881V148.37H85.0868V147.336H89.3709C89.3709 146.973 89.2971 146.651 89.1493 146.371C89.0016 146.088 88.7939 145.865 88.5261 145.702C88.2614 145.539 87.9506 145.457 87.5936 145.457C87.2058 145.457 86.8672 145.552 86.5779 145.743C86.2917 145.931 86.0701 146.177 85.9132 146.482C85.7593 146.783 85.6824 147.111 85.6824 147.465V148.273C85.6824 148.747 85.7654 149.15 85.9316 149.483C86.1009 149.815 86.3364 150.069 86.638 150.244C86.9396 150.417 87.292 150.503 87.6951 150.503C87.9567 150.503 88.1953 150.466 88.4107 150.392C88.6261 150.315 88.8123 150.201 88.9693 150.05C89.1262 149.9 89.2463 149.713 89.3294 149.492L90.6358 149.727C90.5312 150.112 90.3435 150.449 90.0726 150.738C89.8049 151.025 89.4679 151.248 89.0616 151.408C88.6584 151.565 88.1983 151.643 87.6813 151.643ZM95.6955 154.159V144.409H97.0435V145.559H97.1589C97.2389 145.411 97.3543 145.24 97.5051 145.046C97.656 144.852 97.8652 144.683 98.133 144.538C98.4007 144.391 98.7547 144.317 99.1948 144.317C99.7672 144.317 100.278 144.461 100.727 144.751C101.177 145.04 101.529 145.457 101.785 146.002C102.043 146.547 102.172 147.202 102.172 147.968C102.172 148.735 102.045 149.392 101.789 149.94C101.534 150.484 101.183 150.904 100.737 151.2C100.29 151.492 99.7811 151.638 99.2086 151.638C98.7778 151.638 98.4254 151.566 98.1515 151.422C97.8806 151.277 97.6683 151.108 97.5144 150.914C97.3605 150.72 97.242 150.547 97.1589 150.397H97.0758V154.159H95.6955ZM97.0481 147.955C97.0481 148.453 97.1204 148.89 97.2651 149.266C97.4097 149.641 97.619 149.935 97.8929 150.147C98.1668 150.357 98.5023 150.461 98.8993 150.461C99.3117 150.461 99.6564 150.352 99.9334 150.134C100.21 149.912 100.42 149.612 100.561 149.233C100.706 148.855 100.778 148.429 100.778 147.955C100.778 147.487 100.707 147.067 100.566 146.694C100.427 146.322 100.218 146.028 99.938 145.812C99.661 145.597 99.3148 145.489 98.8993 145.489C98.4992 145.489 98.1607 145.592 97.8837 145.799C97.6098 146.005 97.402 146.293 97.2605 146.662C97.1189 147.031 97.0481 147.462 97.0481 147.955ZM108.211 148.559V144.409H109.596V151.5H108.238V150.272H108.165C108.001 150.651 107.74 150.966 107.38 151.218C107.023 151.468 106.578 151.592 106.046 151.592C105.59 151.592 105.187 151.492 104.836 151.292C104.488 151.089 104.214 150.789 104.014 150.392C103.817 149.995 103.719 149.504 103.719 148.919V144.409H105.099V148.753C105.099 149.236 105.233 149.621 105.501 149.907C105.769 150.194 106.116 150.337 106.544 150.337C106.803 150.337 107.06 150.272 107.315 150.143C107.574 150.013 107.788 149.818 107.957 149.556C108.129 149.295 108.214 148.962 108.211 148.559ZM111.561 151.5V142.045H112.941V145.559H113.025C113.105 145.411 113.22 145.24 113.371 145.046C113.522 144.852 113.731 144.683 113.999 144.538C114.266 144.391 114.62 144.317 115.06 144.317C115.633 144.317 116.144 144.461 116.593 144.751C117.042 145.04 117.395 145.457 117.65 146.002C117.909 146.547 118.038 147.202 118.038 147.968C118.038 148.735 117.91 149.392 117.655 149.94C117.399 150.484 117.049 150.904 116.602 151.2C116.156 151.492 115.647 151.638 115.074 151.638C114.643 151.638 114.291 151.566 114.017 151.422C113.746 151.277 113.534 151.108 113.38 150.914C113.226 150.72 113.108 150.547 113.025 150.397H112.909V151.5H111.561ZM112.914 147.955C112.914 148.453 112.986 148.89 113.131 149.266C113.275 149.641 113.485 149.935 113.759 150.147C114.033 150.357 114.368 150.461 114.765 150.461C115.177 150.461 115.522 150.352 115.799 150.134C116.076 149.912 116.285 149.612 116.427 149.233C116.572 148.855 116.644 148.429 116.644 147.955C116.644 147.487 116.573 147.067 116.432 146.694C116.293 146.322 116.084 146.028 115.804 145.812C115.527 145.597 115.18 145.489 114.765 145.489C114.365 145.489 114.026 145.592 113.749 145.799C113.475 146.005 113.268 146.293 113.126 146.662C112.985 147.031 112.914 147.462 112.914 147.955ZM120.968 142.045V151.5H119.588V142.045H120.968ZM122.825 151.5V144.409H124.206V151.5H122.825ZM123.522 143.315C123.282 143.315 123.076 143.235 122.904 143.075C122.735 142.912 122.65 142.718 122.65 142.493C122.65 142.266 122.735 142.072 122.904 141.912C123.076 141.748 123.282 141.667 123.522 141.667C123.763 141.667 123.967 141.748 124.136 141.912C124.309 142.072 124.395 142.266 124.395 142.493C124.395 142.718 124.309 142.912 124.136 143.075C123.967 143.235 123.763 143.315 123.522 143.315ZM129.05 151.643C128.363 151.643 127.772 151.488 127.277 151.177C126.784 150.863 126.406 150.431 126.141 149.88C125.876 149.329 125.744 148.698 125.744 147.987C125.744 147.267 125.88 146.631 126.15 146.08C126.421 145.526 126.803 145.094 127.295 144.783C127.788 144.472 128.368 144.317 129.036 144.317C129.574 144.317 130.054 144.417 130.476 144.617C130.898 144.814 131.238 145.091 131.496 145.448C131.758 145.805 131.913 146.222 131.963 146.699H130.619C130.545 146.366 130.376 146.08 130.111 145.84C129.85 145.6 129.499 145.48 129.059 145.48C128.674 145.48 128.337 145.582 128.048 145.785C127.762 145.985 127.538 146.271 127.378 146.643C127.218 147.013 127.138 147.45 127.138 147.955C127.138 148.472 127.217 148.918 127.374 149.293C127.531 149.669 127.752 149.96 128.039 150.166C128.328 150.372 128.668 150.475 129.059 150.475C129.32 150.475 129.557 150.427 129.77 150.332C129.985 150.234 130.165 150.094 130.31 149.912C130.458 149.73 130.561 149.512 130.619 149.256H131.963C131.913 149.715 131.764 150.124 131.515 150.484C131.265 150.844 130.932 151.128 130.513 151.334C130.097 151.54 129.61 151.643 129.05 151.643ZM135.502 151.657C135.053 151.657 134.647 151.574 134.283 151.408C133.92 151.238 133.633 150.994 133.42 150.674C133.211 150.354 133.106 149.961 133.106 149.496C133.106 149.096 133.183 148.767 133.337 148.509C133.491 148.25 133.699 148.045 133.96 147.895C134.222 147.744 134.514 147.63 134.837 147.553C135.161 147.476 135.49 147.417 135.825 147.377C136.25 147.328 136.595 147.288 136.859 147.257C137.124 147.224 137.316 147.17 137.437 147.096C137.557 147.022 137.617 146.902 137.617 146.736V146.703C137.617 146.3 137.503 145.988 137.275 145.766C137.05 145.545 136.715 145.434 136.269 145.434C135.804 145.434 135.438 145.537 135.17 145.743C134.905 145.946 134.722 146.173 134.62 146.422L133.323 146.126C133.477 145.696 133.702 145.348 133.997 145.083C134.296 144.815 134.639 144.621 135.027 144.501C135.415 144.378 135.822 144.317 136.25 144.317C136.533 144.317 136.833 144.351 137.15 144.418C137.47 144.483 137.769 144.603 138.046 144.778C138.326 144.954 138.555 145.205 138.734 145.531C138.912 145.854 139.002 146.274 139.002 146.791V151.5H137.653V150.531H137.598C137.509 150.709 137.375 150.884 137.196 151.057C137.018 151.229 136.789 151.372 136.509 151.486C136.229 151.6 135.893 151.657 135.502 151.657ZM135.802 150.549C136.184 150.549 136.51 150.474 136.781 150.323C137.055 150.172 137.263 149.975 137.404 149.732C137.549 149.486 137.621 149.223 137.621 148.942V148.028C137.572 148.078 137.477 148.124 137.335 148.167C137.196 148.207 137.038 148.242 136.859 148.273C136.681 148.301 136.507 148.327 136.338 148.352C136.169 148.373 136.027 148.392 135.913 148.407C135.645 148.441 135.401 148.498 135.179 148.578C134.961 148.658 134.785 148.773 134.653 148.924C134.524 149.072 134.459 149.269 134.459 149.515C134.459 149.857 134.585 150.115 134.837 150.29C135.09 150.463 135.411 150.549 135.802 150.549ZM144.15 144.409V145.517H140.277V144.409H144.15ZM141.316 142.71H142.696V149.418C142.696 149.686 142.736 149.887 142.816 150.023C142.896 150.155 142.999 150.246 143.125 150.295C143.254 150.341 143.394 150.364 143.545 150.364C143.656 150.364 143.753 150.357 143.836 150.341C143.919 150.326 143.984 150.314 144.03 150.304L144.279 151.445C144.199 151.475 144.085 151.506 143.938 151.537C143.79 151.571 143.605 151.589 143.384 151.592C143.021 151.598 142.682 151.534 142.368 151.398C142.054 151.263 141.8 151.054 141.606 150.771C141.412 150.487 141.316 150.132 141.316 149.704V142.71ZM145.677 151.5V144.409H147.057V151.5H145.677ZM146.374 143.315C146.134 143.315 145.928 143.235 145.755 143.075C145.586 142.912 145.502 142.718 145.502 142.493C145.502 142.266 145.586 142.072 145.755 141.912C145.928 141.748 146.134 141.667 146.374 141.667C146.614 141.667 146.819 141.748 146.988 141.912C147.16 142.072 147.247 142.266 147.247 142.493C147.247 142.718 147.16 142.912 146.988 143.075C146.819 143.235 146.614 143.315 146.374 143.315ZM151.901 151.643C151.236 151.643 150.656 151.491 150.161 151.186C149.665 150.881 149.28 150.455 149.007 149.907C148.733 149.359 148.596 148.719 148.596 147.987C148.596 147.251 148.733 146.608 149.007 146.057C149.28 145.506 149.665 145.078 150.161 144.774C150.656 144.469 151.236 144.317 151.901 144.317C152.566 144.317 153.146 144.469 153.642 144.774C154.137 145.078 154.522 145.506 154.796 146.057C155.07 146.608 155.206 147.251 155.206 147.987C155.206 148.719 155.07 149.359 154.796 149.907C154.522 150.455 154.137 150.881 153.642 151.186C153.146 151.491 152.566 151.643 151.901 151.643ZM151.906 150.484C152.337 150.484 152.694 150.371 152.977 150.143C153.26 149.915 153.469 149.612 153.605 149.233C153.743 148.855 153.812 148.438 153.812 147.982C153.812 147.53 153.743 147.114 153.605 146.736C153.469 146.354 153.26 146.048 152.977 145.817C152.694 145.586 152.337 145.471 151.906 145.471C151.472 145.471 151.112 145.586 150.825 145.817C150.542 146.048 150.331 146.354 150.193 146.736C150.058 147.114 149.99 147.53 149.99 147.982C149.99 148.438 150.058 148.855 150.193 149.233C150.331 149.612 150.542 149.915 150.825 150.143C151.112 150.371 151.472 150.484 151.906 150.484ZM158.128 147.29V151.5H156.747V144.409H158.072V145.563H158.16C158.323 145.188 158.578 144.886 158.926 144.658C159.277 144.431 159.719 144.317 160.251 144.317C160.734 144.317 161.158 144.418 161.521 144.621C161.884 144.821 162.165 145.12 162.366 145.517C162.566 145.914 162.666 146.405 162.666 146.99V151.5H161.285V147.156C161.285 146.642 161.151 146.24 160.884 145.951C160.616 145.659 160.248 145.512 159.78 145.512C159.46 145.512 159.176 145.582 158.926 145.72C158.68 145.859 158.485 146.062 158.34 146.33C158.198 146.594 158.128 146.914 158.128 147.29Z" fill="#696969"/>
<mask id="path-19-inside-5_1_1721" fill="white">
<path d="M266 147C266 142.582 269.582 139 274 139H289C293.418 139 297 142.582 297 147V147C297 151.418 293.418 155 289 155H274C269.582 155 266 151.418 266 147V147Z"/>
</mask>
<path d="M266 147C266 142.582 269.582 139 274 139H289C293.418 139 297 142.582 297 147V147C297 151.418 293.418 155 289 155H274C269.582 155 266 151.418 266 147V147Z" fill="url(#paint8_linear_1_1721)"/>
<path d="M274 140H289V138H274V140ZM289 154H274V156H289V154ZM274 154C270.134 154 267 150.866 267 147H265C265 151.971 269.029 156 274 156V154ZM296 147C296 150.866 292.866 154 289 154V156C293.971 156 298 151.971 298 147H296ZM289 140C292.866 140 296 143.134 296 147H298C298 142.029 293.971 138 289 138V140ZM274 138C269.029 138 265 142.029 265 147H267C267 143.134 270.134 140 274 140V138Z" fill="url(#paint9_linear_1_1721)" mask="url(#path-19-inside-5_1_1721)"/>
<circle cx="289" cy="147" r="6" fill="white"/>
<path d="M41.0387 183.5V174.045H46.9016V175.273H42.4652V178.154H46.4815V179.377H42.4652V183.5H41.0387ZM51.0115 183.643C50.3467 183.643 49.7665 183.491 49.271 183.186C48.7755 182.881 48.3908 182.455 48.1169 181.907C47.843 181.359 47.7061 180.719 47.7061 179.987C47.7061 179.251 47.843 178.608 48.1169 178.057C48.3908 177.506 48.7755 177.078 49.271 176.774C49.7665 176.469 50.3467 176.317 51.0115 176.317C51.6762 176.317 52.2564 176.469 52.7519 176.774C53.2474 177.078 53.6321 177.506 53.906 178.057C54.1799 178.608 54.3169 179.251 54.3169 179.987C54.3169 180.719 54.1799 181.359 53.906 181.907C53.6321 182.455 53.2474 182.881 52.7519 183.186C52.2564 183.491 51.6762 183.643 51.0115 183.643ZM51.0161 182.484C51.4469 182.484 51.8039 182.371 52.0871 182.143C52.3702 181.915 52.5795 181.612 52.7149 181.233C52.8534 180.855 52.9227 180.438 52.9227 179.982C52.9227 179.53 52.8534 179.114 52.7149 178.736C52.5795 178.354 52.3702 178.048 52.0871 177.817C51.8039 177.586 51.4469 177.471 51.0161 177.471C50.5821 177.471 50.222 177.586 49.9358 177.817C49.6527 178.048 49.4419 178.354 49.3034 178.736C49.1679 179.114 49.1002 179.53 49.1002 179.982C49.1002 180.438 49.1679 180.855 49.3034 181.233C49.4419 181.612 49.6527 181.915 49.9358 182.143C50.222 182.371 50.5821 182.484 51.0161 182.484ZM57.2379 174.045V183.5H55.8576V174.045H57.2379ZM60.4752 174.045V183.5H59.0949V174.045H60.4752ZM65.3191 183.643C64.6543 183.643 64.0742 183.491 63.5787 183.186C63.0832 182.881 62.6984 182.455 62.4245 181.907C62.1506 181.359 62.0137 180.719 62.0137 179.987C62.0137 179.251 62.1506 178.608 62.4245 178.057C62.6984 177.506 63.0832 177.078 63.5787 176.774C64.0742 176.469 64.6543 176.317 65.3191 176.317C65.9838 176.317 66.564 176.469 67.0595 176.774C67.555 177.078 67.9397 177.506 68.2136 178.057C68.4875 178.608 68.6245 179.251 68.6245 179.987C68.6245 180.719 68.4875 181.359 68.2136 181.907C67.9397 182.455 67.555 182.881 67.0595 183.186C66.564 183.491 65.9838 183.643 65.3191 183.643ZM65.3237 182.484C65.7546 182.484 66.1116 182.371 66.3947 182.143C66.6779 181.915 66.8871 181.612 67.0225 181.233C67.161 180.855 67.2303 180.438 67.2303 179.982C67.2303 179.53 67.161 179.114 67.0225 178.736C66.8871 178.354 66.6779 178.048 66.3947 177.817C66.1116 177.586 65.7546 177.471 65.3237 177.471C64.8897 177.471 64.5297 177.586 64.2434 177.817C63.9603 178.048 63.7495 178.354 63.611 178.736C63.4756 179.114 63.4078 179.53 63.4078 179.982C63.4078 180.438 63.4756 180.855 63.611 181.233C63.7495 181.612 63.9603 181.915 64.2434 182.143C64.5297 182.371 64.8897 182.484 65.3237 182.484ZM71.4867 183.5L69.4 176.409H70.8265L72.2161 181.616H72.2853L73.6795 176.409H75.106L76.4909 181.593H76.5602L77.9405 176.409H79.367L77.285 183.5H75.877L74.4366 178.38H74.3304L72.8901 183.5H71.4867ZM87.7182 173.602L84.6713 184.922H83.4387L86.4856 173.602H87.7182ZM98.5219 174.045H99.953V180.264C99.953 180.926 99.7976 181.512 99.4868 182.023C99.1759 182.531 98.7389 182.931 98.1757 183.223C97.6125 183.512 96.9523 183.657 96.1952 183.657C95.4412 183.657 94.7826 183.512 94.2194 183.223C93.6562 182.931 93.2191 182.531 92.9083 182.023C92.5974 181.512 92.442 180.926 92.442 180.264V174.045H93.8685V180.148C93.8685 180.576 93.9624 180.956 94.1501 181.289C94.3409 181.621 94.6102 181.883 94.958 182.074C95.3058 182.261 95.7182 182.355 96.1952 182.355C96.6753 182.355 97.0893 182.261 97.4371 182.074C97.7879 181.883 98.0557 181.621 98.2403 181.289C98.4281 180.956 98.5219 180.576 98.5219 180.148V174.045ZM103.297 179.29V183.5H101.916V176.409H103.241V177.563H103.329C103.492 177.188 103.747 176.886 104.095 176.658C104.446 176.431 104.888 176.317 105.42 176.317C105.903 176.317 106.326 176.418 106.69 176.621C107.053 176.821 107.334 177.12 107.534 177.517C107.734 177.914 107.835 178.405 107.835 178.99V183.5H106.454V179.156C106.454 178.642 106.32 178.24 106.053 177.951C105.785 177.659 105.417 177.512 104.949 177.512C104.629 177.512 104.344 177.582 104.095 177.72C103.849 177.859 103.654 178.062 103.509 178.33C103.367 178.594 103.297 178.914 103.297 179.29ZM113.06 176.409V177.517H109.053V176.409H113.06ZM110.152 183.5V175.587C110.152 175.144 110.249 174.776 110.443 174.484C110.637 174.189 110.894 173.969 111.214 173.824C111.534 173.676 111.882 173.602 112.257 173.602C112.534 173.602 112.771 173.625 112.968 173.672C113.165 173.715 113.311 173.755 113.407 173.792L113.083 174.909C113.019 174.89 112.936 174.869 112.834 174.844C112.733 174.816 112.609 174.803 112.465 174.803C112.129 174.803 111.889 174.886 111.745 175.052C111.603 175.218 111.532 175.458 111.532 175.772V183.5H110.152ZM117.192 183.643C116.527 183.643 115.947 183.491 115.452 183.186C114.956 182.881 114.571 182.455 114.298 181.907C114.024 181.359 113.887 180.719 113.887 179.987C113.887 179.251 114.024 178.608 114.298 178.057C114.571 177.506 114.956 177.078 115.452 176.774C115.947 176.469 116.527 176.317 117.192 176.317C117.857 176.317 118.437 176.469 118.933 176.774C119.428 177.078 119.813 177.506 120.087 178.057C120.361 178.608 120.498 179.251 120.498 179.987C120.498 180.719 120.361 181.359 120.087 181.907C119.813 182.455 119.428 182.881 118.933 183.186C118.437 183.491 117.857 183.643 117.192 183.643ZM117.197 182.484C117.628 182.484 117.985 182.371 118.268 182.143C118.551 181.915 118.76 181.612 118.896 181.233C119.034 180.855 119.103 180.438 119.103 179.982C119.103 179.53 119.034 179.114 118.896 178.736C118.76 178.354 118.551 178.048 118.268 177.817C117.985 177.586 117.628 177.471 117.197 177.471C116.763 177.471 116.403 177.586 116.116 177.817C115.833 178.048 115.623 178.354 115.484 178.736C115.349 179.114 115.281 179.53 115.281 179.982C115.281 180.438 115.349 180.855 115.484 181.233C115.623 181.612 115.833 181.915 116.116 182.143C116.403 182.371 116.763 182.484 117.197 182.484ZM123.419 174.045V183.5H122.038V174.045H123.419ZM126.656 174.045V183.5H125.276V174.045H126.656ZM131.5 183.643C130.835 183.643 130.255 183.491 129.759 183.186C129.264 182.881 128.879 182.455 128.605 181.907C128.331 181.359 128.194 180.719 128.194 179.987C128.194 179.251 128.331 178.608 128.605 178.057C128.879 177.506 129.264 177.078 129.759 176.774C130.255 176.469 130.835 176.317 131.5 176.317C132.165 176.317 132.745 176.469 133.24 176.774C133.736 177.078 134.12 177.506 134.394 178.057C134.668 178.608 134.805 179.251 134.805 179.987C134.805 180.719 134.668 181.359 134.394 181.907C134.12 182.455 133.736 182.881 133.24 183.186C132.745 183.491 132.165 183.643 131.5 183.643ZM131.504 182.484C131.935 182.484 132.292 182.371 132.575 182.143C132.859 181.915 133.068 181.612 133.203 181.233C133.342 180.855 133.411 180.438 133.411 179.982C133.411 179.53 133.342 179.114 133.203 178.736C133.068 178.354 132.859 178.048 132.575 177.817C132.292 177.586 131.935 177.471 131.504 177.471C131.07 177.471 130.71 177.586 130.424 177.817C130.141 178.048 129.93 178.354 129.792 178.736C129.656 179.114 129.589 179.53 129.589 179.982C129.589 180.438 129.656 180.855 129.792 181.233C129.93 181.612 130.141 181.915 130.424 182.143C130.71 182.371 131.07 182.484 131.504 182.484ZM137.667 183.5L135.581 176.409H137.007L138.397 181.616H138.466L139.86 176.409H141.287L142.672 181.593H142.741L144.121 176.409H145.548L143.466 183.5H142.058L140.617 178.38H140.511L139.071 183.5H137.667Z" fill="#696969"/>
<mask id="path-23-inside-6_1_1721" fill="white">
<path d="M266 179C266 174.582 269.582 171 274 171H289C293.418 171 297 174.582 297 179V179C297 183.418 293.418 187 289 187H274C269.582 187 266 183.418 266 179V179Z"/>
</mask>
<path d="M266 179C266 174.582 269.582 171 274 171H289C293.418 171 297 174.582 297 179V179C297 183.418 293.418 187 289 187H274C269.582 187 266 183.418 266 179V179Z" fill="url(#paint10_linear_1_1721)"/>
<path d="M274 172H289V170H274V172ZM289 186H274V188H289V186ZM274 186C270.134 186 267 182.866 267 179H265C265 183.971 269.029 188 274 188V186ZM296 179C296 182.866 292.866 186 289 186V188C293.971 188 298 183.971 298 179H296ZM289 172C292.866 172 296 175.134 296 179H298C298 174.029 293.971 170 289 170V172ZM274 170C269.029 170 265 174.029 265 179H267C267 175.134 270.134 172 274 172V170Z" fill="url(#paint11_linear_1_1721)" mask="url(#path-23-inside-6_1_1721)"/>
<circle cx="289" cy="179" r="6" fill="white"/>
</g>
<defs>
<filter id="filter0_dddddd_1_1721" x="0" y="-11" width="337" height="270" filterUnits="userSpaceOnUse" color-interpolation-filters="sRGB">
<feFlood flood-opacity="0" result="BackgroundImageFix"/>
<feColorMatrix in="SourceAlpha" type="matrix" values="0 0 0 0 0 0 0 0 0 0 0 0 0 0 0 0 0 0 127 0" result="hardAlpha"/>
<feMorphology radius="16" operator="erode" in="SourceAlpha" result="effect1_dropShadow_1_1721"/>
<feOffset dy="32"/>
<feGaussianBlur stdDeviation="16"/>
<feComposite in2="hardAlpha" operator="out"/>
<feColorMatrix type="matrix" values="0 0 0 0 0.121569 0 0 0 0 0.0352941 0 0 0 0 0.305882 0 0 0 0.04 0"/>
<feBlend mode="normal" in2="BackgroundImageFix" result="effect1_dropShadow_1_1721"/>
<feColorMatrix in="SourceAlpha" type="matrix" values="0 0 0 0 0 0 0 0 0 0 0 0 0 0 0 0 0 0 127 0" result="hardAlpha"/>
<feMorphology radius="12" operator="erode" in="SourceAlpha" result="effect2_dropShadow_1_1721"/>
<feOffset dy="24"/>
<feGaussianBlur stdDeviation="12"/>
<feComposite in2="hardAlpha" operator="out"/>
<feColorMatrix type="matrix" values="0 0 0 0 0.121569 0 0 0 0 0.0352941 0 0 0 0 0.305882 0 0 0 0.04 0"/>
<feBlend mode="normal" in2="effect1_dropShadow_1_1721" result="effect2_dropShadow_1_1721"/>
<feColorMatrix in="SourceAlpha" type="matrix" values="0 0 0 0 0 0 0 0 0 0 0 0 0 0 0 0 0 0 127 0" result="hardAlpha"/>
<feMorphology radius="6" operator="erode" in="SourceAlpha" result="effect3_dropShadow_1_1721"/>
<feOffset dy="12"/>
<feGaussianBlur stdDeviation="6"/>
<feComposite in2="hardAlpha" operator="out"/>
<feColorMatrix type="matrix" values="0 0 0 0 0.121569 0 0 0 0 0.0352941 0 0 0 0 0.305882 0 0 0 0.04 0"/>
<feBlend mode="normal" in2="effect2_dropShadow_1_1721" result="effect3_dropShadow_1_1721"/>
<feColorMatrix in="SourceAlpha" type="matrix" values="0 0 0 0 0 0 0 0 0 0 0 0 0 0 0 0 0 0 127 0" result="hardAlpha"/>
<feMorphology radius="3" operator="erode" in="SourceAlpha" result="effect4_dropShadow_1_1721"/>
<feOffset dy="6"/>
<feGaussianBlur stdDeviation="3"/>
<feComposite in2="hardAlpha" operator="out"/>
<feColorMatrix type="matrix" values="0 0 0 0 0.121569 0 0 0 0 0.0352941 0 0 0 0 0.305882 0 0 0 0.04 0"/>
<feBlend mode="normal" in2="effect3_dropShadow_1_1721" result="effect4_dropShadow_1_1721"/>
<feColorMatrix in="SourceAlpha" type="matrix" values="0 0 0 0 0 0 0 0 0 0 0 0 0 0 0 0 0 0 127 0" result="hardAlpha"/>
<feMorphology radius="1.5" operator="erode" in="SourceAlpha" result="effect5_dropShadow_1_1721"/>
<feOffset dy="3"/>
<feGaussianBlur stdDeviation="1.5"/>
<feComposite in2="hardAlpha" operator="out"/>
<feColorMatrix type="matrix" values="0 0 0 0 0.121569 0 0 0 0 0.0352941 0 0 0 0 0.305882 0 0 0 0.04 0"/>
<feBlend mode="normal" in2="effect4_dropShadow_1_1721" result="effect5_dropShadow_1_1721"/>
<feColorMatrix in="SourceAlpha" type="matrix" values="0 0 0 0 0 0 0 0 0 0 0 0 0 0 0 0 0 0 127 0" result="hardAlpha"/>
<feMorphology radius="1" operator="dilate" in="SourceAlpha" result="effect6_dropShadow_1_1721"/>
<feOffset/>
<feComposite in2="hardAlpha" operator="out"/>
<feColorMatrix type="matrix" values="0 0 0 0 0.121569 0 0 0 0 0.0352941 0 0 0 0 0.305882 0 0 0 0.04 0"/>
<feBlend mode="normal" in2="effect5_dropShadow_1_1721" result="effect6_dropShadow_1_1721"/>
<feBlend mode="normal" in="SourceGraphic" in2="effect6_dropShadow_1_1721" result="shape"/>
</filter>
<linearGradient id="paint0_linear_1_1721" x1="266" y1="19" x2="297" y2="19" gradientUnits="userSpaceOnUse">
<stop offset="1"/>
</linearGradient>
<linearGradient id="paint1_linear_1_1721" x1="266" y1="19" x2="297" y2="19" gradientUnits="userSpaceOnUse">
<stop offset="1"/>
</linearGradient>
<linearGradient id="paint2_linear_1_1721" x1="266" y1="51" x2="297" y2="51" gradientUnits="userSpaceOnUse">
<stop offset="1"/>
</linearGradient>
<linearGradient id="paint3_linear_1_1721" x1="266" y1="51" x2="297" y2="51" gradientUnits="userSpaceOnUse">
<stop offset="1"/>
</linearGradient>
<linearGradient id="paint4_linear_1_1721" x1="266" y1="83" x2="297" y2="83" gradientUnits="userSpaceOnUse">
<stop offset="1"/>
</linearGradient>
<linearGradient id="paint5_linear_1_1721" x1="266" y1="83" x2="297" y2="83" gradientUnits="userSpaceOnUse">
<stop offset="1"/>
</linearGradient>
<linearGradient id="paint6_linear_1_1721" x1="266" y1="115" x2="297" y2="115" gradientUnits="userSpaceOnUse">
<stop offset="1"/>
</linearGradient>
<linearGradient id="paint7_linear_1_1721" x1="266" y1="115" x2="297" y2="115" gradientUnits="userSpaceOnUse">
<stop offset="1"/>
</linearGradient>
<linearGradient id="paint8_linear_1_1721" x1="266" y1="147" x2="297" y2="147" gradientUnits="userSpaceOnUse">
<stop offset="1"/>
</linearGradient>
<linearGradient id="paint9_linear_1_1721" x1="266" y1="147" x2="297" y2="147" gradientUnits="userSpaceOnUse">
<stop offset="1"/>
</linearGradient>
<linearGradient id="paint10_linear_1_1721" x1="266" y1="179" x2="297" y2="179" gradientUnits="userSpaceOnUse">
<stop offset="1"/>
</linearGradient>
<linearGradient id="paint11_linear_1_1721" x1="266" y1="179" x2="297" y2="179" gradientUnits="userSpaceOnUse">
<stop offset="1"/>
</linearGradient>
</defs>
</svg>
