<svg width="604" height="236" viewBox="0 0 604 236" fill="none" xmlns="http://www.w3.org/2000/svg">
<g filter="url(#filter0_dddddd_1_1754)">
<g clip-path="url(#clip0_1_1754)">
<path d="M16 17C16 8.16345 23.1634 1 32 1H604V188H32C23.1634 188 16 180.837 16 172V17Z" fill="white"/>
<path d="M34.1138 36.8927V35.786L38.9961 28.0611H39.799V29.7753H39.2565L35.5676 35.6125V35.6993H42.1425V36.8927H34.1138ZM39.3433 39.1711V36.5564V36.041V28.0611H40.6236V39.1711H39.3433ZM44.6081 39.2579C44.3405 39.2579 44.1108 39.1621 43.9191 38.9704C43.7275 38.7787 43.6316 38.5491 43.6316 38.2815C43.6316 38.0138 43.7275 37.7842 43.9191 37.5925C44.1108 37.4008 44.3405 37.305 44.6081 37.305C44.8757 37.305 45.1054 37.4008 45.2971 37.5925C45.4887 37.7842 45.5846 38.0138 45.5846 38.2815C45.5846 38.4587 45.5394 38.6214 45.4489 38.7697C45.3622 38.918 45.2446 39.0373 45.0963 39.1277C44.9517 39.2145 44.7889 39.2579 44.6081 39.2579ZM47.8603 39.1711V38.1947L51.5275 34.1803C51.9578 33.7101 52.3123 33.3015 52.5907 32.9543C52.8692 32.6035 53.0754 32.2744 53.2092 31.967C53.3466 31.6559 53.4153 31.3305 53.4153 30.9905C53.4153 30.5999 53.3213 30.2618 53.1332 29.9761C52.9488 29.6904 52.6956 29.4697 52.3737 29.3142C52.0519 29.1587 51.6902 29.081 51.2888 29.081C50.862 29.081 50.4895 29.1696 50.1713 29.3468C49.8566 29.5204 49.6125 29.7645 49.4389 30.0791C49.2689 30.3938 49.1839 30.7627 49.1839 31.1858H47.9037C47.9037 30.5348 48.0538 29.9634 48.3539 29.4716C48.6541 28.9797 49.0628 28.5963 49.58 28.3215C50.1007 28.0466 50.6848 27.9092 51.3322 27.9092C51.9832 27.9092 52.56 28.0466 53.0627 28.3215C53.5654 28.5963 53.9596 28.967 54.2453 29.4336C54.531 29.9001 54.6739 30.4191 54.6739 30.9905C54.6739 31.3992 54.5997 31.7988 54.4515 32.1894C54.3068 32.5764 54.0536 33.0085 53.692 33.4859C53.3339 33.9597 52.8367 34.5383 52.2001 35.2219L49.7047 37.8909V37.9777H54.8692V39.1711H47.8603ZM57.1313 39.1711V30.8386H58.3682V32.1406H58.4767C58.6503 31.6957 58.9306 31.3503 59.3175 31.1044C59.7045 30.8549 60.1692 30.7301 60.7117 30.7301C61.2614 30.7301 61.7189 30.8549 62.0842 31.1044C62.4531 31.3503 62.7406 31.6957 62.9467 32.1406H63.0335C63.2469 31.7102 63.567 31.3684 63.9937 31.1153C64.4205 30.8585 64.9322 30.7301 65.529 30.7301C66.274 30.7301 66.8833 30.9634 67.3571 31.4299C67.8309 31.8928 68.0678 32.6143 68.0678 33.5944V39.1711H66.7875V33.5944C66.7875 32.9796 66.6193 32.5402 66.283 32.2762C65.9467 32.0122 65.5506 31.8802 65.095 31.8802C64.5091 31.8802 64.0552 32.0574 63.7333 32.4118C63.4115 32.7626 63.2505 33.2074 63.2505 33.7463V39.1711H61.9486V33.4642C61.9486 32.9905 61.7949 32.6089 61.4875 32.3196C61.18 32.0266 60.784 31.8802 60.2994 31.8802C59.9667 31.8802 59.6557 31.9688 59.3663 32.146C59.0806 32.3232 58.8492 32.5691 58.672 32.8838C58.4984 33.1948 58.4116 33.5546 58.4116 33.9633V39.1711H57.1313Z" fill="black" fill-opacity="0.4"/>
<path d="M34.583 87.0659V86.0894L38.2502 82.0751C38.6806 81.6049 39.035 81.1963 39.3135 80.8491C39.5919 80.4983 39.7981 80.1692 39.9319 79.8617C40.0693 79.5507 40.138 79.2252 40.138 78.8853C40.138 78.4947 40.044 78.1565 39.8559 77.8708C39.6715 77.5851 39.4183 77.3645 39.0965 77.209C38.7746 77.0535 38.4129 76.9757 38.0115 76.9757C37.5848 76.9757 37.2122 77.0643 36.894 77.2416C36.5794 77.4151 36.3352 77.6593 36.1616 77.9739C35.9917 78.2885 35.9067 78.6574 35.9067 79.0806H34.6264C34.6264 78.4296 34.7765 77.8582 35.0767 77.3663C35.3768 76.8745 35.7855 76.4911 36.3027 76.2163C36.8235 75.9414 37.4075 75.804 38.0549 75.804C38.7059 75.804 39.2827 75.9414 39.7854 76.2163C40.2881 76.4911 40.6823 76.8618 40.968 77.3284C41.2537 77.7949 41.3966 78.3139 41.3966 78.8853C41.3966 79.2939 41.3225 79.6936 41.1742 80.0842C41.0295 80.4711 40.7764 80.9033 40.4147 81.3807C40.0567 81.8545 39.5594 82.4331 38.9229 83.1166L36.4275 85.7857V85.8725H41.5919V87.0659H34.583ZM44.7871 87.1527C44.5195 87.1527 44.2898 87.0569 44.0982 86.8652C43.9065 86.6735 43.8106 86.4439 43.8106 86.1762C43.8106 85.9086 43.9065 85.679 44.0982 85.4873C44.2898 85.2956 44.5195 85.1998 44.7871 85.1998C45.0547 85.1998 45.2844 85.2956 45.4761 85.4873C45.6677 85.679 45.7636 85.9086 45.7636 86.1762C45.7636 86.3535 45.7184 86.5162 45.628 86.6645C45.5412 86.8128 45.4236 86.9321 45.2754 87.0225C45.1307 87.1093 44.9679 87.1527 44.7871 87.1527ZM51.2549 87.2178C50.5099 87.2178 49.8516 87.0858 49.2802 86.8218C48.7124 86.5542 48.2694 86.1871 47.9511 85.7206C47.6329 85.2504 47.4756 84.7152 47.4792 84.1148C47.4756 83.6447 47.5678 83.2107 47.7559 82.8129C47.9439 82.4114 48.2007 82.0769 48.5262 81.8093C48.8553 81.538 49.2224 81.3662 49.6274 81.2939V81.2288C49.0958 81.0914 48.6727 80.793 48.358 80.3337C48.0434 79.8708 47.8879 79.3446 47.8915 78.7551C47.8879 78.1909 48.0307 77.6864 48.32 77.2416C48.6094 76.7967 49.0072 76.4459 49.5135 76.1891C50.0234 75.9324 50.6039 75.804 51.2549 75.804C51.8986 75.804 52.4736 75.9324 52.98 76.1891C53.4863 76.4459 53.8841 76.7967 54.1734 77.2416C54.4664 77.6864 54.6146 78.1909 54.6183 78.7551C54.6146 79.3446 54.4537 79.8708 54.1355 80.3337C53.8208 80.793 53.4031 81.0914 52.8823 81.2288V81.2939C53.2838 81.3662 53.6454 81.538 53.9673 81.8093C54.2892 82.0769 54.5459 82.4114 54.7376 82.8129C54.9293 83.2107 55.0269 83.6447 55.0305 84.1148C55.0269 84.7152 54.8642 85.2504 54.5423 85.7206C54.2241 86.1871 53.781 86.5542 53.2132 86.8218C52.649 87.0858 51.9963 87.2178 51.2549 87.2178ZM51.2549 86.0244C51.7576 86.0244 52.1916 85.943 52.5568 85.7802C52.9221 85.6175 53.2042 85.3878 53.4031 85.0913C53.602 84.7947 53.7033 84.4475 53.7069 84.0497C53.7033 83.6302 53.5948 83.2595 53.3814 82.9376C53.168 82.6158 52.8769 82.3626 52.508 82.1781C52.1427 81.9937 51.725 81.9015 51.2549 81.9015C50.7811 81.9015 50.358 81.9937 49.9855 82.1781C49.6166 82.3626 49.3254 82.6158 49.1121 82.9376C48.9023 83.2595 48.7992 83.6302 48.8028 84.0497C48.7992 84.4475 48.8951 84.7947 49.0904 85.0913C49.2893 85.3878 49.5732 85.6175 49.9421 85.7802C50.3109 85.943 50.7486 86.0244 51.2549 86.0244ZM51.2549 80.7514C51.6527 80.7514 52.0053 80.6719 52.3127 80.5127C52.6237 80.3536 52.8679 80.1312 53.0451 79.8455C53.2223 79.5598 53.3127 79.2252 53.3163 78.8419C53.3127 78.4658 53.2241 78.1385 53.0505 77.86C52.8769 77.5779 52.6364 77.3609 52.329 77.209C52.0216 77.0535 51.6635 76.9757 51.2549 76.9757C50.839 76.9757 50.4755 77.0535 50.1645 77.209C49.8535 77.3609 49.613 77.5779 49.443 77.86C49.273 78.1385 49.1898 78.4658 49.1934 78.8419C49.1898 79.2252 49.2748 79.5598 49.4484 79.8455C49.6256 80.1312 49.8697 80.3536 50.1808 80.5127C50.4918 80.6719 50.8498 80.7514 51.2549 80.7514ZM57.1313 87.0659V78.7334H58.3682V80.0353H58.4767C58.6503 79.5905 58.9305 79.2451 59.3175 78.9992C59.7045 78.7497 60.1692 78.6249 60.7117 78.6249C61.2614 78.6249 61.7189 78.7497 62.0842 78.9992C62.4531 79.2451 62.7406 79.5905 62.9467 80.0353H63.0335C63.2469 79.605 63.567 79.2632 63.9937 79.01C64.4205 78.7533 64.9322 78.6249 65.5289 78.6249C66.274 78.6249 66.8833 78.8582 67.3571 79.3247C67.8309 79.7876 68.0678 80.5091 68.0678 81.4892V87.0659H66.7875V81.4892C66.7875 80.8744 66.6193 80.435 66.283 80.171C65.9467 79.907 65.5506 79.7749 65.095 79.7749C64.5091 79.7749 64.0552 79.9522 63.7333 80.3066C63.4115 80.6574 63.2505 81.1022 63.2505 81.6411V87.0659H61.9486V81.359C61.9486 80.8852 61.7949 80.5037 61.4875 80.2144C61.18 79.9214 60.784 79.7749 60.2994 79.7749C59.9667 79.7749 59.6557 79.8636 59.3663 80.0408C59.0806 80.218 58.8492 80.4639 58.672 80.7785C58.4984 81.0896 58.4116 81.4494 58.4116 81.8581V87.0659H57.1313Z" fill="black" fill-opacity="0.4"/>
<path d="M41.1145 123.851V134.961H39.7692V125.261H39.7041L36.9916 127.062V125.695L39.7692 123.851H41.1145ZM44.6081 135.047C44.3405 135.047 44.1108 134.952 43.9191 134.76C43.7275 134.568 43.6316 134.339 43.6316 134.071C43.6316 133.803 43.7275 133.574 43.9191 133.382C44.1108 133.19 44.3405 133.095 44.6081 133.095C44.8757 133.095 45.1054 133.19 45.2971 133.382C45.4887 133.574 45.5846 133.803 45.5846 134.071C45.5846 134.248 45.5394 134.411 45.4489 134.559C45.3622 134.708 45.2446 134.827 45.0963 134.917C44.9517 135.004 44.7889 135.047 44.6081 135.047ZM47.8603 134.961V133.984L51.5275 129.97C51.9578 129.5 52.3123 129.091 52.5907 128.744C52.8692 128.393 53.0754 128.064 53.2092 127.757C53.3466 127.445 53.4153 127.12 53.4153 126.78C53.4153 126.389 53.3213 126.051 53.1332 125.766C52.9488 125.48 52.6956 125.259 52.3737 125.104C52.0519 124.948 51.6902 124.871 51.2888 124.871C50.862 124.871 50.4895 124.959 50.1713 125.136C49.8566 125.31 49.6125 125.554 49.4389 125.869C49.2689 126.183 49.1839 126.552 49.1839 126.975H47.9037C47.9037 126.324 48.0538 125.753 48.3539 125.261C48.6541 124.769 49.0628 124.386 49.58 124.111C50.1007 123.836 50.6848 123.699 51.3322 123.699C51.9832 123.699 52.56 123.836 53.0627 124.111C53.5654 124.386 53.9596 124.757 54.2453 125.223C54.531 125.69 54.6739 126.209 54.6739 126.78C54.6739 127.189 54.5997 127.588 54.4515 127.979C54.3068 128.366 54.0536 128.798 53.692 129.275C53.3339 129.749 52.8367 130.328 52.2001 131.011L49.7047 133.68V133.767H54.8692V134.961H47.8603ZM57.1313 134.961V126.628H58.3682V127.93H58.4767C58.6503 127.485 58.9306 127.14 59.3175 126.894C59.7045 126.644 60.1692 126.52 60.7117 126.52C61.2614 126.52 61.7189 126.644 62.0842 126.894C62.4531 127.14 62.7406 127.485 62.9467 127.93H63.0335C63.2469 127.5 63.567 127.158 63.9937 126.905C64.4205 126.648 64.9322 126.52 65.529 126.52C66.274 126.52 66.8833 126.753 67.3571 127.219C67.8309 127.682 68.0678 128.404 68.0678 129.384V134.961H66.7875V129.384C66.7875 128.769 66.6193 128.33 66.283 128.066C65.9467 127.802 65.5506 127.67 65.095 127.67C64.5091 127.67 64.0552 127.847 63.7333 128.201C63.4115 128.552 63.2505 128.997 63.2505 129.536V134.961H61.9486V129.254C61.9486 128.78 61.7949 128.398 61.4875 128.109C61.18 127.816 60.784 127.67 60.2994 127.67C59.9667 127.67 59.6557 127.758 59.3663 127.936C59.0806 128.113 58.8492 128.359 58.672 128.673C58.4984 128.984 58.4116 129.344 58.4116 129.753V134.961H57.1313Z" fill="black" fill-opacity="0.4"/>
<line x1="90.2417" y1="41.903" x2="594.469" y2="41.903" stroke="black" stroke-opacity="0.05" stroke-width="1.27303" stroke-linecap="round"/>
<line x1="90.2417" y1="103.434" x2="594.469" y2="103.434" stroke="black" stroke-opacity="0.05" stroke-width="1.27303" stroke-linecap="round"/>
<line x1="90.2417" y1="164.965" x2="594.469" y2="164.965" stroke="black" stroke-opacity="0.05" stroke-width="1.27303" stroke-linecap="round"/>
<mask id="mask0_1_1754" style="mask-type:alpha" maskUnits="userSpaceOnUse" x="89" y="55" width="552" height="168">
<path d="M124.469 133.207C108.972 120.585 97.0939 125.994 89.6479 133.207V222.319H640.868V55.5527C606.048 55.5527 605.518 86.3813 560.715 70.1925C460.108 33.84 415.905 178.342 324.196 99.4722C276.708 58.6327 259.43 166.88 204.622 133.207C179.561 117.81 166.666 167.579 124.469 133.207Z" fill="url(#paint0_linear_1_1754)"/>
</mask>
<g mask="url(#mask0_1_1754)">
<path d="M124.469 133.207C108.972 120.585 97.0939 125.994 89.6479 133.207V222.319H640.868V55.5527C606.047 55.5527 605.518 86.3813 560.715 70.1925C460.108 33.84 415.905 178.342 324.196 99.4722C276.708 58.6327 259.43 166.88 204.622 133.207C179.561 117.81 166.666 167.579 124.469 133.207Z" fill="url(#paint1_linear_1_1754)"/>
</g>
<path d="M92.1941 133.207C99.6401 125.994 108.972 120.585 124.469 133.207C166.666 167.579 179.561 117.81 204.622 133.207C259.43 166.88 276.708 58.6327 324.196 99.4722C415.905 178.342 460.108 33.84 560.715 70.1925C605.518 86.3813 603.502 55.5527 638.322 55.5527" stroke="#34B57F" stroke-width="2" stroke-linecap="round"/>
</g>
</g>
<defs>
<filter id="filter0_dddddd_1_1754" x="0" y="0" width="620" height="236" filterUnits="userSpaceOnUse" color-interpolation-filters="sRGB">
<feFlood flood-opacity="0" result="BackgroundImageFix"/>
<feColorMatrix in="SourceAlpha" type="matrix" values="0 0 0 0 0 0 0 0 0 0 0 0 0 0 0 0 0 0 127 0" result="hardAlpha"/>
<feMorphology radius="16" operator="erode" in="SourceAlpha" result="effect1_dropShadow_1_1754"/>
<feOffset dy="32"/>
<feGaussianBlur stdDeviation="16"/>
<feComposite in2="hardAlpha" operator="out"/>
<feColorMatrix type="matrix" values="0 0 0 0 0.121569 0 0 0 0 0.0352941 0 0 0 0 0.305882 0 0 0 0.04 0"/>
<feBlend mode="normal" in2="BackgroundImageFix" result="effect1_dropShadow_1_1754"/>
<feColorMatrix in="SourceAlpha" type="matrix" values="0 0 0 0 0 0 0 0 0 0 0 0 0 0 0 0 0 0 127 0" result="hardAlpha"/>
<feMorphology radius="12" operator="erode" in="SourceAlpha" result="effect2_dropShadow_1_1754"/>
<feOffset dy="24"/>
<feGaussianBlur stdDeviation="12"/>
<feComposite in2="hardAlpha" operator="out"/>
<feColorMatrix type="matrix" values="0 0 0 0 0.121569 0 0 0 0 0.0352941 0 0 0 0 0.305882 0 0 0 0.04 0"/>
<feBlend mode="normal" in2="effect1_dropShadow_1_1754" result="effect2_dropShadow_1_1754"/>
<feColorMatrix in="SourceAlpha" type="matrix" values="0 0 0 0 0 0 0 0 0 0 0 0 0 0 0 0 0 0 127 0" result="hardAlpha"/>
<feMorphology radius="6" operator="erode" in="SourceAlpha" result="effect3_dropShadow_1_1754"/>
<feOffset dy="12"/>
<feGaussianBlur stdDeviation="6"/>
<feComposite in2="hardAlpha" operator="out"/>
<feColorMatrix type="matrix" values="0 0 0 0 0.121569 0 0 0 0 0.0352941 0 0 0 0 0.305882 0 0 0 0.04 0"/>
<feBlend mode="normal" in2="effect2_dropShadow_1_1754" result="effect3_dropShadow_1_1754"/>
<feColorMatrix in="SourceAlpha" type="matrix" values="0 0 0 0 0 0 0 0 0 0 0 0 0 0 0 0 0 0 127 0" result="hardAlpha"/>
<feMorphology radius="3" operator="erode" in="SourceAlpha" result="effect4_dropShadow_1_1754"/>
<feOffset dy="6"/>
<feGaussianBlur stdDeviation="3"/>
<feComposite in2="hardAlpha" operator="out"/>
<feColorMatrix type="matrix" values="0 0 0 0 0.121569 0 0 0 0 0.0352941 0 0 0 0 0.305882 0 0 0 0.04 0"/>
<feBlend mode="normal" in2="effect3_dropShadow_1_1754" result="effect4_dropShadow_1_1754"/>
<feColorMatrix in="SourceAlpha" type="matrix" values="0 0 0 0 0 0 0 0 0 0 0 0 0 0 0 0 0 0 127 0" result="hardAlpha"/>
<feMorphology radius="1.5" operator="erode" in="SourceAlpha" result="effect5_dropShadow_1_1754"/>
<feOffset dy="3"/>
<feGaussianBlur stdDeviation="1.5"/>
<feComposite in2="hardAlpha" operator="out"/>
<feColorMatrix type="matrix" values="0 0 0 0 0.121569 0 0 0 0 0.0352941 0 0 0 0 0.305882 0 0 0 0.04 0"/>
<feBlend mode="normal" in2="effect4_dropShadow_1_1754" result="effect5_dropShadow_1_1754"/>
<feColorMatrix in="SourceAlpha" type="matrix" values="0 0 0 0 0 0 0 0 0 0 0 0 0 0 0 0 0 0 127 0" result="hardAlpha"/>
<feMorphology radius="1" operator="dilate" in="SourceAlpha" result="effect6_dropShadow_1_1754"/>
<feOffset/>
<feComposite in2="hardAlpha" operator="out"/>
<feColorMatrix type="matrix" values="0 0 0 0 0.121569 0 0 0 0 0.0352941 0 0 0 0 0.305882 0 0 0 0.04 0"/>
<feBlend mode="normal" in2="effect5_dropShadow_1_1754" result="effect6_dropShadow_1_1754"/>
<feBlend mode="normal" in="SourceGraphic" in2="effect6_dropShadow_1_1754" result="shape"/>
</filter>
<linearGradient id="paint0_linear_1_1754" x1="89.6479" y1="173.944" x2="640.868" y2="98.1991" gradientUnits="userSpaceOnUse">
<stop offset="0.00860117" stop-color="#95A4FC" stop-opacity="0"/>
<stop offset="0.178635" stop-color="#95A4FC"/>
<stop offset="0.63031" stop-color="#95A4FC"/>
<stop offset="1" stop-color="#95A4FC" stop-opacity="0"/>
</linearGradient>
<linearGradient id="paint1_linear_1_1754" x1="358.893" y1="55.5527" x2="365.895" y2="159.941" gradientUnits="userSpaceOnUse">
<stop stop-color="#34B57F" stop-opacity="0.4"/>
<stop offset="1" stop-color="#34B57F" stop-opacity="0"/>
</linearGradient>
<clipPath id="clip0_1_1754">
<path d="M16 17C16 8.16345 23.1634 1 32 1H604V188H32C23.1634 188 16 180.837 16 172V17Z" fill="white"/>
</clipPath>
</defs>
</svg>
